<?xml version="1.0" encoding="UTF-8" standalone="no"?>
<!DOCTYPE svg PUBLIC "-//W3C//DTD SVG 1.1//EN"
 "http://www.w3.org/Graphics/SVG/1.1/DTD/svg11.dtd">
<!-- Generated by graphviz version 2.40.1 (20161225.0304)
 -->
<!-- Title: G Pages: 1 -->
<svg width="548pt" height="2000pt"
 viewBox="0.00 0.00 548.12 2000.00" xmlns="http://www.w3.org/2000/svg" xmlns:xlink="http://www.w3.org/1999/xlink">
<g id="graph0" class="graph" transform="scale(1 1) rotate(0) translate(4 1996)">
<title>G</title>
<polygon fill="#ffffff" stroke="transparent" points="-4,4 -4,-1996 544.1155,-1996 544.1155,4 -4,4"/>
<!-- A0 -->
<g id="node1" class="node">
<title>A0</title>
<polygon fill="#fff8dc" stroke="#000000" points="239.7476,-1972 141.4834,-1972 141.4834,-1928 245.7476,-1928 245.7476,-1966 239.7476,-1972"/>
<polyline fill="none" stroke="#000000" points="239.7476,-1972 239.7476,-1966 "/>
<polyline fill="none" stroke="#000000" points="245.7476,-1966 239.7476,-1966 "/>
<text text-anchor="middle" x="193.6155" y="-1959" font-family="Helvetica,sans-Serif" font-size="10.00" fill="#000000">Example of</text>
<text text-anchor="middle" x="193.6155" y="-1947" font-family="Helvetica,sans-Serif" font-size="10.00" fill="#000000">instantiation for a</text>
<text text-anchor="middle" x="193.6155" y="-1935" font-family="Helvetica,sans-Serif" font-size="10.00" fill="#000000">GEN3 inverter!</text>
</g>
<!-- A1 -->
<g id="node2" class="node">
<title>A1</title>
<polygon fill="none" stroke="#000000" points="263.6155,-1960 263.6155,-1992 379.6155,-1992 379.6155,-1960 263.6155,-1960"/>
<text text-anchor="start" x="273.2645" y="-1973" font-family="Helvetica,sans-Serif" font-size="10.00" fill="#000000">&lt;&lt;AbstractIterMeta&gt;&gt;</text>
<polygon fill="none" stroke="#000000" points="263.6155,-1940 263.6155,-1960 379.6155,-1960 379.6155,-1940 263.6155,-1940"/>
<polygon fill="none" stroke="#000000" points="263.6155,-1908 263.6155,-1940 379.6155,-1940 379.6155,-1908 263.6155,-1908"/>
<text text-anchor="start" x="300.2255" y="-1921" font-family="Helvetica,sans-Serif" font-size="10.00" fill="#000000">__iter__()</text>
</g>
<!-- A15 -->
<g id="node16" class="node">
<title>A15</title>
<polygon fill="none" stroke="#000000" points="276.6155,-1748 276.6155,-1780 366.6155,-1780 366.6155,-1748 276.6155,-1748"/>
<text text-anchor="start" x="286.322" y="-1761" font-family="Helvetica,sans-Serif" font-size="10.00" fill="#000000">&lt;&lt;ProtocolIfc&gt;&gt;</text>
<polygon fill="none" stroke="#000000" points="276.6155,-1716 276.6155,-1748 366.6155,-1748 366.6155,-1716 276.6155,-1716"/>
<text text-anchor="start" x="302.449" y="-1729" font-family="Helvetica,sans-Serif" font-size="10.00" fill="#000000">_registry</text>
<polygon fill="none" stroke="#000000" points="276.6155,-1684 276.6155,-1716 366.6155,-1716 366.6155,-1684 276.6155,-1684"/>
<text text-anchor="start" x="306.618" y="-1697" font-family="Helvetica,sans-Serif" font-size="10.00" fill="#000000">close()</text>
</g>
<!-- A1&#45;&gt;A15 -->
<g id="edge15" class="edge">
<title>A1&#45;&gt;A15</title>
<path fill="none" stroke="#000000" stroke-dasharray="5,2" d="M321.6155,-1897.756C321.6155,-1862.0883 321.6155,-1815.1755 321.6155,-1780.3644"/>
<polygon fill="none" stroke="#000000" points="318.1156,-1897.9674 321.6155,-1907.9674 325.1156,-1897.9674 318.1156,-1897.9674"/>
</g>
<!-- A2 -->
<g id="node3" class="node">
<title>A2</title>
<polygon fill="none" stroke="#000000" points="77.6155,-662 77.6155,-694 175.6155,-694 175.6155,-662 77.6155,-662"/>
<text text-anchor="start" x="98.2755" y="-675" font-family="Helvetica,sans-Serif" font-size="10.00" fill="#000000">InverterBase</text>
<polygon fill="none" stroke="#000000" points="77.6155,-606 77.6155,-662 175.6155,-662 175.6155,-606 77.6155,-606"/>
<text text-anchor="start" x="116.6125" y="-643" font-family="Helvetica,sans-Serif" font-size="10.00" fill="#000000">addr</text>
<text text-anchor="start" x="87.1685" y="-631" font-family="Helvetica,sans-Serif" font-size="10.00" fill="#000000">remote:StreamPtr</text>
<text text-anchor="start" x="92.4475" y="-619" font-family="Helvetica,sans-Serif" font-size="10.00" fill="#000000">local:StreamPtr</text>
<polygon fill="none" stroke="#000000" points="77.6155,-550 77.6155,-606 175.6155,-606 175.6155,-550 77.6155,-550"/>
<text text-anchor="start" x="91.0575" y="-587" font-family="Helvetica,sans-Serif" font-size="10.00" fill="#000000">create_remote()</text>
<text text-anchor="start" x="111.618" y="-563" font-family="Helvetica,sans-Serif" font-size="10.00" fill="#000000">close()</text>
</g>
<!-- A3 -->
<g id="node4" class="node">
<title>A3</title>
<polygon fill="none" stroke="#000000" points="75.3469,-320 -.1159,-320 -.1159,-284 75.3469,-284 75.3469,-320"/>
<text text-anchor="middle" x="37.6155" y="-299" font-family="Helvetica,sans-Serif" font-size="10.00" fill="#000000">InverterG3</text>
</g>
<!-- A2&#45;&gt;A3 -->
<g id="edge1" class="edge">
<title>A2&#45;&gt;A3</title>
<path fill="none" stroke="#000000" d="M103.8,-539.9668C83.1352,-465.6664 54.2132,-361.677 42.6665,-320.1609"/>
<polygon fill="none" stroke="#000000" points="100.4796,-541.0903 106.5312,-549.7868 107.2236,-539.2146 100.4796,-541.0903"/>
</g>
<!-- A4 -->
<g id="node5" class="node">
<title>A4</title>
<polygon fill="none" stroke="#000000" points="189.9521,-320 93.2789,-320 93.2789,-284 189.9521,-284 189.9521,-320"/>
<text text-anchor="middle" x="141.6155" y="-299" font-family="Helvetica,sans-Serif" font-size="10.00" fill="#000000">local:StreamPtr</text>
</g>
<!-- A2&#45;&gt;A4 -->
<g id="edge2" class="edge">
<title>A2&#45;&gt;A4</title>
<path fill="none" stroke="#000000" d="M130.5679,-537.6831C133.7849,-469.0527 138.1335,-376.283 140.2896,-330.2853"/>
<polygon fill="#000000" stroke="#000000" points="130.5625,-537.7999 134.2771,-543.9807 130.0005,-549.7868 126.2859,-543.606 130.5625,-537.7999"/>
<polygon fill="#000000" stroke="#000000" points="140.7642,-320.1609 144.7909,-330.3606 140.53,-325.1554 140.2959,-330.1499 140.2959,-330.1499 140.2959,-330.1499 140.53,-325.1554 135.8008,-329.9391 140.7642,-320.1609 140.7642,-320.1609"/>
</g>
<!-- A5 -->
<g id="node6" class="node">
<title>A5</title>
<polygon fill="none" stroke="#000000" points="315.0096,-320 208.2214,-320 208.2214,-284 315.0096,-284 315.0096,-320"/>
<text text-anchor="middle" x="261.6155" y="-299" font-family="Helvetica,sans-Serif" font-size="10.00" fill="#000000">remote:StreamPtr</text>
</g>
<!-- A2&#45;&gt;A5 -->
<g id="edge3" class="edge">
<title>A2&#45;&gt;A5</title>
<path fill="none" stroke="#000000" d="M157.861,-538.7126C166.3035,-516.9056 175.6035,-493.4873 184.6155,-472 205.944,-421.1467 232.9474,-362.7699 248.6524,-329.3512"/>
<polygon fill="#000000" stroke="#000000" points="157.8454,-538.7533 159.4203,-545.7903 153.5304,-549.9506 151.9554,-542.9136 157.8454,-538.7533"/>
<polygon fill="#000000" stroke="#000000" points="252.9567,-320.2155 252.7653,-331.1797 250.8256,-324.7387 248.6945,-329.2618 248.6945,-329.2618 248.6945,-329.2618 250.8256,-324.7387 244.6237,-327.3438 252.9567,-320.2155 252.9567,-320.2155"/>
</g>
<!-- A9 -->
<g id="node10" class="node">
<title>A9</title>
<polygon fill="none" stroke="#000000" points="128.6155,-100 128.6155,-132 306.6155,-132 306.6155,-100 128.6155,-100"/>
<text text-anchor="start" x="173.167" y="-113" font-family="Helvetica,sans-Serif" font-size="10.00" fill="#000000">AsyncStreamServer</text>
<polygon fill="none" stroke="#000000" points="128.6155,-68 128.6155,-100 306.6155,-100 306.6155,-68 128.6155,-68"/>
<text text-anchor="start" x="185.3865" y="-81" font-family="Helvetica,sans-Serif" font-size="10.00" fill="#000000">create_remote</text>
<polygon fill="none" stroke="#000000" points="128.6155,0 128.6155,-68 306.6155,-68 306.6155,0 128.6155,0"/>
<text text-anchor="start" x="169.273" y="-49" font-family="Helvetica,sans-Serif" font-size="10.00" fill="#000000">&lt;async&gt;server_loop()</text>
<text text-anchor="start" x="160.104" y="-37" font-family="Helvetica,sans-Serif" font-size="10.00" fill="#000000">&lt;async&gt;_async_forward()</text>
<text text-anchor="start" x="138.4245" y="-25" font-family="Helvetica,sans-Serif" font-size="10.00" fill="#000000">&lt;async&gt;publish_outstanding_mqtt()</text>
<text text-anchor="start" x="202.618" y="-13" font-family="Helvetica,sans-Serif" font-size="10.00" fill="#000000">close()</text>
</g>
<!-- A4&#45;&gt;A9 -->
<g id="edge9" class="edge">
<title>A4&#45;&gt;A9</title>
<path fill="none" stroke="#000000" d="M151.2355,-272.1274C161.7441,-239.4955 178.9835,-185.9626 193.26,-141.6303"/>
<polygon fill="#000000" stroke="#000000" points="151.1313,-272.451 153.0996,-279.3883 147.4529,-283.8733 145.4847,-276.936 151.1313,-272.451"/>
<polygon fill="#000000" stroke="#000000" points="196.3509,-132.0321 197.5689,-142.9302 194.8182,-136.7914 193.2855,-141.5507 193.2855,-141.5507 193.2855,-141.5507 194.8182,-136.7914 189.0022,-140.1713 196.3509,-132.0321 196.3509,-132.0321"/>
</g>
<!-- A10 -->
<g id="node11" class="node">
<title>A10</title>
<polygon fill="none" stroke="#000000" points="362.6155,-82 362.6155,-114 500.6155,-114 500.6155,-82 362.6155,-82"/>
<text text-anchor="start" x="389.1125" y="-95" font-family="Helvetica,sans-Serif" font-size="10.00" fill="#000000">AsyncStreamClient</text>
<polygon fill="none" stroke="#000000" points="362.6155,-62 362.6155,-82 500.6155,-82 500.6155,-62 362.6155,-62"/>
<polygon fill="none" stroke="#000000" points="362.6155,-18 362.6155,-62 500.6155,-62 500.6155,-18 362.6155,-18"/>
<text text-anchor="start" x="385.4935" y="-43" font-family="Helvetica,sans-Serif" font-size="10.00" fill="#000000">&lt;async&gt;client_loop()</text>
<text text-anchor="start" x="372.4395" y="-31" font-family="Helvetica,sans-Serif" font-size="10.00" fill="#000000">&lt;async&gt;_async_forward())</text>
</g>
<!-- A5&#45;&gt;A10 -->
<g id="edge11" class="edge">
<title>A5&#45;&gt;A10</title>
<path fill="none" stroke="#000000" d="M269.2148,-283.6405C279.6962,-259.3121 299.996,-215.5582 323.6155,-182 338.3046,-161.1299 356.5265,-140.1557 373.793,-121.8925"/>
<polygon fill="#000000" stroke="#000000" points="381.1214,-114.2395 377.4553,-124.5745 377.6632,-117.8508 374.2051,-121.4621 374.2051,-121.4621 374.2051,-121.4621 377.6632,-117.8508 370.9549,-118.3498 381.1214,-114.2395 381.1214,-114.2395"/>
<text text-anchor="middle" x="268.7308" y="-260.6464" font-family="Helvetica,sans-Serif" font-size="10.00" fill="#000000">0..1</text>
</g>
<!-- A6 -->
<g id="node7" class="node">
<title>A6</title>
<polygon fill="none" stroke="#000000" points="396.6155,-1114 396.6155,-1146 513.6155,-1146 513.6155,-1114 396.6155,-1114"/>
<text text-anchor="start" x="424.5445" y="-1127" font-family="Helvetica,sans-Serif" font-size="10.00" fill="#000000">&lt;&lt;AsyncIfc&gt;&gt;</text>
<polygon fill="none" stroke="#000000" points="396.6155,-1094 396.6155,-1114 513.6155,-1114 513.6155,-1094 396.6155,-1094"/>
<polygon fill="none" stroke="#000000" points="396.6155,-822 396.6155,-1094 513.6155,-1094 513.6155,-822 396.6155,-822"/>
<text text-anchor="start" x="424.5515" y="-1075" font-family="Helvetica,sans-Serif" font-size="10.00" fill="#000000">set_node_id()</text>
<text text-anchor="start" x="422.8815" y="-1063" font-family="Helvetica,sans-Serif" font-size="10.00" fill="#000000">get_conn_no()</text>
<text text-anchor="start" x="436.779" y="-1039" font-family="Helvetica,sans-Serif" font-size="10.00" fill="#000000">tx_add()</text>
<text text-anchor="start" x="434.5595" y="-1027" font-family="Helvetica,sans-Serif" font-size="10.00" fill="#000000">tx_flush()</text>
<text text-anchor="start" x="438.169" y="-1015" font-family="Helvetica,sans-Serif" font-size="10.00" fill="#000000">tx_get()</text>
<text text-anchor="start" x="434.279" y="-1003" font-family="Helvetica,sans-Serif" font-size="10.00" fill="#000000">tx_peek()</text>
<text text-anchor="start" x="438.449" y="-991" font-family="Helvetica,sans-Serif" font-size="10.00" fill="#000000">tx_log()</text>
<text text-anchor="start" x="434.2845" y="-979" font-family="Helvetica,sans-Serif" font-size="10.00" fill="#000000">tx_clear()</text>
<text text-anchor="start" x="438.449" y="-967" font-family="Helvetica,sans-Serif" font-size="10.00" fill="#000000">tx_len()</text>
<text text-anchor="start" x="432.89" y="-943" font-family="Helvetica,sans-Serif" font-size="10.00" fill="#000000">fwd_add()</text>
<text text-anchor="start" x="434.56" y="-931" font-family="Helvetica,sans-Serif" font-size="10.00" fill="#000000">fwd_log()</text>
<text text-anchor="start" x="437.894" y="-919" font-family="Helvetica,sans-Serif" font-size="10.00" fill="#000000">rx_get()</text>
<text text-anchor="start" x="434.004" y="-907" font-family="Helvetica,sans-Serif" font-size="10.00" fill="#000000">rx_peek()</text>
<text text-anchor="start" x="438.174" y="-895" font-family="Helvetica,sans-Serif" font-size="10.00" fill="#000000">rx_log()</text>
<text text-anchor="start" x="434.0095" y="-883" font-family="Helvetica,sans-Serif" font-size="10.00" fill="#000000">rx_clear()</text>
<text text-anchor="start" x="438.174" y="-871" font-family="Helvetica,sans-Serif" font-size="10.00" fill="#000000">rx_len()</text>
<text text-anchor="start" x="430.1145" y="-859" font-family="Helvetica,sans-Serif" font-size="10.00" fill="#000000">rx_set_cb()</text>
<text text-anchor="start" x="406.495" y="-835" font-family="Helvetica,sans-Serif" font-size="10.00" fill="#000000">prot_set_timeout_cb()</text>
</g>
<!-- A7 -->
<g id="node8" class="node">
<title>A7</title>
<polygon fill="none" stroke="#000000" points="447.6155,-652 447.6155,-684 540.6155,-684 540.6155,-652 447.6155,-652"/>
<text text-anchor="start" x="465.7795" y="-665" font-family="Helvetica,sans-Serif" font-size="10.00" fill="#000000">AsyncIfcImpl</text>
<polygon fill="none" stroke="#000000" points="447.6155,-560 447.6155,-652 540.6155,-652 540.6155,-560 447.6155,-560"/>
<text text-anchor="start" x="457.1635" y="-633" font-family="Helvetica,sans-Serif" font-size="10.00" fill="#000000">fwd_fifo:ByteFifo</text>
<text text-anchor="start" x="461.0525" y="-621" font-family="Helvetica,sans-Serif" font-size="10.00" fill="#000000">tx_fifo:ByteFifo</text>
<text text-anchor="start" x="460.7775" y="-609" font-family="Helvetica,sans-Serif" font-size="10.00" fill="#000000">rx_fifo:ByteFifo</text>
<text text-anchor="start" x="460.2115" y="-597" font-family="Helvetica,sans-Serif" font-size="10.00" fill="#000000">conn_no:Count</text>
<text text-anchor="start" x="476.329" y="-585" font-family="Helvetica,sans-Serif" font-size="10.00" fill="#000000">node_id</text>
<text text-anchor="start" x="469.665" y="-573" font-family="Helvetica,sans-Serif" font-size="10.00" fill="#000000">timeout_cb</text>
</g>
<!-- A6&#45;&gt;A7 -->
<g id="edge4" class="edge">
<title>A6&#45;&gt;A7</title>
<path fill="none" stroke="#000000" stroke-dasharray="5,2" d="M473.1735,-811.7434C478.1009,-766.0069 483.1088,-719.5241 486.9345,-684.013"/>
<polygon fill="none" stroke="#000000" points="469.682,-811.4771 472.0907,-821.7945 476.6418,-812.227 469.682,-811.4771"/>
</g>
<!-- A8 -->
<g id="node9" class="node">
<title>A8</title>
<polygon fill="none" stroke="#000000" points="418.6155,-390 418.6155,-422 520.6155,-422 520.6155,-390 418.6155,-390"/>
<text text-anchor="start" x="439.8895" y="-403" font-family="Helvetica,sans-Serif" font-size="10.00" fill="#000000">AsyncStream</text>
<polygon fill="none" stroke="#000000" points="418.6155,-310 418.6155,-390 520.6155,-390 520.6155,-310 418.6155,-310"/>
<text text-anchor="start" x="455.1685" y="-371" font-family="Helvetica,sans-Serif" font-size="10.00" fill="#000000">reader</text>
<text text-anchor="start" x="457.3985" y="-359" font-family="Helvetica,sans-Serif" font-size="10.00" fill="#000000">writer</text>
<text text-anchor="start" x="459.6125" y="-347" font-family="Helvetica,sans-Serif" font-size="10.00" fill="#000000">addr</text>
<text text-anchor="start" x="455.1685" y="-335" font-family="Helvetica,sans-Serif" font-size="10.00" fill="#000000">r_addr</text>
<text text-anchor="start" x="455.7235" y="-323" font-family="Helvetica,sans-Serif" font-size="10.00" fill="#000000">l_addr</text>
<polygon fill="none" stroke="#000000" points="418.6155,-182 418.6155,-310 520.6155,-310 520.6155,-182 418.6155,-182"/>
<text text-anchor="start" x="441.2695" y="-279" font-family="Helvetica,sans-Serif" font-size="10.00" fill="#000000">&lt;async&gt;loop</text>
<text text-anchor="start" x="457.3975" y="-267" font-family="Helvetica,sans-Serif" font-size="10.00" fill="#000000">disc()</text>
<text text-anchor="start" x="454.618" y="-255" font-family="Helvetica,sans-Serif" font-size="10.00" fill="#000000">close()</text>
<text text-anchor="start" x="450.1695" y="-243" font-family="Helvetica,sans-Serif" font-size="10.00" fill="#000000">healthy()</text>
<text text-anchor="start" x="434.886" y="-219" font-family="Helvetica,sans-Serif" font-size="10.00" fill="#000000">__async_read()</text>
<text text-anchor="start" x="434.3365" y="-207" font-family="Helvetica,sans-Serif" font-size="10.00" fill="#000000">__async_write()</text>
<text text-anchor="start" x="428.2225" y="-195" font-family="Helvetica,sans-Serif" font-size="10.00" fill="#000000">__async_forward()</text>
</g>
<!-- A7&#45;&gt;A8 -->
<g id="edge5" class="edge">
<title>A7&#45;&gt;A8</title>
<path fill="none" stroke="#000000" d="M488.1838,-549.5774C485.3646,-511.9877 481.8463,-465.0771 478.6327,-422.2295"/>
<polygon fill="none" stroke="#000000" points="484.7214,-550.2112 488.9596,-559.9214 491.7018,-549.6876 484.7214,-550.2112"/>
</g>
<!-- A8&#45;&gt;A9 -->
<g id="edge6" class="edge">
<title>A8&#45;&gt;A9</title>
<path fill="none" stroke="#000000" d="M412.0877,-185.8777C410.9473,-184.56 409.7899,-183.2666 408.6155,-182 380.1271,-151.2753 341.6819,-125.829 306.7513,-106.6759"/>
<polygon fill="none" stroke="#000000" points="409.4058,-188.1271 418.4338,-193.672 414.834,-183.7074 409.4058,-188.1271"/>
</g>
<!-- A8&#45;&gt;A10 -->
<g id="edge7" class="edge">
<title>A8&#45;&gt;A10</title>
<path fill="none" stroke="#000000" d="M448.6523,-171.8077C445.3431,-151.2556 442.1142,-131.2022 439.3729,-114.1772"/>
<polygon fill="none" stroke="#000000" points="445.2363,-172.6095 450.2815,-181.9259 452.1472,-171.4966 445.2363,-172.6095"/>
</g>
<!-- A11 -->
<g id="node12" class="node">
<title>A11</title>
<polygon fill="none" stroke="#000000" points="193.6155,-740 193.6155,-772 307.6155,-772 307.6155,-740 193.6155,-740"/>
<text text-anchor="start" x="236.7235" y="-753" font-family="Helvetica,sans-Serif" font-size="10.00" fill="#000000">Talent</text>
<polygon fill="none" stroke="#000000" points="193.6155,-600 193.6155,-740 307.6155,-740 307.6155,-600 193.6155,-600"/>
<text text-anchor="start" x="231.4385" y="-721" font-family="Helvetica,sans-Serif" font-size="10.00" fill="#000000">conn_no</text>
<text text-anchor="start" x="240.6125" y="-709" font-family="Helvetica,sans-Serif" font-size="10.00" fill="#000000">addr</text>
<text text-anchor="start" x="203.3785" y="-685" font-family="Helvetica,sans-Serif" font-size="10.00" fill="#000000">await_conn_resp_cnt</text>
<text text-anchor="start" x="238.393" y="-673" font-family="Helvetica,sans-Serif" font-size="10.00" fill="#000000">id_str</text>
<text text-anchor="start" x="219.2155" y="-661" font-family="Helvetica,sans-Serif" font-size="10.00" fill="#000000">contact_name</text>
<text text-anchor="start" x="222.5555" y="-649" font-family="Helvetica,sans-Serif" font-size="10.00" fill="#000000">contact_mail</text>
<text text-anchor="start" x="226.16" y="-637" font-family="Helvetica,sans-Serif" font-size="10.00" fill="#000000">db:InfosG3</text>
<text text-anchor="start" x="224.4995" y="-625" font-family="Helvetica,sans-Serif" font-size="10.00" fill="#000000">mb:Modbus</text>
<text text-anchor="start" x="236.7275" y="-613" font-family="Helvetica,sans-Serif" font-size="10.00" fill="#000000">switch</text>
<polygon fill="none" stroke="#000000" points="193.6155,-472 193.6155,-600 307.6155,-600 307.6155,-472 193.6155,-472"/>
<text text-anchor="start" x="208.108" y="-581" font-family="Helvetica,sans-Serif" font-size="10.00" fill="#000000">msg_contact_info()</text>
<text text-anchor="start" x="210.048" y="-569" font-family="Helvetica,sans-Serif" font-size="10.00" fill="#000000">msg_ota_update()</text>
<text text-anchor="start" x="215.892" y="-557" font-family="Helvetica,sans-Serif" font-size="10.00" fill="#000000">msg_get_time()</text>
<text text-anchor="start" x="203.944" y="-545" font-family="Helvetica,sans-Serif" font-size="10.00" fill="#000000">msg_collector_data()</text>
<text text-anchor="start" x="205.889" y="-533" font-family="Helvetica,sans-Serif" font-size="10.00" fill="#000000">msg_inverter_data()</text>
<text text-anchor="start" x="215.056" y="-521" font-family="Helvetica,sans-Serif" font-size="10.00" fill="#000000">msg_unknown()</text>
<text text-anchor="start" x="231.1695" y="-497" font-family="Helvetica,sans-Serif" font-size="10.00" fill="#000000">healthy()</text>
<text text-anchor="start" x="235.618" y="-485" font-family="Helvetica,sans-Serif" font-size="10.00" fill="#000000">close()</text>
</g>
<!-- A11&#45;&gt;A4 -->
<g id="edge8" class="edge">
<title>A11&#45;&gt;A4</title>
<path fill="none" stroke="#000000" d="M196.2254,-462.3225C179.1579,-412.2162 162.0761,-362.0677 151.6753,-331.5332"/>
<polygon fill="#000000" stroke="#000000" points="199.4666,-471.8382 191.9826,-463.8233 197.8544,-467.1053 196.2422,-462.3723 196.2422,-462.3723 196.2422,-462.3723 197.8544,-467.1053 200.5019,-460.9213 199.4666,-471.8382 199.4666,-471.8382"/>
<polygon fill="#000000" stroke="#000000" points="151.6435,-331.4398 145.9225,-327.05 147.7742,-320.0807 153.4952,-324.4705 151.6435,-331.4398"/>
</g>
<!-- A11&#45;&gt;A5 -->
<g id="edge10" class="edge">
<title>A11&#45;&gt;A5</title>
<path fill="none" stroke="#000000" d="M256.1287,-461.6172C258.0803,-404.8425 260.0297,-348.132 260.994,-320.0807"/>
<polygon fill="#000000" stroke="#000000" points="255.7773,-471.8382 251.6236,-461.6895 255.9491,-466.8412 256.121,-461.8441 256.121,-461.8441 256.121,-461.8441 255.9491,-466.8412 260.6183,-461.9988 255.7773,-471.8382 255.7773,-471.8382"/>
<text text-anchor="middle" x="268.8186" y="-335.4866" font-family="Helvetica,sans-Serif" font-size="10.00" fill="#000000">0..1</text>
</g>
<!-- A13 -->
<g id="node14" class="node">
<title>A13</title>
<polygon fill="none" stroke="#000000" points="333.6155,-318 333.6155,-350 400.6155,-350 400.6155,-318 333.6155,-318"/>
<text text-anchor="start" x="349.6085" y="-331" font-family="Helvetica,sans-Serif" font-size="10.00" fill="#000000">InfosG3</text>
<polygon fill="none" stroke="#000000" points="333.6155,-298 333.6155,-318 400.6155,-318 400.6155,-298 333.6155,-298"/>
<polygon fill="none" stroke="#000000" points="333.6155,-254 333.6155,-298 400.6155,-298 400.6155,-254 333.6155,-254"/>
<text text-anchor="start" x="343.4995" y="-279" font-family="Helvetica,sans-Serif" font-size="10.00" fill="#000000">ha_confs()</text>
<text text-anchor="start" x="351.2835" y="-267" font-family="Helvetica,sans-Serif" font-size="10.00" fill="#000000">parse()</text>
</g>
<!-- A11&#45;&gt;A13 -->
<g id="edge13" class="edge">
<title>A11&#45;&gt;A13</title>
<path fill="none" stroke="#000000" d="M305.5203,-471.8728C311.6394,-455.0532 317.7699,-438.1631 323.6155,-422 330.9569,-401.7009 338.9463,-379.4498 346.0242,-359.681"/>
<polygon fill="#000000" stroke="#000000" points="349.4187,-350.1951 350.2862,-361.1266 347.734,-354.9028 346.0494,-359.6104 346.0494,-359.6104 346.0494,-359.6104 347.734,-354.9028 341.8125,-358.0942 349.4187,-350.1951 349.4187,-350.1951"/>
</g>
<!-- A12 -->
<g id="node13" class="node">
<title>A12</title>
<polygon fill="none" stroke="#000000" points="326.6155,-710 326.6155,-742 429.6155,-742 429.6155,-710 326.6155,-710"/>
<text text-anchor="start" x="367.2775" y="-723" font-family="Helvetica,sans-Serif" font-size="10.00" fill="#000000">Infos</text>
<polygon fill="none" stroke="#000000" points="326.6155,-654 326.6155,-710 429.6155,-710 429.6155,-654 326.6155,-654"/>
<text text-anchor="start" x="370.057" y="-691" font-family="Helvetica,sans-Serif" font-size="10.00" fill="#000000">stat</text>
<text text-anchor="start" x="345.6015" y="-679" font-family="Helvetica,sans-Serif" font-size="10.00" fill="#000000">new_stat_data</text>
<text text-anchor="start" x="359.219" y="-667" font-family="Helvetica,sans-Serif" font-size="10.00" fill="#000000">info_dev</text>
<polygon fill="none" stroke="#000000" points="326.6155,-502 326.6155,-654 429.6155,-654 429.6155,-502 326.6155,-502"/>
<text text-anchor="start" x="353.951" y="-635" font-family="Helvetica,sans-Serif" font-size="10.00" fill="#000000">static_init()</text>
<text text-anchor="start" x="352" y="-623" font-family="Helvetica,sans-Serif" font-size="10.00" fill="#000000">dev_value()</text>
<text text-anchor="start" x="348.946" y="-611" font-family="Helvetica,sans-Serif" font-size="10.00" fill="#000000">inc_counter()</text>
<text text-anchor="start" x="347.276" y="-599" font-family="Helvetica,sans-Serif" font-size="10.00" fill="#000000">dec_counter()</text>
<text text-anchor="start" x="345.3255" y="-587" font-family="Helvetica,sans-Serif" font-size="10.00" fill="#000000">ha_proxy_conf</text>
<text text-anchor="start" x="360.3285" y="-575" font-family="Helvetica,sans-Serif" font-size="10.00" fill="#000000">ha_conf</text>
<text text-anchor="start" x="353.1095" y="-563" font-family="Helvetica,sans-Serif" font-size="10.00" fill="#000000">ha_remove</text>
<text text-anchor="start" x="354.49" y="-551" font-family="Helvetica,sans-Serif" font-size="10.00" fill="#000000">update_db</text>
<text text-anchor="start" x="338.6525" y="-539" font-family="Helvetica,sans-Serif" font-size="10.00" fill="#000000">set_db_def_value</text>
<text text-anchor="start" x="348.101" y="-527" font-family="Helvetica,sans-Serif" font-size="10.00" fill="#000000">get_db_value</text>
<text text-anchor="start" x="336.438" y="-515" font-family="Helvetica,sans-Serif" font-size="10.00" fill="#000000">ignore_this_device</text>
</g>
<!-- A12&#45;&gt;A13 -->
<g id="edge12" class="edge">
<title>A12&#45;&gt;A13</title>
<path fill="none" stroke="#000000" d="M373.1357,-491.6786C371.4196,-441.7544 369.5661,-387.8351 368.2756,-350.293"/>
<polygon fill="none" stroke="#000000" points="369.6466,-492.0596 373.4882,-501.9334 376.6425,-491.819 369.6466,-492.0596"/>
</g>
<!-- A14 -->
<g id="node15" class="node">
<title>A14</title>
<polygon fill="none" stroke="#000000" points="297.6155,-1524 297.6155,-1556 446.6155,-1556 446.6155,-1524 297.6155,-1524"/>
<text text-anchor="start" x="351.833" y="-1537" font-family="Helvetica,sans-Serif" font-size="10.00" fill="#000000">Message</text>
<polygon fill="none" stroke="#000000" points="297.6155,-1300 297.6155,-1524 446.6155,-1524 446.6155,-1300 297.6155,-1300"/>
<text text-anchor="start" x="335.442" y="-1505" font-family="Helvetica,sans-Serif" font-size="10.00" fill="#000000">server_side:bool</text>
<text text-anchor="start" x="345.9995" y="-1493" font-family="Helvetica,sans-Serif" font-size="10.00" fill="#000000">mb:Modbus</text>
<text text-anchor="start" x="346.834" y="-1481" font-family="Helvetica,sans-Serif" font-size="10.00" fill="#000000">ifc:AsyncIfc</text>
<text text-anchor="start" x="354.329" y="-1469" font-family="Helvetica,sans-Serif" font-size="10.00" fill="#000000">node_id</text>
<text text-anchor="start" x="332.6585" y="-1457" font-family="Helvetica,sans-Serif" font-size="10.00" fill="#000000">header_valid:bool</text>
<text text-anchor="start" x="347.1055" y="-1445" font-family="Helvetica,sans-Serif" font-size="10.00" fill="#000000">header_len</text>
<text text-anchor="start" x="352.9395" y="-1433" font-family="Helvetica,sans-Serif" font-size="10.00" fill="#000000">data_len</text>
<text text-anchor="start" x="350.44" y="-1421" font-family="Helvetica,sans-Serif" font-size="10.00" fill="#000000">unique_id</text>
<text text-anchor="start" x="344.3305" y="-1409" font-family="Helvetica,sans-Serif" font-size="10.00" fill="#000000">sug_area:str</text>
<text text-anchor="start" x="341.2715" y="-1397" font-family="Helvetica,sans-Serif" font-size="10.00" fill="#000000">new_data:dict</text>
<text text-anchor="start" x="348.2155" y="-1385" font-family="Helvetica,sans-Serif" font-size="10.00" fill="#000000">state:State</text>
<text text-anchor="start" x="321.82" y="-1373" font-family="Helvetica,sans-Serif" font-size="10.00" fill="#000000">shutdown_started:bool</text>
<text text-anchor="start" x="341" y="-1361" font-family="Helvetica,sans-Serif" font-size="10.00" fill="#000000">modbus_elms</text>
<text text-anchor="start" x="337.1225" y="-1349" font-family="Helvetica,sans-Serif" font-size="10.00" fill="#000000">mb_timer:Timer</text>
<text text-anchor="start" x="346.0005" y="-1337" font-family="Helvetica,sans-Serif" font-size="10.00" fill="#000000">mb_timeout</text>
<text text-anchor="start" x="335.168" y="-1325" font-family="Helvetica,sans-Serif" font-size="10.00" fill="#000000">mb_first_timeout</text>
<text text-anchor="start" x="326.2695" y="-1313" font-family="Helvetica,sans-Serif" font-size="10.00" fill="#000000">modbus_polling:bool</text>
<polygon fill="none" stroke="#000000" points="297.6155,-1196 297.6155,-1300 446.6155,-1300 446.6155,-1196 297.6155,-1196"/>
<text text-anchor="start" x="321" y="-1281" font-family="Helvetica,sans-Serif" font-size="10.00" fill="#000000">_set_mqtt_timestamp()</text>
<text text-anchor="start" x="349.6155" y="-1269" font-family="Helvetica,sans-Serif" font-size="10.00" fill="#000000">_timeout()</text>
<text text-anchor="start" x="322.383" y="-1257" font-family="Helvetica,sans-Serif" font-size="10.00" fill="#000000">_send_modbus_cmd()</text>
<text text-anchor="start" x="307.375" y="-1245" font-family="Helvetica,sans-Serif" font-size="10.00" fill="#000000">&lt;async&gt; end_modbus_cmd()</text>
<text text-anchor="start" x="357.118" y="-1233" font-family="Helvetica,sans-Serif" font-size="10.00" fill="#000000">close()</text>
<text text-anchor="start" x="342.946" y="-1221" font-family="Helvetica,sans-Serif" font-size="10.00" fill="#000000">inc_counter()</text>
<text text-anchor="start" x="341.276" y="-1209" font-family="Helvetica,sans-Serif" font-size="10.00" fill="#000000">dec_counter()</text>
</g>
<!-- A14&#45;&gt;A6 -->
<g id="edge14" class="edge">
<title>A14&#45;&gt;A6</title>
<path fill="none" stroke="#000000" d="M409.7752,-1195.7758C412.5746,-1182.5547 415.3943,-1169.2373 418.1831,-1156.0662"/>
<polygon fill="#000000" stroke="#000000" points="420.3088,-1146.0268 422.6397,-1156.7421 419.2731,-1150.9183 418.2373,-1155.8099 418.2373,-1155.8099 418.2373,-1155.8099 419.2731,-1150.9183 413.8349,-1154.8777 420.3088,-1146.0268 420.3088,-1146.0268"/>
<text text-anchor="middle" x="405.2609" y="-1173.292" font-family="Helvetica,sans-Serif" font-size="10.00" fill="#000000">use</text>
</g>
<!-- A14&#45;&gt;A11 -->
<g id="edge17" class="edge">
<title>A14&#45;&gt;A11</title>
<path fill="none" stroke="#000000" d="M341.1152,-1185.9405C320.5475,-1057.7747 293.7865,-891.0162 274.7116,-772.1524"/>
<polygon fill="none" stroke="#000000" points="337.6695,-1186.5583 342.7099,-1195.8774 344.5811,-1185.4491 337.6695,-1186.5583"/>
</g>
<!-- A15&#45;&gt;A14 -->
<g id="edge16" class="edge">
<title>A15&#45;&gt;A14</title>
<path fill="none" stroke="#000000" stroke-dasharray="5,2" d="M329.7896,-1673.8004C334.3532,-1641.3079 340.3126,-1598.8764 346.2965,-1556.2713"/>
<polygon fill="none" stroke="#000000" points="326.2837,-1673.5986 328.3587,-1683.9883 333.2156,-1674.5723 326.2837,-1673.5986"/>
</g>
<!-- A16 -->
<g id="node17" class="node">
<title>A16</title>
<polygon fill="none" stroke="#000000" points="385.6155,-1826 385.6155,-1858 460.6155,-1858 460.6155,-1826 385.6155,-1826"/>
<text text-anchor="start" x="405.333" y="-1839" font-family="Helvetica,sans-Serif" font-size="10.00" fill="#000000">Modbus</text>
<polygon fill="none" stroke="#000000" points="385.6155,-1674 385.6155,-1826 460.6155,-1826 460.6155,-1674 385.6155,-1674"/>
<text text-anchor="start" x="414.777" y="-1807" font-family="Helvetica,sans-Serif" font-size="10.00" fill="#000000">que</text>
<text text-anchor="start" x="395.6055" y="-1783" font-family="Helvetica,sans-Serif" font-size="10.00" fill="#000000">snd_handler</text>
<text text-anchor="start" x="396.7205" y="-1771" font-family="Helvetica,sans-Serif" font-size="10.00" fill="#000000">rsp_handler</text>
<text text-anchor="start" x="406.724" y="-1759" font-family="Helvetica,sans-Serif" font-size="10.00" fill="#000000">timeout</text>
<text text-anchor="start" x="397.005" y="-1747" font-family="Helvetica,sans-Serif" font-size="10.00" fill="#000000">max_retires</text>
<text text-anchor="start" x="405.0575" y="-1735" font-family="Helvetica,sans-Serif" font-size="10.00" fill="#000000">last_xxx</text>
<text text-anchor="start" x="417.007" y="-1723" font-family="Helvetica,sans-Serif" font-size="10.00" fill="#000000">err</text>
<text text-anchor="start" x="403.669" y="-1711" font-family="Helvetica,sans-Serif" font-size="10.00" fill="#000000">retry_cnt</text>
<text text-anchor="start" x="401.9945" y="-1699" font-family="Helvetica,sans-Serif" font-size="10.00" fill="#000000">req_pend</text>
<text text-anchor="start" x="416.452" y="-1687" font-family="Helvetica,sans-Serif" font-size="10.00" fill="#000000">tim</text>
<polygon fill="none" stroke="#000000" points="385.6155,-1606 385.6155,-1674 460.6155,-1674 460.6155,-1606 385.6155,-1606"/>
<text text-anchor="start" x="397.0055" y="-1655" font-family="Helvetica,sans-Serif" font-size="10.00" fill="#000000">build_msg()</text>
<text text-anchor="start" x="400.3395" y="-1643" font-family="Helvetica,sans-Serif" font-size="10.00" fill="#000000">recv_req()</text>
<text text-anchor="start" x="397.8395" y="-1631" font-family="Helvetica,sans-Serif" font-size="10.00" fill="#000000">recv_resp()</text>
<text text-anchor="start" x="408.118" y="-1619" font-family="Helvetica,sans-Serif" font-size="10.00" fill="#000000">close()</text>
</g>
<!-- A16&#45;&gt;A14 -->
<g id="edge18" class="edge">
<title>A16&#45;&gt;A14</title>
<path fill="none" stroke="#000000" d="M403.1382,-1596.041C401.2623,-1582.9463 399.3403,-1569.5297 397.4159,-1556.0971"/>
<polygon fill="#000000" stroke="#000000" points="404.563,-1605.9867 398.6903,-1596.726 403.8539,-1601.0373 403.1448,-1596.0878 403.1448,-1596.0878 403.1448,-1596.0878 403.8539,-1601.0373 407.5994,-1595.4496 404.563,-1605.9867 404.563,-1605.9867"/>
<text text-anchor="middle" x="408.3534" y="-1569.8414" font-family="Helvetica,sans-Serif" font-size="10.00" fill="#000000">has</text>
<text text-anchor="middle" x="393.6256" y="-1586.2424" font-family="Helvetica,sans-Serif" font-size="10.00" fill="#000000">0..1</text>
</g>
</g>
</svg>
