<?xml version="1.0" encoding="UTF-8" standalone="no"?>
<!DOCTYPE svg PUBLIC "-//W3C//DTD SVG 1.1//EN"
 "http://www.w3.org/Graphics/SVG/1.1/DTD/svg11.dtd">
<!-- Generated by graphviz version 2.40.1 (20161225.0304)
 -->
<!-- Title: G Pages: 1 -->
<svg width="539pt" height="2036pt"
 viewBox="0.00 0.00 538.57 2036.00" xmlns="http://www.w3.org/2000/svg" xmlns:xlink="http://www.w3.org/1999/xlink">
<g id="graph0" class="graph" transform="scale(1 1) rotate(0) translate(4 2032)">
<title>G</title>
<polygon fill="#ffffff" stroke="transparent" points="-4,4 -4,-2032 534.566,-2032 534.566,4 -4,4"/>
<!-- A0 -->
<g id="node1" class="node">
<title>A0</title>
<polygon fill="#fff8dc" stroke="#000000" points="98.1981,-2008 -.0661,-2008 -.0661,-1964 104.1981,-1964 104.1981,-2002 98.1981,-2008"/>
<polyline fill="none" stroke="#000000" points="98.1981,-2008 98.1981,-2002 "/>
<polyline fill="none" stroke="#000000" points="104.1981,-2002 98.1981,-2002 "/>
<text text-anchor="middle" x="52.066" y="-1995" font-family="Helvetica,sans-Serif" font-size="10.00" fill="#000000">Example of</text>
<text text-anchor="middle" x="52.066" y="-1983" font-family="Helvetica,sans-Serif" font-size="10.00" fill="#000000">instantiation for a</text>
<text text-anchor="middle" x="52.066" y="-1971" font-family="Helvetica,sans-Serif" font-size="10.00" fill="#000000">GEN3 inverter!</text>
</g>
<!-- A1 -->
<g id="node2" class="node">
<title>A1</title>
<polygon fill="none" stroke="#000000" points="122.066,-1996 122.066,-2028 238.066,-2028 238.066,-1996 122.066,-1996"/>
<text text-anchor="start" x="131.715" y="-2009" font-family="Helvetica,sans-Serif" font-size="10.00" fill="#000000">&lt;&lt;AbstractIterMeta&gt;&gt;</text>
<polygon fill="none" stroke="#000000" points="122.066,-1976 122.066,-1996 238.066,-1996 238.066,-1976 122.066,-1976"/>
<polygon fill="none" stroke="#000000" points="122.066,-1944 122.066,-1976 238.066,-1976 238.066,-1944 122.066,-1944"/>
<text text-anchor="start" x="158.676" y="-1957" font-family="Helvetica,sans-Serif" font-size="10.00" fill="#000000">__iter__()</text>
</g>
<!-- A14 -->
<g id="node15" class="node">
<title>A14</title>
<polygon fill="none" stroke="#000000" points="135.066,-1784 135.066,-1816 225.066,-1816 225.066,-1784 135.066,-1784"/>
<text text-anchor="start" x="144.7725" y="-1797" font-family="Helvetica,sans-Serif" font-size="10.00" fill="#000000">&lt;&lt;ProtocolIfc&gt;&gt;</text>
<polygon fill="none" stroke="#000000" points="135.066,-1752 135.066,-1784 225.066,-1784 225.066,-1752 135.066,-1752"/>
<text text-anchor="start" x="160.8995" y="-1765" font-family="Helvetica,sans-Serif" font-size="10.00" fill="#000000">_registry</text>
<polygon fill="none" stroke="#000000" points="135.066,-1720 135.066,-1752 225.066,-1752 225.066,-1720 135.066,-1720"/>
<text text-anchor="start" x="165.0685" y="-1733" font-family="Helvetica,sans-Serif" font-size="10.00" fill="#000000">close()</text>
</g>
<!-- A1&#45;&gt;A14 -->
<g id="edge14" class="edge">
<title>A1&#45;&gt;A14</title>
<path fill="none" stroke="#000000" stroke-dasharray="5,2" d="M180.066,-1933.756C180.066,-1898.0883 180.066,-1851.1755 180.066,-1816.3644"/>
<polygon fill="none" stroke="#000000" points="176.5661,-1933.9674 180.066,-1943.9674 183.5661,-1933.9674 176.5661,-1933.9674"/>
</g>
<!-- A2 -->
<g id="node3" class="node">
<title>A2</title>
<polygon fill="none" stroke="#000000" points="179.066,-662 179.066,-694 277.066,-694 277.066,-662 179.066,-662"/>
<text text-anchor="start" x="204.4505" y="-675" font-family="Helvetica,sans-Serif" font-size="10.00" fill="#000000">InverterG3</text>
<polygon fill="none" stroke="#000000" points="179.066,-606 179.066,-662 277.066,-662 277.066,-606 179.066,-606"/>
<text text-anchor="start" x="218.063" y="-643" font-family="Helvetica,sans-Serif" font-size="10.00" fill="#000000">addr</text>
<text text-anchor="start" x="188.619" y="-631" font-family="Helvetica,sans-Serif" font-size="10.00" fill="#000000">remote:StreamPtr</text>
<text text-anchor="start" x="193.898" y="-619" font-family="Helvetica,sans-Serif" font-size="10.00" fill="#000000">local:StreamPtr</text>
<polygon fill="none" stroke="#000000" points="179.066,-550 179.066,-606 277.066,-606 277.066,-550 179.066,-550"/>
<text text-anchor="start" x="192.508" y="-587" font-family="Helvetica,sans-Serif" font-size="10.00" fill="#000000">create_remote()</text>
<text text-anchor="start" x="213.0685" y="-563" font-family="Helvetica,sans-Serif" font-size="10.00" fill="#000000">close()</text>
</g>
<!-- A3 -->
<g id="node4" class="node">
<title>A3</title>
<polygon fill="none" stroke="#000000" points="400.4026,-320 303.7294,-320 303.7294,-284 400.4026,-284 400.4026,-320"/>
<text text-anchor="middle" x="352.066" y="-299" font-family="Helvetica,sans-Serif" font-size="10.00" fill="#000000">local:StreamPtr</text>
</g>
<!-- A2&#45;&gt;A3 -->
<g id="edge1" class="edge">
<title>A2&#45;&gt;A3</title>
<path fill="none" stroke="#000000" d="M260.3657,-538.4062C268.7304,-516.7744 277.7293,-493.5168 286.066,-472 305.502,-421.8362 328.2143,-363.368 341.2906,-329.7205"/>
<polygon fill="#000000" stroke="#000000" points="260.2523,-538.6998 261.8194,-545.7386 255.9247,-549.8923 254.3577,-542.8536 260.2523,-538.6998"/>
<polygon fill="#000000" stroke="#000000" points="345.0251,-320.1117 345.5968,-331.0627 343.2138,-324.7721 341.4024,-329.4325 341.4024,-329.4325 341.4024,-329.4325 343.2138,-324.7721 337.2081,-327.8023 345.0251,-320.1117 345.0251,-320.1117"/>
</g>
<!-- A4 -->
<g id="node5" class="node">
<title>A4</title>
<polygon fill="none" stroke="#000000" points="285.4601,-320 178.6719,-320 178.6719,-284 285.4601,-284 285.4601,-320"/>
<text text-anchor="middle" x="232.066" y="-299" font-family="Helvetica,sans-Serif" font-size="10.00" fill="#000000">remote:StreamPtr</text>
</g>
<!-- A2&#45;&gt;A4 -->
<g id="edge2" class="edge">
<title>A2&#45;&gt;A4</title>
<path fill="none" stroke="#000000" d="M229.12,-537.6831C229.9778,-469.0527 231.1375,-376.283 231.7124,-330.2853"/>
<polygon fill="#000000" stroke="#000000" points="229.1188,-537.7877 233.0434,-543.8372 228.9687,-549.7868 225.044,-543.7372 229.1188,-537.7877"/>
<polygon fill="#000000" stroke="#000000" points="231.839,-320.1609 236.2135,-330.2164 231.7764,-325.1605 231.7139,-330.1601 231.7139,-330.1601 231.7139,-330.1601 231.7764,-325.1605 227.2143,-330.1038 231.839,-320.1609 231.839,-320.1609"/>
</g>
<!-- A8 -->
<g id="node9" class="node">
<title>A8</title>
<polygon fill="none" stroke="#000000" points="246.066,-100 246.066,-132 424.066,-132 424.066,-100 246.066,-100"/>
<text text-anchor="start" x="290.6175" y="-113" font-family="Helvetica,sans-Serif" font-size="10.00" fill="#000000">AsyncStreamServer</text>
<polygon fill="none" stroke="#000000" points="246.066,-68 246.066,-100 424.066,-100 424.066,-68 246.066,-68"/>
<text text-anchor="start" x="302.837" y="-81" font-family="Helvetica,sans-Serif" font-size="10.00" fill="#000000">create_remote</text>
<polygon fill="none" stroke="#000000" points="246.066,0 246.066,-68 424.066,-68 424.066,0 246.066,0"/>
<text text-anchor="start" x="286.7235" y="-49" font-family="Helvetica,sans-Serif" font-size="10.00" fill="#000000">&lt;async&gt;server_loop()</text>
<text text-anchor="start" x="277.5545" y="-37" font-family="Helvetica,sans-Serif" font-size="10.00" fill="#000000">&lt;async&gt;_async_forward()</text>
<text text-anchor="start" x="255.875" y="-25" font-family="Helvetica,sans-Serif" font-size="10.00" fill="#000000">&lt;async&gt;publish_outstanding_mqtt()</text>
<text text-anchor="start" x="320.0685" y="-13" font-family="Helvetica,sans-Serif" font-size="10.00" fill="#000000">close()</text>
</g>
<!-- A3&#45;&gt;A8 -->
<g id="edge8" class="edge">
<title>A3&#45;&gt;A8</title>
<path fill="none" stroke="#000000" d="M349.8809,-271.6651C347.5364,-239.1181 343.722,-186.1658 340.5509,-142.1431"/>
<polygon fill="#000000" stroke="#000000" points="349.898,-271.9044 354.3188,-277.6014 350.7603,-283.8733 346.3395,-278.1763 349.898,-271.9044"/>
<polygon fill="#000000" stroke="#000000" points="339.8226,-132.0321 345.0295,-141.6829 340.1818,-137.0192 340.5411,-142.0063 340.5411,-142.0063 340.5411,-142.0063 340.1818,-137.0192 336.0527,-142.3296 339.8226,-132.0321 339.8226,-132.0321"/>
</g>
<!-- A9 -->
<g id="node10" class="node">
<title>A9</title>
<polygon fill="none" stroke="#000000" points="74.066,-82 74.066,-114 212.066,-114 212.066,-82 74.066,-82"/>
<text text-anchor="start" x="100.563" y="-95" font-family="Helvetica,sans-Serif" font-size="10.00" fill="#000000">AsyncStreamClient</text>
<polygon fill="none" stroke="#000000" points="74.066,-62 74.066,-82 212.066,-82 212.066,-62 74.066,-62"/>
<polygon fill="none" stroke="#000000" points="74.066,-18 74.066,-62 212.066,-62 212.066,-18 74.066,-18"/>
<text text-anchor="start" x="96.944" y="-43" font-family="Helvetica,sans-Serif" font-size="10.00" fill="#000000">&lt;async&gt;client_loop()</text>
<text text-anchor="start" x="83.89" y="-31" font-family="Helvetica,sans-Serif" font-size="10.00" fill="#000000">&lt;async&gt;_async_forward())</text>
</g>
<!-- A4&#45;&gt;A9 -->
<g id="edge10" class="edge">
<title>A4&#45;&gt;A9</title>
<path fill="none" stroke="#000000" d="M225.2301,-283.8733C212.4699,-250.0372 184.5329,-175.9573 164.7878,-123.5994"/>
<polygon fill="#000000" stroke="#000000" points="161.2018,-114.0904 168.941,-121.8593 162.9661,-118.7688 164.7305,-123.4472 164.7305,-123.4472 164.7305,-123.4472 162.9661,-118.7688 160.5199,-125.0351 161.2018,-114.0904 161.2018,-114.0904"/>
<text text-anchor="middle" x="210.9254" y="-266.8956" font-family="Helvetica,sans-Serif" font-size="10.00" fill="#000000">0..1</text>
</g>
<!-- A5 -->
<g id="node6" class="node">
<title>A5</title>
<polygon fill="none" stroke="#000000" points="129.066,-1114 129.066,-1146 246.066,-1146 246.066,-1114 129.066,-1114"/>
<text text-anchor="start" x="156.995" y="-1127" font-family="Helvetica,sans-Serif" font-size="10.00" fill="#000000">&lt;&lt;AsyncIfc&gt;&gt;</text>
<polygon fill="none" stroke="#000000" points="129.066,-1094 129.066,-1114 246.066,-1114 246.066,-1094 129.066,-1094"/>
<polygon fill="none" stroke="#000000" points="129.066,-822 129.066,-1094 246.066,-1094 246.066,-822 129.066,-822"/>
<text text-anchor="start" x="157.002" y="-1075" font-family="Helvetica,sans-Serif" font-size="10.00" fill="#000000">set_node_id()</text>
<text text-anchor="start" x="155.332" y="-1063" font-family="Helvetica,sans-Serif" font-size="10.00" fill="#000000">get_conn_no()</text>
<text text-anchor="start" x="169.2295" y="-1039" font-family="Helvetica,sans-Serif" font-size="10.00" fill="#000000">tx_add()</text>
<text text-anchor="start" x="167.01" y="-1027" font-family="Helvetica,sans-Serif" font-size="10.00" fill="#000000">tx_flush()</text>
<text text-anchor="start" x="170.6195" y="-1015" font-family="Helvetica,sans-Serif" font-size="10.00" fill="#000000">tx_get()</text>
<text text-anchor="start" x="166.7295" y="-1003" font-family="Helvetica,sans-Serif" font-size="10.00" fill="#000000">tx_peek()</text>
<text text-anchor="start" x="170.8995" y="-991" font-family="Helvetica,sans-Serif" font-size="10.00" fill="#000000">tx_log()</text>
<text text-anchor="start" x="166.735" y="-979" font-family="Helvetica,sans-Serif" font-size="10.00" fill="#000000">tx_clear()</text>
<text text-anchor="start" x="170.8995" y="-967" font-family="Helvetica,sans-Serif" font-size="10.00" fill="#000000">tx_len()</text>
<text text-anchor="start" x="165.3405" y="-943" font-family="Helvetica,sans-Serif" font-size="10.00" fill="#000000">fwd_add()</text>
<text text-anchor="start" x="167.0105" y="-931" font-family="Helvetica,sans-Serif" font-size="10.00" fill="#000000">fwd_log()</text>
<text text-anchor="start" x="170.3445" y="-919" font-family="Helvetica,sans-Serif" font-size="10.00" fill="#000000">rx_get()</text>
<text text-anchor="start" x="166.4545" y="-907" font-family="Helvetica,sans-Serif" font-size="10.00" fill="#000000">rx_peek()</text>
<text text-anchor="start" x="170.6245" y="-895" font-family="Helvetica,sans-Serif" font-size="10.00" fill="#000000">rx_log()</text>
<text text-anchor="start" x="166.46" y="-883" font-family="Helvetica,sans-Serif" font-size="10.00" fill="#000000">rx_clear()</text>
<text text-anchor="start" x="170.6245" y="-871" font-family="Helvetica,sans-Serif" font-size="10.00" fill="#000000">rx_len()</text>
<text text-anchor="start" x="162.565" y="-859" font-family="Helvetica,sans-Serif" font-size="10.00" fill="#000000">rx_set_cb()</text>
<text text-anchor="start" x="138.9455" y="-835" font-family="Helvetica,sans-Serif" font-size="10.00" fill="#000000">prot_set_timeout_cb()</text>
</g>
<!-- A6 -->
<g id="node7" class="node">
<title>A6</title>
<polygon fill="none" stroke="#000000" points="66.066,-652 66.066,-684 159.066,-684 159.066,-652 66.066,-652"/>
<text text-anchor="start" x="84.23" y="-665" font-family="Helvetica,sans-Serif" font-size="10.00" fill="#000000">AsyncIfcImpl</text>
<polygon fill="none" stroke="#000000" points="66.066,-560 66.066,-652 159.066,-652 159.066,-560 66.066,-560"/>
<text text-anchor="start" x="75.614" y="-633" font-family="Helvetica,sans-Serif" font-size="10.00" fill="#000000">fwd_fifo:ByteFifo</text>
<text text-anchor="start" x="79.503" y="-621" font-family="Helvetica,sans-Serif" font-size="10.00" fill="#000000">tx_fifo:ByteFifo</text>
<text text-anchor="start" x="79.228" y="-609" font-family="Helvetica,sans-Serif" font-size="10.00" fill="#000000">rx_fifo:ByteFifo</text>
<text text-anchor="start" x="78.662" y="-597" font-family="Helvetica,sans-Serif" font-size="10.00" fill="#000000">conn_no:Count</text>
<text text-anchor="start" x="94.7795" y="-585" font-family="Helvetica,sans-Serif" font-size="10.00" fill="#000000">node_id</text>
<text text-anchor="start" x="88.1155" y="-573" font-family="Helvetica,sans-Serif" font-size="10.00" fill="#000000">timeout_cb</text>
</g>
<!-- A5&#45;&gt;A6 -->
<g id="edge3" class="edge">
<title>A5&#45;&gt;A6</title>
<path fill="none" stroke="#000000" stroke-dasharray="5,2" d="M151.3775,-811.7434C141.9017,-766.0069 132.2713,-719.5241 124.914,-684.013"/>
<polygon fill="none" stroke="#000000" points="148.0039,-812.7126 153.4599,-821.7945 154.8583,-811.2924 148.0039,-812.7126"/>
</g>
<!-- A7 -->
<g id="node8" class="node">
<title>A7</title>
<polygon fill="none" stroke="#000000" points="59.066,-390 59.066,-422 161.066,-422 161.066,-390 59.066,-390"/>
<text text-anchor="start" x="80.34" y="-403" font-family="Helvetica,sans-Serif" font-size="10.00" fill="#000000">AsyncStream</text>
<polygon fill="none" stroke="#000000" points="59.066,-310 59.066,-390 161.066,-390 161.066,-310 59.066,-310"/>
<text text-anchor="start" x="95.619" y="-371" font-family="Helvetica,sans-Serif" font-size="10.00" fill="#000000">reader</text>
<text text-anchor="start" x="97.849" y="-359" font-family="Helvetica,sans-Serif" font-size="10.00" fill="#000000">writer</text>
<text text-anchor="start" x="100.063" y="-347" font-family="Helvetica,sans-Serif" font-size="10.00" fill="#000000">addr</text>
<text text-anchor="start" x="95.619" y="-335" font-family="Helvetica,sans-Serif" font-size="10.00" fill="#000000">r_addr</text>
<text text-anchor="start" x="96.174" y="-323" font-family="Helvetica,sans-Serif" font-size="10.00" fill="#000000">l_addr</text>
<polygon fill="none" stroke="#000000" points="59.066,-182 59.066,-310 161.066,-310 161.066,-182 59.066,-182"/>
<text text-anchor="start" x="81.72" y="-279" font-family="Helvetica,sans-Serif" font-size="10.00" fill="#000000">&lt;async&gt;loop</text>
<text text-anchor="start" x="97.848" y="-267" font-family="Helvetica,sans-Serif" font-size="10.00" fill="#000000">disc()</text>
<text text-anchor="start" x="95.0685" y="-255" font-family="Helvetica,sans-Serif" font-size="10.00" fill="#000000">close()</text>
<text text-anchor="start" x="90.62" y="-243" font-family="Helvetica,sans-Serif" font-size="10.00" fill="#000000">healthy()</text>
<text text-anchor="start" x="75.3365" y="-219" font-family="Helvetica,sans-Serif" font-size="10.00" fill="#000000">__async_read()</text>
<text text-anchor="start" x="74.787" y="-207" font-family="Helvetica,sans-Serif" font-size="10.00" fill="#000000">__async_write()</text>
<text text-anchor="start" x="68.673" y="-195" font-family="Helvetica,sans-Serif" font-size="10.00" fill="#000000">__async_forward()</text>
</g>
<!-- A6&#45;&gt;A7 -->
<g id="edge4" class="edge">
<title>A6&#45;&gt;A7</title>
<path fill="none" stroke="#000000" d="M111.6134,-549.5774C111.3784,-511.9877 111.0852,-465.0771 110.8174,-422.2295"/>
<polygon fill="none" stroke="#000000" points="108.1155,-549.9435 111.678,-559.9214 115.1153,-549.8996 108.1155,-549.9435"/>
</g>
<!-- A7&#45;&gt;A8 -->
<g id="edge5" class="edge">
<title>A7&#45;&gt;A8</title>
<path fill="none" stroke="#000000" d="M167.5272,-185.0204C168.3649,-184.0001 169.2111,-182.9929 170.066,-182 191.4283,-157.1889 219.1964,-135.0276 245.8416,-116.8901"/>
<polygon fill="none" stroke="#000000" points="164.637,-183.0361 161.2751,-193.0834 170.1688,-187.3255 164.637,-183.0361"/>
</g>
<!-- A7&#45;&gt;A9 -->
<g id="edge6" class="edge">
<title>A7&#45;&gt;A9</title>
<path fill="none" stroke="#000000" d="M128.2709,-171.8077C131.1447,-151.2556 133.9487,-131.2022 136.3294,-114.1772"/>
<polygon fill="none" stroke="#000000" points="124.7747,-171.5375 126.856,-181.9259 131.7072,-172.5069 124.7747,-171.5375"/>
</g>
<!-- A10 -->
<g id="node11" class="node">
<title>A10</title>
<polygon fill="none" stroke="#000000" points="295.066,-740 295.066,-772 409.066,-772 409.066,-740 295.066,-740"/>
<text text-anchor="start" x="338.174" y="-753" font-family="Helvetica,sans-Serif" font-size="10.00" fill="#000000">Talent</text>
<polygon fill="none" stroke="#000000" points="295.066,-600 295.066,-740 409.066,-740 409.066,-600 295.066,-600"/>
<text text-anchor="start" x="332.889" y="-721" font-family="Helvetica,sans-Serif" font-size="10.00" fill="#000000">conn_no</text>
<text text-anchor="start" x="342.063" y="-709" font-family="Helvetica,sans-Serif" font-size="10.00" fill="#000000">addr</text>
<text text-anchor="start" x="304.829" y="-685" font-family="Helvetica,sans-Serif" font-size="10.00" fill="#000000">await_conn_resp_cnt</text>
<text text-anchor="start" x="339.8435" y="-673" font-family="Helvetica,sans-Serif" font-size="10.00" fill="#000000">id_str</text>
<text text-anchor="start" x="320.666" y="-661" font-family="Helvetica,sans-Serif" font-size="10.00" fill="#000000">contact_name</text>
<text text-anchor="start" x="324.006" y="-649" font-family="Helvetica,sans-Serif" font-size="10.00" fill="#000000">contact_mail</text>
<text text-anchor="start" x="327.6105" y="-637" font-family="Helvetica,sans-Serif" font-size="10.00" fill="#000000">db:InfosG3</text>
<text text-anchor="start" x="325.95" y="-625" font-family="Helvetica,sans-Serif" font-size="10.00" fill="#000000">mb:Modbus</text>
<text text-anchor="start" x="338.178" y="-613" font-family="Helvetica,sans-Serif" font-size="10.00" fill="#000000">switch</text>
<polygon fill="none" stroke="#000000" points="295.066,-472 295.066,-600 409.066,-600 409.066,-472 295.066,-472"/>
<text text-anchor="start" x="309.5585" y="-581" font-family="Helvetica,sans-Serif" font-size="10.00" fill="#000000">msg_contact_info()</text>
<text text-anchor="start" x="311.4985" y="-569" font-family="Helvetica,sans-Serif" font-size="10.00" fill="#000000">msg_ota_update()</text>
<text text-anchor="start" x="317.3425" y="-557" font-family="Helvetica,sans-Serif" font-size="10.00" fill="#000000">msg_get_time()</text>
<text text-anchor="start" x="305.3945" y="-545" font-family="Helvetica,sans-Serif" font-size="10.00" fill="#000000">msg_collector_data()</text>
<text text-anchor="start" x="307.3395" y="-533" font-family="Helvetica,sans-Serif" font-size="10.00" fill="#000000">msg_inverter_data()</text>
<text text-anchor="start" x="316.5065" y="-521" font-family="Helvetica,sans-Serif" font-size="10.00" fill="#000000">msg_unknown()</text>
<text text-anchor="start" x="332.62" y="-497" font-family="Helvetica,sans-Serif" font-size="10.00" fill="#000000">healthy()</text>
<text text-anchor="start" x="337.0685" y="-485" font-family="Helvetica,sans-Serif" font-size="10.00" fill="#000000">close()</text>
</g>
<!-- A10&#45;&gt;A3 -->
<g id="edge7" class="edge">
<title>A10&#45;&gt;A3</title>
<path fill="none" stroke="#000000" d="M352.066,-461.6172C352.066,-412.1611 352.066,-362.7538 352.066,-332.2961"/>
<polygon fill="#000000" stroke="#000000" points="352.066,-471.8382 347.5661,-461.8382 352.066,-466.8382 352.0661,-461.8382 352.0661,-461.8382 352.0661,-461.8382 352.066,-466.8382 356.5661,-461.8383 352.066,-471.8382 352.066,-471.8382"/>
<polygon fill="#000000" stroke="#000000" points="352.0661,-332.0807 348.066,-326.0808 352.066,-320.0807 356.066,-326.0807 352.0661,-332.0807"/>
</g>
<!-- A10&#45;&gt;A4 -->
<g id="edge9" class="edge">
<title>A10&#45;&gt;A4</title>
<path fill="none" stroke="#000000" d="M292.1869,-462.3225C270.8082,-405.3126 249.4091,-348.2482 238.8463,-320.0807"/>
<polygon fill="#000000" stroke="#000000" points="295.7553,-471.8382 288.0306,-464.055 293.9997,-467.1566 292.244,-462.4749 292.244,-462.4749 292.244,-462.4749 293.9997,-467.1566 296.4575,-460.8948 295.7553,-471.8382 295.7553,-471.8382"/>
<text text-anchor="middle" x="253.125" y="-331.0849" font-family="Helvetica,sans-Serif" font-size="10.00" fill="#000000">0..1</text>
</g>
<!-- A12 -->
<g id="node13" class="node">
<title>A12</title>
<polygon fill="none" stroke="#000000" points="432.066,-318 432.066,-350 499.066,-350 499.066,-318 432.066,-318"/>
<text text-anchor="start" x="448.059" y="-331" font-family="Helvetica,sans-Serif" font-size="10.00" fill="#000000">InfosG3</text>
<polygon fill="none" stroke="#000000" points="432.066,-298 432.066,-318 499.066,-318 499.066,-298 432.066,-298"/>
<polygon fill="none" stroke="#000000" points="432.066,-254 432.066,-298 499.066,-298 499.066,-254 432.066,-254"/>
<text text-anchor="start" x="441.95" y="-279" font-family="Helvetica,sans-Serif" font-size="10.00" fill="#000000">ha_confs()</text>
<text text-anchor="start" x="449.734" y="-267" font-family="Helvetica,sans-Serif" font-size="10.00" fill="#000000">parse()</text>
</g>
<!-- A10&#45;&gt;A12 -->
<g id="edge12" class="edge">
<title>A10&#45;&gt;A12</title>
<path fill="none" stroke="#000000" d="M405.0919,-471.8382C419.1748,-431.9575 433.5466,-391.2585 444.6898,-359.7024"/>
<polygon fill="#000000" stroke="#000000" points="448.0405,-350.2137 448.9539,-361.1415 446.3756,-354.9284 444.7107,-359.6431 444.7107,-359.6431 444.7107,-359.6431 446.3756,-354.9284 440.4675,-358.1447 448.0405,-350.2137 448.0405,-350.2137"/>
</g>
<!-- A11 -->
<g id="node12" class="node">
<title>A11</title>
<polygon fill="none" stroke="#000000" points="428.066,-710 428.066,-742 531.066,-742 531.066,-710 428.066,-710"/>
<text text-anchor="start" x="468.728" y="-723" font-family="Helvetica,sans-Serif" font-size="10.00" fill="#000000">Infos</text>
<polygon fill="none" stroke="#000000" points="428.066,-654 428.066,-710 531.066,-710 531.066,-654 428.066,-654"/>
<text text-anchor="start" x="471.5075" y="-691" font-family="Helvetica,sans-Serif" font-size="10.00" fill="#000000">stat</text>
<text text-anchor="start" x="447.052" y="-679" font-family="Helvetica,sans-Serif" font-size="10.00" fill="#000000">new_stat_data</text>
<text text-anchor="start" x="460.6695" y="-667" font-family="Helvetica,sans-Serif" font-size="10.00" fill="#000000">info_dev</text>
<polygon fill="none" stroke="#000000" points="428.066,-502 428.066,-654 531.066,-654 531.066,-502 428.066,-502"/>
<text text-anchor="start" x="455.4015" y="-635" font-family="Helvetica,sans-Serif" font-size="10.00" fill="#000000">static_init()</text>
<text text-anchor="start" x="453.4505" y="-623" font-family="Helvetica,sans-Serif" font-size="10.00" fill="#000000">dev_value()</text>
<text text-anchor="start" x="450.3965" y="-611" font-family="Helvetica,sans-Serif" font-size="10.00" fill="#000000">inc_counter()</text>
<text text-anchor="start" x="448.7265" y="-599" font-family="Helvetica,sans-Serif" font-size="10.00" fill="#000000">dec_counter()</text>
<text text-anchor="start" x="446.776" y="-587" font-family="Helvetica,sans-Serif" font-size="10.00" fill="#000000">ha_proxy_conf</text>
<text text-anchor="start" x="461.779" y="-575" font-family="Helvetica,sans-Serif" font-size="10.00" fill="#000000">ha_conf</text>
<text text-anchor="start" x="454.56" y="-563" font-family="Helvetica,sans-Serif" font-size="10.00" fill="#000000">ha_remove</text>
<text text-anchor="start" x="455.9405" y="-551" font-family="Helvetica,sans-Serif" font-size="10.00" fill="#000000">update_db</text>
<text text-anchor="start" x="440.103" y="-539" font-family="Helvetica,sans-Serif" font-size="10.00" fill="#000000">set_db_def_value</text>
<text text-anchor="start" x="449.5515" y="-527" font-family="Helvetica,sans-Serif" font-size="10.00" fill="#000000">get_db_value</text>
<text text-anchor="start" x="437.8885" y="-515" font-family="Helvetica,sans-Serif" font-size="10.00" fill="#000000">ignore_this_device</text>
</g>
<!-- A11&#45;&gt;A12 -->
<g id="edge11" class="edge">
<title>A11&#45;&gt;A12</title>
<path fill="none" stroke="#000000" d="M473.3644,-491.6786C471.1803,-441.7544 468.8213,-387.8351 467.1788,-350.293"/>
<polygon fill="none" stroke="#000000" points="469.8793,-492.0959 473.8131,-501.9334 476.8726,-491.7899 469.8793,-492.0959"/>
</g>
<!-- A13 -->
<g id="node14" class="node">
<title>A13</title>
<polygon fill="none" stroke="#000000" points="155.066,-1560 155.066,-1592 306.066,-1592 306.066,-1560 155.066,-1560"/>
<text text-anchor="start" x="210.2835" y="-1573" font-family="Helvetica,sans-Serif" font-size="10.00" fill="#000000">Message</text>
<polygon fill="none" stroke="#000000" points="155.066,-1336 155.066,-1560 306.066,-1560 306.066,-1336 155.066,-1336"/>
<text text-anchor="start" x="193.8925" y="-1541" font-family="Helvetica,sans-Serif" font-size="10.00" fill="#000000">server_side:bool</text>
<text text-anchor="start" x="204.45" y="-1529" font-family="Helvetica,sans-Serif" font-size="10.00" fill="#000000">mb:Modbus</text>
<text text-anchor="start" x="205.2845" y="-1517" font-family="Helvetica,sans-Serif" font-size="10.00" fill="#000000">ifc:AsyncIfc</text>
<text text-anchor="start" x="212.7795" y="-1505" font-family="Helvetica,sans-Serif" font-size="10.00" fill="#000000">node_id</text>
<text text-anchor="start" x="191.109" y="-1493" font-family="Helvetica,sans-Serif" font-size="10.00" fill="#000000">header_valid:bool</text>
<text text-anchor="start" x="205.556" y="-1481" font-family="Helvetica,sans-Serif" font-size="10.00" fill="#000000">header_len</text>
<text text-anchor="start" x="211.39" y="-1469" font-family="Helvetica,sans-Serif" font-size="10.00" fill="#000000">data_len</text>
<text text-anchor="start" x="208.8905" y="-1457" font-family="Helvetica,sans-Serif" font-size="10.00" fill="#000000">unique_id</text>
<text text-anchor="start" x="202.781" y="-1445" font-family="Helvetica,sans-Serif" font-size="10.00" fill="#000000">sug_area:str</text>
<text text-anchor="start" x="199.722" y="-1433" font-family="Helvetica,sans-Serif" font-size="10.00" fill="#000000">new_data:dict</text>
<text text-anchor="start" x="206.666" y="-1421" font-family="Helvetica,sans-Serif" font-size="10.00" fill="#000000">state:State</text>
<text text-anchor="start" x="180.2705" y="-1409" font-family="Helvetica,sans-Serif" font-size="10.00" fill="#000000">shutdown_started:bool</text>
<text text-anchor="start" x="199.4505" y="-1397" font-family="Helvetica,sans-Serif" font-size="10.00" fill="#000000">modbus_elms</text>
<text text-anchor="start" x="195.573" y="-1385" font-family="Helvetica,sans-Serif" font-size="10.00" fill="#000000">mb_timer:Timer</text>
<text text-anchor="start" x="204.451" y="-1373" font-family="Helvetica,sans-Serif" font-size="10.00" fill="#000000">mb_timeout</text>
<text text-anchor="start" x="193.6185" y="-1361" font-family="Helvetica,sans-Serif" font-size="10.00" fill="#000000">mb_first_timeout</text>
<text text-anchor="start" x="184.72" y="-1349" font-family="Helvetica,sans-Serif" font-size="10.00" fill="#000000">modbus_polling:bool</text>
<polygon fill="none" stroke="#000000" points="155.066,-1196 155.066,-1336 306.066,-1336 306.066,-1196 155.066,-1196"/>
<text text-anchor="start" x="169.447" y="-1317" font-family="Helvetica,sans-Serif" font-size="10.00" fill="#000000">_set_config_parms(inv:dict)</text>
<text text-anchor="start" x="165.0025" y="-1305" font-family="Helvetica,sans-Serif" font-size="10.00" fill="#000000">_set_mqtt_timestamp(key, ts)</text>
<text text-anchor="start" x="208.066" y="-1293" font-family="Helvetica,sans-Serif" font-size="10.00" fill="#000000">_timeout()</text>
<text text-anchor="start" x="180.8335" y="-1281" font-family="Helvetica,sans-Serif" font-size="10.00" fill="#000000">_send_modbus_cmd()</text>
<text text-anchor="start" x="164.715" y="-1269" font-family="Helvetica,sans-Serif" font-size="10.00" fill="#000000">&lt;async&gt;send_modbus_cmd()</text>
<text text-anchor="start" x="179.7185" y="-1257" font-family="Helvetica,sans-Serif" font-size="10.00" fill="#000000">_send_modbus_scan()</text>
<text text-anchor="start" x="178.054" y="-1245" font-family="Helvetica,sans-Serif" font-size="10.00" fill="#000000">_dump_modbus_scan()</text>
<text text-anchor="start" x="215.5685" y="-1233" font-family="Helvetica,sans-Serif" font-size="10.00" fill="#000000">close()</text>
<text text-anchor="start" x="201.3965" y="-1221" font-family="Helvetica,sans-Serif" font-size="10.00" fill="#000000">inc_counter()</text>
<text text-anchor="start" x="199.7265" y="-1209" font-family="Helvetica,sans-Serif" font-size="10.00" fill="#000000">dec_counter()</text>
</g>
<!-- A13&#45;&gt;A5 -->
<g id="edge13" class="edge">
<title>A13&#45;&gt;A5</title>
<path fill="none" stroke="#000000" d="M209.2902,-1195.9056C207.8967,-1182.6185 206.4991,-1169.2927 205.1209,-1156.1518"/>
<polygon fill="#000000" stroke="#000000" points="204.0712,-1146.1426 209.5898,-1155.6186 204.5928,-1151.1153 205.1143,-1156.0881 205.1143,-1156.0881 205.1143,-1156.0881 204.5928,-1151.1153 200.6389,-1156.5575 204.0712,-1146.1426 204.0712,-1146.1426"/>
<text text-anchor="middle" x="198.9933" y="-1175.7599" font-family="Helvetica,sans-Serif" font-size="10.00" fill="#000000">use</text>
</g>
<!-- A13&#45;&gt;A10 -->
<g id="edge16" class="edge">
<title>A13&#45;&gt;A10</title>
<path fill="none" stroke="#000000" d="M262.9659,-1185.8135C283.5931,-1055.2874 309.7059,-890.0494 328.3192,-772.2668"/>
<polygon fill="none" stroke="#000000" points="259.4691,-1185.519 261.3652,-1195.9428 266.3833,-1186.6118 259.4691,-1185.519"/>
</g>
<!-- A14&#45;&gt;A13 -->
<g id="edge15" class="edge">
<title>A14&#45;&gt;A13</title>
<path fill="none" stroke="#000000" stroke-dasharray="5,2" d="M187.8521,-1709.7603C192.164,-1677.5066 197.804,-1635.3194 203.5512,-1592.3307"/>
<polygon fill="none" stroke="#000000" points="184.3563,-1709.4961 186.5003,-1719.8717 191.2946,-1710.4237 184.3563,-1709.4961"/>
</g>
<!-- A15 -->
<g id="node16" class="node">
<title>A15</title>
<polygon fill="none" stroke="#000000" points="244.066,-1862 244.066,-1894 319.066,-1894 319.066,-1862 244.066,-1862"/>
<text text-anchor="start" x="263.7835" y="-1875" font-family="Helvetica,sans-Serif" font-size="10.00" fill="#000000">Modbus</text>
<polygon fill="none" stroke="#000000" points="244.066,-1710 244.066,-1862 319.066,-1862 319.066,-1710 244.066,-1710"/>
<text text-anchor="start" x="273.2275" y="-1843" font-family="Helvetica,sans-Serif" font-size="10.00" fill="#000000">que</text>
<text text-anchor="start" x="254.056" y="-1819" font-family="Helvetica,sans-Serif" font-size="10.00" fill="#000000">snd_handler</text>
<text text-anchor="start" x="255.171" y="-1807" font-family="Helvetica,sans-Serif" font-size="10.00" fill="#000000">rsp_handler</text>
<text text-anchor="start" x="265.1745" y="-1795" font-family="Helvetica,sans-Serif" font-size="10.00" fill="#000000">timeout</text>
<text text-anchor="start" x="255.4555" y="-1783" font-family="Helvetica,sans-Serif" font-size="10.00" fill="#000000">max_retires</text>
<text text-anchor="start" x="263.508" y="-1771" font-family="Helvetica,sans-Serif" font-size="10.00" fill="#000000">last_xxx</text>
<text text-anchor="start" x="275.4575" y="-1759" font-family="Helvetica,sans-Serif" font-size="10.00" fill="#000000">err</text>
<text text-anchor="start" x="262.1195" y="-1747" font-family="Helvetica,sans-Serif" font-size="10.00" fill="#000000">retry_cnt</text>
<text text-anchor="start" x="260.445" y="-1735" font-family="Helvetica,sans-Serif" font-size="10.00" fill="#000000">req_pend</text>
<text text-anchor="start" x="274.9025" y="-1723" font-family="Helvetica,sans-Serif" font-size="10.00" fill="#000000">tim</text>
<polygon fill="none" stroke="#000000" points="244.066,-1642 244.066,-1710 319.066,-1710 319.066,-1642 244.066,-1642"/>
<text text-anchor="start" x="255.456" y="-1691" font-family="Helvetica,sans-Serif" font-size="10.00" fill="#000000">build_msg()</text>
<text text-anchor="start" x="258.79" y="-1679" font-family="Helvetica,sans-Serif" font-size="10.00" fill="#000000">recv_req()</text>
<text text-anchor="start" x="256.29" y="-1667" font-family="Helvetica,sans-Serif" font-size="10.00" fill="#000000">recv_resp()</text>
<text text-anchor="start" x="266.5685" y="-1655" font-family="Helvetica,sans-Serif" font-size="10.00" fill="#000000">close()</text>
</g>
<!-- A15&#45;&gt;A13 -->
<g id="edge17" class="edge">
<title>A15&#45;&gt;A13</title>
<path fill="none" stroke="#000000" d="M262.4684,-1631.6179C260.7062,-1618.6948 258.8964,-1605.4228 257.0763,-1592.0754"/>
<polygon fill="#000000" stroke="#000000" points="263.8708,-1641.9021 258.0609,-1632.6018 263.1952,-1636.9479 262.5196,-1631.9938 262.5196,-1631.9938 262.5196,-1631.9938 263.1952,-1636.9479 266.9783,-1631.3857 263.8708,-1641.9021 263.8708,-1641.9021"/>
<text text-anchor="middle" x="267.9002" y="-1605.8933" font-family="Helvetica,sans-Serif" font-size="10.00" fill="#000000">has</text>
<text text-anchor="middle" x="253.0469" y="-1622.0841" font-family="Helvetica,sans-Serif" font-size="10.00" fill="#000000">0..1</text>
</g>
</g>
</svg>
