<?xml version="1.0" encoding="UTF-8" standalone="no"?>
<!DOCTYPE svg PUBLIC "-//W3C//DTD SVG 1.1//EN"
 "http://www.w3.org/Graphics/SVG/1.1/DTD/svg11.dtd">
<!-- Generated by graphviz version 2.40.1 (20161225.0304)
 -->
<!-- Title: G Pages: 1 -->
<svg width="539pt" height="1940pt"
 viewBox="0.00 0.00 538.62 1940.00" xmlns="http://www.w3.org/2000/svg" xmlns:xlink="http://www.w3.org/1999/xlink">
<g id="graph0" class="graph" transform="scale(1 1) rotate(0) translate(4 1936)">
<title>G</title>
<polygon fill="#ffffff" stroke="transparent" points="-4,4 -4,-1936 534.6165,-1936 534.6165,4 -4,4"/>
<!-- A0 -->
<g id="node1" class="node">
<title>A0</title>
<polygon fill="#fff8dc" stroke="#000000" points="114.3497,-1912 -.1167,-1912 -.1167,-1868 120.3497,-1868 120.3497,-1906 114.3497,-1912"/>
<polyline fill="none" stroke="#000000" points="114.3497,-1912 114.3497,-1906 "/>
<polyline fill="none" stroke="#000000" points="120.3497,-1906 114.3497,-1906 "/>
<text text-anchor="middle" x="60.1165" y="-1899" font-family="Helvetica,sans-Serif" font-size="10.00" fill="#000000">Example of</text>
<text text-anchor="middle" x="60.1165" y="-1887" font-family="Helvetica,sans-Serif" font-size="10.00" fill="#000000">instantiation for a</text>
<text text-anchor="middle" x="60.1165" y="-1875" font-family="Helvetica,sans-Serif" font-size="10.00" fill="#000000">GEN3PLUS inverter!</text>
</g>
<!-- A1 -->
<g id="node2" class="node">
<title>A1</title>
<polygon fill="none" stroke="#000000" points="138.1165,-1900 138.1165,-1932 254.1165,-1932 254.1165,-1900 138.1165,-1900"/>
<text text-anchor="start" x="147.7655" y="-1913" font-family="Helvetica,sans-Serif" font-size="10.00" fill="#000000">&lt;&lt;AbstractIterMeta&gt;&gt;</text>
<polygon fill="none" stroke="#000000" points="138.1165,-1880 138.1165,-1900 254.1165,-1900 254.1165,-1880 138.1165,-1880"/>
<polygon fill="none" stroke="#000000" points="138.1165,-1848 138.1165,-1880 254.1165,-1880 254.1165,-1848 138.1165,-1848"/>
<text text-anchor="start" x="174.7265" y="-1861" font-family="Helvetica,sans-Serif" font-size="10.00" fill="#000000">__iter__()</text>
</g>
<!-- A14 -->
<g id="node15" class="node">
<title>A14</title>
<polygon fill="none" stroke="#000000" points="151.1165,-1688 151.1165,-1720 241.1165,-1720 241.1165,-1688 151.1165,-1688"/>
<text text-anchor="start" x="160.823" y="-1701" font-family="Helvetica,sans-Serif" font-size="10.00" fill="#000000">&lt;&lt;ProtocolIfc&gt;&gt;</text>
<polygon fill="none" stroke="#000000" points="151.1165,-1656 151.1165,-1688 241.1165,-1688 241.1165,-1656 151.1165,-1656"/>
<text text-anchor="start" x="176.95" y="-1669" font-family="Helvetica,sans-Serif" font-size="10.00" fill="#000000">_registry</text>
<polygon fill="none" stroke="#000000" points="151.1165,-1624 151.1165,-1656 241.1165,-1656 241.1165,-1624 151.1165,-1624"/>
<text text-anchor="start" x="181.119" y="-1637" font-family="Helvetica,sans-Serif" font-size="10.00" fill="#000000">close()</text>
</g>
<!-- A1&#45;&gt;A14 -->
<g id="edge14" class="edge">
<title>A1&#45;&gt;A14</title>
<path fill="none" stroke="#000000" stroke-dasharray="5,2" d="M196.1165,-1837.756C196.1165,-1802.0883 196.1165,-1755.1755 196.1165,-1720.3644"/>
<polygon fill="none" stroke="#000000" points="192.6166,-1837.9674 196.1165,-1847.9674 199.6166,-1837.9674 192.6166,-1837.9674"/>
</g>
<!-- A2 -->
<g id="node3" class="node">
<title>A2</title>
<polygon fill="none" stroke="#000000" points="199.1165,-632 199.1165,-664 297.1165,-664 297.1165,-632 199.1165,-632"/>
<text text-anchor="start" x="221.1665" y="-645" font-family="Helvetica,sans-Serif" font-size="10.00" fill="#000000">InverterG3P</text>
<polygon fill="none" stroke="#000000" points="199.1165,-576 199.1165,-632 297.1165,-632 297.1165,-576 199.1165,-576"/>
<text text-anchor="start" x="238.1135" y="-613" font-family="Helvetica,sans-Serif" font-size="10.00" fill="#000000">addr</text>
<text text-anchor="start" x="208.6695" y="-601" font-family="Helvetica,sans-Serif" font-size="10.00" fill="#000000">remote:StreamPtr</text>
<text text-anchor="start" x="213.9485" y="-589" font-family="Helvetica,sans-Serif" font-size="10.00" fill="#000000">local:StreamPtr</text>
<polygon fill="none" stroke="#000000" points="199.1165,-520 199.1165,-576 297.1165,-576 297.1165,-520 199.1165,-520"/>
<text text-anchor="start" x="212.5585" y="-557" font-family="Helvetica,sans-Serif" font-size="10.00" fill="#000000">create_remote()</text>
<text text-anchor="start" x="233.119" y="-533" font-family="Helvetica,sans-Serif" font-size="10.00" fill="#000000">close()</text>
</g>
<!-- A3 -->
<g id="node4" class="node">
<title>A3</title>
<polygon fill="none" stroke="#000000" points="415.4531,-320 318.7799,-320 318.7799,-284 415.4531,-284 415.4531,-320"/>
<text text-anchor="middle" x="367.1165" y="-299" font-family="Helvetica,sans-Serif" font-size="10.00" fill="#000000">local:StreamPtr</text>
</g>
<!-- A2&#45;&gt;A3 -->
<g id="edge1" class="edge">
<title>A2&#45;&gt;A3</title>
<path fill="none" stroke="#000000" d="M282.2534,-508.8093C307.0525,-448.3743 339.0836,-370.3156 355.8099,-329.5539"/>
<polygon fill="#000000" stroke="#000000" points="282.2407,-508.8403 283.6635,-515.9097 277.6851,-519.942 276.2624,-512.8726 282.2407,-508.8403"/>
<polygon fill="#000000" stroke="#000000" points="359.6225,-320.2627 359.9893,-331.2224 357.7243,-324.8884 355.8262,-329.5141 355.8262,-329.5141 355.8262,-329.5141 357.7243,-324.8884 351.663,-327.8058 359.6225,-320.2627 359.6225,-320.2627"/>
</g>
<!-- A4 -->
<g id="node5" class="node">
<title>A4</title>
<polygon fill="none" stroke="#000000" points="300.5106,-320 193.7224,-320 193.7224,-284 300.5106,-284 300.5106,-320"/>
<text text-anchor="middle" x="247.1165" y="-299" font-family="Helvetica,sans-Serif" font-size="10.00" fill="#000000">remote:StreamPtr</text>
</g>
<!-- A2&#45;&gt;A4 -->
<g id="edge2" class="edge">
<title>A2&#45;&gt;A4</title>
<path fill="none" stroke="#000000" d="M247.8254,-507.5905C247.6188,-447.68 247.3542,-370.9429 247.214,-330.266"/>
<polygon fill="#000000" stroke="#000000" points="247.8265,-507.9421 251.8473,-513.9282 247.868,-519.942 243.8473,-513.9559 247.8265,-507.9421"/>
<polygon fill="#000000" stroke="#000000" points="247.1795,-320.2627 251.714,-330.2471 247.1968,-325.2627 247.2141,-330.2626 247.2141,-330.2626 247.2141,-330.2626 247.1968,-325.2627 242.7141,-330.2782 247.1795,-320.2627 247.1795,-320.2627"/>
</g>
<!-- A8 -->
<g id="node9" class="node">
<title>A8</title>
<polygon fill="none" stroke="#000000" points="261.1165,-100 261.1165,-132 439.1165,-132 439.1165,-100 261.1165,-100"/>
<text text-anchor="start" x="305.668" y="-113" font-family="Helvetica,sans-Serif" font-size="10.00" fill="#000000">AsyncStreamServer</text>
<polygon fill="none" stroke="#000000" points="261.1165,-68 261.1165,-100 439.1165,-100 439.1165,-68 261.1165,-68"/>
<text text-anchor="start" x="317.8875" y="-81" font-family="Helvetica,sans-Serif" font-size="10.00" fill="#000000">create_remote</text>
<polygon fill="none" stroke="#000000" points="261.1165,0 261.1165,-68 439.1165,-68 439.1165,0 261.1165,0"/>
<text text-anchor="start" x="301.774" y="-49" font-family="Helvetica,sans-Serif" font-size="10.00" fill="#000000">&lt;async&gt;server_loop()</text>
<text text-anchor="start" x="292.605" y="-37" font-family="Helvetica,sans-Serif" font-size="10.00" fill="#000000">&lt;async&gt;_async_forward()</text>
<text text-anchor="start" x="270.9255" y="-25" font-family="Helvetica,sans-Serif" font-size="10.00" fill="#000000">&lt;async&gt;publish_outstanding_mqtt()</text>
<text text-anchor="start" x="335.119" y="-13" font-family="Helvetica,sans-Serif" font-size="10.00" fill="#000000">close()</text>
</g>
<!-- A3&#45;&gt;A8 -->
<g id="edge8" class="edge">
<title>A3&#45;&gt;A8</title>
<path fill="none" stroke="#000000" d="M364.9314,-271.6651C362.5869,-239.1181 358.7725,-186.1658 355.6014,-142.1431"/>
<polygon fill="#000000" stroke="#000000" points="364.9485,-271.9044 369.3693,-277.6014 365.8108,-283.8733 361.39,-278.1763 364.9485,-271.9044"/>
<polygon fill="#000000" stroke="#000000" points="354.8731,-132.0321 360.08,-141.6829 355.2323,-137.0192 355.5916,-142.0063 355.5916,-142.0063 355.5916,-142.0063 355.2323,-137.0192 351.1032,-142.3296 354.8731,-132.0321 354.8731,-132.0321"/>
</g>
<!-- A9 -->
<g id="node10" class="node">
<title>A9</title>
<polygon fill="none" stroke="#000000" points="89.1165,-82 89.1165,-114 227.1165,-114 227.1165,-82 89.1165,-82"/>
<text text-anchor="start" x="115.6135" y="-95" font-family="Helvetica,sans-Serif" font-size="10.00" fill="#000000">AsyncStreamClient</text>
<polygon fill="none" stroke="#000000" points="89.1165,-62 89.1165,-82 227.1165,-82 227.1165,-62 89.1165,-62"/>
<polygon fill="none" stroke="#000000" points="89.1165,-18 89.1165,-62 227.1165,-62 227.1165,-18 89.1165,-18"/>
<text text-anchor="start" x="111.9945" y="-43" font-family="Helvetica,sans-Serif" font-size="10.00" fill="#000000">&lt;async&gt;client_loop()</text>
<text text-anchor="start" x="98.9405" y="-31" font-family="Helvetica,sans-Serif" font-size="10.00" fill="#000000">&lt;async&gt;_async_forward())</text>
</g>
<!-- A4&#45;&gt;A9 -->
<g id="edge10" class="edge">
<title>A4&#45;&gt;A9</title>
<path fill="none" stroke="#000000" d="M240.2806,-283.8733C227.5204,-250.0372 199.5834,-175.9573 179.8383,-123.5994"/>
<polygon fill="#000000" stroke="#000000" points="176.2523,-114.0904 183.9915,-121.8593 178.0166,-118.7688 179.781,-123.4472 179.781,-123.4472 179.781,-123.4472 178.0166,-118.7688 175.5704,-125.0351 176.2523,-114.0904 176.2523,-114.0904"/>
<text text-anchor="middle" x="225.9759" y="-266.8956" font-family="Helvetica,sans-Serif" font-size="10.00" fill="#000000">0..1</text>
</g>
<!-- A5 -->
<g id="node6" class="node">
<title>A5</title>
<polygon fill="none" stroke="#000000" points="145.1165,-1054 145.1165,-1086 262.1165,-1086 262.1165,-1054 145.1165,-1054"/>
<text text-anchor="start" x="173.0455" y="-1067" font-family="Helvetica,sans-Serif" font-size="10.00" fill="#000000">&lt;&lt;AsyncIfc&gt;&gt;</text>
<polygon fill="none" stroke="#000000" points="145.1165,-1034 145.1165,-1054 262.1165,-1054 262.1165,-1034 145.1165,-1034"/>
<polygon fill="none" stroke="#000000" points="145.1165,-762 145.1165,-1034 262.1165,-1034 262.1165,-762 145.1165,-762"/>
<text text-anchor="start" x="173.0525" y="-1015" font-family="Helvetica,sans-Serif" font-size="10.00" fill="#000000">set_node_id()</text>
<text text-anchor="start" x="171.3825" y="-1003" font-family="Helvetica,sans-Serif" font-size="10.00" fill="#000000">get_conn_no()</text>
<text text-anchor="start" x="185.28" y="-979" font-family="Helvetica,sans-Serif" font-size="10.00" fill="#000000">tx_add()</text>
<text text-anchor="start" x="183.0605" y="-967" font-family="Helvetica,sans-Serif" font-size="10.00" fill="#000000">tx_flush()</text>
<text text-anchor="start" x="186.67" y="-955" font-family="Helvetica,sans-Serif" font-size="10.00" fill="#000000">tx_get()</text>
<text text-anchor="start" x="182.78" y="-943" font-family="Helvetica,sans-Serif" font-size="10.00" fill="#000000">tx_peek()</text>
<text text-anchor="start" x="186.95" y="-931" font-family="Helvetica,sans-Serif" font-size="10.00" fill="#000000">tx_log()</text>
<text text-anchor="start" x="182.7855" y="-919" font-family="Helvetica,sans-Serif" font-size="10.00" fill="#000000">tx_clear()</text>
<text text-anchor="start" x="186.95" y="-907" font-family="Helvetica,sans-Serif" font-size="10.00" fill="#000000">tx_len()</text>
<text text-anchor="start" x="181.391" y="-883" font-family="Helvetica,sans-Serif" font-size="10.00" fill="#000000">fwd_add()</text>
<text text-anchor="start" x="183.061" y="-871" font-family="Helvetica,sans-Serif" font-size="10.00" fill="#000000">fwd_log()</text>
<text text-anchor="start" x="186.395" y="-859" font-family="Helvetica,sans-Serif" font-size="10.00" fill="#000000">rx_get()</text>
<text text-anchor="start" x="182.505" y="-847" font-family="Helvetica,sans-Serif" font-size="10.00" fill="#000000">rx_peek()</text>
<text text-anchor="start" x="186.675" y="-835" font-family="Helvetica,sans-Serif" font-size="10.00" fill="#000000">rx_log()</text>
<text text-anchor="start" x="182.5105" y="-823" font-family="Helvetica,sans-Serif" font-size="10.00" fill="#000000">rx_clear()</text>
<text text-anchor="start" x="186.675" y="-811" font-family="Helvetica,sans-Serif" font-size="10.00" fill="#000000">rx_len()</text>
<text text-anchor="start" x="178.6155" y="-799" font-family="Helvetica,sans-Serif" font-size="10.00" fill="#000000">rx_set_cb()</text>
<text text-anchor="start" x="154.996" y="-775" font-family="Helvetica,sans-Serif" font-size="10.00" fill="#000000">prot_set_timeout_cb()</text>
</g>
<!-- A6 -->
<g id="node7" class="node">
<title>A6</title>
<polygon fill="none" stroke="#000000" points="84.1165,-622 84.1165,-654 177.1165,-654 177.1165,-622 84.1165,-622"/>
<text text-anchor="start" x="102.2805" y="-635" font-family="Helvetica,sans-Serif" font-size="10.00" fill="#000000">AsyncIfcImpl</text>
<polygon fill="none" stroke="#000000" points="84.1165,-530 84.1165,-622 177.1165,-622 177.1165,-530 84.1165,-530"/>
<text text-anchor="start" x="93.6645" y="-603" font-family="Helvetica,sans-Serif" font-size="10.00" fill="#000000">fwd_fifo:ByteFifo</text>
<text text-anchor="start" x="97.5535" y="-591" font-family="Helvetica,sans-Serif" font-size="10.00" fill="#000000">tx_fifo:ByteFifo</text>
<text text-anchor="start" x="97.2785" y="-579" font-family="Helvetica,sans-Serif" font-size="10.00" fill="#000000">rx_fifo:ByteFifo</text>
<text text-anchor="start" x="96.7125" y="-567" font-family="Helvetica,sans-Serif" font-size="10.00" fill="#000000">conn_no:Count</text>
<text text-anchor="start" x="112.83" y="-555" font-family="Helvetica,sans-Serif" font-size="10.00" fill="#000000">node_id</text>
<text text-anchor="start" x="106.166" y="-543" font-family="Helvetica,sans-Serif" font-size="10.00" fill="#000000">timeout_cb</text>
</g>
<!-- A5&#45;&gt;A6 -->
<g id="edge3" class="edge">
<title>A5&#45;&gt;A6</title>
<path fill="none" stroke="#000000" stroke-dasharray="5,2" d="M165.2976,-752.0017C157.592,-716.9571 149.9649,-682.2694 143.7924,-654.1971"/>
<polygon fill="none" stroke="#000000" points="161.906,-752.8753 167.4719,-761.8903 168.7427,-751.372 161.906,-752.8753"/>
</g>
<!-- A7 -->
<g id="node8" class="node">
<title>A7</title>
<polygon fill="none" stroke="#000000" points="74.1165,-390 74.1165,-422 176.1165,-422 176.1165,-390 74.1165,-390"/>
<text text-anchor="start" x="95.3905" y="-403" font-family="Helvetica,sans-Serif" font-size="10.00" fill="#000000">AsyncStream</text>
<polygon fill="none" stroke="#000000" points="74.1165,-310 74.1165,-390 176.1165,-390 176.1165,-310 74.1165,-310"/>
<text text-anchor="start" x="110.6695" y="-371" font-family="Helvetica,sans-Serif" font-size="10.00" fill="#000000">reader</text>
<text text-anchor="start" x="112.8995" y="-359" font-family="Helvetica,sans-Serif" font-size="10.00" fill="#000000">writer</text>
<text text-anchor="start" x="115.1135" y="-347" font-family="Helvetica,sans-Serif" font-size="10.00" fill="#000000">addr</text>
<text text-anchor="start" x="110.6695" y="-335" font-family="Helvetica,sans-Serif" font-size="10.00" fill="#000000">r_addr</text>
<text text-anchor="start" x="111.2245" y="-323" font-family="Helvetica,sans-Serif" font-size="10.00" fill="#000000">l_addr</text>
<polygon fill="none" stroke="#000000" points="74.1165,-182 74.1165,-310 176.1165,-310 176.1165,-182 74.1165,-182"/>
<text text-anchor="start" x="96.7705" y="-279" font-family="Helvetica,sans-Serif" font-size="10.00" fill="#000000">&lt;async&gt;loop</text>
<text text-anchor="start" x="112.8985" y="-267" font-family="Helvetica,sans-Serif" font-size="10.00" fill="#000000">disc()</text>
<text text-anchor="start" x="110.119" y="-255" font-family="Helvetica,sans-Serif" font-size="10.00" fill="#000000">close()</text>
<text text-anchor="start" x="105.6705" y="-243" font-family="Helvetica,sans-Serif" font-size="10.00" fill="#000000">healthy()</text>
<text text-anchor="start" x="90.387" y="-219" font-family="Helvetica,sans-Serif" font-size="10.00" fill="#000000">__async_read()</text>
<text text-anchor="start" x="89.8375" y="-207" font-family="Helvetica,sans-Serif" font-size="10.00" fill="#000000">__async_write()</text>
<text text-anchor="start" x="83.7235" y="-195" font-family="Helvetica,sans-Serif" font-size="10.00" fill="#000000">__async_forward()</text>
</g>
<!-- A6&#45;&gt;A7 -->
<g id="edge4" class="edge">
<title>A6&#45;&gt;A7</title>
<path fill="none" stroke="#000000" d="M128.868,-519.5861C128.3592,-490.0737 127.7571,-455.1552 127.186,-422.0295"/>
<polygon fill="none" stroke="#000000" points="125.3719,-519.8496 129.0439,-529.7877 132.3709,-519.7288 125.3719,-519.8496"/>
</g>
<!-- A7&#45;&gt;A8 -->
<g id="edge5" class="edge">
<title>A7&#45;&gt;A8</title>
<path fill="none" stroke="#000000" d="M182.5777,-185.0204C183.4154,-184.0001 184.2616,-182.9929 185.1165,-182 206.4788,-157.1889 234.2469,-135.0276 260.8921,-116.8901"/>
<polygon fill="none" stroke="#000000" points="179.6875,-183.0361 176.3256,-193.0834 185.2193,-187.3255 179.6875,-183.0361"/>
</g>
<!-- A7&#45;&gt;A9 -->
<g id="edge6" class="edge">
<title>A7&#45;&gt;A9</title>
<path fill="none" stroke="#000000" d="M143.3214,-171.8077C146.1952,-151.2556 148.9992,-131.2022 151.3799,-114.1772"/>
<polygon fill="none" stroke="#000000" points="139.8252,-171.5375 141.9065,-181.9259 146.7577,-172.5069 139.8252,-171.5375"/>
</g>
<!-- A10 -->
<g id="node11" class="node">
<title>A10</title>
<polygon fill="none" stroke="#000000" points="318.1165,-668 318.1165,-700 409.1165,-700 409.1165,-668 318.1165,-668"/>
<text text-anchor="start" x="336.1115" y="-681" font-family="Helvetica,sans-Serif" font-size="10.00" fill="#000000">SolarmanV5</text>
<polygon fill="none" stroke="#000000" points="318.1165,-552 318.1165,-668 409.1165,-668 409.1165,-552 318.1165,-552"/>
<text text-anchor="start" x="344.4395" y="-649" font-family="Helvetica,sans-Serif" font-size="10.00" fill="#000000">conn_no</text>
<text text-anchor="start" x="353.6135" y="-637" font-family="Helvetica,sans-Serif" font-size="10.00" fill="#000000">addr</text>
<text text-anchor="start" x="348.6145" y="-613" font-family="Helvetica,sans-Serif" font-size="10.00" fill="#000000">control</text>
<text text-anchor="start" x="351.674" y="-601" font-family="Helvetica,sans-Serif" font-size="10.00" fill="#000000">serial</text>
<text text-anchor="start" x="356.6725" y="-589" font-family="Helvetica,sans-Serif" font-size="10.00" fill="#000000">snr</text>
<text text-anchor="start" x="335.8265" y="-577" font-family="Helvetica,sans-Serif" font-size="10.00" fill="#000000">db:InfosG3P</text>
<text text-anchor="start" x="349.7285" y="-565" font-family="Helvetica,sans-Serif" font-size="10.00" fill="#000000">switch</text>
<polygon fill="none" stroke="#000000" points="318.1165,-484 318.1165,-552 409.1165,-552 409.1165,-484 318.1165,-484"/>
<text text-anchor="start" x="328.057" y="-533" font-family="Helvetica,sans-Serif" font-size="10.00" fill="#000000">msg_unknown()</text>
<text text-anchor="start" x="344.1705" y="-509" font-family="Helvetica,sans-Serif" font-size="10.00" fill="#000000">healthy()</text>
<text text-anchor="start" x="348.619" y="-497" font-family="Helvetica,sans-Serif" font-size="10.00" fill="#000000">close()</text>
</g>
<!-- A10&#45;&gt;A3 -->
<g id="edge7" class="edge">
<title>A10&#45;&gt;A3</title>
<path fill="none" stroke="#000000" d="M364.7507,-473.5237C365.4625,-421.9136 366.2384,-365.6622 366.7008,-332.138"/>
<polygon fill="#000000" stroke="#000000" points="364.6116,-483.6023 360.2501,-473.5412 364.6806,-478.6028 364.7497,-473.6033 364.7497,-473.6033 364.7497,-473.6033 364.6806,-478.6028 369.2492,-473.6654 364.6116,-483.6023 364.6116,-483.6023"/>
<polygon fill="#000000" stroke="#000000" points="366.7019,-332.0519 362.7851,-325.9973 366.8675,-320.053 370.7843,-326.1077 366.7019,-332.0519"/>
</g>
<!-- A10&#45;&gt;A4 -->
<g id="edge9" class="edge">
<title>A10&#45;&gt;A4</title>
<path fill="none" stroke="#000000" d="M316.0157,-474.2481C292.5547,-415.5956 266.6257,-350.7729 254.3377,-320.053"/>
<polygon fill="#000000" stroke="#000000" points="319.7574,-483.6023 311.8653,-475.9888 317.9004,-478.9599 316.0435,-474.3175 316.0435,-474.3175 316.0435,-474.3175 317.9004,-478.9599 320.2216,-472.6462 319.7574,-483.6023 319.7574,-483.6023"/>
<text text-anchor="middle" x="268.9174" y="-330.7436" font-family="Helvetica,sans-Serif" font-size="10.00" fill="#000000">0..1</text>
</g>
<!-- A12 -->
<g id="node13" class="node">
<title>A12</title>
<polygon fill="none" stroke="#000000" points="434.1165,-336 434.1165,-368 529.1165,-368 529.1165,-336 434.1165,-336"/>
<text text-anchor="start" x="460.775" y="-349" font-family="Helvetica,sans-Serif" font-size="10.00" fill="#000000">InfosG3P</text>
<polygon fill="none" stroke="#000000" points="434.1165,-304 434.1165,-336 529.1165,-336 529.1165,-304 434.1165,-304"/>
<text text-anchor="start" x="443.829" y="-317" font-family="Helvetica,sans-Serif" font-size="10.00" fill="#000000">client_mode:bool</text>
<polygon fill="none" stroke="#000000" points="434.1165,-236 434.1165,-304 529.1165,-304 529.1165,-236 434.1165,-236"/>
<text text-anchor="start" x="458.0005" y="-285" font-family="Helvetica,sans-Serif" font-size="10.00" fill="#000000">ha_confs()</text>
<text text-anchor="start" x="465.7845" y="-273" font-family="Helvetica,sans-Serif" font-size="10.00" fill="#000000">parse()</text>
<text text-anchor="start" x="469.3985" y="-261" font-family="Helvetica,sans-Serif" font-size="10.00" fill="#000000">calc()</text>
<text text-anchor="start" x="467.73" y="-249" font-family="Helvetica,sans-Serif" font-size="10.00" fill="#000000">build()</text>
</g>
<!-- A10&#45;&gt;A12 -->
<g id="edge12" class="edge">
<title>A10&#45;&gt;A12</title>
<path fill="none" stroke="#000000" d="M407.2231,-483.6023C421.5819,-448.3138 437.2,-409.9305 450.3629,-377.5809"/>
<polygon fill="#000000" stroke="#000000" points="454.1856,-368.1861 454.5848,-379.1447 452.3011,-372.8174 450.4166,-377.4487 450.4166,-377.4487 450.4166,-377.4487 452.3011,-372.8174 446.2485,-375.7526 454.1856,-368.1861 454.1856,-368.1861"/>
</g>
<!-- A11 -->
<g id="node12" class="node">
<title>A11</title>
<polygon fill="none" stroke="#000000" points="430.1165,-680 430.1165,-712 533.1165,-712 533.1165,-680 430.1165,-680"/>
<text text-anchor="start" x="470.7785" y="-693" font-family="Helvetica,sans-Serif" font-size="10.00" fill="#000000">Infos</text>
<polygon fill="none" stroke="#000000" points="430.1165,-624 430.1165,-680 533.1165,-680 533.1165,-624 430.1165,-624"/>
<text text-anchor="start" x="473.558" y="-661" font-family="Helvetica,sans-Serif" font-size="10.00" fill="#000000">stat</text>
<text text-anchor="start" x="449.1025" y="-649" font-family="Helvetica,sans-Serif" font-size="10.00" fill="#000000">new_stat_data</text>
<text text-anchor="start" x="462.72" y="-637" font-family="Helvetica,sans-Serif" font-size="10.00" fill="#000000">info_dev</text>
<polygon fill="none" stroke="#000000" points="430.1165,-472 430.1165,-624 533.1165,-624 533.1165,-472 430.1165,-472"/>
<text text-anchor="start" x="457.452" y="-605" font-family="Helvetica,sans-Serif" font-size="10.00" fill="#000000">static_init()</text>
<text text-anchor="start" x="455.501" y="-593" font-family="Helvetica,sans-Serif" font-size="10.00" fill="#000000">dev_value()</text>
<text text-anchor="start" x="452.447" y="-581" font-family="Helvetica,sans-Serif" font-size="10.00" fill="#000000">inc_counter()</text>
<text text-anchor="start" x="450.777" y="-569" font-family="Helvetica,sans-Serif" font-size="10.00" fill="#000000">dec_counter()</text>
<text text-anchor="start" x="448.8265" y="-557" font-family="Helvetica,sans-Serif" font-size="10.00" fill="#000000">ha_proxy_conf</text>
<text text-anchor="start" x="463.8295" y="-545" font-family="Helvetica,sans-Serif" font-size="10.00" fill="#000000">ha_conf</text>
<text text-anchor="start" x="456.6105" y="-533" font-family="Helvetica,sans-Serif" font-size="10.00" fill="#000000">ha_remove</text>
<text text-anchor="start" x="457.991" y="-521" font-family="Helvetica,sans-Serif" font-size="10.00" fill="#000000">update_db</text>
<text text-anchor="start" x="442.1535" y="-509" font-family="Helvetica,sans-Serif" font-size="10.00" fill="#000000">set_db_def_value</text>
<text text-anchor="start" x="451.602" y="-497" font-family="Helvetica,sans-Serif" font-size="10.00" fill="#000000">get_db_value</text>
<text text-anchor="start" x="439.939" y="-485" font-family="Helvetica,sans-Serif" font-size="10.00" fill="#000000">ignore_this_device</text>
</g>
<!-- A11&#45;&gt;A12 -->
<g id="edge11" class="edge">
<title>A11&#45;&gt;A12</title>
<path fill="none" stroke="#000000" d="M481.1165,-461.9134C481.1165,-429.4373 481.1165,-395.9527 481.1165,-368.0691"/>
<polygon fill="none" stroke="#000000" points="477.6166,-461.9525 481.1165,-471.9525 484.6166,-461.9526 477.6166,-461.9525"/>
</g>
<!-- A13 -->
<g id="node14" class="node">
<title>A13</title>
<polygon fill="none" stroke="#000000" points="172.1165,-1464 172.1165,-1496 321.1165,-1496 321.1165,-1464 172.1165,-1464"/>
<text text-anchor="start" x="226.334" y="-1477" font-family="Helvetica,sans-Serif" font-size="10.00" fill="#000000">Message</text>
<polygon fill="none" stroke="#000000" points="172.1165,-1240 172.1165,-1464 321.1165,-1464 321.1165,-1240 172.1165,-1240"/>
<text text-anchor="start" x="209.943" y="-1445" font-family="Helvetica,sans-Serif" font-size="10.00" fill="#000000">server_side:bool</text>
<text text-anchor="start" x="220.5005" y="-1433" font-family="Helvetica,sans-Serif" font-size="10.00" fill="#000000">mb:Modbus</text>
<text text-anchor="start" x="221.335" y="-1421" font-family="Helvetica,sans-Serif" font-size="10.00" fill="#000000">ifc:AsyncIfc</text>
<text text-anchor="start" x="228.83" y="-1409" font-family="Helvetica,sans-Serif" font-size="10.00" fill="#000000">node_id</text>
<text text-anchor="start" x="207.1595" y="-1397" font-family="Helvetica,sans-Serif" font-size="10.00" fill="#000000">header_valid:bool</text>
<text text-anchor="start" x="221.6065" y="-1385" font-family="Helvetica,sans-Serif" font-size="10.00" fill="#000000">header_len</text>
<text text-anchor="start" x="227.4405" y="-1373" font-family="Helvetica,sans-Serif" font-size="10.00" fill="#000000">data_len</text>
<text text-anchor="start" x="224.941" y="-1361" font-family="Helvetica,sans-Serif" font-size="10.00" fill="#000000">unique_id</text>
<text text-anchor="start" x="218.8315" y="-1349" font-family="Helvetica,sans-Serif" font-size="10.00" fill="#000000">sug_area:str</text>
<text text-anchor="start" x="215.7725" y="-1337" font-family="Helvetica,sans-Serif" font-size="10.00" fill="#000000">new_data:dict</text>
<text text-anchor="start" x="222.7165" y="-1325" font-family="Helvetica,sans-Serif" font-size="10.00" fill="#000000">state:State</text>
<text text-anchor="start" x="196.321" y="-1313" font-family="Helvetica,sans-Serif" font-size="10.00" fill="#000000">shutdown_started:bool</text>
<text text-anchor="start" x="215.501" y="-1301" font-family="Helvetica,sans-Serif" font-size="10.00" fill="#000000">modbus_elms</text>
<text text-anchor="start" x="211.6235" y="-1289" font-family="Helvetica,sans-Serif" font-size="10.00" fill="#000000">mb_timer:Timer</text>
<text text-anchor="start" x="220.5015" y="-1277" font-family="Helvetica,sans-Serif" font-size="10.00" fill="#000000">mb_timeout</text>
<text text-anchor="start" x="209.669" y="-1265" font-family="Helvetica,sans-Serif" font-size="10.00" fill="#000000">mb_first_timeout</text>
<text text-anchor="start" x="200.7705" y="-1253" font-family="Helvetica,sans-Serif" font-size="10.00" fill="#000000">modbus_polling:bool</text>
<polygon fill="none" stroke="#000000" points="172.1165,-1136 172.1165,-1240 321.1165,-1240 321.1165,-1136 172.1165,-1136"/>
<text text-anchor="start" x="195.501" y="-1221" font-family="Helvetica,sans-Serif" font-size="10.00" fill="#000000">_set_mqtt_timestamp()</text>
<text text-anchor="start" x="224.1165" y="-1209" font-family="Helvetica,sans-Serif" font-size="10.00" fill="#000000">_timeout()</text>
<text text-anchor="start" x="196.884" y="-1197" font-family="Helvetica,sans-Serif" font-size="10.00" fill="#000000">_send_modbus_cmd()</text>
<text text-anchor="start" x="181.876" y="-1185" font-family="Helvetica,sans-Serif" font-size="10.00" fill="#000000">&lt;async&gt; end_modbus_cmd()</text>
<text text-anchor="start" x="231.619" y="-1173" font-family="Helvetica,sans-Serif" font-size="10.00" fill="#000000">close()</text>
<text text-anchor="start" x="217.447" y="-1161" font-family="Helvetica,sans-Serif" font-size="10.00" fill="#000000">inc_counter()</text>
<text text-anchor="start" x="215.777" y="-1149" font-family="Helvetica,sans-Serif" font-size="10.00" fill="#000000">dec_counter()</text>
</g>
<!-- A13&#45;&gt;A5 -->
<g id="edge13" class="edge">
<title>A13&#45;&gt;A5</title>
<path fill="none" stroke="#000000" d="M226.347,-1135.7758C224.8967,-1122.5547 223.4359,-1109.2373 221.9911,-1096.0662"/>
<polygon fill="#000000" stroke="#000000" points="220.8898,-1086.0268 226.4535,-1095.4764 221.4351,-1090.997 221.9803,-1095.9672 221.9803,-1095.9672 221.9803,-1095.9672 221.4351,-1090.997 217.5072,-1096.4579 220.8898,-1086.0268 220.8898,-1086.0268"/>
<text text-anchor="middle" x="215.9686" y="-1115.6794" font-family="Helvetica,sans-Serif" font-size="10.00" fill="#000000">use</text>
</g>
<!-- A13&#45;&gt;A10 -->
<g id="edge16" class="edge">
<title>A13&#45;&gt;A10</title>
<path fill="none" stroke="#000000" d="M277.1595,-1125.5329C299.2708,-989.8666 328.1962,-812.3923 346.4719,-700.2604"/>
<polygon fill="none" stroke="#000000" points="273.6668,-1125.205 275.5125,-1135.6378 280.5757,-1126.3311 273.6668,-1125.205"/>
</g>
<!-- A14&#45;&gt;A13 -->
<g id="edge15" class="edge">
<title>A14&#45;&gt;A13</title>
<path fill="none" stroke="#000000" stroke-dasharray="5,2" d="M204.2906,-1613.8004C208.8542,-1581.3079 214.8136,-1538.8764 220.7975,-1496.2713"/>
<polygon fill="none" stroke="#000000" points="200.7847,-1613.5986 202.8597,-1623.9883 207.7166,-1614.5723 200.7847,-1613.5986"/>
</g>
<!-- A15 -->
<g id="node16" class="node">
<title>A15</title>
<polygon fill="none" stroke="#000000" points="260.1165,-1766 260.1165,-1798 335.1165,-1798 335.1165,-1766 260.1165,-1766"/>
<text text-anchor="start" x="279.834" y="-1779" font-family="Helvetica,sans-Serif" font-size="10.00" fill="#000000">Modbus</text>
<polygon fill="none" stroke="#000000" points="260.1165,-1614 260.1165,-1766 335.1165,-1766 335.1165,-1614 260.1165,-1614"/>
<text text-anchor="start" x="289.278" y="-1747" font-family="Helvetica,sans-Serif" font-size="10.00" fill="#000000">que</text>
<text text-anchor="start" x="270.1065" y="-1723" font-family="Helvetica,sans-Serif" font-size="10.00" fill="#000000">snd_handler</text>
<text text-anchor="start" x="271.2215" y="-1711" font-family="Helvetica,sans-Serif" font-size="10.00" fill="#000000">rsp_handler</text>
<text text-anchor="start" x="281.225" y="-1699" font-family="Helvetica,sans-Serif" font-size="10.00" fill="#000000">timeout</text>
<text text-anchor="start" x="271.506" y="-1687" font-family="Helvetica,sans-Serif" font-size="10.00" fill="#000000">max_retires</text>
<text text-anchor="start" x="279.5585" y="-1675" font-family="Helvetica,sans-Serif" font-size="10.00" fill="#000000">last_xxx</text>
<text text-anchor="start" x="291.508" y="-1663" font-family="Helvetica,sans-Serif" font-size="10.00" fill="#000000">err</text>
<text text-anchor="start" x="278.17" y="-1651" font-family="Helvetica,sans-Serif" font-size="10.00" fill="#000000">retry_cnt</text>
<text text-anchor="start" x="276.4955" y="-1639" font-family="Helvetica,sans-Serif" font-size="10.00" fill="#000000">req_pend</text>
<text text-anchor="start" x="290.953" y="-1627" font-family="Helvetica,sans-Serif" font-size="10.00" fill="#000000">tim</text>
<polygon fill="none" stroke="#000000" points="260.1165,-1546 260.1165,-1614 335.1165,-1614 335.1165,-1546 260.1165,-1546"/>
<text text-anchor="start" x="271.5065" y="-1595" font-family="Helvetica,sans-Serif" font-size="10.00" fill="#000000">build_msg()</text>
<text text-anchor="start" x="274.8405" y="-1583" font-family="Helvetica,sans-Serif" font-size="10.00" fill="#000000">recv_req()</text>
<text text-anchor="start" x="272.3405" y="-1571" font-family="Helvetica,sans-Serif" font-size="10.00" fill="#000000">recv_resp()</text>
<text text-anchor="start" x="282.619" y="-1559" font-family="Helvetica,sans-Serif" font-size="10.00" fill="#000000">close()</text>
</g>
<!-- A15&#45;&gt;A13 -->
<g id="edge17" class="edge">
<title>A15&#45;&gt;A13</title>
<path fill="none" stroke="#000000" d="M277.6392,-1536.041C275.7633,-1522.9463 273.8413,-1509.5297 271.9169,-1496.0971"/>
<polygon fill="#000000" stroke="#000000" points="279.064,-1545.9867 273.1913,-1536.726 278.3549,-1541.0373 277.6458,-1536.0878 277.6458,-1536.0878 277.6458,-1536.0878 278.3549,-1541.0373 282.1004,-1535.4496 279.064,-1545.9867 279.064,-1545.9867"/>
<text text-anchor="middle" x="282.8544" y="-1509.8414" font-family="Helvetica,sans-Serif" font-size="10.00" fill="#000000">has</text>
<text text-anchor="middle" x="268.1266" y="-1526.2424" font-family="Helvetica,sans-Serif" font-size="10.00" fill="#000000">0..1</text>
</g>
</g>
</svg>
