<?xml version="1.0" encoding="UTF-8" standalone="no"?>
<!DOCTYPE svg PUBLIC "-//W3C//DTD SVG 1.1//EN"
 "http://www.w3.org/Graphics/SVG/1.1/DTD/svg11.dtd">
<!-- Generated by graphviz version 2.40.1 (20161225.0304)
 -->
<!-- Title: G Pages: 1 -->
<svg width="539pt" height="1940pt"
 viewBox="0.00 0.00 538.62 1940.00" xmlns="http://www.w3.org/2000/svg" xmlns:xlink="http://www.w3.org/1999/xlink">
<g id="graph0" class="graph" transform="scale(1 1) rotate(0) translate(4 1936)">
<title>G</title>
<polygon fill="#ffffff" stroke="transparent" points="-4,4 -4,-1936 534.6165,-1936 534.6165,4 -4,4"/>
<!-- A0 -->
<g id="node1" class="node">
<title>A0</title>
<polygon fill="#fff8dc" stroke="#000000" points="114.3497,-1912 -.1167,-1912 -.1167,-1868 120.3497,-1868 120.3497,-1906 114.3497,-1912"/>
<polyline fill="none" stroke="#000000" points="114.3497,-1912 114.3497,-1906 "/>
<polyline fill="none" stroke="#000000" points="120.3497,-1906 114.3497,-1906 "/>
<text text-anchor="middle" x="60.1165" y="-1899" font-family="Helvetica,sans-Serif" font-size="10.00" fill="#000000">Example of</text>
<text text-anchor="middle" x="60.1165" y="-1887" font-family="Helvetica,sans-Serif" font-size="10.00" fill="#000000">instantiation for a</text>
<text text-anchor="middle" x="60.1165" y="-1875" font-family="Helvetica,sans-Serif" font-size="10.00" fill="#000000">GEN3PLUS inverter!</text>
</g>
<!-- A1 -->
<g id="node2" class="node">
<title>A1</title>
<polygon fill="none" stroke="#000000" points="138.1165,-1900 138.1165,-1932 254.1165,-1932 254.1165,-1900 138.1165,-1900"/>
<text text-anchor="start" x="147.7655" y="-1913" font-family="Helvetica,sans-Serif" font-size="10.00" fill="#000000">&lt;&lt;AbstractIterMeta&gt;&gt;</text>
<polygon fill="none" stroke="#000000" points="138.1165,-1880 138.1165,-1900 254.1165,-1900 254.1165,-1880 138.1165,-1880"/>
<polygon fill="none" stroke="#000000" points="138.1165,-1848 138.1165,-1880 254.1165,-1880 254.1165,-1848 138.1165,-1848"/>
<text text-anchor="start" x="174.7265" y="-1861" font-family="Helvetica,sans-Serif" font-size="10.00" fill="#000000">__iter__()</text>
</g>
<!-- A14 -->
<g id="node15" class="node">
<title>A14</title>
<polygon fill="none" stroke="#000000" points="151.1165,-1688 151.1165,-1720 241.1165,-1720 241.1165,-1688 151.1165,-1688"/>
<text text-anchor="start" x="160.823" y="-1701" font-family="Helvetica,sans-Serif" font-size="10.00" fill="#000000">&lt;&lt;ProtocolIfc&gt;&gt;</text>
<polygon fill="none" stroke="#000000" points="151.1165,-1656 151.1165,-1688 241.1165,-1688 241.1165,-1656 151.1165,-1656"/>
<text text-anchor="start" x="176.95" y="-1669" font-family="Helvetica,sans-Serif" font-size="10.00" fill="#000000">_registry</text>
<polygon fill="none" stroke="#000000" points="151.1165,-1624 151.1165,-1656 241.1165,-1656 241.1165,-1624 151.1165,-1624"/>
<text text-anchor="start" x="181.119" y="-1637" font-family="Helvetica,sans-Serif" font-size="10.00" fill="#000000">close()</text>
</g>
<!-- A1&#45;&gt;A14 -->
<g id="edge14" class="edge">
<title>A1&#45;&gt;A14</title>
<path fill="none" stroke="#000000" stroke-dasharray="5,2" d="M196.1165,-1837.756C196.1165,-1802.0883 196.1165,-1755.1755 196.1165,-1720.3644"/>
<polygon fill="none" stroke="#000000" points="192.6166,-1837.9674 196.1165,-1847.9674 199.6166,-1837.9674 192.6166,-1837.9674"/>
</g>
<!-- A2 -->
<g id="node3" class="node">
<title>A2</title>
<polygon fill="none" stroke="#000000" points="202.1165,-632 202.1165,-664 300.1165,-664 300.1165,-632 202.1165,-632"/>
<text text-anchor="start" x="224.1665" y="-645" font-family="Helvetica,sans-Serif" font-size="10.00" fill="#000000">InverterG3P</text>
<polygon fill="none" stroke="#000000" points="202.1165,-576 202.1165,-632 300.1165,-632 300.1165,-576 202.1165,-576"/>
<text text-anchor="start" x="241.1135" y="-613" font-family="Helvetica,sans-Serif" font-size="10.00" fill="#000000">addr</text>
<text text-anchor="start" x="211.6695" y="-601" font-family="Helvetica,sans-Serif" font-size="10.00" fill="#000000">remote:StreamPtr</text>
<text text-anchor="start" x="216.9485" y="-589" font-family="Helvetica,sans-Serif" font-size="10.00" fill="#000000">local:StreamPtr</text>
<polygon fill="none" stroke="#000000" points="202.1165,-520 202.1165,-576 300.1165,-576 300.1165,-520 202.1165,-520"/>
<text text-anchor="start" x="215.5585" y="-557" font-family="Helvetica,sans-Serif" font-size="10.00" fill="#000000">create_remote()</text>
<text text-anchor="start" x="236.119" y="-533" font-family="Helvetica,sans-Serif" font-size="10.00" fill="#000000">close()</text>
</g>
<!-- A3 -->
<g id="node4" class="node">
<title>A3</title>
<polygon fill="none" stroke="#000000" points="419.4531,-320 322.7799,-320 322.7799,-284 419.4531,-284 419.4531,-320"/>
<text text-anchor="middle" x="371.1165" y="-299" font-family="Helvetica,sans-Serif" font-size="10.00" fill="#000000">local:StreamPtr</text>
</g>
<!-- A2&#45;&gt;A3 -->
<g id="edge1" class="edge">
<title>A2&#45;&gt;A3</title>
<path fill="none" stroke="#000000" d="M285.5402,-508.8093C310.5478,-448.3743 342.848,-370.3156 359.7149,-329.5539"/>
<polygon fill="#000000" stroke="#000000" points="285.5219,-508.8538 286.9238,-515.9273 280.9336,-519.942 279.5317,-512.8685 285.5219,-508.8538"/>
<polygon fill="#000000" stroke="#000000" points="363.5595,-320.2627 363.894,-331.2235 361.6477,-324.8828 359.7359,-329.5029 359.7359,-329.5029 359.7359,-329.5029 361.6477,-324.8828 355.5779,-327.7823 363.5595,-320.2627 363.5595,-320.2627"/>
</g>
<!-- A4 -->
<g id="node5" class="node">
<title>A4</title>
<polygon fill="none" stroke="#000000" points="304.5106,-320 197.7224,-320 197.7224,-284 304.5106,-284 304.5106,-320"/>
<text text-anchor="middle" x="251.1165" y="-299" font-family="Helvetica,sans-Serif" font-size="10.00" fill="#000000">remote:StreamPtr</text>
</g>
<!-- A2&#45;&gt;A4 -->
<g id="edge2" class="edge">
<title>A2&#45;&gt;A4</title>
<path fill="none" stroke="#000000" d="M251.1165,-507.5905C251.1165,-447.68 251.1165,-370.9429 251.1165,-330.266"/>
<polygon fill="#000000" stroke="#000000" points="251.1166,-507.942 255.1165,-513.942 251.1165,-519.942 247.1165,-513.942 251.1166,-507.942"/>
<polygon fill="#000000" stroke="#000000" points="251.1165,-320.2627 255.6166,-330.2626 251.1165,-325.2627 251.1166,-330.2627 251.1166,-330.2627 251.1166,-330.2627 251.1165,-325.2627 246.6166,-330.2627 251.1165,-320.2627 251.1165,-320.2627"/>
</g>
<!-- A8 -->
<g id="node9" class="node">
<title>A8</title>
<polygon fill="none" stroke="#000000" points="265.1165,-100 265.1165,-132 443.1165,-132 443.1165,-100 265.1165,-100"/>
<text text-anchor="start" x="309.668" y="-113" font-family="Helvetica,sans-Serif" font-size="10.00" fill="#000000">AsyncStreamServer</text>
<polygon fill="none" stroke="#000000" points="265.1165,-68 265.1165,-100 443.1165,-100 443.1165,-68 265.1165,-68"/>
<text text-anchor="start" x="321.8875" y="-81" font-family="Helvetica,sans-Serif" font-size="10.00" fill="#000000">create_remote</text>
<polygon fill="none" stroke="#000000" points="265.1165,0 265.1165,-68 443.1165,-68 443.1165,0 265.1165,0"/>
<text text-anchor="start" x="305.774" y="-49" font-family="Helvetica,sans-Serif" font-size="10.00" fill="#000000">&lt;async&gt;server_loop()</text>
<text text-anchor="start" x="296.605" y="-37" font-family="Helvetica,sans-Serif" font-size="10.00" fill="#000000">&lt;async&gt;_async_forward()</text>
<text text-anchor="start" x="274.9255" y="-25" font-family="Helvetica,sans-Serif" font-size="10.00" fill="#000000">&lt;async&gt;publish_outstanding_mqtt()</text>
<text text-anchor="start" x="339.119" y="-13" font-family="Helvetica,sans-Serif" font-size="10.00" fill="#000000">close()</text>
</g>
<!-- A3&#45;&gt;A8 -->
<g id="edge8" class="edge">
<title>A3&#45;&gt;A8</title>
<path fill="none" stroke="#000000" d="M368.9314,-271.6651C366.5869,-239.1181 362.7725,-186.1658 359.6014,-142.1431"/>
<polygon fill="#000000" stroke="#000000" points="368.9485,-271.9044 373.3693,-277.6014 369.8108,-283.8733 365.39,-278.1763 368.9485,-271.9044"/>
<polygon fill="#000000" stroke="#000000" points="358.8731,-132.0321 364.08,-141.6829 359.2323,-137.0192 359.5916,-142.0063 359.5916,-142.0063 359.5916,-142.0063 359.2323,-137.0192 355.1032,-142.3296 358.8731,-132.0321 358.8731,-132.0321"/>
</g>
<!-- A9 -->
<g id="node10" class="node">
<title>A9</title>
<polygon fill="none" stroke="#000000" points="93.1165,-82 93.1165,-114 231.1165,-114 231.1165,-82 93.1165,-82"/>
<text text-anchor="start" x="119.6135" y="-95" font-family="Helvetica,sans-Serif" font-size="10.00" fill="#000000">AsyncStreamClient</text>
<polygon fill="none" stroke="#000000" points="93.1165,-62 93.1165,-82 231.1165,-82 231.1165,-62 93.1165,-62"/>
<polygon fill="none" stroke="#000000" points="93.1165,-18 93.1165,-62 231.1165,-62 231.1165,-18 93.1165,-18"/>
<text text-anchor="start" x="115.9945" y="-43" font-family="Helvetica,sans-Serif" font-size="10.00" fill="#000000">&lt;async&gt;client_loop()</text>
<text text-anchor="start" x="102.9405" y="-31" font-family="Helvetica,sans-Serif" font-size="10.00" fill="#000000">&lt;async&gt;_async_forward())</text>
</g>
<!-- A4&#45;&gt;A9 -->
<g id="edge10" class="edge">
<title>A4&#45;&gt;A9</title>
<path fill="none" stroke="#000000" d="M244.2806,-283.8733C231.5204,-250.0372 203.5834,-175.9573 183.8383,-123.5994"/>
<polygon fill="#000000" stroke="#000000" points="180.2523,-114.0904 187.9915,-121.8593 182.0166,-118.7688 183.781,-123.4472 183.781,-123.4472 183.781,-123.4472 182.0166,-118.7688 179.5704,-125.0351 180.2523,-114.0904 180.2523,-114.0904"/>
<text text-anchor="middle" x="229.9759" y="-266.8956" font-family="Helvetica,sans-Serif" font-size="10.00" fill="#000000">0..1</text>
</g>
<!-- A5 -->
<g id="node6" class="node">
<title>A5</title>
<polygon fill="none" stroke="#000000" points="145.1165,-1054 145.1165,-1086 262.1165,-1086 262.1165,-1054 145.1165,-1054"/>
<text text-anchor="start" x="173.0455" y="-1067" font-family="Helvetica,sans-Serif" font-size="10.00" fill="#000000">&lt;&lt;AsyncIfc&gt;&gt;</text>
<polygon fill="none" stroke="#000000" points="145.1165,-1034 145.1165,-1054 262.1165,-1054 262.1165,-1034 145.1165,-1034"/>
<polygon fill="none" stroke="#000000" points="145.1165,-762 145.1165,-1034 262.1165,-1034 262.1165,-762 145.1165,-762"/>
<text text-anchor="start" x="173.0525" y="-1015" font-family="Helvetica,sans-Serif" font-size="10.00" fill="#000000">set_node_id()</text>
<text text-anchor="start" x="171.3825" y="-1003" font-family="Helvetica,sans-Serif" font-size="10.00" fill="#000000">get_conn_no()</text>
<text text-anchor="start" x="185.28" y="-979" font-family="Helvetica,sans-Serif" font-size="10.00" fill="#000000">tx_add()</text>
<text text-anchor="start" x="183.0605" y="-967" font-family="Helvetica,sans-Serif" font-size="10.00" fill="#000000">tx_flush()</text>
<text text-anchor="start" x="186.67" y="-955" font-family="Helvetica,sans-Serif" font-size="10.00" fill="#000000">tx_get()</text>
<text text-anchor="start" x="182.78" y="-943" font-family="Helvetica,sans-Serif" font-size="10.00" fill="#000000">tx_peek()</text>
<text text-anchor="start" x="186.95" y="-931" font-family="Helvetica,sans-Serif" font-size="10.00" fill="#000000">tx_log()</text>
<text text-anchor="start" x="182.7855" y="-919" font-family="Helvetica,sans-Serif" font-size="10.00" fill="#000000">tx_clear()</text>
<text text-anchor="start" x="186.95" y="-907" font-family="Helvetica,sans-Serif" font-size="10.00" fill="#000000">tx_len()</text>
<text text-anchor="start" x="181.391" y="-883" font-family="Helvetica,sans-Serif" font-size="10.00" fill="#000000">fwd_add()</text>
<text text-anchor="start" x="183.061" y="-871" font-family="Helvetica,sans-Serif" font-size="10.00" fill="#000000">fwd_log()</text>
<text text-anchor="start" x="186.395" y="-859" font-family="Helvetica,sans-Serif" font-size="10.00" fill="#000000">rx_get()</text>
<text text-anchor="start" x="182.505" y="-847" font-family="Helvetica,sans-Serif" font-size="10.00" fill="#000000">rx_peek()</text>
<text text-anchor="start" x="186.675" y="-835" font-family="Helvetica,sans-Serif" font-size="10.00" fill="#000000">rx_log()</text>
<text text-anchor="start" x="182.5105" y="-823" font-family="Helvetica,sans-Serif" font-size="10.00" fill="#000000">rx_clear()</text>
<text text-anchor="start" x="186.675" y="-811" font-family="Helvetica,sans-Serif" font-size="10.00" fill="#000000">rx_len()</text>
<text text-anchor="start" x="178.6155" y="-799" font-family="Helvetica,sans-Serif" font-size="10.00" fill="#000000">rx_set_cb()</text>
<text text-anchor="start" x="154.996" y="-775" font-family="Helvetica,sans-Serif" font-size="10.00" fill="#000000">prot_set_timeout_cb()</text>
</g>
<!-- A6 -->
<g id="node7" class="node">
<title>A6</title>
<polygon fill="none" stroke="#000000" points="87.1165,-622 87.1165,-654 180.1165,-654 180.1165,-622 87.1165,-622"/>
<text text-anchor="start" x="105.2805" y="-635" font-family="Helvetica,sans-Serif" font-size="10.00" fill="#000000">AsyncIfcImpl</text>
<polygon fill="none" stroke="#000000" points="87.1165,-530 87.1165,-622 180.1165,-622 180.1165,-530 87.1165,-530"/>
<text text-anchor="start" x="96.6645" y="-603" font-family="Helvetica,sans-Serif" font-size="10.00" fill="#000000">fwd_fifo:ByteFifo</text>
<text text-anchor="start" x="100.5535" y="-591" font-family="Helvetica,sans-Serif" font-size="10.00" fill="#000000">tx_fifo:ByteFifo</text>
<text text-anchor="start" x="100.2785" y="-579" font-family="Helvetica,sans-Serif" font-size="10.00" fill="#000000">rx_fifo:ByteFifo</text>
<text text-anchor="start" x="99.7125" y="-567" font-family="Helvetica,sans-Serif" font-size="10.00" fill="#000000">conn_no:Count</text>
<text text-anchor="start" x="115.83" y="-555" font-family="Helvetica,sans-Serif" font-size="10.00" fill="#000000">node_id</text>
<text text-anchor="start" x="109.166" y="-543" font-family="Helvetica,sans-Serif" font-size="10.00" fill="#000000">timeout_cb</text>
</g>
<!-- A5&#45;&gt;A6 -->
<g id="edge3" class="edge">
<title>A5&#45;&gt;A6</title>
<path fill="none" stroke="#000000" stroke-dasharray="5,2" d="M166.8518,-752.0017C159.4629,-716.9571 152.1492,-682.2694 146.2303,-654.1971"/>
<polygon fill="none" stroke="#000000" points="163.4489,-752.8275 168.9367,-761.8903 170.2983,-751.3833 163.4489,-752.8275"/>
</g>
<!-- A7 -->
<g id="node8" class="node">
<title>A7</title>
<polygon fill="none" stroke="#000000" points="78.1165,-390 78.1165,-422 180.1165,-422 180.1165,-390 78.1165,-390"/>
<text text-anchor="start" x="99.3905" y="-403" font-family="Helvetica,sans-Serif" font-size="10.00" fill="#000000">AsyncStream</text>
<polygon fill="none" stroke="#000000" points="78.1165,-310 78.1165,-390 180.1165,-390 180.1165,-310 78.1165,-310"/>
<text text-anchor="start" x="114.6695" y="-371" font-family="Helvetica,sans-Serif" font-size="10.00" fill="#000000">reader</text>
<text text-anchor="start" x="116.8995" y="-359" font-family="Helvetica,sans-Serif" font-size="10.00" fill="#000000">writer</text>
<text text-anchor="start" x="119.1135" y="-347" font-family="Helvetica,sans-Serif" font-size="10.00" fill="#000000">addr</text>
<text text-anchor="start" x="114.6695" y="-335" font-family="Helvetica,sans-Serif" font-size="10.00" fill="#000000">r_addr</text>
<text text-anchor="start" x="115.2245" y="-323" font-family="Helvetica,sans-Serif" font-size="10.00" fill="#000000">l_addr</text>
<polygon fill="none" stroke="#000000" points="78.1165,-182 78.1165,-310 180.1165,-310 180.1165,-182 78.1165,-182"/>
<text text-anchor="start" x="100.7705" y="-279" font-family="Helvetica,sans-Serif" font-size="10.00" fill="#000000">&lt;async&gt;loop</text>
<text text-anchor="start" x="116.8985" y="-267" font-family="Helvetica,sans-Serif" font-size="10.00" fill="#000000">disc()</text>
<text text-anchor="start" x="114.119" y="-255" font-family="Helvetica,sans-Serif" font-size="10.00" fill="#000000">close()</text>
<text text-anchor="start" x="109.6705" y="-243" font-family="Helvetica,sans-Serif" font-size="10.00" fill="#000000">healthy()</text>
<text text-anchor="start" x="94.387" y="-219" font-family="Helvetica,sans-Serif" font-size="10.00" fill="#000000">__async_read()</text>
<text text-anchor="start" x="93.8375" y="-207" font-family="Helvetica,sans-Serif" font-size="10.00" fill="#000000">__async_write()</text>
<text text-anchor="start" x="87.7235" y="-195" font-family="Helvetica,sans-Serif" font-size="10.00" fill="#000000">__async_forward()</text>
</g>
<!-- A6&#45;&gt;A7 -->
<g id="edge4" class="edge">
<title>A6&#45;&gt;A7</title>
<path fill="none" stroke="#000000" d="M132.1177,-519.5861C131.7106,-490.0737 131.229,-455.1552 130.7721,-422.0295"/>
<polygon fill="none" stroke="#000000" points="128.6207,-519.837 132.2584,-529.7877 135.6201,-519.7404 128.6207,-519.837"/>
</g>
<!-- A7&#45;&gt;A8 -->
<g id="edge5" class="edge">
<title>A7&#45;&gt;A8</title>
<path fill="none" stroke="#000000" d="M186.5777,-185.0204C187.4154,-184.0001 188.2616,-182.9929 189.1165,-182 210.4788,-157.1889 238.2469,-135.0276 264.8921,-116.8901"/>
<polygon fill="none" stroke="#000000" points="183.6875,-183.0361 180.3256,-193.0834 189.2193,-187.3255 183.6875,-183.0361"/>
</g>
<!-- A7&#45;&gt;A9 -->
<g id="edge6" class="edge">
<title>A7&#45;&gt;A9</title>
<path fill="none" stroke="#000000" d="M147.3214,-171.8077C150.1952,-151.2556 152.9992,-131.2022 155.3799,-114.1772"/>
<polygon fill="none" stroke="#000000" points="143.8252,-171.5375 145.9065,-181.9259 150.7577,-172.5069 143.8252,-171.5375"/>
</g>
<!-- A10 -->
<g id="node11" class="node">
<title>A10</title>
<polygon fill="none" stroke="#000000" points="319.1165,-668 319.1165,-700 410.1165,-700 410.1165,-668 319.1165,-668"/>
<text text-anchor="start" x="337.1115" y="-681" font-family="Helvetica,sans-Serif" font-size="10.00" fill="#000000">SolarmanV5</text>
<polygon fill="none" stroke="#000000" points="319.1165,-552 319.1165,-668 410.1165,-668 410.1165,-552 319.1165,-552"/>
<text text-anchor="start" x="345.4395" y="-649" font-family="Helvetica,sans-Serif" font-size="10.00" fill="#000000">conn_no</text>
<text text-anchor="start" x="354.6135" y="-637" font-family="Helvetica,sans-Serif" font-size="10.00" fill="#000000">addr</text>
<text text-anchor="start" x="349.6145" y="-613" font-family="Helvetica,sans-Serif" font-size="10.00" fill="#000000">control</text>
<text text-anchor="start" x="352.674" y="-601" font-family="Helvetica,sans-Serif" font-size="10.00" fill="#000000">serial</text>
<text text-anchor="start" x="357.6725" y="-589" font-family="Helvetica,sans-Serif" font-size="10.00" fill="#000000">snr</text>
<text text-anchor="start" x="336.8265" y="-577" font-family="Helvetica,sans-Serif" font-size="10.00" fill="#000000">db:InfosG3P</text>
<text text-anchor="start" x="350.7285" y="-565" font-family="Helvetica,sans-Serif" font-size="10.00" fill="#000000">switch</text>
<polygon fill="none" stroke="#000000" points="319.1165,-484 319.1165,-552 410.1165,-552 410.1165,-484 319.1165,-484"/>
<text text-anchor="start" x="329.057" y="-533" font-family="Helvetica,sans-Serif" font-size="10.00" fill="#000000">msg_unknown()</text>
<text text-anchor="start" x="345.1705" y="-509" font-family="Helvetica,sans-Serif" font-size="10.00" fill="#000000">healthy()</text>
<text text-anchor="start" x="349.619" y="-497" font-family="Helvetica,sans-Serif" font-size="10.00" fill="#000000">close()</text>
</g>
<!-- A10&#45;&gt;A3 -->
<g id="edge7" class="edge">
<title>A10&#45;&gt;A3</title>
<path fill="none" stroke="#000000" d="M366.9763,-473.5237C368.222,-421.9136 369.5798,-365.6622 370.389,-332.138"/>
<polygon fill="#000000" stroke="#000000" points="366.733,-483.6023 362.4757,-473.4966 366.8537,-478.6038 366.9744,-473.6052 366.9744,-473.6052 366.9744,-473.6052 366.8537,-478.6038 371.4731,-473.7139 366.733,-483.6023 366.733,-483.6023"/>
<polygon fill="#000000" stroke="#000000" points="370.3911,-332.0495 366.5371,-325.9547 370.6807,-320.053 374.5347,-326.1478 370.3911,-332.0495"/>
</g>
<!-- A10&#45;&gt;A4 -->
<g id="edge9" class="edge">
<title>A10&#45;&gt;A4</title>
<path fill="none" stroke="#000000" d="M318.2339,-474.2481C295.3796,-415.5956 270.1211,-350.7729 258.151,-320.053"/>
<polygon fill="#000000" stroke="#000000" points="321.8788,-483.6023 314.0551,-475.9185 320.0634,-478.9435 318.2481,-474.2847 318.2481,-474.2847 318.2481,-474.2847 320.0634,-478.9435 322.441,-472.6508 321.8788,-483.6023 321.8788,-483.6023"/>
<text text-anchor="middle" x="272.6076" y="-330.8736" font-family="Helvetica,sans-Serif" font-size="10.00" fill="#000000">0..1</text>
</g>
<!-- A12 -->
<g id="node13" class="node">
<title>A12</title>
<polygon fill="none" stroke="#000000" points="442.1165,-318 442.1165,-350 509.1165,-350 509.1165,-318 442.1165,-318"/>
<text text-anchor="start" x="454.775" y="-331" font-family="Helvetica,sans-Serif" font-size="10.00" fill="#000000">InfosG3P</text>
<polygon fill="none" stroke="#000000" points="442.1165,-298 442.1165,-318 509.1165,-318 509.1165,-298 442.1165,-298"/>
<polygon fill="none" stroke="#000000" points="442.1165,-254 442.1165,-298 509.1165,-298 509.1165,-254 442.1165,-254"/>
<text text-anchor="start" x="452.0005" y="-279" font-family="Helvetica,sans-Serif" font-size="10.00" fill="#000000">ha_confs()</text>
<text text-anchor="start" x="459.7845" y="-267" font-family="Helvetica,sans-Serif" font-size="10.00" fill="#000000">parse()</text>
</g>
<!-- A10&#45;&gt;A12 -->
<g id="edge12" class="edge">
<title>A10&#45;&gt;A12</title>
<path fill="none" stroke="#000000" d="M405.6067,-483.6023C421.7045,-441.5449 439.4849,-395.0916 453.0329,-359.6958"/>
<polygon fill="#000000" stroke="#000000" points="456.737,-350.0185 457.3649,-360.9664 454.9496,-354.6881 453.1623,-359.3577 453.1623,-359.3577 453.1623,-359.3577 454.9496,-354.6881 448.9596,-357.7491 456.737,-350.0185 456.737,-350.0185"/>
</g>
<!-- A11 -->
<g id="node12" class="node">
<title>A11</title>
<polygon fill="none" stroke="#000000" points="428.1165,-680 428.1165,-712 531.1165,-712 531.1165,-680 428.1165,-680"/>
<text text-anchor="start" x="468.7785" y="-693" font-family="Helvetica,sans-Serif" font-size="10.00" fill="#000000">Infos</text>
<polygon fill="none" stroke="#000000" points="428.1165,-624 428.1165,-680 531.1165,-680 531.1165,-624 428.1165,-624"/>
<text text-anchor="start" x="471.558" y="-661" font-family="Helvetica,sans-Serif" font-size="10.00" fill="#000000">stat</text>
<text text-anchor="start" x="447.1025" y="-649" font-family="Helvetica,sans-Serif" font-size="10.00" fill="#000000">new_stat_data</text>
<text text-anchor="start" x="460.72" y="-637" font-family="Helvetica,sans-Serif" font-size="10.00" fill="#000000">info_dev</text>
<polygon fill="none" stroke="#000000" points="428.1165,-472 428.1165,-624 531.1165,-624 531.1165,-472 428.1165,-472"/>
<text text-anchor="start" x="455.452" y="-605" font-family="Helvetica,sans-Serif" font-size="10.00" fill="#000000">static_init()</text>
<text text-anchor="start" x="453.501" y="-593" font-family="Helvetica,sans-Serif" font-size="10.00" fill="#000000">dev_value()</text>
<text text-anchor="start" x="450.447" y="-581" font-family="Helvetica,sans-Serif" font-size="10.00" fill="#000000">inc_counter()</text>
<text text-anchor="start" x="448.777" y="-569" font-family="Helvetica,sans-Serif" font-size="10.00" fill="#000000">dec_counter()</text>
<text text-anchor="start" x="446.8265" y="-557" font-family="Helvetica,sans-Serif" font-size="10.00" fill="#000000">ha_proxy_conf</text>
<text text-anchor="start" x="461.8295" y="-545" font-family="Helvetica,sans-Serif" font-size="10.00" fill="#000000">ha_conf</text>
<text text-anchor="start" x="454.6105" y="-533" font-family="Helvetica,sans-Serif" font-size="10.00" fill="#000000">ha_remove</text>
<text text-anchor="start" x="455.991" y="-521" font-family="Helvetica,sans-Serif" font-size="10.00" fill="#000000">update_db</text>
<text text-anchor="start" x="440.1535" y="-509" font-family="Helvetica,sans-Serif" font-size="10.00" fill="#000000">set_db_def_value</text>
<text text-anchor="start" x="449.602" y="-497" font-family="Helvetica,sans-Serif" font-size="10.00" fill="#000000">get_db_value</text>
<text text-anchor="start" x="437.939" y="-485" font-family="Helvetica,sans-Serif" font-size="10.00" fill="#000000">ignore_this_device</text>
</g>
<!-- A11&#45;&gt;A12 -->
<g id="edge11" class="edge">
<title>A11&#45;&gt;A12</title>
<path fill="none" stroke="#000000" d="M477.322,-461.8987C476.7744,-422.1971 476.206,-380.9898 475.7834,-350.352"/>
<polygon fill="none" stroke="#000000" points="473.823,-462.0018 477.4607,-471.9525 480.8223,-461.9052 473.823,-462.0018"/>
</g>
<!-- A13 -->
<g id="node14" class="node">
<title>A13</title>
<polygon fill="none" stroke="#000000" points="172.1165,-1464 172.1165,-1496 321.1165,-1496 321.1165,-1464 172.1165,-1464"/>
<text text-anchor="start" x="226.334" y="-1477" font-family="Helvetica,sans-Serif" font-size="10.00" fill="#000000">Message</text>
<polygon fill="none" stroke="#000000" points="172.1165,-1240 172.1165,-1464 321.1165,-1464 321.1165,-1240 172.1165,-1240"/>
<text text-anchor="start" x="209.943" y="-1445" font-family="Helvetica,sans-Serif" font-size="10.00" fill="#000000">server_side:bool</text>
<text text-anchor="start" x="220.5005" y="-1433" font-family="Helvetica,sans-Serif" font-size="10.00" fill="#000000">mb:Modbus</text>
<text text-anchor="start" x="221.335" y="-1421" font-family="Helvetica,sans-Serif" font-size="10.00" fill="#000000">ifc:AsyncIfc</text>
<text text-anchor="start" x="228.83" y="-1409" font-family="Helvetica,sans-Serif" font-size="10.00" fill="#000000">node_id</text>
<text text-anchor="start" x="207.1595" y="-1397" font-family="Helvetica,sans-Serif" font-size="10.00" fill="#000000">header_valid:bool</text>
<text text-anchor="start" x="221.6065" y="-1385" font-family="Helvetica,sans-Serif" font-size="10.00" fill="#000000">header_len</text>
<text text-anchor="start" x="227.4405" y="-1373" font-family="Helvetica,sans-Serif" font-size="10.00" fill="#000000">data_len</text>
<text text-anchor="start" x="224.941" y="-1361" font-family="Helvetica,sans-Serif" font-size="10.00" fill="#000000">unique_id</text>
<text text-anchor="start" x="218.8315" y="-1349" font-family="Helvetica,sans-Serif" font-size="10.00" fill="#000000">sug_area:str</text>
<text text-anchor="start" x="215.7725" y="-1337" font-family="Helvetica,sans-Serif" font-size="10.00" fill="#000000">new_data:dict</text>
<text text-anchor="start" x="222.7165" y="-1325" font-family="Helvetica,sans-Serif" font-size="10.00" fill="#000000">state:State</text>
<text text-anchor="start" x="196.321" y="-1313" font-family="Helvetica,sans-Serif" font-size="10.00" fill="#000000">shutdown_started:bool</text>
<text text-anchor="start" x="215.501" y="-1301" font-family="Helvetica,sans-Serif" font-size="10.00" fill="#000000">modbus_elms</text>
<text text-anchor="start" x="211.6235" y="-1289" font-family="Helvetica,sans-Serif" font-size="10.00" fill="#000000">mb_timer:Timer</text>
<text text-anchor="start" x="220.5015" y="-1277" font-family="Helvetica,sans-Serif" font-size="10.00" fill="#000000">mb_timeout</text>
<text text-anchor="start" x="209.669" y="-1265" font-family="Helvetica,sans-Serif" font-size="10.00" fill="#000000">mb_first_timeout</text>
<text text-anchor="start" x="200.7705" y="-1253" font-family="Helvetica,sans-Serif" font-size="10.00" fill="#000000">modbus_polling:bool</text>
<polygon fill="none" stroke="#000000" points="172.1165,-1136 172.1165,-1240 321.1165,-1240 321.1165,-1136 172.1165,-1136"/>
<text text-anchor="start" x="195.501" y="-1221" font-family="Helvetica,sans-Serif" font-size="10.00" fill="#000000">_set_mqtt_timestamp()</text>
<text text-anchor="start" x="224.1165" y="-1209" font-family="Helvetica,sans-Serif" font-size="10.00" fill="#000000">_timeout()</text>
<text text-anchor="start" x="196.884" y="-1197" font-family="Helvetica,sans-Serif" font-size="10.00" fill="#000000">_send_modbus_cmd()</text>
<text text-anchor="start" x="181.876" y="-1185" font-family="Helvetica,sans-Serif" font-size="10.00" fill="#000000">&lt;async&gt; end_modbus_cmd()</text>
<text text-anchor="start" x="231.619" y="-1173" font-family="Helvetica,sans-Serif" font-size="10.00" fill="#000000">close()</text>
<text text-anchor="start" x="217.447" y="-1161" font-family="Helvetica,sans-Serif" font-size="10.00" fill="#000000">inc_counter()</text>
<text text-anchor="start" x="215.777" y="-1149" font-family="Helvetica,sans-Serif" font-size="10.00" fill="#000000">dec_counter()</text>
</g>
<!-- A13&#45;&gt;A5 -->
<g id="edge13" class="edge">
<title>A13&#45;&gt;A5</title>
<path fill="none" stroke="#000000" d="M226.347,-1135.7758C224.8967,-1122.5547 223.4359,-1109.2373 221.9911,-1096.0662"/>
<polygon fill="#000000" stroke="#000000" points="220.8898,-1086.0268 226.4535,-1095.4764 221.4351,-1090.997 221.9803,-1095.9672 221.9803,-1095.9672 221.9803,-1095.9672 221.4351,-1090.997 217.5072,-1096.4579 220.8898,-1086.0268 220.8898,-1086.0268"/>
<text text-anchor="middle" x="215.9686" y="-1115.6794" font-family="Helvetica,sans-Serif" font-size="10.00" fill="#000000">use</text>
</g>
<!-- A13&#45;&gt;A10 -->
<g id="edge16" class="edge">
<title>A13&#45;&gt;A10</title>
<path fill="none" stroke="#000000" d="M277.1595,-1125.5329C299.2708,-989.8666 328.1962,-812.3923 346.4719,-700.2604"/>
<polygon fill="none" stroke="#000000" points="273.6668,-1125.205 275.5125,-1135.6378 280.5757,-1126.3311 273.6668,-1125.205"/>
</g>
<!-- A14&#45;&gt;A13 -->
<g id="edge15" class="edge">
<title>A14&#45;&gt;A13</title>
<path fill="none" stroke="#000000" stroke-dasharray="5,2" d="M204.2906,-1613.8004C208.8542,-1581.3079 214.8136,-1538.8764 220.7975,-1496.2713"/>
<polygon fill="none" stroke="#000000" points="200.7847,-1613.5986 202.8597,-1623.9883 207.7166,-1614.5723 200.7847,-1613.5986"/>
</g>
<!-- A15 -->
<g id="node16" class="node">
<title>A15</title>
<polygon fill="none" stroke="#000000" points="260.1165,-1766 260.1165,-1798 335.1165,-1798 335.1165,-1766 260.1165,-1766"/>
<text text-anchor="start" x="279.834" y="-1779" font-family="Helvetica,sans-Serif" font-size="10.00" fill="#000000">Modbus</text>
<polygon fill="none" stroke="#000000" points="260.1165,-1614 260.1165,-1766 335.1165,-1766 335.1165,-1614 260.1165,-1614"/>
<text text-anchor="start" x="289.278" y="-1747" font-family="Helvetica,sans-Serif" font-size="10.00" fill="#000000">que</text>
<text text-anchor="start" x="270.1065" y="-1723" font-family="Helvetica,sans-Serif" font-size="10.00" fill="#000000">snd_handler</text>
<text text-anchor="start" x="271.2215" y="-1711" font-family="Helvetica,sans-Serif" font-size="10.00" fill="#000000">rsp_handler</text>
<text text-anchor="start" x="281.225" y="-1699" font-family="Helvetica,sans-Serif" font-size="10.00" fill="#000000">timeout</text>
<text text-anchor="start" x="271.506" y="-1687" font-family="Helvetica,sans-Serif" font-size="10.00" fill="#000000">max_retires</text>
<text text-anchor="start" x="279.5585" y="-1675" font-family="Helvetica,sans-Serif" font-size="10.00" fill="#000000">last_xxx</text>
<text text-anchor="start" x="291.508" y="-1663" font-family="Helvetica,sans-Serif" font-size="10.00" fill="#000000">err</text>
<text text-anchor="start" x="278.17" y="-1651" font-family="Helvetica,sans-Serif" font-size="10.00" fill="#000000">retry_cnt</text>
<text text-anchor="start" x="276.4955" y="-1639" font-family="Helvetica,sans-Serif" font-size="10.00" fill="#000000">req_pend</text>
<text text-anchor="start" x="290.953" y="-1627" font-family="Helvetica,sans-Serif" font-size="10.00" fill="#000000">tim</text>
<polygon fill="none" stroke="#000000" points="260.1165,-1546 260.1165,-1614 335.1165,-1614 335.1165,-1546 260.1165,-1546"/>
<text text-anchor="start" x="271.5065" y="-1595" font-family="Helvetica,sans-Serif" font-size="10.00" fill="#000000">build_msg()</text>
<text text-anchor="start" x="274.8405" y="-1583" font-family="Helvetica,sans-Serif" font-size="10.00" fill="#000000">recv_req()</text>
<text text-anchor="start" x="272.3405" y="-1571" font-family="Helvetica,sans-Serif" font-size="10.00" fill="#000000">recv_resp()</text>
<text text-anchor="start" x="282.619" y="-1559" font-family="Helvetica,sans-Serif" font-size="10.00" fill="#000000">close()</text>
</g>
<!-- A15&#45;&gt;A13 -->
<g id="edge17" class="edge">
<title>A15&#45;&gt;A13</title>
<path fill="none" stroke="#000000" d="M277.6392,-1536.041C275.7633,-1522.9463 273.8413,-1509.5297 271.9169,-1496.0971"/>
<polygon fill="#000000" stroke="#000000" points="279.064,-1545.9867 273.1913,-1536.726 278.3549,-1541.0373 277.6458,-1536.0878 277.6458,-1536.0878 277.6458,-1536.0878 278.3549,-1541.0373 282.1004,-1535.4496 279.064,-1545.9867 279.064,-1545.9867"/>
<text text-anchor="middle" x="282.8544" y="-1509.8414" font-family="Helvetica,sans-Serif" font-size="10.00" fill="#000000">has</text>
<text text-anchor="middle" x="268.1266" y="-1526.2424" font-family="Helvetica,sans-Serif" font-size="10.00" fill="#000000">0..1</text>
</g>
</g>
</svg>
