<?xml version="1.0" encoding="UTF-8" standalone="no"?>
<!DOCTYPE svg PUBLIC "-//W3C//DTD SVG 1.1//EN"
 "http://www.w3.org/Graphics/SVG/1.1/DTD/svg11.dtd">
<!-- Generated by graphviz version 2.40.1 (20161225.0304)
 -->
<!-- Title: G Pages: 1 -->
<svg width="559pt" height="1940pt"
 viewBox="0.00 0.00 558.62 1940.00" xmlns="http://www.w3.org/2000/svg" xmlns:xlink="http://www.w3.org/1999/xlink">
<g id="graph0" class="graph" transform="scale(1 1) rotate(0) translate(4 1936)">
<title>G</title>
<polygon fill="#ffffff" stroke="transparent" points="-4,4 -4,-1936 554.6165,-1936 554.6165,4 -4,4"/>
<!-- A0 -->
<g id="node1" class="node">
<title>A0</title>
<polygon fill="#fff8dc" stroke="#000000" points="114.3497,-1912 -.1167,-1912 -.1167,-1868 120.3497,-1868 120.3497,-1906 114.3497,-1912"/>
<polyline fill="none" stroke="#000000" points="114.3497,-1912 114.3497,-1906 "/>
<polyline fill="none" stroke="#000000" points="120.3497,-1906 114.3497,-1906 "/>
<text text-anchor="middle" x="60.1165" y="-1899" font-family="Helvetica,sans-Serif" font-size="10.00" fill="#000000">Example of</text>
<text text-anchor="middle" x="60.1165" y="-1887" font-family="Helvetica,sans-Serif" font-size="10.00" fill="#000000">instantiation for a</text>
<text text-anchor="middle" x="60.1165" y="-1875" font-family="Helvetica,sans-Serif" font-size="10.00" fill="#000000">GEN3PLUS inverter!</text>
</g>
<!-- A1 -->
<g id="node2" class="node">
<title>A1</title>
<polygon fill="none" stroke="#000000" points="138.1165,-1900 138.1165,-1932 254.1165,-1932 254.1165,-1900 138.1165,-1900"/>
<text text-anchor="start" x="147.7655" y="-1913" font-family="Helvetica,sans-Serif" font-size="10.00" fill="#000000">&lt;&lt;AbstractIterMeta&gt;&gt;</text>
<polygon fill="none" stroke="#000000" points="138.1165,-1880 138.1165,-1900 254.1165,-1900 254.1165,-1880 138.1165,-1880"/>
<polygon fill="none" stroke="#000000" points="138.1165,-1848 138.1165,-1880 254.1165,-1880 254.1165,-1848 138.1165,-1848"/>
<text text-anchor="start" x="174.7265" y="-1861" font-family="Helvetica,sans-Serif" font-size="10.00" fill="#000000">__iter__()</text>
</g>
<!-- A14 -->
<g id="node15" class="node">
<title>A14</title>
<polygon fill="none" stroke="#000000" points="151.1165,-1688 151.1165,-1720 241.1165,-1720 241.1165,-1688 151.1165,-1688"/>
<text text-anchor="start" x="160.823" y="-1701" font-family="Helvetica,sans-Serif" font-size="10.00" fill="#000000">&lt;&lt;ProtocolIfc&gt;&gt;</text>
<polygon fill="none" stroke="#000000" points="151.1165,-1656 151.1165,-1688 241.1165,-1688 241.1165,-1656 151.1165,-1656"/>
<text text-anchor="start" x="176.95" y="-1669" font-family="Helvetica,sans-Serif" font-size="10.00" fill="#000000">_registry</text>
<polygon fill="none" stroke="#000000" points="151.1165,-1624 151.1165,-1656 241.1165,-1656 241.1165,-1624 151.1165,-1624"/>
<text text-anchor="start" x="181.119" y="-1637" font-family="Helvetica,sans-Serif" font-size="10.00" fill="#000000">close()</text>
</g>
<!-- A1&#45;&gt;A14 -->
<g id="edge14" class="edge">
<title>A1&#45;&gt;A14</title>
<path fill="none" stroke="#000000" stroke-dasharray="5,2" d="M196.1165,-1837.756C196.1165,-1802.0883 196.1165,-1755.1755 196.1165,-1720.3644"/>
<polygon fill="none" stroke="#000000" points="192.6166,-1837.9674 196.1165,-1847.9674 199.6166,-1837.9674 192.6166,-1837.9674"/>
</g>
<!-- A2 -->
<g id="node3" class="node">
<title>A2</title>
<polygon fill="none" stroke="#000000" points="185.1165,-638 185.1165,-670 301.1165,-670 301.1165,-638 185.1165,-638"/>
<text text-anchor="start" x="216.1665" y="-651" font-family="Helvetica,sans-Serif" font-size="10.00" fill="#000000">InverterG3P</text>
<polygon fill="none" stroke="#000000" points="185.1165,-570 185.1165,-638 301.1165,-638 301.1165,-570 185.1165,-570"/>
<text text-anchor="start" x="233.1135" y="-619" font-family="Helvetica,sans-Serif" font-size="10.00" fill="#000000">addr</text>
<text text-anchor="start" x="194.775" y="-607" font-family="Helvetica,sans-Serif" font-size="10.00" fill="#000000">forward_at_cmd_resp</text>
<text text-anchor="start" x="203.6695" y="-595" font-family="Helvetica,sans-Serif" font-size="10.00" fill="#000000">remote:StreamPtr</text>
<text text-anchor="start" x="208.9485" y="-583" font-family="Helvetica,sans-Serif" font-size="10.00" fill="#000000">local:StreamPtr</text>
<polygon fill="none" stroke="#000000" points="185.1165,-514 185.1165,-570 301.1165,-570 301.1165,-514 185.1165,-514"/>
<text text-anchor="start" x="207.5585" y="-551" font-family="Helvetica,sans-Serif" font-size="10.00" fill="#000000">create_remote()</text>
<text text-anchor="start" x="228.119" y="-527" font-family="Helvetica,sans-Serif" font-size="10.00" fill="#000000">close()</text>
</g>
<!-- A3 -->
<g id="node4" class="node">
<title>A3</title>
<polygon fill="none" stroke="#000000" points="411.4531,-320 314.7799,-320 314.7799,-284 411.4531,-284 411.4531,-320"/>
<text text-anchor="middle" x="363.1165" y="-299" font-family="Helvetica,sans-Serif" font-size="10.00" fill="#000000">local:StreamPtr</text>
</g>
<!-- A2&#45;&gt;A3 -->
<g id="edge1" class="edge">
<title>A2&#45;&gt;A3</title>
<path fill="none" stroke="#000000" d="M280.1686,-502.4575C304.7833,-442.972 335.4648,-368.8249 351.7401,-329.4931"/>
<polygon fill="#000000" stroke="#000000" points="280.0204,-502.8156 281.4224,-509.8892 275.4322,-513.9038 274.0302,-506.8303 280.0204,-502.8156"/>
<polygon fill="#000000" stroke="#000000" points="355.6493,-320.0458 355.9838,-331.0066 353.7375,-324.6659 351.8257,-329.2859 351.8257,-329.2859 351.8257,-329.2859 353.7375,-324.6659 347.6676,-327.5653 355.6493,-320.0458 355.6493,-320.0458"/>
</g>
<!-- A4 -->
<g id="node5" class="node">
<title>A4</title>
<polygon fill="none" stroke="#000000" points="296.5106,-320 189.7224,-320 189.7224,-284 296.5106,-284 296.5106,-320"/>
<text text-anchor="middle" x="243.1165" y="-299" font-family="Helvetica,sans-Serif" font-size="10.00" fill="#000000">remote:StreamPtr</text>
</g>
<!-- A2&#45;&gt;A4 -->
<g id="edge2" class="edge">
<title>A2&#45;&gt;A4</title>
<path fill="none" stroke="#000000" d="M243.1165,-501.6533C243.1165,-442.6619 243.1165,-369.5327 243.1165,-330.2027"/>
<polygon fill="#000000" stroke="#000000" points="243.1166,-501.9038 247.1165,-507.9039 243.1165,-513.9038 239.1165,-507.9038 243.1166,-501.9038"/>
<polygon fill="#000000" stroke="#000000" points="243.1165,-320.0458 247.6166,-330.0457 243.1165,-325.0458 243.1166,-330.0458 243.1166,-330.0458 243.1166,-330.0458 243.1165,-325.0458 238.6166,-330.0458 243.1165,-320.0458 243.1165,-320.0458"/>
</g>
<!-- A8 -->
<g id="node9" class="node">
<title>A8</title>
<polygon fill="none" stroke="#000000" points="257.1165,-100 257.1165,-132 435.1165,-132 435.1165,-100 257.1165,-100"/>
<text text-anchor="start" x="301.668" y="-113" font-family="Helvetica,sans-Serif" font-size="10.00" fill="#000000">AsyncStreamServer</text>
<polygon fill="none" stroke="#000000" points="257.1165,-68 257.1165,-100 435.1165,-100 435.1165,-68 257.1165,-68"/>
<text text-anchor="start" x="313.8875" y="-81" font-family="Helvetica,sans-Serif" font-size="10.00" fill="#000000">create_remote</text>
<polygon fill="none" stroke="#000000" points="257.1165,0 257.1165,-68 435.1165,-68 435.1165,0 257.1165,0"/>
<text text-anchor="start" x="297.774" y="-49" font-family="Helvetica,sans-Serif" font-size="10.00" fill="#000000">&lt;async&gt;server_loop()</text>
<text text-anchor="start" x="288.605" y="-37" font-family="Helvetica,sans-Serif" font-size="10.00" fill="#000000">&lt;async&gt;_async_forward()</text>
<text text-anchor="start" x="266.9255" y="-25" font-family="Helvetica,sans-Serif" font-size="10.00" fill="#000000">&lt;async&gt;publish_outstanding_mqtt()</text>
<text text-anchor="start" x="331.119" y="-13" font-family="Helvetica,sans-Serif" font-size="10.00" fill="#000000">close()</text>
</g>
<!-- A3&#45;&gt;A8 -->
<g id="edge8" class="edge">
<title>A3&#45;&gt;A8</title>
<path fill="none" stroke="#000000" d="M360.9314,-271.6651C358.5869,-239.1181 354.7725,-186.1658 351.6014,-142.1431"/>
<polygon fill="#000000" stroke="#000000" points="360.9485,-271.9044 365.3693,-277.6014 361.8108,-283.8733 357.39,-278.1763 360.9485,-271.9044"/>
<polygon fill="#000000" stroke="#000000" points="350.8731,-132.0321 356.08,-141.6829 351.2323,-137.0192 351.5916,-142.0063 351.5916,-142.0063 351.5916,-142.0063 351.2323,-137.0192 347.1032,-142.3296 350.8731,-132.0321 350.8731,-132.0321"/>
</g>
<!-- A9 -->
<g id="node10" class="node">
<title>A9</title>
<polygon fill="none" stroke="#000000" points="85.1165,-82 85.1165,-114 223.1165,-114 223.1165,-82 85.1165,-82"/>
<text text-anchor="start" x="111.6135" y="-95" font-family="Helvetica,sans-Serif" font-size="10.00" fill="#000000">AsyncStreamClient</text>
<polygon fill="none" stroke="#000000" points="85.1165,-62 85.1165,-82 223.1165,-82 223.1165,-62 85.1165,-62"/>
<polygon fill="none" stroke="#000000" points="85.1165,-18 85.1165,-62 223.1165,-62 223.1165,-18 85.1165,-18"/>
<text text-anchor="start" x="107.9945" y="-43" font-family="Helvetica,sans-Serif" font-size="10.00" fill="#000000">&lt;async&gt;client_loop()</text>
<text text-anchor="start" x="94.9405" y="-31" font-family="Helvetica,sans-Serif" font-size="10.00" fill="#000000">&lt;async&gt;_async_forward())</text>
</g>
<!-- A4&#45;&gt;A9 -->
<g id="edge10" class="edge">
<title>A4&#45;&gt;A9</title>
<path fill="none" stroke="#000000" d="M236.2806,-283.8733C223.5204,-250.0372 195.5834,-175.9573 175.8383,-123.5994"/>
<polygon fill="#000000" stroke="#000000" points="172.2523,-114.0904 179.9915,-121.8593 174.0166,-118.7688 175.781,-123.4472 175.781,-123.4472 175.781,-123.4472 174.0166,-118.7688 171.5704,-125.0351 172.2523,-114.0904 172.2523,-114.0904"/>
<text text-anchor="middle" x="221.9759" y="-266.8956" font-family="Helvetica,sans-Serif" font-size="10.00" fill="#000000">0..1</text>
</g>
<!-- A5 -->
<g id="node6" class="node">
<title>A5</title>
<polygon fill="none" stroke="#000000" points="145.1165,-1054 145.1165,-1086 262.1165,-1086 262.1165,-1054 145.1165,-1054"/>
<text text-anchor="start" x="173.0455" y="-1067" font-family="Helvetica,sans-Serif" font-size="10.00" fill="#000000">&lt;&lt;AsyncIfc&gt;&gt;</text>
<polygon fill="none" stroke="#000000" points="145.1165,-1034 145.1165,-1054 262.1165,-1054 262.1165,-1034 145.1165,-1034"/>
<polygon fill="none" stroke="#000000" points="145.1165,-762 145.1165,-1034 262.1165,-1034 262.1165,-762 145.1165,-762"/>
<text text-anchor="start" x="173.0525" y="-1015" font-family="Helvetica,sans-Serif" font-size="10.00" fill="#000000">set_node_id()</text>
<text text-anchor="start" x="171.3825" y="-1003" font-family="Helvetica,sans-Serif" font-size="10.00" fill="#000000">get_conn_no()</text>
<text text-anchor="start" x="185.28" y="-979" font-family="Helvetica,sans-Serif" font-size="10.00" fill="#000000">tx_add()</text>
<text text-anchor="start" x="183.0605" y="-967" font-family="Helvetica,sans-Serif" font-size="10.00" fill="#000000">tx_flush()</text>
<text text-anchor="start" x="186.67" y="-955" font-family="Helvetica,sans-Serif" font-size="10.00" fill="#000000">tx_get()</text>
<text text-anchor="start" x="182.78" y="-943" font-family="Helvetica,sans-Serif" font-size="10.00" fill="#000000">tx_peek()</text>
<text text-anchor="start" x="186.95" y="-931" font-family="Helvetica,sans-Serif" font-size="10.00" fill="#000000">tx_log()</text>
<text text-anchor="start" x="182.7855" y="-919" font-family="Helvetica,sans-Serif" font-size="10.00" fill="#000000">tx_clear()</text>
<text text-anchor="start" x="186.95" y="-907" font-family="Helvetica,sans-Serif" font-size="10.00" fill="#000000">tx_len()</text>
<text text-anchor="start" x="181.391" y="-883" font-family="Helvetica,sans-Serif" font-size="10.00" fill="#000000">fwd_add()</text>
<text text-anchor="start" x="183.061" y="-871" font-family="Helvetica,sans-Serif" font-size="10.00" fill="#000000">fwd_log()</text>
<text text-anchor="start" x="186.395" y="-859" font-family="Helvetica,sans-Serif" font-size="10.00" fill="#000000">rx_get()</text>
<text text-anchor="start" x="182.505" y="-847" font-family="Helvetica,sans-Serif" font-size="10.00" fill="#000000">rx_peek()</text>
<text text-anchor="start" x="186.675" y="-835" font-family="Helvetica,sans-Serif" font-size="10.00" fill="#000000">rx_log()</text>
<text text-anchor="start" x="182.5105" y="-823" font-family="Helvetica,sans-Serif" font-size="10.00" fill="#000000">rx_clear()</text>
<text text-anchor="start" x="186.675" y="-811" font-family="Helvetica,sans-Serif" font-size="10.00" fill="#000000">rx_len()</text>
<text text-anchor="start" x="178.6155" y="-799" font-family="Helvetica,sans-Serif" font-size="10.00" fill="#000000">rx_set_cb()</text>
<text text-anchor="start" x="154.996" y="-775" font-family="Helvetica,sans-Serif" font-size="10.00" fill="#000000">prot_set_timeout_cb()</text>
</g>
<!-- A6 -->
<g id="node7" class="node">
<title>A6</title>
<polygon fill="none" stroke="#000000" points="74.1165,-622 74.1165,-654 167.1165,-654 167.1165,-622 74.1165,-622"/>
<text text-anchor="start" x="92.2805" y="-635" font-family="Helvetica,sans-Serif" font-size="10.00" fill="#000000">AsyncIfcImpl</text>
<polygon fill="none" stroke="#000000" points="74.1165,-530 74.1165,-622 167.1165,-622 167.1165,-530 74.1165,-530"/>
<text text-anchor="start" x="83.6645" y="-603" font-family="Helvetica,sans-Serif" font-size="10.00" fill="#000000">fwd_fifo:ByteFifo</text>
<text text-anchor="start" x="87.5535" y="-591" font-family="Helvetica,sans-Serif" font-size="10.00" fill="#000000">tx_fifo:ByteFifo</text>
<text text-anchor="start" x="87.2785" y="-579" font-family="Helvetica,sans-Serif" font-size="10.00" fill="#000000">rx_fifo:ByteFifo</text>
<text text-anchor="start" x="86.7125" y="-567" font-family="Helvetica,sans-Serif" font-size="10.00" fill="#000000">conn_no:Count</text>
<text text-anchor="start" x="102.83" y="-555" font-family="Helvetica,sans-Serif" font-size="10.00" fill="#000000">node_id</text>
<text text-anchor="start" x="96.166" y="-543" font-family="Helvetica,sans-Serif" font-size="10.00" fill="#000000">timeout_cb</text>
</g>
<!-- A5&#45;&gt;A6 -->
<g id="edge3" class="edge">
<title>A5&#45;&gt;A6</title>
<path fill="none" stroke="#000000" stroke-dasharray="5,2" d="M160.1169,-752.0017C151.3558,-716.9571 142.6838,-682.2694 135.6658,-654.1971"/>
<polygon fill="none" stroke="#000000" points="156.7681,-753.0378 162.5891,-761.8903 163.5591,-751.34 156.7681,-753.0378"/>
</g>
<!-- A7 -->
<g id="node8" class="node">
<title>A7</title>
<polygon fill="none" stroke="#000000" points="70.1165,-390 70.1165,-422 172.1165,-422 172.1165,-390 70.1165,-390"/>
<text text-anchor="start" x="91.3905" y="-403" font-family="Helvetica,sans-Serif" font-size="10.00" fill="#000000">AsyncStream</text>
<polygon fill="none" stroke="#000000" points="70.1165,-310 70.1165,-390 172.1165,-390 172.1165,-310 70.1165,-310"/>
<text text-anchor="start" x="106.6695" y="-371" font-family="Helvetica,sans-Serif" font-size="10.00" fill="#000000">reader</text>
<text text-anchor="start" x="108.8995" y="-359" font-family="Helvetica,sans-Serif" font-size="10.00" fill="#000000">writer</text>
<text text-anchor="start" x="111.1135" y="-347" font-family="Helvetica,sans-Serif" font-size="10.00" fill="#000000">addr</text>
<text text-anchor="start" x="106.6695" y="-335" font-family="Helvetica,sans-Serif" font-size="10.00" fill="#000000">r_addr</text>
<text text-anchor="start" x="107.2245" y="-323" font-family="Helvetica,sans-Serif" font-size="10.00" fill="#000000">l_addr</text>
<polygon fill="none" stroke="#000000" points="70.1165,-182 70.1165,-310 172.1165,-310 172.1165,-182 70.1165,-182"/>
<text text-anchor="start" x="92.7705" y="-279" font-family="Helvetica,sans-Serif" font-size="10.00" fill="#000000">&lt;async&gt;loop</text>
<text text-anchor="start" x="108.8985" y="-267" font-family="Helvetica,sans-Serif" font-size="10.00" fill="#000000">disc()</text>
<text text-anchor="start" x="106.119" y="-255" font-family="Helvetica,sans-Serif" font-size="10.00" fill="#000000">close()</text>
<text text-anchor="start" x="101.6705" y="-243" font-family="Helvetica,sans-Serif" font-size="10.00" fill="#000000">healthy()</text>
<text text-anchor="start" x="86.387" y="-219" font-family="Helvetica,sans-Serif" font-size="10.00" fill="#000000">__async_read()</text>
<text text-anchor="start" x="85.8375" y="-207" font-family="Helvetica,sans-Serif" font-size="10.00" fill="#000000">__async_write()</text>
<text text-anchor="start" x="79.7235" y="-195" font-family="Helvetica,sans-Serif" font-size="10.00" fill="#000000">__async_forward()</text>
</g>
<!-- A6&#45;&gt;A7 -->
<g id="edge4" class="edge">
<title>A6&#45;&gt;A7</title>
<path fill="none" stroke="#000000" d="M120.3662,-519.5861C120.468,-490.0737 120.5884,-455.1552 120.7026,-422.0295"/>
<polygon fill="none" stroke="#000000" points="116.8656,-519.7757 120.331,-529.7877 123.8656,-519.7999 116.8656,-519.7757"/>
</g>
<!-- A7&#45;&gt;A8 -->
<g id="edge5" class="edge">
<title>A7&#45;&gt;A8</title>
<path fill="none" stroke="#000000" d="M178.5777,-185.0204C179.4154,-184.0001 180.2616,-182.9929 181.1165,-182 202.4788,-157.1889 230.2469,-135.0276 256.8921,-116.8901"/>
<polygon fill="none" stroke="#000000" points="175.6875,-183.0361 172.3256,-193.0834 181.2193,-187.3255 175.6875,-183.0361"/>
</g>
<!-- A7&#45;&gt;A9 -->
<g id="edge6" class="edge">
<title>A7&#45;&gt;A9</title>
<path fill="none" stroke="#000000" d="M139.3214,-171.8077C142.1952,-151.2556 144.9992,-131.2022 147.3799,-114.1772"/>
<polygon fill="none" stroke="#000000" points="135.8252,-171.5375 137.9065,-181.9259 142.7577,-172.5069 135.8252,-171.5375"/>
</g>
<!-- A10 -->
<g id="node11" class="node">
<title>A10</title>
<polygon fill="none" stroke="#000000" points="319.1165,-668 319.1165,-700 429.1165,-700 429.1165,-668 319.1165,-668"/>
<text text-anchor="start" x="346.6115" y="-681" font-family="Helvetica,sans-Serif" font-size="10.00" fill="#000000">SolarmanV5</text>
<polygon fill="none" stroke="#000000" points="319.1165,-552 319.1165,-668 429.1165,-668 429.1165,-552 319.1165,-552"/>
<text text-anchor="start" x="354.9395" y="-649" font-family="Helvetica,sans-Serif" font-size="10.00" fill="#000000">conn_no</text>
<text text-anchor="start" x="364.1135" y="-637" font-family="Helvetica,sans-Serif" font-size="10.00" fill="#000000">addr</text>
<text text-anchor="start" x="329.1105" y="-625" font-family="Helvetica,sans-Serif" font-size="10.00" fill="#000000">inverter:InverterG3P</text>
<text text-anchor="start" x="359.1145" y="-613" font-family="Helvetica,sans-Serif" font-size="10.00" fill="#000000">control</text>
<text text-anchor="start" x="362.174" y="-601" font-family="Helvetica,sans-Serif" font-size="10.00" fill="#000000">serial</text>
<text text-anchor="start" x="367.1725" y="-589" font-family="Helvetica,sans-Serif" font-size="10.00" fill="#000000">snr</text>
<text text-anchor="start" x="346.3265" y="-577" font-family="Helvetica,sans-Serif" font-size="10.00" fill="#000000">db:InfosG3P</text>
<text text-anchor="start" x="360.2285" y="-565" font-family="Helvetica,sans-Serif" font-size="10.00" fill="#000000">switch</text>
<polygon fill="none" stroke="#000000" points="319.1165,-484 319.1165,-552 429.1165,-552 429.1165,-484 319.1165,-484"/>
<text text-anchor="start" x="338.557" y="-533" font-family="Helvetica,sans-Serif" font-size="10.00" fill="#000000">msg_unknown()</text>
<text text-anchor="start" x="354.6705" y="-509" font-family="Helvetica,sans-Serif" font-size="10.00" fill="#000000">healthy()</text>
<text text-anchor="start" x="359.119" y="-497" font-family="Helvetica,sans-Serif" font-size="10.00" fill="#000000">close()</text>
</g>
<!-- A10&#45;&gt;A3 -->
<g id="edge7" class="edge">
<title>A10&#45;&gt;A3</title>
<path fill="none" stroke="#000000" d="M369.6226,-473.5237C367.6649,-421.9136 365.5313,-365.6622 364.2597,-332.138"/>
<polygon fill="#000000" stroke="#000000" points="370.0049,-483.6023 365.129,-473.7801 369.8153,-478.6059 369.6257,-473.6095 369.6257,-473.6095 369.6257,-473.6095 369.8153,-478.6059 374.1225,-473.4389 370.0049,-483.6023 370.0049,-483.6023"/>
<polygon fill="#000000" stroke="#000000" points="364.2562,-332.0444 360.0316,-326.2004 363.8013,-320.053 368.0259,-325.8971 364.2562,-332.0444"/>
</g>
<!-- A10&#45;&gt;A4 -->
<g id="edge9" class="edge">
<title>A10&#45;&gt;A4</title>
<path fill="none" stroke="#000000" d="M320.9251,-474.2481C294.4304,-415.5956 265.1484,-350.7729 251.2715,-320.053"/>
<polygon fill="#000000" stroke="#000000" points="325.1506,-483.6023 316.9329,-476.3415 323.0923,-479.0456 321.0339,-474.489 321.0339,-474.489 321.0339,-474.489 323.0923,-479.0456 325.1349,-472.6364 325.1506,-483.6023 325.1506,-483.6023"/>
<text text-anchor="middle" x="266.4364" y="-330.0924" font-family="Helvetica,sans-Serif" font-size="10.00" fill="#000000">0..1</text>
</g>
<!-- A12 -->
<g id="node13" class="node">
<title>A12</title>
<polygon fill="none" stroke="#000000" points="441.1165,-336 441.1165,-368 536.1165,-368 536.1165,-336 441.1165,-336"/>
<text text-anchor="start" x="467.775" y="-349" font-family="Helvetica,sans-Serif" font-size="10.00" fill="#000000">InfosG3P</text>
<polygon fill="none" stroke="#000000" points="441.1165,-304 441.1165,-336 536.1165,-336 536.1165,-304 441.1165,-304"/>
<text text-anchor="start" x="450.829" y="-317" font-family="Helvetica,sans-Serif" font-size="10.00" fill="#000000">client_mode:bool</text>
<polygon fill="none" stroke="#000000" points="441.1165,-236 441.1165,-304 536.1165,-304 536.1165,-236 441.1165,-236"/>
<text text-anchor="start" x="465.0005" y="-285" font-family="Helvetica,sans-Serif" font-size="10.00" fill="#000000">ha_confs()</text>
<text text-anchor="start" x="472.7845" y="-273" font-family="Helvetica,sans-Serif" font-size="10.00" fill="#000000">parse()</text>
<text text-anchor="start" x="476.3985" y="-261" font-family="Helvetica,sans-Serif" font-size="10.00" fill="#000000">calc()</text>
<text text-anchor="start" x="474.73" y="-249" font-family="Helvetica,sans-Serif" font-size="10.00" fill="#000000">build()</text>
</g>
<!-- A10&#45;&gt;A12 -->
<g id="edge12" class="edge">
<title>A10&#45;&gt;A12</title>
<path fill="none" stroke="#000000" d="M416.728,-483.6023C430.6001,-448.3138 445.6887,-409.9305 458.4054,-377.5809"/>
<polygon fill="#000000" stroke="#000000" points="462.0985,-368.1861 462.628,-379.1392 460.2692,-372.8395 458.4399,-377.4928 458.4399,-377.4928 458.4399,-377.4928 460.2692,-372.8395 454.2519,-375.8465 462.0985,-368.1861 462.0985,-368.1861"/>
</g>
<!-- A11 -->
<g id="node12" class="node">
<title>A11</title>
<polygon fill="none" stroke="#000000" points="448.1165,-680 448.1165,-712 551.1165,-712 551.1165,-680 448.1165,-680"/>
<text text-anchor="start" x="488.7785" y="-693" font-family="Helvetica,sans-Serif" font-size="10.00" fill="#000000">Infos</text>
<polygon fill="none" stroke="#000000" points="448.1165,-624 448.1165,-680 551.1165,-680 551.1165,-624 448.1165,-624"/>
<text text-anchor="start" x="491.558" y="-661" font-family="Helvetica,sans-Serif" font-size="10.00" fill="#000000">stat</text>
<text text-anchor="start" x="467.1025" y="-649" font-family="Helvetica,sans-Serif" font-size="10.00" fill="#000000">new_stat_data</text>
<text text-anchor="start" x="480.72" y="-637" font-family="Helvetica,sans-Serif" font-size="10.00" fill="#000000">info_dev</text>
<polygon fill="none" stroke="#000000" points="448.1165,-472 448.1165,-624 551.1165,-624 551.1165,-472 448.1165,-472"/>
<text text-anchor="start" x="475.452" y="-605" font-family="Helvetica,sans-Serif" font-size="10.00" fill="#000000">static_init()</text>
<text text-anchor="start" x="473.501" y="-593" font-family="Helvetica,sans-Serif" font-size="10.00" fill="#000000">dev_value()</text>
<text text-anchor="start" x="470.447" y="-581" font-family="Helvetica,sans-Serif" font-size="10.00" fill="#000000">inc_counter()</text>
<text text-anchor="start" x="468.777" y="-569" font-family="Helvetica,sans-Serif" font-size="10.00" fill="#000000">dec_counter()</text>
<text text-anchor="start" x="466.8265" y="-557" font-family="Helvetica,sans-Serif" font-size="10.00" fill="#000000">ha_proxy_conf</text>
<text text-anchor="start" x="481.8295" y="-545" font-family="Helvetica,sans-Serif" font-size="10.00" fill="#000000">ha_conf</text>
<text text-anchor="start" x="474.6105" y="-533" font-family="Helvetica,sans-Serif" font-size="10.00" fill="#000000">ha_remove</text>
<text text-anchor="start" x="475.991" y="-521" font-family="Helvetica,sans-Serif" font-size="10.00" fill="#000000">update_db</text>
<text text-anchor="start" x="460.1535" y="-509" font-family="Helvetica,sans-Serif" font-size="10.00" fill="#000000">set_db_def_value</text>
<text text-anchor="start" x="469.602" y="-497" font-family="Helvetica,sans-Serif" font-size="10.00" fill="#000000">get_db_value</text>
<text text-anchor="start" x="457.939" y="-485" font-family="Helvetica,sans-Serif" font-size="10.00" fill="#000000">ignore_this_device</text>
</g>
<!-- A11&#45;&gt;A12 -->
<g id="edge11" class="edge">
<title>A11&#45;&gt;A12</title>
<path fill="none" stroke="#000000" d="M494.1822,-461.9134C492.9503,-429.4373 491.6802,-395.9527 490.6226,-368.0691"/>
<polygon fill="none" stroke="#000000" points="490.6864,-462.0924 494.563,-471.9525 497.6813,-461.827 490.6864,-462.0924"/>
</g>
<!-- A13 -->
<g id="node14" class="node">
<title>A13</title>
<polygon fill="none" stroke="#000000" points="172.1165,-1464 172.1165,-1496 321.1165,-1496 321.1165,-1464 172.1165,-1464"/>
<text text-anchor="start" x="226.334" y="-1477" font-family="Helvetica,sans-Serif" font-size="10.00" fill="#000000">Message</text>
<polygon fill="none" stroke="#000000" points="172.1165,-1240 172.1165,-1464 321.1165,-1464 321.1165,-1240 172.1165,-1240"/>
<text text-anchor="start" x="209.943" y="-1445" font-family="Helvetica,sans-Serif" font-size="10.00" fill="#000000">server_side:bool</text>
<text text-anchor="start" x="220.5005" y="-1433" font-family="Helvetica,sans-Serif" font-size="10.00" fill="#000000">mb:Modbus</text>
<text text-anchor="start" x="221.335" y="-1421" font-family="Helvetica,sans-Serif" font-size="10.00" fill="#000000">ifc:AsyncIfc</text>
<text text-anchor="start" x="228.83" y="-1409" font-family="Helvetica,sans-Serif" font-size="10.00" fill="#000000">node_id</text>
<text text-anchor="start" x="207.1595" y="-1397" font-family="Helvetica,sans-Serif" font-size="10.00" fill="#000000">header_valid:bool</text>
<text text-anchor="start" x="221.6065" y="-1385" font-family="Helvetica,sans-Serif" font-size="10.00" fill="#000000">header_len</text>
<text text-anchor="start" x="227.4405" y="-1373" font-family="Helvetica,sans-Serif" font-size="10.00" fill="#000000">data_len</text>
<text text-anchor="start" x="224.941" y="-1361" font-family="Helvetica,sans-Serif" font-size="10.00" fill="#000000">unique_id</text>
<text text-anchor="start" x="218.8315" y="-1349" font-family="Helvetica,sans-Serif" font-size="10.00" fill="#000000">sug_area:str</text>
<text text-anchor="start" x="215.7725" y="-1337" font-family="Helvetica,sans-Serif" font-size="10.00" fill="#000000">new_data:dict</text>
<text text-anchor="start" x="222.7165" y="-1325" font-family="Helvetica,sans-Serif" font-size="10.00" fill="#000000">state:State</text>
<text text-anchor="start" x="196.321" y="-1313" font-family="Helvetica,sans-Serif" font-size="10.00" fill="#000000">shutdown_started:bool</text>
<text text-anchor="start" x="215.501" y="-1301" font-family="Helvetica,sans-Serif" font-size="10.00" fill="#000000">modbus_elms</text>
<text text-anchor="start" x="211.6235" y="-1289" font-family="Helvetica,sans-Serif" font-size="10.00" fill="#000000">mb_timer:Timer</text>
<text text-anchor="start" x="220.5015" y="-1277" font-family="Helvetica,sans-Serif" font-size="10.00" fill="#000000">mb_timeout</text>
<text text-anchor="start" x="209.669" y="-1265" font-family="Helvetica,sans-Serif" font-size="10.00" fill="#000000">mb_first_timeout</text>
<text text-anchor="start" x="200.7705" y="-1253" font-family="Helvetica,sans-Serif" font-size="10.00" fill="#000000">modbus_polling:bool</text>
<polygon fill="none" stroke="#000000" points="172.1165,-1136 172.1165,-1240 321.1165,-1240 321.1165,-1136 172.1165,-1136"/>
<text text-anchor="start" x="195.501" y="-1221" font-family="Helvetica,sans-Serif" font-size="10.00" fill="#000000">_set_mqtt_timestamp()</text>
<text text-anchor="start" x="224.1165" y="-1209" font-family="Helvetica,sans-Serif" font-size="10.00" fill="#000000">_timeout()</text>
<text text-anchor="start" x="196.884" y="-1197" font-family="Helvetica,sans-Serif" font-size="10.00" fill="#000000">_send_modbus_cmd()</text>
<text text-anchor="start" x="181.876" y="-1185" font-family="Helvetica,sans-Serif" font-size="10.00" fill="#000000">&lt;async&gt; end_modbus_cmd()</text>
<text text-anchor="start" x="231.619" y="-1173" font-family="Helvetica,sans-Serif" font-size="10.00" fill="#000000">close()</text>
<text text-anchor="start" x="217.447" y="-1161" font-family="Helvetica,sans-Serif" font-size="10.00" fill="#000000">inc_counter()</text>
<text text-anchor="start" x="215.777" y="-1149" font-family="Helvetica,sans-Serif" font-size="10.00" fill="#000000">dec_counter()</text>
</g>
<!-- A13&#45;&gt;A5 -->
<g id="edge13" class="edge">
<title>A13&#45;&gt;A5</title>
<path fill="none" stroke="#000000" d="M226.347,-1135.7758C224.8967,-1122.5547 223.4359,-1109.2373 221.9911,-1096.0662"/>
<polygon fill="#000000" stroke="#000000" points="220.8898,-1086.0268 226.4535,-1095.4764 221.4351,-1090.997 221.9803,-1095.9672 221.9803,-1095.9672 221.9803,-1095.9672 221.4351,-1090.997 217.5072,-1096.4579 220.8898,-1086.0268 220.8898,-1086.0268"/>
<text text-anchor="middle" x="215.9686" y="-1115.6794" font-family="Helvetica,sans-Serif" font-size="10.00" fill="#000000">use</text>
</g>
<!-- A13&#45;&gt;A10 -->
<g id="edge16" class="edge">
<title>A13&#45;&gt;A10</title>
<path fill="none" stroke="#000000" d="M279.7902,-1125.5329C303.7754,-989.8666 335.1521,-812.3923 354.9765,-700.2604"/>
<polygon fill="none" stroke="#000000" points="276.2982,-1125.1812 278.0037,-1135.6378 283.1913,-1126.3999 276.2982,-1125.1812"/>
</g>
<!-- A14&#45;&gt;A13 -->
<g id="edge15" class="edge">
<title>A14&#45;&gt;A13</title>
<path fill="none" stroke="#000000" stroke-dasharray="5,2" d="M204.2906,-1613.8004C208.8542,-1581.3079 214.8136,-1538.8764 220.7975,-1496.2713"/>
<polygon fill="none" stroke="#000000" points="200.7847,-1613.5986 202.8597,-1623.9883 207.7166,-1614.5723 200.7847,-1613.5986"/>
</g>
<!-- A15 -->
<g id="node16" class="node">
<title>A15</title>
<polygon fill="none" stroke="#000000" points="260.1165,-1766 260.1165,-1798 335.1165,-1798 335.1165,-1766 260.1165,-1766"/>
<text text-anchor="start" x="279.834" y="-1779" font-family="Helvetica,sans-Serif" font-size="10.00" fill="#000000">Modbus</text>
<polygon fill="none" stroke="#000000" points="260.1165,-1614 260.1165,-1766 335.1165,-1766 335.1165,-1614 260.1165,-1614"/>
<text text-anchor="start" x="289.278" y="-1747" font-family="Helvetica,sans-Serif" font-size="10.00" fill="#000000">que</text>
<text text-anchor="start" x="270.1065" y="-1723" font-family="Helvetica,sans-Serif" font-size="10.00" fill="#000000">snd_handler</text>
<text text-anchor="start" x="271.2215" y="-1711" font-family="Helvetica,sans-Serif" font-size="10.00" fill="#000000">rsp_handler</text>
<text text-anchor="start" x="281.225" y="-1699" font-family="Helvetica,sans-Serif" font-size="10.00" fill="#000000">timeout</text>
<text text-anchor="start" x="271.506" y="-1687" font-family="Helvetica,sans-Serif" font-size="10.00" fill="#000000">max_retires</text>
<text text-anchor="start" x="279.5585" y="-1675" font-family="Helvetica,sans-Serif" font-size="10.00" fill="#000000">last_xxx</text>
<text text-anchor="start" x="291.508" y="-1663" font-family="Helvetica,sans-Serif" font-size="10.00" fill="#000000">err</text>
<text text-anchor="start" x="278.17" y="-1651" font-family="Helvetica,sans-Serif" font-size="10.00" fill="#000000">retry_cnt</text>
<text text-anchor="start" x="276.4955" y="-1639" font-family="Helvetica,sans-Serif" font-size="10.00" fill="#000000">req_pend</text>
<text text-anchor="start" x="290.953" y="-1627" font-family="Helvetica,sans-Serif" font-size="10.00" fill="#000000">tim</text>
<polygon fill="none" stroke="#000000" points="260.1165,-1546 260.1165,-1614 335.1165,-1614 335.1165,-1546 260.1165,-1546"/>
<text text-anchor="start" x="271.5065" y="-1595" font-family="Helvetica,sans-Serif" font-size="10.00" fill="#000000">build_msg()</text>
<text text-anchor="start" x="274.8405" y="-1583" font-family="Helvetica,sans-Serif" font-size="10.00" fill="#000000">recv_req()</text>
<text text-anchor="start" x="272.3405" y="-1571" font-family="Helvetica,sans-Serif" font-size="10.00" fill="#000000">recv_resp()</text>
<text text-anchor="start" x="282.619" y="-1559" font-family="Helvetica,sans-Serif" font-size="10.00" fill="#000000">close()</text>
</g>
<!-- A15&#45;&gt;A13 -->
<g id="edge17" class="edge">
<title>A15&#45;&gt;A13</title>
<path fill="none" stroke="#000000" d="M277.6392,-1536.041C275.7633,-1522.9463 273.8413,-1509.5297 271.9169,-1496.0971"/>
<polygon fill="#000000" stroke="#000000" points="279.064,-1545.9867 273.1913,-1536.726 278.3549,-1541.0373 277.6458,-1536.0878 277.6458,-1536.0878 277.6458,-1536.0878 278.3549,-1541.0373 282.1004,-1535.4496 279.064,-1545.9867 279.064,-1545.9867"/>
<text text-anchor="middle" x="282.8544" y="-1509.8414" font-family="Helvetica,sans-Serif" font-size="10.00" fill="#000000">has</text>
<text text-anchor="middle" x="268.1266" y="-1526.2424" font-family="Helvetica,sans-Serif" font-size="10.00" fill="#000000">0..1</text>
</g>
</g>
</svg>
