<?xml version="1.0" encoding="UTF-8" standalone="no"?>
<!DOCTYPE svg PUBLIC "-//W3C//DTD SVG 1.1//EN"
 "http://www.w3.org/Graphics/SVG/1.1/DTD/svg11.dtd">
<!-- Generated by graphviz version 2.40.1 (20161225.0304)
 -->
<!-- Title: G Pages: 1 -->
<svg width="634pt" height="966pt"
 viewBox="0.00 0.00 634.00 966.00" xmlns="http://www.w3.org/2000/svg" xmlns:xlink="http://www.w3.org/1999/xlink">
<g id="graph0" class="graph" transform="scale(1 1) rotate(0) translate(4 962)">
<title>G</title>
<polygon fill="#ffffff" stroke="transparent" points="-4,4 -4,-962 630,-962 630,4 -4,4"/>
<!-- A0 -->
<g id="node1" class="node">
<title>A0</title>
<polygon fill="#fff8dc" stroke="#000000" points="200.1964,-934 91.8036,-934 91.8036,-898 206.1964,-898 206.1964,-928 200.1964,-934"/>
<polyline fill="none" stroke="#000000" points="200.1964,-934 200.1964,-928 "/>
<polyline fill="none" stroke="#000000" points="206.1964,-928 200.1964,-928 "/>
<text text-anchor="middle" x="149" y="-919" font-family="Helvetica,sans-Serif" font-size="10.00" fill="#000000">You can stick notes</text>
<text text-anchor="middle" x="149" y="-907" font-family="Helvetica,sans-Serif" font-size="10.00" fill="#000000">on diagrams too!</text>
</g>
<!-- A1 -->
<g id="node2" class="node">
<title>A1</title>
<polygon fill="none" stroke="#000000" points="224,-926 224,-958 340,-958 340,-926 224,-926"/>
<text text-anchor="start" x="233.649" y="-939" font-family="Helvetica,sans-Serif" font-size="10.00" fill="#000000">&lt;&lt;AbstractIterMeta&gt;&gt;</text>
<polygon fill="none" stroke="#000000" points="224,-906 224,-926 340,-926 340,-906 224,-906"/>
<polygon fill="none" stroke="#000000" points="224,-874 224,-906 340,-906 340,-874 224,-874"/>
<text text-anchor="start" x="260.61" y="-887" font-family="Helvetica,sans-Serif" font-size="10.00" fill="#000000">__iter__()</text>
</g>
<!-- A4 -->
<g id="node5" class="node">
<title>A4</title>
<polygon fill="none" stroke="#000000" points="187,-726 187,-758 378,-758 378,-726 187,-726"/>
<text text-anchor="start" x="248.5965" y="-739" font-family="Helvetica,sans-Serif" font-size="10.00" fill="#000000">&lt;&lt;InverterIfc&gt;&gt;</text>
<polygon fill="none" stroke="#000000" points="187,-706 187,-726 378,-726 378,-706 187,-706"/>
<polygon fill="none" stroke="#000000" points="187,-650 187,-706 378,-706 378,-650 187,-650"/>
<text text-anchor="start" x="249.022" y="-687" font-family="Helvetica,sans-Serif" font-size="10.00" fill="#000000">healthy()&#45;&gt;bool</text>
<text text-anchor="start" x="196.7835" y="-675" font-family="Helvetica,sans-Serif" font-size="10.00" fill="#000000">&lt;async&gt;disc(shutdown_started=False)</text>
<text text-anchor="start" x="228.044" y="-663" font-family="Helvetica,sans-Serif" font-size="10.00" fill="#000000">&lt;async&gt;create_remote()</text>
</g>
<!-- A1&#45;&gt;A4 -->
<g id="edge1" class="edge">
<title>A1&#45;&gt;A4</title>
<path fill="none" stroke="#000000" stroke-dasharray="5,2" d="M282,-863.7744C282,-831.6663 282,-790.6041 282,-758.1476"/>
<polygon fill="none" stroke="#000000" points="278.5001,-863.8621 282,-873.8622 285.5001,-863.8622 278.5001,-863.8621"/>
</g>
<!-- A2 -->
<g id="node3" class="node">
<title>A2</title>
<polygon fill="none" stroke="#000000" points="450,-454 450,-498 572,-498 572,-454 450,-454"/>
<text text-anchor="start" x="501.277" y="-479" font-family="Helvetica,sans-Serif" font-size="10.00" fill="#000000">Mqtt</text>
<text text-anchor="start" x="478.4815" y="-467" font-family="Helvetica,sans-Serif" font-size="10.00" fill="#000000">&lt;&lt;Singleton&gt;&gt;</text>
<polygon fill="none" stroke="#000000" points="450,-398 450,-454 572,-454 572,-398 450,-398"/>
<text text-anchor="start" x="468.4875" y="-435" font-family="Helvetica,sans-Serif" font-size="10.00" fill="#000000">&lt;static&gt;ha_restarts</text>
<text text-anchor="start" x="476.2665" y="-423" font-family="Helvetica,sans-Serif" font-size="10.00" fill="#000000">&lt;static&gt;__client</text>
<text text-anchor="start" x="459.8735" y="-411" font-family="Helvetica,sans-Serif" font-size="10.00" fill="#000000">&lt;static&gt;__cb_MqttIsUp</text>
<polygon fill="none" stroke="#000000" points="450,-354 450,-398 572,-398 572,-354 450,-354"/>
<text text-anchor="start" x="472.936" y="-379" font-family="Helvetica,sans-Serif" font-size="10.00" fill="#000000">&lt;async&gt;publish()</text>
<text text-anchor="start" x="477.1045" y="-367" font-family="Helvetica,sans-Serif" font-size="10.00" fill="#000000">&lt;async&gt;close()</text>
</g>
<!-- A3 -->
<g id="node4" class="node">
<title>A3</title>
<polygon fill="none" stroke="#000000" points="396,-792 396,-824 626,-824 626,-792 396,-792"/>
<text text-anchor="start" x="498.2215" y="-805" font-family="Helvetica,sans-Serif" font-size="10.00" fill="#000000">Proxy</text>
<polygon fill="none" stroke="#000000" points="396,-676 396,-792 626,-792 626,-676 396,-676"/>
<text text-anchor="start" x="482.6545" y="-773" font-family="Helvetica,sans-Serif" font-size="10.00" fill="#000000">&lt;cls&gt;db_stat</text>
<text text-anchor="start" x="475.991" y="-761" font-family="Helvetica,sans-Serif" font-size="10.00" fill="#000000">&lt;cls&gt;entity_prfx</text>
<text text-anchor="start" x="466.826" y="-749" font-family="Helvetica,sans-Serif" font-size="10.00" fill="#000000">&lt;cls&gt;discovery_prfx</text>
<text text-anchor="start" x="466.262" y="-737" font-family="Helvetica,sans-Serif" font-size="10.00" fill="#000000">&lt;cls&gt;proxy_node_id</text>
<text text-anchor="start" x="462.373" y="-725" font-family="Helvetica,sans-Serif" font-size="10.00" fill="#000000">&lt;cls&gt;proxy_unique_id</text>
<text text-anchor="start" x="478.216" y="-713" font-family="Helvetica,sans-Serif" font-size="10.00" fill="#000000">&lt;cls&gt;mqtt:Mqtt</text>
<text text-anchor="start" x="480.4355" y="-689" font-family="Helvetica,sans-Serif" font-size="10.00" fill="#000000">__ha_restarts</text>
<polygon fill="none" stroke="#000000" points="396,-584 396,-676 626,-676 626,-584 396,-584"/>
<text text-anchor="start" x="487.1145" y="-657" font-family="Helvetica,sans-Serif" font-size="10.00" fill="#000000">class_init()</text>
<text text-anchor="start" x="481.834" y="-645" font-family="Helvetica,sans-Serif" font-size="10.00" fill="#000000">class_close()</text>
<text text-anchor="start" x="453.484" y="-621" font-family="Helvetica,sans-Serif" font-size="10.00" fill="#000000">&lt;async&gt;_cb_mqtt_is_up()</text>
<text text-anchor="start" x="405.697" y="-609" font-family="Helvetica,sans-Serif" font-size="10.00" fill="#000000">&lt;async&gt;_register_proxy_stat_home_assistant()</text>
<text text-anchor="start" x="414.584" y="-597" font-family="Helvetica,sans-Serif" font-size="10.00" fill="#000000">&lt;async&gt;_async_publ_mqtt_proxy_stat(key)</text>
</g>
<!-- A3&#45;&gt;A2 -->
<g id="edge9" class="edge">
<title>A3&#45;&gt;A2</title>
<path fill="none" stroke="#000000" d="M511,-571.373C511,-549.9571 511,-528.339 511,-508.5579"/>
<polygon fill="#000000" stroke="#000000" points="511.0001,-571.682 515,-577.6821 511,-583.682 507,-577.682 511.0001,-571.682"/>
<polygon fill="#000000" stroke="#000000" points="511,-498.392 515.5001,-508.3919 511,-503.392 511.0001,-508.392 511.0001,-508.392 511.0001,-508.392 511,-503.392 506.5001,-508.392 511,-498.392 511,-498.392"/>
</g>
<!-- A5 -->
<g id="node6" class="node">
<title>A5</title>
<polygon fill="none" stroke="#000000" points="214,-502 214,-534 405,-534 405,-502 214,-502"/>
<text text-anchor="start" x="281.16" y="-515" font-family="Helvetica,sans-Serif" font-size="10.00" fill="#000000">InverterBase</text>
<polygon fill="none" stroke="#000000" points="214,-386 214,-502 405,-502 405,-386 214,-386"/>
<text text-anchor="start" x="290.3335" y="-483" font-family="Helvetica,sans-Serif" font-size="10.00" fill="#000000">_registry</text>
<text text-anchor="start" x="278.9355" y="-471" font-family="Helvetica,sans-Serif" font-size="10.00" fill="#000000">__ha_restarts</text>
<text text-anchor="start" x="299.497" y="-447" font-family="Helvetica,sans-Serif" font-size="10.00" fill="#000000">addr</text>
<text text-anchor="start" x="282.5505" y="-435" font-family="Helvetica,sans-Serif" font-size="10.00" fill="#000000">config_id:str</text>
<text text-anchor="start" x="255.8785" y="-423" font-family="Helvetica,sans-Serif" font-size="10.00" fill="#000000">prot_class:MessageProt</text>
<text text-anchor="start" x="270.053" y="-411" font-family="Helvetica,sans-Serif" font-size="10.00" fill="#000000">remote:StreamPtr</text>
<text text-anchor="start" x="275.332" y="-399" font-family="Helvetica,sans-Serif" font-size="10.00" fill="#000000">local:StreamPtr</text>
<polygon fill="none" stroke="#000000" points="214,-318 214,-386 405,-386 405,-318 214,-318"/>
<text text-anchor="start" x="276.022" y="-367" font-family="Helvetica,sans-Serif" font-size="10.00" fill="#000000">healthy()&#45;&gt;bool</text>
<text text-anchor="start" x="223.7835" y="-355" font-family="Helvetica,sans-Serif" font-size="10.00" fill="#000000">&lt;async&gt;disc(shutdown_started=False)</text>
<text text-anchor="start" x="255.044" y="-343" font-family="Helvetica,sans-Serif" font-size="10.00" fill="#000000">&lt;async&gt;create_remote()</text>
<text text-anchor="start" x="249.484" y="-331" font-family="Helvetica,sans-Serif" font-size="10.00" fill="#000000">&lt;async&gt;async_publ_mqtt()</text>
</g>
<!-- A3&#45;&gt;A5 -->
<g id="edge7" class="edge">
<title>A3&#45;&gt;A5</title>
<path fill="none" stroke="#000000" d="M417.6791,-575.5683C407.6409,-561.7533 397.5008,-547.7982 387.6588,-534.2532"/>
<polygon fill="none" stroke="#000000" points="414.8649,-577.6495 423.5747,-583.682 420.5279,-573.5347 414.8649,-577.6495"/>
</g>
<!-- A4&#45;&gt;A5 -->
<g id="edge2" class="edge">
<title>A4&#45;&gt;A5</title>
<path fill="none" stroke="#000000" stroke-dasharray="5,2" d="M288.2719,-639.4228C291.3086,-608.1559 295.0373,-569.7639 298.491,-534.2034"/>
<polygon fill="none" stroke="#000000" points="284.7531,-639.4473 287.27,-649.7389 291.7203,-640.1241 284.7531,-639.4473"/>
</g>
<!-- A6 -->
<g id="node7" class="node">
<title>A6</title>
<polygon fill="none" stroke="#000000" points="365,-236 365,-268 465,-268 465,-236 365,-236"/>
<text text-anchor="start" x="392.4995" y="-249" font-family="Helvetica,sans-Serif" font-size="10.00" fill="#000000">StreamPtr</text>
<polygon fill="none" stroke="#000000" points="365,-216 365,-236 465,-236 465,-216 365,-216"/>
<polygon fill="none" stroke="#000000" points="365,-172 365,-216 465,-216 465,-172 365,-172"/>
<text text-anchor="start" x="374.7175" y="-197" font-family="Helvetica,sans-Serif" font-size="10.00" fill="#000000">stream:ProtocolIfc</text>
<text text-anchor="start" x="389.7185" y="-185" font-family="Helvetica,sans-Serif" font-size="10.00" fill="#000000">ifc:AsyncIfc</text>
</g>
<!-- A5&#45;&gt;A6 -->
<g id="edge8" class="edge">
<title>A5&#45;&gt;A6</title>
<path fill="none" stroke="#000000" d="M364.6387,-317.872C371.8786,-303.802 379.0526,-289.86 385.6187,-277.0995"/>
<polygon fill="#000000" stroke="#000000" points="390.2846,-268.0318 389.7105,-278.9826 387.9969,-272.4777 385.7091,-276.9237 385.7091,-276.9237 385.7091,-276.9237 387.9969,-272.4777 381.7078,-274.8647 390.2846,-268.0318 390.2846,-268.0318"/>
<text text-anchor="middle" x="389.5069" y="-285.0166" font-family="Helvetica,sans-Serif" font-size="10.00" fill="#000000">2</text>
</g>
<!-- A7 -->
<g id="node8" class="node">
<title>A7</title>
<polygon fill="none" stroke="#000000" points="346.7314,-238 271.2686,-238 271.2686,-202 346.7314,-202 346.7314,-238"/>
<text text-anchor="middle" x="309" y="-217" font-family="Helvetica,sans-Serif" font-size="10.00" fill="#000000">InverterG3</text>
</g>
<!-- A5&#45;&gt;A7 -->
<g id="edge5" class="edge">
<title>A5&#45;&gt;A7</title>
<path fill="none" stroke="#000000" d="M309,-307.7729C309,-280.5002 309,-254.684 309,-238.2013"/>
<polygon fill="none" stroke="#000000" points="305.5001,-307.872 309,-317.872 312.5001,-307.872 305.5001,-307.872"/>
</g>
<!-- A9 -->
<g id="node10" class="node">
<title>A9</title>
<polygon fill="none" stroke="#000000" points="102.9001,-238 21.0999,-238 21.0999,-202 102.9001,-202 102.9001,-238"/>
<text text-anchor="middle" x="62" y="-217" font-family="Helvetica,sans-Serif" font-size="10.00" fill="#000000">InverterG3P</text>
</g>
<!-- A5&#45;&gt;A9 -->
<g id="edge6" class="edge">
<title>A5&#45;&gt;A9</title>
<path fill="none" stroke="#000000" d="M205.2667,-346.4637C174.3973,-321.9347 140.8582,-294.4156 111,-268 100.2971,-258.5312 88.8616,-247.3925 79.732,-238.23"/>
<polygon fill="none" stroke="#000000" points="203.462,-349.4991 213.4739,-352.965 207.8086,-344.0121 203.462,-349.4991"/>
</g>
<!-- A11 -->
<g id="node12" class="node">
<title>A11</title>
<polygon fill="none" stroke="#000000" points="458.6421,-36 369.3579,-36 369.3579,0 458.6421,0 458.6421,-36"/>
<text text-anchor="middle" x="414" y="-15" font-family="Helvetica,sans-Serif" font-size="10.00" fill="#000000">&lt;&lt;AsyncIfc&gt;&gt;</text>
</g>
<!-- A6&#45;&gt;A11 -->
<g id="edge11" class="edge">
<title>A6&#45;&gt;A11</title>
<path fill="none" stroke="#000000" d="M401.1633,-171.974C395.4982,-146.4565 391.0868,-114.547 395,-86 396.8468,-72.5276 400.661,-57.9618 404.3907,-45.7804"/>
<polygon fill="#000000" stroke="#000000" points="407.4587,-36.1851 408.6994,-47.0805 405.9359,-40.9476 404.4131,-45.71 404.4131,-45.71 404.4131,-45.71 405.9359,-40.9476 400.1269,-44.3395 407.4587,-36.1851 407.4587,-36.1851"/>
<text text-anchor="middle" x="409.9892" y="-53.0243" font-family="Helvetica,sans-Serif" font-size="10.00" fill="#000000">1</text>
</g>
<!-- A12 -->
<g id="node13" class="node">
<title>A12</title>
<polygon fill="none" stroke="#000000" points="502.0879,-122 403.9121,-122 403.9121,-86 502.0879,-86 502.0879,-122"/>
<text text-anchor="middle" x="453" y="-101" font-family="Helvetica,sans-Serif" font-size="10.00" fill="#000000">&lt;&lt;ProtocolIfc&gt;&gt;</text>
</g>
<!-- A6&#45;&gt;A12 -->
<g id="edge10" class="edge">
<title>A6&#45;&gt;A12</title>
<path fill="none" stroke="#000000" d="M430.7853,-171.8133C435.2329,-158.2365 439.9225,-143.9208 443.8408,-131.9595"/>
<polygon fill="#000000" stroke="#000000" points="447.0602,-122.132 448.2235,-133.036 445.5036,-126.8835 443.9471,-131.6351 443.9471,-131.6351 443.9471,-131.6351 445.5036,-126.8835 439.6707,-130.2341 447.0602,-122.132 447.0602,-122.132"/>
<text text-anchor="middle" x="449.4498" y="-138.9887" font-family="Helvetica,sans-Serif" font-size="10.00" fill="#000000">1</text>
</g>
<!-- A8 -->
<g id="node9" class="node">
<title>A8</title>
<polygon fill="#fff8dc" stroke="#000000" points="583.406,-248 482.594,-248 482.594,-192 589.406,-192 589.406,-242 583.406,-248"/>
<polyline fill="none" stroke="#000000" points="583.406,-248 583.406,-242 "/>
<polyline fill="none" stroke="#000000" points="589.406,-242 583.406,-242 "/>
<text text-anchor="middle" x="536" y="-235" font-family="Helvetica,sans-Serif" font-size="10.00" fill="#000000">Creates an GEN3</text>
<text text-anchor="middle" x="536" y="-223" font-family="Helvetica,sans-Serif" font-size="10.00" fill="#000000">inverter instance</text>
<text text-anchor="middle" x="536" y="-211" font-family="Helvetica,sans-Serif" font-size="10.00" fill="#000000">with</text>
<text text-anchor="middle" x="536" y="-199" font-family="Helvetica,sans-Serif" font-size="10.00" fill="#000000">prot_class:Talent</text>
</g>
<!-- A7&#45;&gt;A8 -->
<g id="edge3" class="edge">
<title>A7&#45;&gt;A8</title>
<path fill="none" stroke="#000000" stroke-dasharray="5,2" d="M317.0491,-238.3283C325.9345,-256.0056 342.0793,-281.6949 365,-293 404.8598,-312.6598 424.0578,-310.2929 465,-293 486.6607,-283.8511 504.9784,-264.5049 517.5802,-248.0264"/>
</g>
<!-- A10 -->
<g id="node11" class="node">
<title>A10</title>
<polygon fill="#fff8dc" stroke="#000000" points="247.522,-248 120.478,-248 120.478,-192 253.522,-192 253.522,-242 247.522,-248"/>
<polyline fill="none" stroke="#000000" points="247.522,-248 247.522,-242 "/>
<polyline fill="none" stroke="#000000" points="253.522,-242 247.522,-242 "/>
<text text-anchor="middle" x="187" y="-235" font-family="Helvetica,sans-Serif" font-size="10.00" fill="#000000">Creates an GEN3PLUS</text>
<text text-anchor="middle" x="187" y="-223" font-family="Helvetica,sans-Serif" font-size="10.00" fill="#000000">inverter instance</text>
<text text-anchor="middle" x="187" y="-211" font-family="Helvetica,sans-Serif" font-size="10.00" fill="#000000">with</text>
<text text-anchor="middle" x="187" y="-199" font-family="Helvetica,sans-Serif" font-size="10.00" fill="#000000">prot_class:SolarmanV5</text>
</g>
<!-- A9&#45;&gt;A10 -->
<g id="edge4" class="edge">
<title>A9&#45;&gt;A10</title>
<path fill="none" stroke="#000000" stroke-dasharray="5,2" d="M103.0156,-220C108.8114,-220 114.6072,-220 120.403,-220"/>
</g>
<!-- A12&#45;&gt;A11 -->
<g id="edge12" class="edge">
<title>A12&#45;&gt;A11</title>
<path fill="none" stroke="#000000" stroke-dasharray="5,2" d="M444.7291,-85.7616C439.4033,-74.0176 432.3824,-58.5355 426.396,-45.3349"/>
<polygon fill="#000000" stroke="#000000" points="422.259,-36.2121 430.4874,-43.4608 424.324,-40.7657 426.3891,-45.3194 426.3891,-45.3194 426.3891,-45.3194 424.324,-40.7657 422.2908,-47.1779 422.259,-36.2121 422.259,-36.2121"/>
<text text-anchor="middle" x="429.5451" y="-69.7445" font-family="Helvetica,sans-Serif" font-size="10.00" fill="#000000">use</text>
</g>
<!-- A13 -->
<g id="node14" class="node">
<title>A13</title>
<polygon fill="none" stroke="#000000" points="9,-454 9,-486 116,-486 116,-454 9,-454"/>
<text text-anchor="start" x="32.7695" y="-467" font-family="Helvetica,sans-Serif" font-size="10.00" fill="#000000">ModbusConn</text>
<polygon fill="none" stroke="#000000" points="9,-386 9,-454 116,-454 116,-386 9,-386"/>
<text text-anchor="start" x="53.0515" y="-435" font-family="Helvetica,sans-Serif" font-size="10.00" fill="#000000">host</text>
<text text-anchor="start" x="53.887" y="-423" font-family="Helvetica,sans-Serif" font-size="10.00" fill="#000000">port</text>
<text text-anchor="start" x="52.497" y="-411" font-family="Helvetica,sans-Serif" font-size="10.00" fill="#000000">addr</text>
<text text-anchor="start" x="18.883" y="-399" font-family="Helvetica,sans-Serif" font-size="10.00" fill="#000000">stream:InverterG3P</text>
<polygon fill="none" stroke="#000000" points="9,-366 9,-386 116,-386 116,-366 9,-366"/>
</g>
<!-- A13&#45;&gt;A9 -->
<g id="edge13" class="edge">
<title>A13&#45;&gt;A9</title>
<path fill="none" stroke="#000000" d="M62,-365.8625C62,-327.1513 62,-278.6088 62,-248.4442"/>
<polygon fill="#000000" stroke="#000000" points="62,-238.2147 66.5001,-248.2147 62,-243.2147 62.0001,-248.2147 62.0001,-248.2147 62.0001,-248.2147 62,-243.2147 57.5001,-248.2148 62,-238.2147 62,-238.2147"/>
<text text-anchor="middle" x="70.4524" y="-253.3409" font-family="Helvetica,sans-Serif" font-size="10.00" fill="#000000">1</text>
<text text-anchor="middle" x="53.5476" y="-344.7363" font-family="Helvetica,sans-Serif" font-size="10.00" fill="#000000">has</text>
</g>
<!-- A14 -->
<g id="node15" class="node">
<title>A14</title>
<polygon fill="none" stroke="#000000" points="0,-714 0,-746 124,-746 124,-714 0,-714"/>
<text text-anchor="start" x="35.8835" y="-727" font-family="Helvetica,sans-Serif" font-size="10.00" fill="#000000">ModbusTcp</text>
<polygon fill="none" stroke="#000000" points="0,-694 0,-714 124,-714 124,-694 0,-694"/>
<polygon fill="none" stroke="#000000" points="0,-662 0,-694 124,-694 124,-662 0,-662"/>
<text text-anchor="start" x="9.763" y="-675" font-family="Helvetica,sans-Serif" font-size="10.00" fill="#000000">&lt;async&gt;modbus_loop()</text>
</g>
<!-- A14&#45;&gt;A13 -->
<g id="edge14" class="edge">
<title>A14&#45;&gt;A13</title>
<path fill="none" stroke="#000000" d="M62,-661.7778C62,-617.9184 62,-548.5387 62,-496.3736"/>
<polygon fill="#000000" stroke="#000000" points="62,-486.1827 66.5001,-496.1827 62,-491.1827 62.0001,-496.1827 62.0001,-496.1827 62.0001,-496.1827 62,-491.1827 57.5001,-496.1828 62,-486.1827 62,-486.1827"/>
<text text-anchor="middle" x="70.4524" y="-501.3089" font-family="Helvetica,sans-Serif" font-size="10.00" fill="#000000">*</text>
<text text-anchor="middle" x="53.5476" y="-640.6516" font-family="Helvetica,sans-Serif" font-size="10.00" fill="#000000">creates</text>
</g>
</g>
</svg>
