<?xml version="1.0" encoding="UTF-8" standalone="no"?>
<!DOCTYPE svg PUBLIC "-//W3C//DTD SVG 1.1//EN"
 "http://www.w3.org/Graphics/SVG/1.1/DTD/svg11.dtd">
<!-- Generated by graphviz version 2.40.1 (20161225.0304)
 -->
<!-- Title: G Pages: 1 -->
<svg width="597pt" height="1940pt"
 viewBox="0.00 0.00 597.00 1940.00" xmlns="http://www.w3.org/2000/svg" xmlns:xlink="http://www.w3.org/1999/xlink">
<g id="graph0" class="graph" transform="scale(1 1) rotate(0) translate(4 1936)">
<title>G</title>
<polygon fill="#ffffff" stroke="transparent" points="-4,4 -4,-1936 593,-1936 593,4 -4,4"/>
<!-- A0 -->
<g id="node1" class="node">
<title>A0</title>
<polygon fill="#fff8dc" stroke="#000000" points="287.2332,-1912 172.7668,-1912 172.7668,-1868 293.2332,-1868 293.2332,-1906 287.2332,-1912"/>
<polyline fill="none" stroke="#000000" points="287.2332,-1912 287.2332,-1906 "/>
<polyline fill="none" stroke="#000000" points="293.2332,-1906 287.2332,-1906 "/>
<text text-anchor="middle" x="233" y="-1899" font-family="Helvetica,sans-Serif" font-size="10.00" fill="#000000">Example of</text>
<text text-anchor="middle" x="233" y="-1887" font-family="Helvetica,sans-Serif" font-size="10.00" fill="#000000">instantiation for a</text>
<text text-anchor="middle" x="233" y="-1875" font-family="Helvetica,sans-Serif" font-size="10.00" fill="#000000">GEN3PLUS inverter!</text>
</g>
<!-- A1 -->
<g id="node2" class="node">
<title>A1</title>
<polygon fill="none" stroke="#000000" points="311,-1900 311,-1932 427,-1932 427,-1900 311,-1900"/>
<text text-anchor="start" x="320.649" y="-1913" font-family="Helvetica,sans-Serif" font-size="10.00" fill="#000000">&lt;&lt;AbstractIterMeta&gt;&gt;</text>
<polygon fill="none" stroke="#000000" points="311,-1880 311,-1900 427,-1900 427,-1880 311,-1880"/>
<polygon fill="none" stroke="#000000" points="311,-1848 311,-1880 427,-1880 427,-1848 311,-1848"/>
<text text-anchor="start" x="347.61" y="-1861" font-family="Helvetica,sans-Serif" font-size="10.00" fill="#000000">__iter__()</text>
</g>
<!-- A15 -->
<g id="node16" class="node">
<title>A15</title>
<polygon fill="none" stroke="#000000" points="324,-1688 324,-1720 414,-1720 414,-1688 324,-1688"/>
<text text-anchor="start" x="333.7065" y="-1701" font-family="Helvetica,sans-Serif" font-size="10.00" fill="#000000">&lt;&lt;ProtocolIfc&gt;&gt;</text>
<polygon fill="none" stroke="#000000" points="324,-1656 324,-1688 414,-1688 414,-1656 324,-1656"/>
<text text-anchor="start" x="349.8335" y="-1669" font-family="Helvetica,sans-Serif" font-size="10.00" fill="#000000">_registry</text>
<polygon fill="none" stroke="#000000" points="324,-1624 324,-1656 414,-1656 414,-1624 324,-1624"/>
<text text-anchor="start" x="354.0025" y="-1637" font-family="Helvetica,sans-Serif" font-size="10.00" fill="#000000">close()</text>
</g>
<!-- A1&#45;&gt;A15 -->
<g id="edge15" class="edge">
<title>A1&#45;&gt;A15</title>
<path fill="none" stroke="#000000" stroke-dasharray="5,2" d="M369,-1837.756C369,-1802.0883 369,-1755.1755 369,-1720.3644"/>
<polygon fill="none" stroke="#000000" points="365.5001,-1837.9674 369,-1847.9674 372.5001,-1837.9674 365.5001,-1837.9674"/>
</g>
<!-- A2 -->
<g id="node3" class="node">
<title>A2</title>
<polygon fill="none" stroke="#000000" points="128,-632 128,-664 226,-664 226,-632 128,-632"/>
<text text-anchor="start" x="148.66" y="-645" font-family="Helvetica,sans-Serif" font-size="10.00" fill="#000000">InverterBase</text>
<polygon fill="none" stroke="#000000" points="128,-576 128,-632 226,-632 226,-576 128,-576"/>
<text text-anchor="start" x="166.997" y="-613" font-family="Helvetica,sans-Serif" font-size="10.00" fill="#000000">addr</text>
<text text-anchor="start" x="137.553" y="-601" font-family="Helvetica,sans-Serif" font-size="10.00" fill="#000000">remote:StreamPtr</text>
<text text-anchor="start" x="142.832" y="-589" font-family="Helvetica,sans-Serif" font-size="10.00" fill="#000000">local:StreamPtr</text>
<polygon fill="none" stroke="#000000" points="128,-520 128,-576 226,-576 226,-520 128,-520"/>
<text text-anchor="start" x="141.442" y="-557" font-family="Helvetica,sans-Serif" font-size="10.00" fill="#000000">create_remote()</text>
<text text-anchor="start" x="162.0025" y="-533" font-family="Helvetica,sans-Serif" font-size="10.00" fill="#000000">close()</text>
</g>
<!-- A3 -->
<g id="node4" class="node">
<title>A3</title>
<polygon fill="none" stroke="#000000" points="0,-302 0,-334 116,-334 116,-302 0,-302"/>
<text text-anchor="start" x="31.05" y="-315" font-family="Helvetica,sans-Serif" font-size="10.00" fill="#000000">InverterG3P</text>
<polygon fill="none" stroke="#000000" points="0,-270 0,-302 116,-302 116,-270 0,-270"/>
<text text-anchor="start" x="9.6585" y="-283" font-family="Helvetica,sans-Serif" font-size="10.00" fill="#000000">forward_at_cmd_resp</text>
</g>
<!-- A2&#45;&gt;A3 -->
<g id="edge1" class="edge">
<title>A2&#45;&gt;A3</title>
<path fill="none" stroke="#000000" d="M143.4931,-510.3444C119.4997,-451.8732 88.4875,-376.2972 71.177,-334.1121"/>
<polygon fill="none" stroke="#000000" points="140.3971,-512.0193 147.4314,-519.942 146.873,-509.3619 140.3971,-512.0193"/>
</g>
<!-- A4 -->
<g id="node5" class="node">
<title>A4</title>
<polygon fill="none" stroke="#000000" points="230.3366,-320 133.6634,-320 133.6634,-284 230.3366,-284 230.3366,-320"/>
<text text-anchor="middle" x="182" y="-299" font-family="Helvetica,sans-Serif" font-size="10.00" fill="#000000">local:StreamPtr</text>
</g>
<!-- A2&#45;&gt;A4 -->
<g id="edge2" class="edge">
<title>A2&#45;&gt;A4</title>
<path fill="none" stroke="#000000" d="M178.4553,-507.5905C179.4883,-447.68 180.8113,-370.9429 181.5127,-330.266"/>
<polygon fill="#000000" stroke="#000000" points="178.4493,-507.9438 182.3453,-514.0119 178.2424,-519.942 174.3465,-513.8739 178.4493,-507.9438"/>
<polygon fill="#000000" stroke="#000000" points="181.6851,-320.2627 186.012,-330.3388 181.5989,-325.2619 181.5126,-330.2612 181.5126,-330.2612 181.5126,-330.2612 181.5989,-325.2619 177.0133,-330.1836 181.6851,-320.2627 181.6851,-320.2627"/>
</g>
<!-- A5 -->
<g id="node6" class="node">
<title>A5</title>
<polygon fill="none" stroke="#000000" points="355.3941,-320 248.6059,-320 248.6059,-284 355.3941,-284 355.3941,-320"/>
<text text-anchor="middle" x="302" y="-299" font-family="Helvetica,sans-Serif" font-size="10.00" fill="#000000">remote:StreamPtr</text>
</g>
<!-- A2&#45;&gt;A5 -->
<g id="edge3" class="edge">
<title>A2&#45;&gt;A5</title>
<path fill="none" stroke="#000000" d="M212.8581,-508.8093C238.9076,-448.3743 272.5536,-370.3156 290.1233,-329.5539"/>
<polygon fill="#000000" stroke="#000000" points="212.8095,-508.9221 214.1078,-516.0154 208.0595,-519.942 206.7612,-512.8487 212.8095,-508.9221"/>
<polygon fill="#000000" stroke="#000000" points="294.1282,-320.2627 294.3023,-331.2272 292.149,-324.8543 290.1698,-329.4459 290.1698,-329.4459 290.1698,-329.4459 292.149,-324.8543 286.0373,-327.6647 294.1282,-320.2627 294.1282,-320.2627"/>
</g>
<!-- A9 -->
<g id="node10" class="node">
<title>A9</title>
<polygon fill="none" stroke="#000000" points="183,-100 183,-132 361,-132 361,-100 183,-100"/>
<text text-anchor="start" x="227.5515" y="-113" font-family="Helvetica,sans-Serif" font-size="10.00" fill="#000000">AsyncStreamServer</text>
<polygon fill="none" stroke="#000000" points="183,-68 183,-100 361,-100 361,-68 183,-68"/>
<text text-anchor="start" x="239.771" y="-81" font-family="Helvetica,sans-Serif" font-size="10.00" fill="#000000">create_remote</text>
<polygon fill="none" stroke="#000000" points="183,0 183,-68 361,-68 361,0 183,0"/>
<text text-anchor="start" x="223.6575" y="-49" font-family="Helvetica,sans-Serif" font-size="10.00" fill="#000000">&lt;async&gt;server_loop()</text>
<text text-anchor="start" x="214.4885" y="-37" font-family="Helvetica,sans-Serif" font-size="10.00" fill="#000000">&lt;async&gt;_async_forward()</text>
<text text-anchor="start" x="192.809" y="-25" font-family="Helvetica,sans-Serif" font-size="10.00" fill="#000000">&lt;async&gt;publish_outstanding_mqtt()</text>
<text text-anchor="start" x="257.0025" y="-13" font-family="Helvetica,sans-Serif" font-size="10.00" fill="#000000">close()</text>
</g>
<!-- A4&#45;&gt;A9 -->
<g id="edge9" class="edge">
<title>A4&#45;&gt;A9</title>
<path fill="none" stroke="#000000" d="M193.2169,-272.5869C205.6662,-239.9419 226.2449,-185.9801 243.2484,-141.3932"/>
<polygon fill="#000000" stroke="#000000" points="193.1887,-272.661 194.7881,-279.6925 188.9127,-283.8733 187.3132,-276.8418 193.1887,-272.661"/>
<polygon fill="#000000" stroke="#000000" points="246.8183,-132.0321 247.4596,-142.9792 245.0366,-136.7039 243.2549,-141.3757 243.2549,-141.3757 243.2549,-141.3757 245.0366,-136.7039 239.0503,-139.7723 246.8183,-132.0321 246.8183,-132.0321"/>
</g>
<!-- A10 -->
<g id="node11" class="node">
<title>A10</title>
<polygon fill="none" stroke="#000000" points="424,-82 424,-114 562,-114 562,-82 424,-82"/>
<text text-anchor="start" x="450.497" y="-95" font-family="Helvetica,sans-Serif" font-size="10.00" fill="#000000">AsyncStreamClient</text>
<polygon fill="none" stroke="#000000" points="424,-62 424,-82 562,-82 562,-62 424,-62"/>
<polygon fill="none" stroke="#000000" points="424,-18 424,-62 562,-62 562,-18 424,-18"/>
<text text-anchor="start" x="446.878" y="-43" font-family="Helvetica,sans-Serif" font-size="10.00" fill="#000000">&lt;async&gt;client_loop()</text>
<text text-anchor="start" x="433.824" y="-31" font-family="Helvetica,sans-Serif" font-size="10.00" fill="#000000">&lt;async&gt;_async_forward())</text>
</g>
<!-- A5&#45;&gt;A10 -->
<g id="edge11" class="edge">
<title>A5&#45;&gt;A10</title>
<path fill="none" stroke="#000000" d="M308.989,-283.7374C318.9281,-259.1334 338.7724,-214.6635 364,-182 380.8963,-160.1235 402.2571,-139.0239 422.71,-120.9559"/>
<polygon fill="#000000" stroke="#000000" points="430.4931,-114.1842 425.9026,-124.143 426.721,-117.4662 422.9488,-120.7481 422.9488,-120.7481 422.9488,-120.7481 426.721,-117.4662 419.9951,-117.3532 430.4931,-114.1842 430.4931,-114.1842"/>
<text text-anchor="middle" x="308.0806" y="-260.758" font-family="Helvetica,sans-Serif" font-size="10.00" fill="#000000">0..1</text>
</g>
<!-- A6 -->
<g id="node7" class="node">
<title>A6</title>
<polygon fill="none" stroke="#000000" points="443,-1054 443,-1086 560,-1086 560,-1054 443,-1054"/>
<text text-anchor="start" x="470.929" y="-1067" font-family="Helvetica,sans-Serif" font-size="10.00" fill="#000000">&lt;&lt;AsyncIfc&gt;&gt;</text>
<polygon fill="none" stroke="#000000" points="443,-1034 443,-1054 560,-1054 560,-1034 443,-1034"/>
<polygon fill="none" stroke="#000000" points="443,-762 443,-1034 560,-1034 560,-762 443,-762"/>
<text text-anchor="start" x="470.936" y="-1015" font-family="Helvetica,sans-Serif" font-size="10.00" fill="#000000">set_node_id()</text>
<text text-anchor="start" x="469.266" y="-1003" font-family="Helvetica,sans-Serif" font-size="10.00" fill="#000000">get_conn_no()</text>
<text text-anchor="start" x="483.1635" y="-979" font-family="Helvetica,sans-Serif" font-size="10.00" fill="#000000">tx_add()</text>
<text text-anchor="start" x="480.944" y="-967" font-family="Helvetica,sans-Serif" font-size="10.00" fill="#000000">tx_flush()</text>
<text text-anchor="start" x="484.5535" y="-955" font-family="Helvetica,sans-Serif" font-size="10.00" fill="#000000">tx_get()</text>
<text text-anchor="start" x="480.6635" y="-943" font-family="Helvetica,sans-Serif" font-size="10.00" fill="#000000">tx_peek()</text>
<text text-anchor="start" x="484.8335" y="-931" font-family="Helvetica,sans-Serif" font-size="10.00" fill="#000000">tx_log()</text>
<text text-anchor="start" x="480.669" y="-919" font-family="Helvetica,sans-Serif" font-size="10.00" fill="#000000">tx_clear()</text>
<text text-anchor="start" x="484.8335" y="-907" font-family="Helvetica,sans-Serif" font-size="10.00" fill="#000000">tx_len()</text>
<text text-anchor="start" x="479.2745" y="-883" font-family="Helvetica,sans-Serif" font-size="10.00" fill="#000000">fwd_add()</text>
<text text-anchor="start" x="480.9445" y="-871" font-family="Helvetica,sans-Serif" font-size="10.00" fill="#000000">fwd_log()</text>
<text text-anchor="start" x="484.2785" y="-859" font-family="Helvetica,sans-Serif" font-size="10.00" fill="#000000">rx_get()</text>
<text text-anchor="start" x="480.3885" y="-847" font-family="Helvetica,sans-Serif" font-size="10.00" fill="#000000">rx_peek()</text>
<text text-anchor="start" x="484.5585" y="-835" font-family="Helvetica,sans-Serif" font-size="10.00" fill="#000000">rx_log()</text>
<text text-anchor="start" x="480.394" y="-823" font-family="Helvetica,sans-Serif" font-size="10.00" fill="#000000">rx_clear()</text>
<text text-anchor="start" x="484.5585" y="-811" font-family="Helvetica,sans-Serif" font-size="10.00" fill="#000000">rx_len()</text>
<text text-anchor="start" x="476.499" y="-799" font-family="Helvetica,sans-Serif" font-size="10.00" fill="#000000">rx_set_cb()</text>
<text text-anchor="start" x="452.8795" y="-775" font-family="Helvetica,sans-Serif" font-size="10.00" fill="#000000">prot_set_timeout_cb()</text>
</g>
<!-- A7 -->
<g id="node8" class="node">
<title>A7</title>
<polygon fill="none" stroke="#000000" points="494,-622 494,-654 587,-654 587,-622 494,-622"/>
<text text-anchor="start" x="512.164" y="-635" font-family="Helvetica,sans-Serif" font-size="10.00" fill="#000000">AsyncIfcImpl</text>
<polygon fill="none" stroke="#000000" points="494,-530 494,-622 587,-622 587,-530 494,-530"/>
<text text-anchor="start" x="503.548" y="-603" font-family="Helvetica,sans-Serif" font-size="10.00" fill="#000000">fwd_fifo:ByteFifo</text>
<text text-anchor="start" x="507.437" y="-591" font-family="Helvetica,sans-Serif" font-size="10.00" fill="#000000">tx_fifo:ByteFifo</text>
<text text-anchor="start" x="507.162" y="-579" font-family="Helvetica,sans-Serif" font-size="10.00" fill="#000000">rx_fifo:ByteFifo</text>
<text text-anchor="start" x="506.596" y="-567" font-family="Helvetica,sans-Serif" font-size="10.00" fill="#000000">conn_no:Count</text>
<text text-anchor="start" x="522.7135" y="-555" font-family="Helvetica,sans-Serif" font-size="10.00" fill="#000000">node_id</text>
<text text-anchor="start" x="516.0495" y="-543" font-family="Helvetica,sans-Serif" font-size="10.00" fill="#000000">timeout_cb</text>
</g>
<!-- A6&#45;&gt;A7 -->
<g id="edge4" class="edge">
<title>A6&#45;&gt;A7</title>
<path fill="none" stroke="#000000" stroke-dasharray="5,2" d="M521.2574,-751.5524C525.3561,-716.6607 529.4102,-682.1494 532.6937,-654.1971"/>
<polygon fill="none" stroke="#000000" points="517.7337,-751.5502 520.043,-761.8903 524.6859,-752.367 517.7337,-751.5502"/>
</g>
<!-- A8 -->
<g id="node9" class="node">
<title>A8</title>
<polygon fill="none" stroke="#000000" points="487,-390 487,-422 589,-422 589,-390 487,-390"/>
<text text-anchor="start" x="508.274" y="-403" font-family="Helvetica,sans-Serif" font-size="10.00" fill="#000000">AsyncStream</text>
<polygon fill="none" stroke="#000000" points="487,-310 487,-390 589,-390 589,-310 487,-310"/>
<text text-anchor="start" x="523.553" y="-371" font-family="Helvetica,sans-Serif" font-size="10.00" fill="#000000">reader</text>
<text text-anchor="start" x="525.783" y="-359" font-family="Helvetica,sans-Serif" font-size="10.00" fill="#000000">writer</text>
<text text-anchor="start" x="527.997" y="-347" font-family="Helvetica,sans-Serif" font-size="10.00" fill="#000000">addr</text>
<text text-anchor="start" x="523.553" y="-335" font-family="Helvetica,sans-Serif" font-size="10.00" fill="#000000">r_addr</text>
<text text-anchor="start" x="524.108" y="-323" font-family="Helvetica,sans-Serif" font-size="10.00" fill="#000000">l_addr</text>
<polygon fill="none" stroke="#000000" points="487,-182 487,-310 589,-310 589,-182 487,-182"/>
<text text-anchor="start" x="509.654" y="-279" font-family="Helvetica,sans-Serif" font-size="10.00" fill="#000000">&lt;async&gt;loop</text>
<text text-anchor="start" x="525.782" y="-267" font-family="Helvetica,sans-Serif" font-size="10.00" fill="#000000">disc()</text>
<text text-anchor="start" x="523.0025" y="-255" font-family="Helvetica,sans-Serif" font-size="10.00" fill="#000000">close()</text>
<text text-anchor="start" x="518.554" y="-243" font-family="Helvetica,sans-Serif" font-size="10.00" fill="#000000">healthy()</text>
<text text-anchor="start" x="503.2705" y="-219" font-family="Helvetica,sans-Serif" font-size="10.00" fill="#000000">__async_read()</text>
<text text-anchor="start" x="502.721" y="-207" font-family="Helvetica,sans-Serif" font-size="10.00" fill="#000000">__async_write()</text>
<text text-anchor="start" x="496.607" y="-195" font-family="Helvetica,sans-Serif" font-size="10.00" fill="#000000">__async_forward()</text>
</g>
<!-- A7&#45;&gt;A8 -->
<g id="edge5" class="edge">
<title>A7&#45;&gt;A8</title>
<path fill="none" stroke="#000000" d="M539.5006,-519.5861C539.2971,-490.0737 539.0562,-455.1552 538.8278,-422.0295"/>
<polygon fill="none" stroke="#000000" points="536.002,-519.8121 539.5709,-529.7877 543.0018,-519.7638 536.002,-519.8121"/>
</g>
<!-- A8&#45;&gt;A9 -->
<g id="edge6" class="edge">
<title>A8&#45;&gt;A9</title>
<path fill="none" stroke="#000000" d="M480.5271,-185.826C479.3695,-184.5245 478.1938,-183.2483 477,-182 444.7093,-148.2346 400.4099,-121.5033 361.252,-102.2528"/>
<polygon fill="none" stroke="#000000" points="477.867,-188.1011 486.9604,-193.5382 483.2424,-183.6171 477.867,-188.1011"/>
</g>
<!-- A8&#45;&gt;A10 -->
<g id="edge7" class="edge">
<title>A8&#45;&gt;A10</title>
<path fill="none" stroke="#000000" d="M513.2286,-172.088C509.2911,-151.438 505.4474,-131.2796 502.1863,-114.1772"/>
<polygon fill="none" stroke="#000000" points="509.7933,-172.7584 515.1045,-181.9259 516.6695,-171.4473 509.7933,-172.7584"/>
</g>
<!-- A11 -->
<g id="node12" class="node">
<title>A11</title>
<polygon fill="none" stroke="#000000" points="244,-668 244,-700 354,-700 354,-668 244,-668"/>
<text text-anchor="start" x="271.495" y="-681" font-family="Helvetica,sans-Serif" font-size="10.00" fill="#000000">SolarmanV5</text>
<polygon fill="none" stroke="#000000" points="244,-552 244,-668 354,-668 354,-552 244,-552"/>
<text text-anchor="start" x="279.823" y="-649" font-family="Helvetica,sans-Serif" font-size="10.00" fill="#000000">conn_no</text>
<text text-anchor="start" x="288.997" y="-637" font-family="Helvetica,sans-Serif" font-size="10.00" fill="#000000">addr</text>
<text text-anchor="start" x="253.994" y="-625" font-family="Helvetica,sans-Serif" font-size="10.00" fill="#000000">inverter:InverterG3P</text>
<text text-anchor="start" x="283.998" y="-613" font-family="Helvetica,sans-Serif" font-size="10.00" fill="#000000">control</text>
<text text-anchor="start" x="287.0575" y="-601" font-family="Helvetica,sans-Serif" font-size="10.00" fill="#000000">serial</text>
<text text-anchor="start" x="292.056" y="-589" font-family="Helvetica,sans-Serif" font-size="10.00" fill="#000000">snr</text>
<text text-anchor="start" x="271.21" y="-577" font-family="Helvetica,sans-Serif" font-size="10.00" fill="#000000">db:InfosG3P</text>
<text text-anchor="start" x="285.112" y="-565" font-family="Helvetica,sans-Serif" font-size="10.00" fill="#000000">switch</text>
<polygon fill="none" stroke="#000000" points="244,-484 244,-552 354,-552 354,-484 244,-484"/>
<text text-anchor="start" x="263.4405" y="-533" font-family="Helvetica,sans-Serif" font-size="10.00" fill="#000000">msg_unknown()</text>
<text text-anchor="start" x="279.554" y="-509" font-family="Helvetica,sans-Serif" font-size="10.00" fill="#000000">healthy()</text>
<text text-anchor="start" x="284.0025" y="-497" font-family="Helvetica,sans-Serif" font-size="10.00" fill="#000000">close()</text>
</g>
<!-- A11&#45;&gt;A4 -->
<g id="edge8" class="edge">
<title>A11&#45;&gt;A4</title>
<path fill="none" stroke="#000000" d="M251.4932,-474.2481C230.4181,-422.0107 207.3684,-364.879 193.8227,-331.3042"/>
<polygon fill="#000000" stroke="#000000" points="255.2671,-483.6023 247.3524,-476.0123 253.3964,-478.9655 251.5256,-474.3286 251.5256,-474.3286 251.5256,-474.3286 253.3964,-478.9655 255.6988,-472.6449 255.2671,-483.6023 255.2671,-483.6023"/>
<polygon fill="#000000" stroke="#000000" points="193.7733,-331.1815 187.8189,-327.1139 189.2835,-320.053 195.2379,-324.1207 193.7733,-331.1815"/>
</g>
<!-- A11&#45;&gt;A5 -->
<g id="edge10" class="edge">
<title>A11&#45;&gt;A5</title>
<path fill="none" stroke="#000000" d="M300.2256,-473.5237C300.8304,-415.0627 301.4968,-350.6465 301.8132,-320.053"/>
<polygon fill="#000000" stroke="#000000" points="300.1214,-483.6023 295.7251,-473.5562 300.1731,-478.6026 300.2249,-473.6028 300.2249,-473.6028 300.2249,-473.6028 300.1731,-478.6026 304.7247,-473.6494 300.1214,-483.6023 300.1214,-483.6023"/>
<text text-anchor="middle" x="310.0777" y="-335.2657" font-family="Helvetica,sans-Serif" font-size="10.00" fill="#000000">0..1</text>
</g>
<!-- A13 -->
<g id="node14" class="node">
<title>A13</title>
<polygon fill="none" stroke="#000000" points="374,-336 374,-368 469,-368 469,-336 374,-336"/>
<text text-anchor="start" x="400.6585" y="-349" font-family="Helvetica,sans-Serif" font-size="10.00" fill="#000000">InfosG3P</text>
<polygon fill="none" stroke="#000000" points="374,-304 374,-336 469,-336 469,-304 374,-304"/>
<text text-anchor="start" x="383.7125" y="-317" font-family="Helvetica,sans-Serif" font-size="10.00" fill="#000000">client_mode:bool</text>
<polygon fill="none" stroke="#000000" points="374,-236 374,-304 469,-304 469,-236 374,-236"/>
<text text-anchor="start" x="397.884" y="-285" font-family="Helvetica,sans-Serif" font-size="10.00" fill="#000000">ha_confs()</text>
<text text-anchor="start" x="405.668" y="-273" font-family="Helvetica,sans-Serif" font-size="10.00" fill="#000000">parse()</text>
<text text-anchor="start" x="409.282" y="-261" font-family="Helvetica,sans-Serif" font-size="10.00" fill="#000000">calc()</text>
<text text-anchor="start" x="407.6135" y="-249" font-family="Helvetica,sans-Serif" font-size="10.00" fill="#000000">build()</text>
</g>
<!-- A11&#45;&gt;A13 -->
<g id="edge13" class="edge">
<title>A11&#45;&gt;A13</title>
<path fill="none" stroke="#000000" d="M344.6018,-483.6023C359.4473,-448.3138 375.5948,-409.9305 389.2039,-377.5809"/>
<polygon fill="#000000" stroke="#000000" points="393.1562,-368.1861 393.4263,-379.1487 391.2173,-372.7949 389.2784,-377.4036 389.2784,-377.4036 389.2784,-377.4036 391.2173,-372.7949 385.1305,-375.6586 393.1562,-368.1861 393.1562,-368.1861"/>
</g>
<!-- A12 -->
<g id="node13" class="node">
<title>A12</title>
<polygon fill="none" stroke="#000000" points="373,-680 373,-712 476,-712 476,-680 373,-680"/>
<text text-anchor="start" x="413.662" y="-693" font-family="Helvetica,sans-Serif" font-size="10.00" fill="#000000">Infos</text>
<polygon fill="none" stroke="#000000" points="373,-624 373,-680 476,-680 476,-624 373,-624"/>
<text text-anchor="start" x="416.4415" y="-661" font-family="Helvetica,sans-Serif" font-size="10.00" fill="#000000">stat</text>
<text text-anchor="start" x="391.986" y="-649" font-family="Helvetica,sans-Serif" font-size="10.00" fill="#000000">new_stat_data</text>
<text text-anchor="start" x="405.6035" y="-637" font-family="Helvetica,sans-Serif" font-size="10.00" fill="#000000">info_dev</text>
<polygon fill="none" stroke="#000000" points="373,-472 373,-624 476,-624 476,-472 373,-472"/>
<text text-anchor="start" x="400.3355" y="-605" font-family="Helvetica,sans-Serif" font-size="10.00" fill="#000000">static_init()</text>
<text text-anchor="start" x="398.3845" y="-593" font-family="Helvetica,sans-Serif" font-size="10.00" fill="#000000">dev_value()</text>
<text text-anchor="start" x="395.3305" y="-581" font-family="Helvetica,sans-Serif" font-size="10.00" fill="#000000">inc_counter()</text>
<text text-anchor="start" x="393.6605" y="-569" font-family="Helvetica,sans-Serif" font-size="10.00" fill="#000000">dec_counter()</text>
<text text-anchor="start" x="391.71" y="-557" font-family="Helvetica,sans-Serif" font-size="10.00" fill="#000000">ha_proxy_conf</text>
<text text-anchor="start" x="406.713" y="-545" font-family="Helvetica,sans-Serif" font-size="10.00" fill="#000000">ha_conf</text>
<text text-anchor="start" x="399.494" y="-533" font-family="Helvetica,sans-Serif" font-size="10.00" fill="#000000">ha_remove</text>
<text text-anchor="start" x="400.8745" y="-521" font-family="Helvetica,sans-Serif" font-size="10.00" fill="#000000">update_db</text>
<text text-anchor="start" x="385.037" y="-509" font-family="Helvetica,sans-Serif" font-size="10.00" fill="#000000">set_db_def_value</text>
<text text-anchor="start" x="394.4855" y="-497" font-family="Helvetica,sans-Serif" font-size="10.00" fill="#000000">get_db_value</text>
<text text-anchor="start" x="382.8225" y="-485" font-family="Helvetica,sans-Serif" font-size="10.00" fill="#000000">ignore_this_device</text>
</g>
<!-- A12&#45;&gt;A13 -->
<g id="edge12" class="edge">
<title>A12&#45;&gt;A13</title>
<path fill="none" stroke="#000000" d="M422.6543,-461.9134C422.3183,-429.4373 421.9719,-395.9527 421.6835,-368.0691"/>
<polygon fill="none" stroke="#000000" points="419.1548,-461.9893 422.7581,-471.9525 426.1544,-461.9168 419.1548,-461.9893"/>
</g>
<!-- A14 -->
<g id="node15" class="node">
<title>A14</title>
<polygon fill="none" stroke="#000000" points="345,-1464 345,-1496 494,-1496 494,-1464 345,-1464"/>
<text text-anchor="start" x="399.2175" y="-1477" font-family="Helvetica,sans-Serif" font-size="10.00" fill="#000000">Message</text>
<polygon fill="none" stroke="#000000" points="345,-1240 345,-1464 494,-1464 494,-1240 345,-1240"/>
<text text-anchor="start" x="382.8265" y="-1445" font-family="Helvetica,sans-Serif" font-size="10.00" fill="#000000">server_side:bool</text>
<text text-anchor="start" x="393.384" y="-1433" font-family="Helvetica,sans-Serif" font-size="10.00" fill="#000000">mb:Modbus</text>
<text text-anchor="start" x="394.2185" y="-1421" font-family="Helvetica,sans-Serif" font-size="10.00" fill="#000000">ifc:AsyncIfc</text>
<text text-anchor="start" x="401.7135" y="-1409" font-family="Helvetica,sans-Serif" font-size="10.00" fill="#000000">node_id</text>
<text text-anchor="start" x="380.043" y="-1397" font-family="Helvetica,sans-Serif" font-size="10.00" fill="#000000">header_valid:bool</text>
<text text-anchor="start" x="394.49" y="-1385" font-family="Helvetica,sans-Serif" font-size="10.00" fill="#000000">header_len</text>
<text text-anchor="start" x="400.324" y="-1373" font-family="Helvetica,sans-Serif" font-size="10.00" fill="#000000">data_len</text>
<text text-anchor="start" x="397.8245" y="-1361" font-family="Helvetica,sans-Serif" font-size="10.00" fill="#000000">unique_id</text>
<text text-anchor="start" x="391.715" y="-1349" font-family="Helvetica,sans-Serif" font-size="10.00" fill="#000000">sug_area:str</text>
<text text-anchor="start" x="388.656" y="-1337" font-family="Helvetica,sans-Serif" font-size="10.00" fill="#000000">new_data:dict</text>
<text text-anchor="start" x="395.6" y="-1325" font-family="Helvetica,sans-Serif" font-size="10.00" fill="#000000">state:State</text>
<text text-anchor="start" x="369.2045" y="-1313" font-family="Helvetica,sans-Serif" font-size="10.00" fill="#000000">shutdown_started:bool</text>
<text text-anchor="start" x="388.3845" y="-1301" font-family="Helvetica,sans-Serif" font-size="10.00" fill="#000000">modbus_elms</text>
<text text-anchor="start" x="384.507" y="-1289" font-family="Helvetica,sans-Serif" font-size="10.00" fill="#000000">mb_timer:Timer</text>
<text text-anchor="start" x="393.385" y="-1277" font-family="Helvetica,sans-Serif" font-size="10.00" fill="#000000">mb_timeout</text>
<text text-anchor="start" x="382.5525" y="-1265" font-family="Helvetica,sans-Serif" font-size="10.00" fill="#000000">mb_first_timeout</text>
<text text-anchor="start" x="373.654" y="-1253" font-family="Helvetica,sans-Serif" font-size="10.00" fill="#000000">modbus_polling:bool</text>
<polygon fill="none" stroke="#000000" points="345,-1136 345,-1240 494,-1240 494,-1136 345,-1136"/>
<text text-anchor="start" x="368.3845" y="-1221" font-family="Helvetica,sans-Serif" font-size="10.00" fill="#000000">_set_mqtt_timestamp()</text>
<text text-anchor="start" x="397" y="-1209" font-family="Helvetica,sans-Serif" font-size="10.00" fill="#000000">_timeout()</text>
<text text-anchor="start" x="369.7675" y="-1197" font-family="Helvetica,sans-Serif" font-size="10.00" fill="#000000">_send_modbus_cmd()</text>
<text text-anchor="start" x="354.7595" y="-1185" font-family="Helvetica,sans-Serif" font-size="10.00" fill="#000000">&lt;async&gt; end_modbus_cmd()</text>
<text text-anchor="start" x="404.5025" y="-1173" font-family="Helvetica,sans-Serif" font-size="10.00" fill="#000000">close()</text>
<text text-anchor="start" x="390.3305" y="-1161" font-family="Helvetica,sans-Serif" font-size="10.00" fill="#000000">inc_counter()</text>
<text text-anchor="start" x="388.6605" y="-1149" font-family="Helvetica,sans-Serif" font-size="10.00" fill="#000000">dec_counter()</text>
</g>
<!-- A14&#45;&gt;A6 -->
<g id="edge14" class="edge">
<title>A14&#45;&gt;A6</title>
<path fill="none" stroke="#000000" d="M456.7,-1135.7758C459.4656,-1122.5547 462.2514,-1109.2373 465.0066,-1096.0662"/>
<polygon fill="#000000" stroke="#000000" points="467.1066,-1086.0268 469.4637,-1096.7363 466.0828,-1090.9209 465.059,-1095.8149 465.059,-1095.8149 465.059,-1095.8149 466.0828,-1090.9209 460.6544,-1094.8935 467.1066,-1086.0268 467.1066,-1086.0268"/>
<text text-anchor="middle" x="452.138" y="-1113.3031" font-family="Helvetica,sans-Serif" font-size="10.00" fill="#000000">use</text>
</g>
<!-- A14&#45;&gt;A11 -->
<g id="edge17" class="edge">
<title>A14&#45;&gt;A11</title>
<path fill="none" stroke="#000000" d="M387.4309,-1125.5329C364.9447,-989.8666 335.5291,-812.3923 316.9437,-700.2604"/>
<polygon fill="none" stroke="#000000" points="384.0176,-1126.3448 389.1057,-1135.6378 390.9234,-1125.2001 384.0176,-1126.3448"/>
</g>
<!-- A15&#45;&gt;A14 -->
<g id="edge16" class="edge">
<title>A15&#45;&gt;A14</title>
<path fill="none" stroke="#000000" stroke-dasharray="5,2" d="M377.1741,-1613.8004C381.7377,-1581.3079 387.6971,-1538.8764 393.681,-1496.2713"/>
<polygon fill="none" stroke="#000000" points="373.6682,-1613.5986 375.7432,-1623.9883 380.6001,-1614.5723 373.6682,-1613.5986"/>
</g>
<!-- A16 -->
<g id="node17" class="node">
<title>A16</title>
<polygon fill="none" stroke="#000000" points="433,-1766 433,-1798 508,-1798 508,-1766 433,-1766"/>
<text text-anchor="start" x="452.7175" y="-1779" font-family="Helvetica,sans-Serif" font-size="10.00" fill="#000000">Modbus</text>
<polygon fill="none" stroke="#000000" points="433,-1614 433,-1766 508,-1766 508,-1614 433,-1614"/>
<text text-anchor="start" x="462.1615" y="-1747" font-family="Helvetica,sans-Serif" font-size="10.00" fill="#000000">que</text>
<text text-anchor="start" x="442.99" y="-1723" font-family="Helvetica,sans-Serif" font-size="10.00" fill="#000000">snd_handler</text>
<text text-anchor="start" x="444.105" y="-1711" font-family="Helvetica,sans-Serif" font-size="10.00" fill="#000000">rsp_handler</text>
<text text-anchor="start" x="454.1085" y="-1699" font-family="Helvetica,sans-Serif" font-size="10.00" fill="#000000">timeout</text>
<text text-anchor="start" x="444.3895" y="-1687" font-family="Helvetica,sans-Serif" font-size="10.00" fill="#000000">max_retires</text>
<text text-anchor="start" x="452.442" y="-1675" font-family="Helvetica,sans-Serif" font-size="10.00" fill="#000000">last_xxx</text>
<text text-anchor="start" x="464.3915" y="-1663" font-family="Helvetica,sans-Serif" font-size="10.00" fill="#000000">err</text>
<text text-anchor="start" x="451.0535" y="-1651" font-family="Helvetica,sans-Serif" font-size="10.00" fill="#000000">retry_cnt</text>
<text text-anchor="start" x="449.379" y="-1639" font-family="Helvetica,sans-Serif" font-size="10.00" fill="#000000">req_pend</text>
<text text-anchor="start" x="463.8365" y="-1627" font-family="Helvetica,sans-Serif" font-size="10.00" fill="#000000">tim</text>
<polygon fill="none" stroke="#000000" points="433,-1546 433,-1614 508,-1614 508,-1546 433,-1546"/>
<text text-anchor="start" x="444.39" y="-1595" font-family="Helvetica,sans-Serif" font-size="10.00" fill="#000000">build_msg()</text>
<text text-anchor="start" x="447.724" y="-1583" font-family="Helvetica,sans-Serif" font-size="10.00" fill="#000000">recv_req()</text>
<text text-anchor="start" x="445.224" y="-1571" font-family="Helvetica,sans-Serif" font-size="10.00" fill="#000000">recv_resp()</text>
<text text-anchor="start" x="455.5025" y="-1559" font-family="Helvetica,sans-Serif" font-size="10.00" fill="#000000">close()</text>
</g>
<!-- A16&#45;&gt;A14 -->
<g id="edge18" class="edge">
<title>A16&#45;&gt;A14</title>
<path fill="none" stroke="#000000" d="M450.5227,-1536.041C448.6468,-1522.9463 446.7248,-1509.5297 444.8004,-1496.0971"/>
<polygon fill="#000000" stroke="#000000" points="451.9475,-1545.9867 446.0748,-1536.726 451.2384,-1541.0373 450.5293,-1536.0878 450.5293,-1536.0878 450.5293,-1536.0878 451.2384,-1541.0373 454.9839,-1535.4496 451.9475,-1545.9867 451.9475,-1545.9867"/>
<text text-anchor="middle" x="455.7379" y="-1509.8414" font-family="Helvetica,sans-Serif" font-size="10.00" fill="#000000">has</text>
<text text-anchor="middle" x="441.0101" y="-1526.2424" font-family="Helvetica,sans-Serif" font-size="10.00" fill="#000000">0..1</text>
</g>
</g>
</svg>
