<?xml version="1.0" encoding="UTF-8" standalone="no"?>
<!DOCTYPE svg PUBLIC "-//W3C//DTD SVG 1.1//EN"
 "http://www.w3.org/Graphics/SVG/1.1/DTD/svg11.dtd">
<!-- Generated by graphviz version 2.40.1 (20161225.0304)
 -->
<!-- Title: G Pages: 1 -->
<svg width="530pt" height="1060pt"
 viewBox="0.00 0.00 529.78 1060.00" xmlns="http://www.w3.org/2000/svg" xmlns:xlink="http://www.w3.org/1999/xlink">
<g id="graph0" class="graph" transform="scale(1 1) rotate(0) translate(4 1056)">
<title>G</title>
<polygon fill="#ffffff" stroke="transparent" points="-4,4 -4,-1056 525.7848,-1056 525.7848,4 -4,4"/>
<!-- A0 -->
<g id="node1" class="node">
<title>A0</title>
<polygon fill="#fff8dc" stroke="#000000" points="184.1964,-1028 75.8036,-1028 75.8036,-992 190.1964,-992 190.1964,-1022 184.1964,-1028"/>
<polyline fill="none" stroke="#000000" points="184.1964,-1028 184.1964,-1022 "/>
<polyline fill="none" stroke="#000000" points="190.1964,-1022 184.1964,-1022 "/>
<text text-anchor="middle" x="133" y="-1013" font-family="Helvetica,sans-Serif" font-size="10.00" fill="#000000">You can stick notes</text>
<text text-anchor="middle" x="133" y="-1001" font-family="Helvetica,sans-Serif" font-size="10.00" fill="#000000">on diagrams too!</text>
</g>
<!-- A1 -->
<g id="node2" class="node">
<title>A1</title>
<polygon fill="none" stroke="#000000" points="209,-1020 209,-1052 280,-1052 280,-1020 209,-1020"/>
<text text-anchor="start" x="218.945" y="-1033" font-family="Helvetica,sans-Serif" font-size="10.00" fill="#000000">IterRegistry</text>
<polygon fill="none" stroke="#000000" points="209,-1000 209,-1020 280,-1020 280,-1000 209,-1000"/>
<polygon fill="none" stroke="#000000" points="209,-968 209,-1000 280,-1000 280,-968 209,-968"/>
<text text-anchor="start" x="226.439" y="-981" font-family="Helvetica,sans-Serif" font-size="10.00" fill="#000000">__iter__</text>
</g>
<!-- A2 -->
<g id="node3" class="node">
<title>A2</title>
<polygon fill="none" stroke="#000000" points="177,-886 177,-918 311,-918 311,-886 177,-886"/>
<text text-anchor="start" x="223.7175" y="-899" font-family="Helvetica,sans-Serif" font-size="10.00" fill="#000000">Message</text>
<polygon fill="none" stroke="#000000" points="177,-722 177,-886 311,-886 311,-722 177,-722"/>
<text text-anchor="start" x="207.3265" y="-867" font-family="Helvetica,sans-Serif" font-size="10.00" fill="#000000">server_side:bool</text>
<text text-anchor="start" x="204.543" y="-855" font-family="Helvetica,sans-Serif" font-size="10.00" fill="#000000">header_valid:bool</text>
<text text-anchor="start" x="197.314" y="-843" font-family="Helvetica,sans-Serif" font-size="10.00" fill="#000000">header_len:unsigned</text>
<text text-anchor="start" x="203.148" y="-831" font-family="Helvetica,sans-Serif" font-size="10.00" fill="#000000">data_len:unsigned</text>
<text text-anchor="start" x="222.3245" y="-819" font-family="Helvetica,sans-Serif" font-size="10.00" fill="#000000">unique_id</text>
<text text-anchor="start" x="226.2135" y="-807" font-family="Helvetica,sans-Serif" font-size="10.00" fill="#000000">node_id</text>
<text text-anchor="start" x="223.1585" y="-795" font-family="Helvetica,sans-Serif" font-size="10.00" fill="#000000">sug_area</text>
<text text-anchor="start" x="193.989" y="-783" font-family="Helvetica,sans-Serif" font-size="10.00" fill="#000000">_recv_buffer:bytearray</text>
<text text-anchor="start" x="192.5945" y="-771" font-family="Helvetica,sans-Serif" font-size="10.00" fill="#000000">_send_buffer:bytearray</text>
<text text-anchor="start" x="186.7665" y="-759" font-family="Helvetica,sans-Serif" font-size="10.00" fill="#000000">_forward_buffer:bytearray</text>
<text text-anchor="start" x="226.2135" y="-747" font-family="Helvetica,sans-Serif" font-size="10.00" fill="#000000">db:Infos</text>
<text text-anchor="start" x="214.826" y="-735" font-family="Helvetica,sans-Serif" font-size="10.00" fill="#000000">new_data:list</text>
<polygon fill="none" stroke="#000000" points="177,-654 177,-722 311,-722 311,-654 177,-654"/>
<text text-anchor="start" x="193.7095" y="-703" font-family="Helvetica,sans-Serif" font-size="10.00" fill="#000000">_read():void&lt;abstract&gt;</text>
<text text-anchor="start" x="218.4445" y="-691" font-family="Helvetica,sans-Serif" font-size="10.00" fill="#000000">close():void</text>
<text text-anchor="start" x="204.2725" y="-679" font-family="Helvetica,sans-Serif" font-size="10.00" fill="#000000">inc_counter():void</text>
<text text-anchor="start" x="202.6025" y="-667" font-family="Helvetica,sans-Serif" font-size="10.00" fill="#000000">dec_counter():void</text>
</g>
<!-- A1&#45;&gt;A2 -->
<g id="edge1" class="edge">
<title>A1&#45;&gt;A2</title>
<path fill="none" stroke="#000000" d="M244,-957.5789C244,-945.4616 244,-932.0319 244,-918.1761"/>
<polygon fill="none" stroke="#000000" points="240.5001,-957.8673 244,-967.8673 247.5001,-957.8673 240.5001,-957.8673"/>
</g>
<!-- A3 -->
<g id="node4" class="node">
<title>A3</title>
<polygon fill="none" stroke="#000000" points="67,-572 67,-604 181,-604 181,-572 67,-572"/>
<text text-anchor="start" x="110.108" y="-585" font-family="Helvetica,sans-Serif" font-size="10.00" fill="#000000">Talent</text>
<polygon fill="none" stroke="#000000" points="67,-492 67,-572 181,-572 181,-492 67,-492"/>
<text text-anchor="start" x="76.763" y="-553" font-family="Helvetica,sans-Serif" font-size="10.00" fill="#000000">await_conn_resp_cnt</text>
<text text-anchor="start" x="111.7775" y="-541" font-family="Helvetica,sans-Serif" font-size="10.00" fill="#000000">id_str</text>
<text text-anchor="start" x="92.6" y="-529" font-family="Helvetica,sans-Serif" font-size="10.00" fill="#000000">contact_name</text>
<text text-anchor="start" x="95.94" y="-517" font-family="Helvetica,sans-Serif" font-size="10.00" fill="#000000">contact_mail</text>
<text text-anchor="start" x="110.112" y="-505" font-family="Helvetica,sans-Serif" font-size="10.00" fill="#000000">switch</text>
<polygon fill="none" stroke="#000000" points="67,-376 67,-492 181,-492 181,-376 67,-376"/>
<text text-anchor="start" x="81.4925" y="-473" font-family="Helvetica,sans-Serif" font-size="10.00" fill="#000000">msg_contact_info()</text>
<text text-anchor="start" x="83.4325" y="-461" font-family="Helvetica,sans-Serif" font-size="10.00" fill="#000000">msg_ota_update()</text>
<text text-anchor="start" x="89.2765" y="-449" font-family="Helvetica,sans-Serif" font-size="10.00" fill="#000000">msg_get_time()</text>
<text text-anchor="start" x="77.3285" y="-437" font-family="Helvetica,sans-Serif" font-size="10.00" fill="#000000">msg_collector_data()</text>
<text text-anchor="start" x="79.2735" y="-425" font-family="Helvetica,sans-Serif" font-size="10.00" fill="#000000">msg_inverter_data()</text>
<text text-anchor="start" x="88.4405" y="-413" font-family="Helvetica,sans-Serif" font-size="10.00" fill="#000000">msg_unknown()</text>
<text text-anchor="start" x="109.0025" y="-389" font-family="Helvetica,sans-Serif" font-size="10.00" fill="#000000">close()</text>
</g>
<!-- A2&#45;&gt;A3 -->
<g id="edge2" class="edge">
<title>A2&#45;&gt;A3</title>
<path fill="none" stroke="#000000" d="M186.5529,-644.2971C181.1051,-630.8592 175.6292,-617.352 170.3053,-604.2197"/>
<polygon fill="none" stroke="#000000" points="183.317,-645.6312 190.3177,-653.5837 189.8042,-643.0013 183.317,-645.6312"/>
</g>
<!-- A4 -->
<g id="node5" class="node">
<title>A4</title>
<polygon fill="none" stroke="#000000" points="354,-536 354,-568 445,-568 445,-536 354,-536"/>
<text text-anchor="start" x="371.995" y="-549" font-family="Helvetica,sans-Serif" font-size="10.00" fill="#000000">SolarmanV5</text>
<polygon fill="none" stroke="#000000" points="354,-468 354,-536 445,-536 445,-468 354,-468"/>
<text text-anchor="start" x="384.498" y="-517" font-family="Helvetica,sans-Serif" font-size="10.00" fill="#000000">control</text>
<text text-anchor="start" x="387.5575" y="-505" font-family="Helvetica,sans-Serif" font-size="10.00" fill="#000000">serial</text>
<text text-anchor="start" x="392.556" y="-493" font-family="Helvetica,sans-Serif" font-size="10.00" fill="#000000">snr</text>
<text text-anchor="start" x="385.612" y="-481" font-family="Helvetica,sans-Serif" font-size="10.00" fill="#000000">switch</text>
<polygon fill="none" stroke="#000000" points="354,-412 354,-468 445,-468 445,-412 354,-412"/>
<text text-anchor="start" x="363.9405" y="-449" font-family="Helvetica,sans-Serif" font-size="10.00" fill="#000000">msg_unknown()</text>
<text text-anchor="start" x="384.5025" y="-425" font-family="Helvetica,sans-Serif" font-size="10.00" fill="#000000">close()</text>
</g>
<!-- A2&#45;&gt;A4 -->
<g id="edge3" class="edge">
<title>A2&#45;&gt;A4</title>
<path fill="none" stroke="#000000" d="M315.7725,-648.9377C330.2507,-621.289 344.997,-593.1283 357.9753,-568.3439"/>
<polygon fill="none" stroke="#000000" points="312.6222,-647.4091 311.0838,-657.8916 318.8234,-650.6564 312.6222,-647.4091"/>
</g>
<!-- A5 -->
<g id="node6" class="node">
<title>A5</title>
<polygon fill="none" stroke="#000000" points="0,-258 0,-290 158,-290 158,-258 0,-258"/>
<text text-anchor="start" x="42.605" y="-271" font-family="Helvetica,sans-Serif" font-size="10.00" fill="#000000">AsyncStreamG3</text>
<polygon fill="none" stroke="#000000" points="0,-226 0,-258 158,-258 158,-226 0,-226"/>
<text text-anchor="start" x="9.5465" y="-239" font-family="Helvetica,sans-Serif" font-size="10.00" fill="#000000">remoteStream:AsyncStreamG3</text>
<polygon fill="none" stroke="#000000" points="0,-194 0,-226 158,-226 158,-194 0,-194"/>
<text text-anchor="start" x="64.0025" y="-207" font-family="Helvetica,sans-Serif" font-size="10.00" fill="#000000">close()</text>
</g>
<!-- A3&#45;&gt;A5 -->
<g id="edge4" class="edge">
<title>A3&#45;&gt;A5</title>
<path fill="none" stroke="#000000" d="M101.481,-365.8951C96.5984,-338.9869 91.7171,-312.0854 87.7566,-290.2588"/>
<polygon fill="none" stroke="#000000" points="98.0489,-366.5851 103.2781,-375.7995 104.9365,-365.3353 98.0489,-366.5851"/>
</g>
<!-- A6 -->
<g id="node7" class="node">
<title>A6</title>
<polygon fill="none" stroke="#000000" points="329,-258 329,-290 494,-290 494,-258 329,-258"/>
<text text-anchor="start" x="371.7705" y="-271" font-family="Helvetica,sans-Serif" font-size="10.00" fill="#000000">AsyncStreamG3P</text>
<polygon fill="none" stroke="#000000" points="329,-226 329,-258 494,-258 494,-226 329,-226"/>
<text text-anchor="start" x="338.712" y="-239" font-family="Helvetica,sans-Serif" font-size="10.00" fill="#000000">remoteStream:AsyncStreamG3P</text>
<polygon fill="none" stroke="#000000" points="329,-194 329,-226 494,-226 494,-194 329,-194"/>
<text text-anchor="start" x="396.5025" y="-207" font-family="Helvetica,sans-Serif" font-size="10.00" fill="#000000">close()</text>
</g>
<!-- A4&#45;&gt;A6 -->
<g id="edge5" class="edge">
<title>A4&#45;&gt;A6</title>
<path fill="none" stroke="#000000" d="M403.2854,-401.4352C405.0995,-363.9446 407.1418,-321.7363 408.6692,-290.1702"/>
<polygon fill="none" stroke="#000000" points="399.7679,-401.7141 402.7804,-411.8716 406.7597,-402.0525 399.7679,-401.7141"/>
</g>
<!-- A5&#45;&gt;A5 -->
<g id="edge11" class="edge">
<title>A5&#45;&gt;A5</title>
<path fill="none" stroke="#000000" d="M158.1632,-273.2719C168.8708,-268.0294 176,-257.6055 176,-242 176,-231.0274 172.4755,-222.6165 166.6606,-216.7672"/>
<polygon fill="#000000" stroke="#000000" points="158.1632,-210.7281 168.9212,-212.8531 162.2388,-213.6246 166.3144,-216.5211 166.3144,-216.5211 166.3144,-216.5211 162.2388,-213.6246 163.7075,-220.1892 158.1632,-210.7281 158.1632,-210.7281"/>
<text text-anchor="middle" x="177.8345" y="-211.3389" font-family="Helvetica,sans-Serif" font-size="10.00" fill="#000000">0..1</text>
<text text-anchor="middle" x="169.8828" y="-254.0654" font-family="Helvetica,sans-Serif" font-size="10.00" fill="#000000">has</text>
</g>
<!-- A9 -->
<g id="node10" class="node">
<title>A9</title>
<polygon fill="none" stroke="#000000" points="113,-76 113,-108 235,-108 235,-76 113,-76"/>
<text text-anchor="start" x="150.3845" y="-89" font-family="Helvetica,sans-Serif" font-size="10.00" fill="#000000">InverterG3</text>
<polygon fill="none" stroke="#000000" points="113,-56 113,-76 235,-76 235,-56 113,-56"/>
<polygon fill="none" stroke="#000000" points="113,0 113,-56 235,-56 235,0 113,0"/>
<text text-anchor="start" x="122.6035" y="-37" font-family="Helvetica,sans-Serif" font-size="10.00" fill="#000000">async_create_remote()</text>
<text text-anchor="start" x="159.0025" y="-13" font-family="Helvetica,sans-Serif" font-size="10.00" fill="#000000">close()</text>
</g>
<!-- A5&#45;&gt;A9 -->
<g id="edge10" class="edge">
<title>A5&#45;&gt;A9</title>
<path fill="none" stroke="#000000" d="M108.0608,-184.4901C120.3227,-160.2246 134.5251,-132.1188 146.6017,-108.2197"/>
<polygon fill="none" stroke="#000000" points="104.8512,-183.0816 103.4649,-193.5853 111.0988,-186.2387 104.8512,-183.0816"/>
</g>
<!-- A6&#45;&gt;A6 -->
<g id="edge13" class="edge">
<title>A6&#45;&gt;A6</title>
<path fill="none" stroke="#000000" d="M493.7965,-272.8932C504.4571,-267.536 511.5,-257.2383 511.5,-242 511.5,-231.2856 508.0181,-223.0137 502.2449,-217.1843"/>
<polygon fill="#000000" stroke="#000000" points="493.7965,-211.1068 504.5421,-213.2935 497.8554,-214.0266 501.9143,-216.9465 501.9143,-216.9465 501.9143,-216.9465 497.8554,-214.0266 499.2864,-220.5995 493.7965,-211.1068 493.7965,-211.1068"/>
<text text-anchor="middle" x="513.4468" y="-211.8304" font-family="Helvetica,sans-Serif" font-size="10.00" fill="#000000">0..1</text>
<text text-anchor="middle" x="505.3735" y="-253.5846" font-family="Helvetica,sans-Serif" font-size="10.00" fill="#000000">has</text>
</g>
<!-- A10 -->
<g id="node11" class="node">
<title>A10</title>
<polygon fill="none" stroke="#000000" points="269,-76 269,-108 391,-108 391,-76 269,-76"/>
<text text-anchor="start" x="303.05" y="-89" font-family="Helvetica,sans-Serif" font-size="10.00" fill="#000000">InverterG3P</text>
<polygon fill="none" stroke="#000000" points="269,-56 269,-76 391,-76 391,-56 269,-56"/>
<polygon fill="none" stroke="#000000" points="269,0 269,-56 391,-56 391,0 269,0"/>
<text text-anchor="start" x="278.6035" y="-37" font-family="Helvetica,sans-Serif" font-size="10.00" fill="#000000">async_create_remote()</text>
<text text-anchor="start" x="315.0025" y="-13" font-family="Helvetica,sans-Serif" font-size="10.00" fill="#000000">close()</text>
</g>
<!-- A6&#45;&gt;A10 -->
<g id="edge12" class="edge">
<title>A6&#45;&gt;A10</title>
<path fill="none" stroke="#000000" d="M386.0836,-184.1692C375.6603,-159.9771 363.6122,-132.0135 353.3606,-108.2197"/>
<polygon fill="none" stroke="#000000" points="382.9692,-185.7864 390.1405,-193.5853 389.3979,-183.0165 382.9692,-185.7864"/>
</g>
<!-- A7 -->
<g id="node8" class="node">
<title>A7</title>
<polygon fill="none" stroke="#000000" points="222,-566 222,-598 324,-598 324,-566 222,-566"/>
<text text-anchor="start" x="243.274" y="-579" font-family="Helvetica,sans-Serif" font-size="10.00" fill="#000000">AsyncStream</text>
<polygon fill="none" stroke="#000000" points="222,-486 222,-566 324,-566 324,-486 222,-486"/>
<text text-anchor="start" x="258.553" y="-547" font-family="Helvetica,sans-Serif" font-size="10.00" fill="#000000">reader</text>
<text text-anchor="start" x="260.783" y="-535" font-family="Helvetica,sans-Serif" font-size="10.00" fill="#000000">writer</text>
<text text-anchor="start" x="262.997" y="-523" font-family="Helvetica,sans-Serif" font-size="10.00" fill="#000000">addr</text>
<text text-anchor="start" x="258.553" y="-511" font-family="Helvetica,sans-Serif" font-size="10.00" fill="#000000">r_addr</text>
<text text-anchor="start" x="259.108" y="-499" font-family="Helvetica,sans-Serif" font-size="10.00" fill="#000000">l_addr</text>
<polygon fill="none" stroke="#000000" points="222,-382 222,-486 324,-486 324,-382 222,-382"/>
<text text-anchor="start" x="244.654" y="-467" font-family="Helvetica,sans-Serif" font-size="10.00" fill="#000000">&lt;async&gt;loop</text>
<text text-anchor="start" x="260.782" y="-455" font-family="Helvetica,sans-Serif" font-size="10.00" fill="#000000">disc()</text>
<text text-anchor="start" x="258.0025" y="-443" font-family="Helvetica,sans-Serif" font-size="10.00" fill="#000000">close()</text>
<text text-anchor="start" x="238.2705" y="-419" font-family="Helvetica,sans-Serif" font-size="10.00" fill="#000000">__async_read()</text>
<text text-anchor="start" x="237.721" y="-407" font-family="Helvetica,sans-Serif" font-size="10.00" fill="#000000">__async_write()</text>
<text text-anchor="start" x="231.607" y="-395" font-family="Helvetica,sans-Serif" font-size="10.00" fill="#000000">__async_forward()</text>
</g>
<!-- A7&#45;&gt;A5 -->
<g id="edge6" class="edge">
<title>A7&#45;&gt;A5</title>
<path fill="none" stroke="#000000" d="M215.7284,-410.0024C207.2169,-398.5058 198.461,-386.8893 190,-376 167.4802,-347.0169 141.3334,-315.361 120.0751,-290.098"/>
<polygon fill="none" stroke="#000000" points="213.1241,-412.368 221.8752,-418.3403 218.7585,-408.2142 213.1241,-412.368"/>
</g>
<!-- A7&#45;&gt;A6 -->
<g id="edge7" class="edge">
<title>A7&#45;&gt;A6</title>
<path fill="none" stroke="#000000" d="M329.2519,-388.9096C348.2695,-354.733 368.6257,-318.151 384.2676,-290.0408"/>
<polygon fill="none" stroke="#000000" points="325.9941,-387.5663 324.19,-398.0064 332.1108,-390.97 325.9941,-387.5663"/>
</g>
<!-- A8 -->
<g id="node9" class="node">
<title>A8</title>
<polygon fill="none" stroke="#000000" points="194,-294 194,-326 310,-326 310,-294 194,-294"/>
<text text-anchor="start" x="235.0535" y="-307" font-family="Helvetica,sans-Serif" font-size="10.00" fill="#000000">Inverter</text>
<polygon fill="none" stroke="#000000" points="194,-202 194,-294 310,-294 310,-202 194,-202"/>
<text text-anchor="start" x="228.104" y="-275" font-family="Helvetica,sans-Serif" font-size="10.00" fill="#000000">cls.db_stat</text>
<text text-anchor="start" x="221.4405" y="-263" font-family="Helvetica,sans-Serif" font-size="10.00" fill="#000000">cls.entity_prfx</text>
<text text-anchor="start" x="212.2755" y="-251" font-family="Helvetica,sans-Serif" font-size="10.00" fill="#000000">cls.discovery_prfx</text>
<text text-anchor="start" x="211.7115" y="-239" font-family="Helvetica,sans-Serif" font-size="10.00" fill="#000000">cls.proxy_node_id</text>
<text text-anchor="start" x="207.8225" y="-227" font-family="Helvetica,sans-Serif" font-size="10.00" fill="#000000">cls.proxy_unique_id</text>
<text text-anchor="start" x="234.778" y="-215" font-family="Helvetica,sans-Serif" font-size="10.00" fill="#000000">cls.mqtt</text>
<polygon fill="none" stroke="#000000" points="194,-158 194,-202 310,-202 310,-158 194,-158"/>
<text text-anchor="start" x="203.6575" y="-183" font-family="Helvetica,sans-Serif" font-size="10.00" fill="#000000">&lt;async&gt;server_loop()</text>
<text text-anchor="start" x="205.878" y="-171" font-family="Helvetica,sans-Serif" font-size="10.00" fill="#000000">&lt;async&gt;client_loop()</text>
</g>
<!-- A8&#45;&gt;A9 -->
<g id="edge8" class="edge">
<title>A8&#45;&gt;A9</title>
<path fill="none" stroke="#000000" d="M213.1464,-148.353C207.4166,-134.5426 201.6826,-120.7221 196.439,-108.0838"/>
<polygon fill="none" stroke="#000000" points="210.0414,-150.0024 217.1065,-157.8977 216.5071,-147.3199 210.0414,-150.0024"/>
</g>
<!-- A8&#45;&gt;A10 -->
<g id="edge9" class="edge">
<title>A8&#45;&gt;A10</title>
<path fill="none" stroke="#000000" d="M290.8536,-148.353C296.5834,-134.5426 302.3174,-120.7221 307.561,-108.0838"/>
<polygon fill="none" stroke="#000000" points="287.4929,-147.3199 286.8935,-157.8977 293.9586,-150.0024 287.4929,-147.3199"/>
</g>
</g>
</svg>
