<?xml version="1.0" encoding="UTF-8" standalone="no"?>
<!DOCTYPE svg PUBLIC "-//W3C//DTD SVG 1.1//EN"
 "http://www.w3.org/Graphics/SVG/1.1/DTD/svg11.dtd">
<!-- Generated by graphviz version 2.40.1 (20161225.0304)
 -->
<!-- Title: G Pages: 1 -->
<svg width="511pt" height="1204pt"
 viewBox="0.00 0.00 511.39 1204.00" xmlns="http://www.w3.org/2000/svg" xmlns:xlink="http://www.w3.org/1999/xlink">
<g id="graph0" class="graph" transform="scale(1 1) rotate(0) translate(4 1200)">
<title>G</title>
<polygon fill="#ffffff" stroke="transparent" points="-4,4 -4,-1200 507.3928,-1200 507.3928,4 -4,4"/>
<!-- A0 -->
<g id="node1" class="node">
<title>A0</title>
<polygon fill="#fff8dc" stroke="#000000" points="148.1964,-1100 39.8036,-1100 39.8036,-1064 154.1964,-1064 154.1964,-1094 148.1964,-1100"/>
<polyline fill="none" stroke="#000000" points="148.1964,-1100 148.1964,-1094 "/>
<polyline fill="none" stroke="#000000" points="154.1964,-1094 148.1964,-1094 "/>
<text text-anchor="middle" x="97" y="-1085" font-family="Helvetica,sans-Serif" font-size="10.00" fill="#000000">You can stick notes</text>
<text text-anchor="middle" x="97" y="-1073" font-family="Helvetica,sans-Serif" font-size="10.00" fill="#000000">on diagrams too!</text>
</g>
<!-- A1 -->
<g id="node2" class="node">
<title>A1</title>
<polygon fill="none" stroke="#000000" points="95.6817,-804 26.3183,-804 26.3183,-768 95.6817,-768 95.6817,-804"/>
<text text-anchor="middle" x="61" y="-783" font-family="Helvetica,sans-Serif" font-size="10.00" fill="#000000">Singleton</text>
</g>
<!-- A2 -->
<g id="node3" class="node">
<title>A2</title>
<polygon fill="none" stroke="#000000" points="0,-518 0,-550 122,-550 122,-518 0,-518"/>
<text text-anchor="start" x="51.277" y="-531" font-family="Helvetica,sans-Serif" font-size="10.00" fill="#000000">Mqtt</text>
<polygon fill="none" stroke="#000000" points="0,-462 0,-518 122,-518 122,-462 0,-462"/>
<text text-anchor="start" x="18.4875" y="-499" font-family="Helvetica,sans-Serif" font-size="10.00" fill="#000000">&lt;static&gt;ha_restarts</text>
<text text-anchor="start" x="26.2665" y="-487" font-family="Helvetica,sans-Serif" font-size="10.00" fill="#000000">&lt;static&gt;__client</text>
<text text-anchor="start" x="9.8735" y="-475" font-family="Helvetica,sans-Serif" font-size="10.00" fill="#000000">&lt;static&gt;__cb_MqttIsUp</text>
<polygon fill="none" stroke="#000000" points="0,-418 0,-462 122,-462 122,-418 0,-418"/>
<text text-anchor="start" x="22.936" y="-443" font-family="Helvetica,sans-Serif" font-size="10.00" fill="#000000">&lt;async&gt;publish()</text>
<text text-anchor="start" x="27.1045" y="-431" font-family="Helvetica,sans-Serif" font-size="10.00" fill="#000000">&lt;async&gt;close()</text>
</g>
<!-- A1&#45;&gt;A2 -->
<g id="edge1" class="edge">
<title>A1&#45;&gt;A2</title>
<path fill="none" stroke="#000000" d="M61,-757.4632C61,-710.3291 61,-615.0013 61,-550.3153"/>
<polygon fill="none" stroke="#000000" points="57.5001,-757.5631 61,-767.5632 64.5001,-757.5632 57.5001,-757.5631"/>
</g>
<!-- A10 -->
<g id="node11" class="node">
<title>A10</title>
<polygon fill="none" stroke="#000000" points="7,-282 7,-314 115,-314 115,-282 7,-282"/>
<text text-anchor="start" x="44.0535" y="-295" font-family="Helvetica,sans-Serif" font-size="10.00" fill="#000000">Inverter</text>
<polygon fill="none" stroke="#000000" points="7,-190 7,-282 115,-282 115,-190 7,-190"/>
<text text-anchor="start" x="37.104" y="-263" font-family="Helvetica,sans-Serif" font-size="10.00" fill="#000000">cls.db_stat</text>
<text text-anchor="start" x="30.4405" y="-251" font-family="Helvetica,sans-Serif" font-size="10.00" fill="#000000">cls.entity_prfx</text>
<text text-anchor="start" x="21.2755" y="-239" font-family="Helvetica,sans-Serif" font-size="10.00" fill="#000000">cls.discovery_prfx</text>
<text text-anchor="start" x="20.7115" y="-227" font-family="Helvetica,sans-Serif" font-size="10.00" fill="#000000">cls.proxy_node_id</text>
<text text-anchor="start" x="16.8225" y="-215" font-family="Helvetica,sans-Serif" font-size="10.00" fill="#000000">cls.proxy_unique_id</text>
<text text-anchor="start" x="32.6655" y="-203" font-family="Helvetica,sans-Serif" font-size="10.00" fill="#000000">cls.mqtt:Mqtt</text>
<polygon fill="none" stroke="#000000" points="7,-170 7,-190 115,-190 115,-170 7,-170"/>
</g>
<!-- A2&#45;&gt;A10 -->
<g id="edge11" class="edge">
<title>A2&#45;&gt;A10</title>
<path fill="none" stroke="#000000" d="M61,-417.8724C61,-385.8251 61,-347.2624 61,-314.4235"/>
</g>
<!-- A3 -->
<g id="node4" class="node">
<title>A3</title>
<polygon fill="none" stroke="#000000" points="173,-1092 173,-1124 244,-1124 244,-1092 173,-1092"/>
<text text-anchor="start" x="182.945" y="-1105" font-family="Helvetica,sans-Serif" font-size="10.00" fill="#000000">IterRegistry</text>
<polygon fill="none" stroke="#000000" points="173,-1072 173,-1092 244,-1092 244,-1072 173,-1072"/>
<polygon fill="none" stroke="#000000" points="173,-1040 173,-1072 244,-1072 244,-1040 173,-1040"/>
<text text-anchor="start" x="190.439" y="-1053" font-family="Helvetica,sans-Serif" font-size="10.00" fill="#000000">__iter__</text>
</g>
<!-- A4 -->
<g id="node5" class="node">
<title>A4</title>
<polygon fill="none" stroke="#000000" points="141,-886 141,-918 275,-918 275,-886 141,-886"/>
<text text-anchor="start" x="187.7175" y="-899" font-family="Helvetica,sans-Serif" font-size="10.00" fill="#000000">Message</text>
<polygon fill="none" stroke="#000000" points="141,-722 141,-886 275,-886 275,-722 141,-722"/>
<text text-anchor="start" x="171.3265" y="-867" font-family="Helvetica,sans-Serif" font-size="10.00" fill="#000000">server_side:bool</text>
<text text-anchor="start" x="168.543" y="-855" font-family="Helvetica,sans-Serif" font-size="10.00" fill="#000000">header_valid:bool</text>
<text text-anchor="start" x="161.314" y="-843" font-family="Helvetica,sans-Serif" font-size="10.00" fill="#000000">header_len:unsigned</text>
<text text-anchor="start" x="167.148" y="-831" font-family="Helvetica,sans-Serif" font-size="10.00" fill="#000000">data_len:unsigned</text>
<text text-anchor="start" x="186.3245" y="-819" font-family="Helvetica,sans-Serif" font-size="10.00" fill="#000000">unique_id</text>
<text text-anchor="start" x="190.2135" y="-807" font-family="Helvetica,sans-Serif" font-size="10.00" fill="#000000">node_id</text>
<text text-anchor="start" x="187.1585" y="-795" font-family="Helvetica,sans-Serif" font-size="10.00" fill="#000000">sug_area</text>
<text text-anchor="start" x="157.989" y="-783" font-family="Helvetica,sans-Serif" font-size="10.00" fill="#000000">_recv_buffer:bytearray</text>
<text text-anchor="start" x="156.5945" y="-771" font-family="Helvetica,sans-Serif" font-size="10.00" fill="#000000">_send_buffer:bytearray</text>
<text text-anchor="start" x="150.7665" y="-759" font-family="Helvetica,sans-Serif" font-size="10.00" fill="#000000">_forward_buffer:bytearray</text>
<text text-anchor="start" x="190.2135" y="-747" font-family="Helvetica,sans-Serif" font-size="10.00" fill="#000000">db:Infos</text>
<text text-anchor="start" x="178.826" y="-735" font-family="Helvetica,sans-Serif" font-size="10.00" fill="#000000">new_data:list</text>
<polygon fill="none" stroke="#000000" points="141,-654 141,-722 275,-722 275,-654 141,-654"/>
<text text-anchor="start" x="157.7095" y="-703" font-family="Helvetica,sans-Serif" font-size="10.00" fill="#000000">_read():void&lt;abstract&gt;</text>
<text text-anchor="start" x="182.4445" y="-691" font-family="Helvetica,sans-Serif" font-size="10.00" fill="#000000">close():void</text>
<text text-anchor="start" x="168.2725" y="-679" font-family="Helvetica,sans-Serif" font-size="10.00" fill="#000000">inc_counter():void</text>
<text text-anchor="start" x="166.6025" y="-667" font-family="Helvetica,sans-Serif" font-size="10.00" fill="#000000">dec_counter():void</text>
</g>
<!-- A3&#45;&gt;A4 -->
<g id="edge2" class="edge">
<title>A3&#45;&gt;A4</title>
<path fill="none" stroke="#000000" d="M208,-1029.7414C208,-998.6043 208,-957.5621 208,-918.0536"/>
<polygon fill="none" stroke="#000000" points="204.5001,-1029.9047 208,-1039.9048 211.5001,-1029.9048 204.5001,-1029.9047"/>
</g>
<!-- A5 -->
<g id="node6" class="node">
<title>A5</title>
<polygon fill="none" stroke="#000000" points="145,-566 145,-598 259,-598 259,-566 145,-566"/>
<text text-anchor="start" x="188.108" y="-579" font-family="Helvetica,sans-Serif" font-size="10.00" fill="#000000">Talent</text>
<polygon fill="none" stroke="#000000" points="145,-486 145,-566 259,-566 259,-486 145,-486"/>
<text text-anchor="start" x="154.763" y="-547" font-family="Helvetica,sans-Serif" font-size="10.00" fill="#000000">await_conn_resp_cnt</text>
<text text-anchor="start" x="189.7775" y="-535" font-family="Helvetica,sans-Serif" font-size="10.00" fill="#000000">id_str</text>
<text text-anchor="start" x="170.6" y="-523" font-family="Helvetica,sans-Serif" font-size="10.00" fill="#000000">contact_name</text>
<text text-anchor="start" x="173.94" y="-511" font-family="Helvetica,sans-Serif" font-size="10.00" fill="#000000">contact_mail</text>
<text text-anchor="start" x="188.112" y="-499" font-family="Helvetica,sans-Serif" font-size="10.00" fill="#000000">switch</text>
<polygon fill="none" stroke="#000000" points="145,-370 145,-486 259,-486 259,-370 145,-370"/>
<text text-anchor="start" x="159.4925" y="-467" font-family="Helvetica,sans-Serif" font-size="10.00" fill="#000000">msg_contact_info()</text>
<text text-anchor="start" x="161.4325" y="-455" font-family="Helvetica,sans-Serif" font-size="10.00" fill="#000000">msg_ota_update()</text>
<text text-anchor="start" x="167.2765" y="-443" font-family="Helvetica,sans-Serif" font-size="10.00" fill="#000000">msg_get_time()</text>
<text text-anchor="start" x="155.3285" y="-431" font-family="Helvetica,sans-Serif" font-size="10.00" fill="#000000">msg_collector_data()</text>
<text text-anchor="start" x="157.2735" y="-419" font-family="Helvetica,sans-Serif" font-size="10.00" fill="#000000">msg_inverter_data()</text>
<text text-anchor="start" x="166.4405" y="-407" font-family="Helvetica,sans-Serif" font-size="10.00" fill="#000000">msg_unknown()</text>
<text text-anchor="start" x="187.0025" y="-383" font-family="Helvetica,sans-Serif" font-size="10.00" fill="#000000">close()</text>
</g>
<!-- A4&#45;&gt;A5 -->
<g id="edge3" class="edge">
<title>A4&#45;&gt;A5</title>
<path fill="none" stroke="#000000" d="M205.1775,-643.9363C204.8732,-628.6188 204.5665,-613.1783 204.2698,-598.2481"/>
<polygon fill="none" stroke="#000000" points="201.679,-644.0493 205.377,-653.9777 208.6776,-643.9102 201.679,-644.0493"/>
</g>
<!-- A6 -->
<g id="node7" class="node">
<title>A6</title>
<polygon fill="none" stroke="#000000" points="412,-530 412,-562 503,-562 503,-530 412,-530"/>
<text text-anchor="start" x="429.995" y="-543" font-family="Helvetica,sans-Serif" font-size="10.00" fill="#000000">SolarmanV5</text>
<polygon fill="none" stroke="#000000" points="412,-462 412,-530 503,-530 503,-462 412,-462"/>
<text text-anchor="start" x="442.498" y="-511" font-family="Helvetica,sans-Serif" font-size="10.00" fill="#000000">control</text>
<text text-anchor="start" x="445.5575" y="-499" font-family="Helvetica,sans-Serif" font-size="10.00" fill="#000000">serial</text>
<text text-anchor="start" x="450.556" y="-487" font-family="Helvetica,sans-Serif" font-size="10.00" fill="#000000">snr</text>
<text text-anchor="start" x="443.612" y="-475" font-family="Helvetica,sans-Serif" font-size="10.00" fill="#000000">switch</text>
<polygon fill="none" stroke="#000000" points="412,-406 412,-462 503,-462 503,-406 412,-406"/>
<text text-anchor="start" x="421.9405" y="-443" font-family="Helvetica,sans-Serif" font-size="10.00" fill="#000000">msg_unknown()</text>
<text text-anchor="start" x="442.5025" y="-419" font-family="Helvetica,sans-Serif" font-size="10.00" fill="#000000">close()</text>
</g>
<!-- A4&#45;&gt;A6 -->
<g id="edge4" class="edge">
<title>A4&#45;&gt;A6</title>
<path fill="none" stroke="#000000" d="M281.898,-681.5056C290.821,-671.6784 300.2479,-662.304 310,-654 345.4324,-623.8293 370.2318,-638.0075 402,-604 413.2639,-591.9422 422.5424,-577.1747 430.0614,-562.1755"/>
<polygon fill="none" stroke="#000000" points="279.184,-679.2912 275.1758,-689.0986 284.4251,-683.9313 279.184,-679.2912"/>
</g>
<!-- A7 -->
<g id="node8" class="node">
<title>A7</title>
<polygon fill="none" stroke="#000000" points="133,-258 133,-290 283,-290 283,-258 133,-258"/>
<text text-anchor="start" x="176.0455" y="-271" font-family="Helvetica,sans-Serif" font-size="10.00" fill="#000000">ConnectionG3</text>
<polygon fill="none" stroke="#000000" points="133,-226 133,-258 283,-258 283,-226 133,-226"/>
<text text-anchor="start" x="142.987" y="-239" font-family="Helvetica,sans-Serif" font-size="10.00" fill="#000000">remoteStream:ConnectionG3</text>
<polygon fill="none" stroke="#000000" points="133,-194 133,-226 283,-226 283,-194 133,-194"/>
<text text-anchor="start" x="193.0025" y="-207" font-family="Helvetica,sans-Serif" font-size="10.00" fill="#000000">close()</text>
</g>
<!-- A5&#45;&gt;A7 -->
<g id="edge5" class="edge">
<title>A5&#45;&gt;A7</title>
<path fill="none" stroke="#000000" d="M205.0858,-359.5407C205.6971,-334.8843 206.3036,-310.4196 206.8038,-290.2462"/>
<polygon fill="none" stroke="#000000" points="201.5821,-359.6485 204.8331,-369.7323 208.58,-359.8221 201.5821,-359.6485"/>
</g>
<!-- A8 -->
<g id="node9" class="node">
<title>A8</title>
<polygon fill="none" stroke="#000000" points="319,-258 319,-290 475,-290 475,-258 319,-258"/>
<text text-anchor="start" x="361.711" y="-271" font-family="Helvetica,sans-Serif" font-size="10.00" fill="#000000">ConnectionG3P</text>
<polygon fill="none" stroke="#000000" points="319,-226 319,-258 475,-258 475,-226 319,-226"/>
<text text-anchor="start" x="328.6525" y="-239" font-family="Helvetica,sans-Serif" font-size="10.00" fill="#000000">remoteStream:ConnectionG3P</text>
<polygon fill="none" stroke="#000000" points="319,-194 319,-226 475,-226 475,-194 319,-194"/>
<text text-anchor="start" x="382.0025" y="-207" font-family="Helvetica,sans-Serif" font-size="10.00" fill="#000000">close()</text>
</g>
<!-- A6&#45;&gt;A8 -->
<g id="edge6" class="edge">
<title>A6&#45;&gt;A8</title>
<path fill="none" stroke="#000000" d="M435.1335,-395.8051C426.2731,-360.0682 416.3888,-320.2015 408.9039,-290.0125"/>
<polygon fill="none" stroke="#000000" points="431.7989,-396.8999 437.6026,-405.7637 438.5932,-395.2153 431.7989,-396.8999"/>
</g>
<!-- A7&#45;&gt;A7 -->
<g id="edge13" class="edge">
<title>A7&#45;&gt;A7</title>
<path fill="none" stroke="#000000" d="M283.1684,-272.6238C293.8394,-267.6708 301,-257.4629 301,-242 301,-231.1277 297.4599,-222.8533 291.6486,-217.1769"/>
<polygon fill="#000000" stroke="#000000" points="283.1684,-211.3762 293.9628,-213.3079 287.2953,-214.1991 291.4222,-217.0221 291.4222,-217.0221 291.4222,-217.0221 287.2953,-214.1991 288.8816,-220.7363 283.1684,-211.3762 283.1684,-211.3762"/>
<text text-anchor="middle" x="302.9014" y="-211.6335" font-family="Helvetica,sans-Serif" font-size="10.00" fill="#000000">0..1</text>
<text text-anchor="middle" x="295.2075" y="-253.6532" font-family="Helvetica,sans-Serif" font-size="10.00" fill="#000000">has</text>
</g>
<!-- A11 -->
<g id="node12" class="node">
<title>A11</title>
<polygon fill="none" stroke="#000000" points="73,-88 73,-120 195,-120 195,-88 73,-88"/>
<text text-anchor="start" x="110.3845" y="-101" font-family="Helvetica,sans-Serif" font-size="10.00" fill="#000000">InverterG3</text>
<polygon fill="none" stroke="#000000" points="73,-56 73,-88 195,-88 195,-56 73,-56"/>
<text text-anchor="start" x="103.4355" y="-69" font-family="Helvetica,sans-Serif" font-size="10.00" fill="#000000">__ha_restarts</text>
<polygon fill="none" stroke="#000000" points="73,0 73,-56 195,-56 195,0 73,0"/>
<text text-anchor="start" x="82.6035" y="-37" font-family="Helvetica,sans-Serif" font-size="10.00" fill="#000000">async_create_remote()</text>
<text text-anchor="start" x="119.0025" y="-13" font-family="Helvetica,sans-Serif" font-size="10.00" fill="#000000">close()</text>
</g>
<!-- A7&#45;&gt;A11 -->
<g id="edge12" class="edge">
<title>A7&#45;&gt;A11</title>
<path fill="none" stroke="#000000" d="M184.5103,-184.2281C176.2169,-163.8307 166.8737,-140.8515 158.4988,-120.2539"/>
<polygon fill="none" stroke="#000000" points="181.3548,-185.7599 188.3636,-193.7052 187.8393,-183.1233 181.3548,-185.7599"/>
</g>
<!-- A8&#45;&gt;A8 -->
<g id="edge15" class="edge">
<title>A8&#45;&gt;A8</title>
<path fill="none" stroke="#000000" d="M475.3471,-272.2739C485.9443,-267.1987 493,-257.1074 493,-242 493,-231.3776 489.5118,-223.2351 483.7569,-217.5725"/>
<polygon fill="#000000" stroke="#000000" points="475.3471,-211.7261 486.1266,-213.7393 479.4525,-214.5802 483.5579,-217.4342 483.5579,-217.4342 483.5579,-217.4342 479.4525,-214.5802 480.9893,-221.1291 475.3471,-211.7261 475.3471,-211.7261"/>
<text text-anchor="middle" x="495.0548" y="-212.1325" font-family="Helvetica,sans-Serif" font-size="10.00" fill="#000000">0..1</text>
<text text-anchor="middle" x="487.2174" y="-253.1774" font-family="Helvetica,sans-Serif" font-size="10.00" fill="#000000">has</text>
</g>
<!-- A12 -->
<g id="node13" class="node">
<title>A12</title>
<polygon fill="none" stroke="#000000" points="274,-88 274,-120 396,-120 396,-88 274,-88"/>
<text text-anchor="start" x="308.05" y="-101" font-family="Helvetica,sans-Serif" font-size="10.00" fill="#000000">InverterG3P</text>
<polygon fill="none" stroke="#000000" points="274,-56 274,-88 396,-88 396,-56 274,-56"/>
<text text-anchor="start" x="304.4355" y="-69" font-family="Helvetica,sans-Serif" font-size="10.00" fill="#000000">__ha_restarts</text>
<polygon fill="none" stroke="#000000" points="274,0 274,-56 396,-56 396,0 274,0"/>
<text text-anchor="start" x="283.6035" y="-37" font-family="Helvetica,sans-Serif" font-size="10.00" fill="#000000">async_create_remote()</text>
<text text-anchor="start" x="320.0025" y="-13" font-family="Helvetica,sans-Serif" font-size="10.00" fill="#000000">close()</text>
</g>
<!-- A8&#45;&gt;A12 -->
<g id="edge14" class="edge">
<title>A8&#45;&gt;A12</title>
<path fill="none" stroke="#000000" d="M377.3195,-184.2281C370.3709,-163.8307 362.5428,-140.8515 355.526,-120.2539"/>
<polygon fill="none" stroke="#000000" points="374.0102,-185.368 380.5479,-193.7052 380.6363,-183.1107 374.0102,-185.368"/>
</g>
<!-- A9 -->
<g id="node10" class="node">
<title>A9</title>
<polygon fill="none" stroke="#000000" points="277,-572 277,-604 393,-604 393,-572 277,-572"/>
<text text-anchor="start" x="305.274" y="-585" font-family="Helvetica,sans-Serif" font-size="10.00" fill="#000000">AsyncStream</text>
<polygon fill="none" stroke="#000000" points="277,-492 277,-572 393,-572 393,-492 277,-492"/>
<text text-anchor="start" x="320.553" y="-553" font-family="Helvetica,sans-Serif" font-size="10.00" fill="#000000">reader</text>
<text text-anchor="start" x="322.783" y="-541" font-family="Helvetica,sans-Serif" font-size="10.00" fill="#000000">writer</text>
<text text-anchor="start" x="324.997" y="-529" font-family="Helvetica,sans-Serif" font-size="10.00" fill="#000000">addr</text>
<text text-anchor="start" x="320.553" y="-517" font-family="Helvetica,sans-Serif" font-size="10.00" fill="#000000">r_addr</text>
<text text-anchor="start" x="321.108" y="-505" font-family="Helvetica,sans-Serif" font-size="10.00" fill="#000000">l_addr</text>
<polygon fill="none" stroke="#000000" points="277,-364 277,-492 393,-492 393,-364 277,-364"/>
<text text-anchor="start" x="286.6575" y="-473" font-family="Helvetica,sans-Serif" font-size="10.00" fill="#000000">&lt;async&gt;server_loop()</text>
<text text-anchor="start" x="288.878" y="-461" font-family="Helvetica,sans-Serif" font-size="10.00" fill="#000000">&lt;async&gt;client_loop()</text>
<text text-anchor="start" x="306.654" y="-449" font-family="Helvetica,sans-Serif" font-size="10.00" fill="#000000">&lt;async&gt;loop</text>
<text text-anchor="start" x="322.782" y="-437" font-family="Helvetica,sans-Serif" font-size="10.00" fill="#000000">disc()</text>
<text text-anchor="start" x="320.0025" y="-425" font-family="Helvetica,sans-Serif" font-size="10.00" fill="#000000">close()</text>
<text text-anchor="start" x="300.2705" y="-401" font-family="Helvetica,sans-Serif" font-size="10.00" fill="#000000">__async_read()</text>
<text text-anchor="start" x="299.721" y="-389" font-family="Helvetica,sans-Serif" font-size="10.00" fill="#000000">__async_write()</text>
<text text-anchor="start" x="293.607" y="-377" font-family="Helvetica,sans-Serif" font-size="10.00" fill="#000000">__async_forward()</text>
</g>
<!-- A9&#45;&gt;A7 -->
<g id="edge7" class="edge">
<title>A9&#45;&gt;A7</title>
<path fill="none" stroke="#000000" d="M272.2034,-364.3403C258.3698,-337.9803 244.4918,-311.5356 233.1958,-290.0108"/>
<polygon fill="none" stroke="#000000" points="269.1431,-366.041 276.8893,-373.2693 275.3415,-362.7881 269.1431,-366.041"/>
</g>
<!-- A9&#45;&gt;A8 -->
<g id="edge8" class="edge">
<title>A9&#45;&gt;A8</title>
<path fill="none" stroke="#000000" d="M368.3237,-353.9299C374.1595,-331.1516 379.8848,-308.8044 384.6662,-290.1415"/>
<polygon fill="none" stroke="#000000" points="364.9098,-353.1532 365.8184,-363.709 371.6908,-354.8905 364.9098,-353.1532"/>
</g>
<!-- A10&#45;&gt;A11 -->
<g id="edge9" class="edge">
<title>A10&#45;&gt;A11</title>
<path fill="none" stroke="#000000" d="M93.7037,-160.4648C99.1515,-146.8826 104.7134,-133.016 109.8967,-120.0931"/>
<polygon fill="none" stroke="#000000" points="90.4307,-159.2232 89.9564,-169.8074 96.9276,-161.8291 90.4307,-159.2232"/>
</g>
<!-- A10&#45;&gt;A12 -->
<g id="edge10" class="edge">
<title>A10&#45;&gt;A12</title>
<path fill="none" stroke="#000000" d="M122.8753,-170.8927C123.2497,-170.5927 123.6246,-170.2951 124,-170 149.1284,-150.2443 220.9786,-114.1777 273.8825,-88.7388"/>
<polygon fill="none" stroke="#000000" points="120.4501,-168.3606 115.1024,-177.5068 124.9865,-173.6918 120.4501,-168.3606"/>
</g>
<!-- A13 -->
<g id="node14" class="node">
<title>A13</title>
<polygon fill="none" stroke="#000000" points="350,-1164 350,-1196 453,-1196 453,-1164 350,-1164"/>
<text text-anchor="start" x="390.662" y="-1177" font-family="Helvetica,sans-Serif" font-size="10.00" fill="#000000">Infos</text>
<polygon fill="none" stroke="#000000" points="350,-1108 350,-1164 453,-1164 453,-1108 350,-1108"/>
<text text-anchor="start" x="393.4415" y="-1145" font-family="Helvetica,sans-Serif" font-size="10.00" fill="#000000">stat</text>
<text text-anchor="start" x="368.986" y="-1133" font-family="Helvetica,sans-Serif" font-size="10.00" fill="#000000">new_stat_data</text>
<text text-anchor="start" x="382.6035" y="-1121" font-family="Helvetica,sans-Serif" font-size="10.00" fill="#000000">info_dev</text>
<polygon fill="none" stroke="#000000" points="350,-968 350,-1108 453,-1108 453,-968 350,-968"/>
<text text-anchor="start" x="377.3355" y="-1089" font-family="Helvetica,sans-Serif" font-size="10.00" fill="#000000">static_init()</text>
<text text-anchor="start" x="375.3845" y="-1077" font-family="Helvetica,sans-Serif" font-size="10.00" fill="#000000">dev_value()</text>
<text text-anchor="start" x="372.3305" y="-1065" font-family="Helvetica,sans-Serif" font-size="10.00" fill="#000000">inc_counter()</text>
<text text-anchor="start" x="370.6605" y="-1053" font-family="Helvetica,sans-Serif" font-size="10.00" fill="#000000">dec_counter()</text>
<text text-anchor="start" x="368.71" y="-1041" font-family="Helvetica,sans-Serif" font-size="10.00" fill="#000000">ha_proxy_conf</text>
<text text-anchor="start" x="383.713" y="-1029" font-family="Helvetica,sans-Serif" font-size="10.00" fill="#000000">ha_conf</text>
<text text-anchor="start" x="377.8745" y="-1017" font-family="Helvetica,sans-Serif" font-size="10.00" fill="#000000">update_db</text>
<text text-anchor="start" x="362.037" y="-1005" font-family="Helvetica,sans-Serif" font-size="10.00" fill="#000000">set_db_def_value</text>
<text text-anchor="start" x="371.4855" y="-993" font-family="Helvetica,sans-Serif" font-size="10.00" fill="#000000">get_db_value</text>
<text text-anchor="start" x="359.8225" y="-981" font-family="Helvetica,sans-Serif" font-size="10.00" fill="#000000">ignore_this_device</text>
</g>
<!-- A14 -->
<g id="node15" class="node">
<title>A14</title>
<polygon fill="none" stroke="#000000" points="319,-802 319,-834 386,-834 386,-802 319,-802"/>
<text text-anchor="start" x="334.993" y="-815" font-family="Helvetica,sans-Serif" font-size="10.00" fill="#000000">InfosG3</text>
<polygon fill="none" stroke="#000000" points="319,-782 319,-802 386,-802 386,-782 319,-782"/>
<polygon fill="none" stroke="#000000" points="319,-738 319,-782 386,-782 386,-738 319,-738"/>
<text text-anchor="start" x="328.884" y="-763" font-family="Helvetica,sans-Serif" font-size="10.00" fill="#000000">ha_confs()</text>
<text text-anchor="start" x="336.668" y="-751" font-family="Helvetica,sans-Serif" font-size="10.00" fill="#000000">parse()</text>
</g>
<!-- A13&#45;&gt;A14 -->
<g id="edge16" class="edge">
<title>A13&#45;&gt;A14</title>
<path fill="none" stroke="#000000" d="M380.4486,-957.853C373.2314,-914.2551 365.5447,-867.821 359.9831,-834.2247"/>
<polygon fill="none" stroke="#000000" points="377.0391,-958.688 382.1254,-967.9821 383.9452,-957.5447 377.0391,-958.688"/>
</g>
<!-- A15 -->
<g id="node16" class="node">
<title>A15</title>
<polygon fill="none" stroke="#000000" points="417,-802 417,-834 484,-834 484,-802 417,-802"/>
<text text-anchor="start" x="429.6585" y="-815" font-family="Helvetica,sans-Serif" font-size="10.00" fill="#000000">InfosG3P</text>
<polygon fill="none" stroke="#000000" points="417,-782 417,-802 484,-802 484,-782 417,-782"/>
<polygon fill="none" stroke="#000000" points="417,-738 417,-782 484,-782 484,-738 417,-738"/>
<text text-anchor="start" x="426.884" y="-763" font-family="Helvetica,sans-Serif" font-size="10.00" fill="#000000">ha_confs()</text>
<text text-anchor="start" x="434.668" y="-751" font-family="Helvetica,sans-Serif" font-size="10.00" fill="#000000">parse()</text>
</g>
<!-- A13&#45;&gt;A15 -->
<g id="edge17" class="edge">
<title>A13&#45;&gt;A15</title>
<path fill="none" stroke="#000000" d="M421.5514,-957.853C428.7686,-914.2551 436.4553,-867.821 442.0169,-834.2247"/>
<polygon fill="none" stroke="#000000" points="418.0548,-957.5447 419.8746,-967.9821 424.9609,-958.688 418.0548,-957.5447"/>
</g>
<!-- A14&#45;&gt;A5 -->
<g id="edge19" class="edge">
<title>A14&#45;&gt;A5</title>
<path fill="none" stroke="#000000" d="M328.0662,-737.8133C310.5801,-702.608 286.0413,-653.2031 263.2551,-607.3269"/>
<polygon fill="#000000" stroke="#000000" points="258.7238,-598.2039 267.2025,-605.1583 260.948,-602.682 263.1723,-607.1601 263.1723,-607.1601 263.1723,-607.1601 260.948,-602.682 259.142,-609.1619 258.7238,-598.2039 258.7238,-598.2039"/>
</g>
<!-- A15&#45;&gt;A6 -->
<g id="edge18" class="edge">
<title>A15&#45;&gt;A6</title>
<path fill="none" stroke="#000000" d="M451.1169,-737.8133C452.1468,-693.3826 453.7008,-626.3353 454.9531,-572.3076"/>
<polygon fill="#000000" stroke="#000000" points="455.1913,-562.0332 459.4583,-572.1349 455.0754,-567.0319 454.9595,-572.0306 454.9595,-572.0306 454.9595,-572.0306 455.0754,-567.0319 450.4607,-571.9262 455.1913,-562.0332 455.1913,-562.0332"/>
</g>
</g>
</svg>
