<?xml version="1.0" encoding="UTF-8" standalone="no"?>
<!DOCTYPE svg PUBLIC "-//W3C//DTD SVG 1.1//EN"
 "http://www.w3.org/Graphics/SVG/1.1/DTD/svg11.dtd">
<!-- Generated by graphviz version 2.40.1 (20161225.0304)
 -->
<!-- Title: G Pages: 1 -->
<svg width="520pt" height="1060pt"
 viewBox="0.00 0.00 519.50 1060.00" xmlns="http://www.w3.org/2000/svg" xmlns:xlink="http://www.w3.org/1999/xlink">
<g id="graph0" class="graph" transform="scale(1 1) rotate(0) translate(4 1056)">
<title>G</title>
<polygon fill="#ffffff" stroke="transparent" points="-4,4 -4,-1056 515.5,-1056 515.5,4 -4,4"/>
<!-- A0 -->
<g id="node1" class="node">
<title>A0</title>
<polygon fill="#fff8dc" stroke="#000000" points="113.6964,-1028 5.3036,-1028 5.3036,-992 119.6964,-992 119.6964,-1022 113.6964,-1028"/>
<polyline fill="none" stroke="#000000" points="113.6964,-1028 113.6964,-1022 "/>
<polyline fill="none" stroke="#000000" points="119.6964,-1022 113.6964,-1022 "/>
<text text-anchor="middle" x="62.5" y="-1013" font-family="Helvetica,sans-Serif" font-size="10.00" fill="#000000">You can stick notes</text>
<text text-anchor="middle" x="62.5" y="-1001" font-family="Helvetica,sans-Serif" font-size="10.00" fill="#000000">on diagrams too!</text>
</g>
<!-- A1 -->
<g id="node2" class="node">
<title>A1</title>
<polygon fill="none" stroke="#000000" points="485.1817,-804 415.8183,-804 415.8183,-768 485.1817,-768 485.1817,-804"/>
<text text-anchor="middle" x="450.5" y="-783" font-family="Helvetica,sans-Serif" font-size="10.00" fill="#000000">Singleton</text>
</g>
<!-- A2 -->
<g id="node3" class="node">
<title>A2</title>
<polygon fill="none" stroke="#000000" points="389.5,-518 389.5,-550 511.5,-550 511.5,-518 389.5,-518"/>
<text text-anchor="start" x="440.777" y="-531" font-family="Helvetica,sans-Serif" font-size="10.00" fill="#000000">Mqtt</text>
<polygon fill="none" stroke="#000000" points="389.5,-462 389.5,-518 511.5,-518 511.5,-462 389.5,-462"/>
<text text-anchor="start" x="407.9875" y="-499" font-family="Helvetica,sans-Serif" font-size="10.00" fill="#000000">&lt;static&gt;ha_restarts</text>
<text text-anchor="start" x="415.7665" y="-487" font-family="Helvetica,sans-Serif" font-size="10.00" fill="#000000">&lt;static&gt;__client</text>
<text text-anchor="start" x="399.3735" y="-475" font-family="Helvetica,sans-Serif" font-size="10.00" fill="#000000">&lt;static&gt;__cb_MqttIsUp</text>
<polygon fill="none" stroke="#000000" points="389.5,-418 389.5,-462 511.5,-462 511.5,-418 389.5,-418"/>
<text text-anchor="start" x="412.436" y="-443" font-family="Helvetica,sans-Serif" font-size="10.00" fill="#000000">&lt;async&gt;publish()</text>
<text text-anchor="start" x="416.6045" y="-431" font-family="Helvetica,sans-Serif" font-size="10.00" fill="#000000">&lt;async&gt;close()</text>
</g>
<!-- A1&#45;&gt;A2 -->
<g id="edge1" class="edge">
<title>A1&#45;&gt;A2</title>
<path fill="none" stroke="#000000" d="M450.5,-757.4632C450.5,-710.3291 450.5,-615.0013 450.5,-550.3153"/>
<polygon fill="none" stroke="#000000" points="447.0001,-757.5631 450.5,-767.5632 454.0001,-757.5632 447.0001,-757.5631"/>
</g>
<!-- A10 -->
<g id="node11" class="node">
<title>A10</title>
<polygon fill="none" stroke="#000000" points="396.5,-282 396.5,-314 504.5,-314 504.5,-282 396.5,-282"/>
<text text-anchor="start" x="433.5535" y="-295" font-family="Helvetica,sans-Serif" font-size="10.00" fill="#000000">Inverter</text>
<polygon fill="none" stroke="#000000" points="396.5,-190 396.5,-282 504.5,-282 504.5,-190 396.5,-190"/>
<text text-anchor="start" x="426.604" y="-263" font-family="Helvetica,sans-Serif" font-size="10.00" fill="#000000">cls.db_stat</text>
<text text-anchor="start" x="419.9405" y="-251" font-family="Helvetica,sans-Serif" font-size="10.00" fill="#000000">cls.entity_prfx</text>
<text text-anchor="start" x="410.7755" y="-239" font-family="Helvetica,sans-Serif" font-size="10.00" fill="#000000">cls.discovery_prfx</text>
<text text-anchor="start" x="410.2115" y="-227" font-family="Helvetica,sans-Serif" font-size="10.00" fill="#000000">cls.proxy_node_id</text>
<text text-anchor="start" x="406.3225" y="-215" font-family="Helvetica,sans-Serif" font-size="10.00" fill="#000000">cls.proxy_unique_id</text>
<text text-anchor="start" x="422.1655" y="-203" font-family="Helvetica,sans-Serif" font-size="10.00" fill="#000000">cls.mqtt:Mqtt</text>
<polygon fill="none" stroke="#000000" points="396.5,-170 396.5,-190 504.5,-190 504.5,-170 396.5,-170"/>
</g>
<!-- A2&#45;&gt;A10 -->
<g id="edge11" class="edge">
<title>A2&#45;&gt;A10</title>
<path fill="none" stroke="#000000" d="M450.5,-417.8724C450.5,-385.8251 450.5,-347.2624 450.5,-314.4235"/>
</g>
<!-- A3 -->
<g id="node4" class="node">
<title>A3</title>
<polygon fill="none" stroke="#000000" points="138.5,-1020 138.5,-1052 209.5,-1052 209.5,-1020 138.5,-1020"/>
<text text-anchor="start" x="148.445" y="-1033" font-family="Helvetica,sans-Serif" font-size="10.00" fill="#000000">IterRegistry</text>
<polygon fill="none" stroke="#000000" points="138.5,-1000 138.5,-1020 209.5,-1020 209.5,-1000 138.5,-1000"/>
<polygon fill="none" stroke="#000000" points="138.5,-968 138.5,-1000 209.5,-1000 209.5,-968 138.5,-968"/>
<text text-anchor="start" x="155.939" y="-981" font-family="Helvetica,sans-Serif" font-size="10.00" fill="#000000">__iter__</text>
</g>
<!-- A4 -->
<g id="node5" class="node">
<title>A4</title>
<polygon fill="none" stroke="#000000" points="106.5,-886 106.5,-918 240.5,-918 240.5,-886 106.5,-886"/>
<text text-anchor="start" x="153.2175" y="-899" font-family="Helvetica,sans-Serif" font-size="10.00" fill="#000000">Message</text>
<polygon fill="none" stroke="#000000" points="106.5,-722 106.5,-886 240.5,-886 240.5,-722 106.5,-722"/>
<text text-anchor="start" x="136.8265" y="-867" font-family="Helvetica,sans-Serif" font-size="10.00" fill="#000000">server_side:bool</text>
<text text-anchor="start" x="134.043" y="-855" font-family="Helvetica,sans-Serif" font-size="10.00" fill="#000000">header_valid:bool</text>
<text text-anchor="start" x="126.814" y="-843" font-family="Helvetica,sans-Serif" font-size="10.00" fill="#000000">header_len:unsigned</text>
<text text-anchor="start" x="132.648" y="-831" font-family="Helvetica,sans-Serif" font-size="10.00" fill="#000000">data_len:unsigned</text>
<text text-anchor="start" x="151.8245" y="-819" font-family="Helvetica,sans-Serif" font-size="10.00" fill="#000000">unique_id</text>
<text text-anchor="start" x="155.7135" y="-807" font-family="Helvetica,sans-Serif" font-size="10.00" fill="#000000">node_id</text>
<text text-anchor="start" x="152.6585" y="-795" font-family="Helvetica,sans-Serif" font-size="10.00" fill="#000000">sug_area</text>
<text text-anchor="start" x="123.489" y="-783" font-family="Helvetica,sans-Serif" font-size="10.00" fill="#000000">_recv_buffer:bytearray</text>
<text text-anchor="start" x="122.0945" y="-771" font-family="Helvetica,sans-Serif" font-size="10.00" fill="#000000">_send_buffer:bytearray</text>
<text text-anchor="start" x="116.2665" y="-759" font-family="Helvetica,sans-Serif" font-size="10.00" fill="#000000">_forward_buffer:bytearray</text>
<text text-anchor="start" x="155.7135" y="-747" font-family="Helvetica,sans-Serif" font-size="10.00" fill="#000000">db:Infos</text>
<text text-anchor="start" x="144.326" y="-735" font-family="Helvetica,sans-Serif" font-size="10.00" fill="#000000">new_data:list</text>
<polygon fill="none" stroke="#000000" points="106.5,-654 106.5,-722 240.5,-722 240.5,-654 106.5,-654"/>
<text text-anchor="start" x="123.2095" y="-703" font-family="Helvetica,sans-Serif" font-size="10.00" fill="#000000">_read():void&lt;abstract&gt;</text>
<text text-anchor="start" x="147.9445" y="-691" font-family="Helvetica,sans-Serif" font-size="10.00" fill="#000000">close():void</text>
<text text-anchor="start" x="133.7725" y="-679" font-family="Helvetica,sans-Serif" font-size="10.00" fill="#000000">inc_counter():void</text>
<text text-anchor="start" x="132.1025" y="-667" font-family="Helvetica,sans-Serif" font-size="10.00" fill="#000000">dec_counter():void</text>
</g>
<!-- A3&#45;&gt;A4 -->
<g id="edge2" class="edge">
<title>A3&#45;&gt;A4</title>
<path fill="none" stroke="#000000" d="M173.5,-957.5789C173.5,-945.4616 173.5,-932.0319 173.5,-918.1761"/>
<polygon fill="none" stroke="#000000" points="170.0001,-957.8673 173.5,-967.8673 177.0001,-957.8673 170.0001,-957.8673"/>
</g>
<!-- A5 -->
<g id="node6" class="node">
<title>A5</title>
<polygon fill="none" stroke="#000000" points="243.5,-566 243.5,-598 357.5,-598 357.5,-566 243.5,-566"/>
<text text-anchor="start" x="286.608" y="-579" font-family="Helvetica,sans-Serif" font-size="10.00" fill="#000000">Talent</text>
<polygon fill="none" stroke="#000000" points="243.5,-486 243.5,-566 357.5,-566 357.5,-486 243.5,-486"/>
<text text-anchor="start" x="253.263" y="-547" font-family="Helvetica,sans-Serif" font-size="10.00" fill="#000000">await_conn_resp_cnt</text>
<text text-anchor="start" x="288.2775" y="-535" font-family="Helvetica,sans-Serif" font-size="10.00" fill="#000000">id_str</text>
<text text-anchor="start" x="269.1" y="-523" font-family="Helvetica,sans-Serif" font-size="10.00" fill="#000000">contact_name</text>
<text text-anchor="start" x="272.44" y="-511" font-family="Helvetica,sans-Serif" font-size="10.00" fill="#000000">contact_mail</text>
<text text-anchor="start" x="286.612" y="-499" font-family="Helvetica,sans-Serif" font-size="10.00" fill="#000000">switch</text>
<polygon fill="none" stroke="#000000" points="243.5,-370 243.5,-486 357.5,-486 357.5,-370 243.5,-370"/>
<text text-anchor="start" x="257.9925" y="-467" font-family="Helvetica,sans-Serif" font-size="10.00" fill="#000000">msg_contact_info()</text>
<text text-anchor="start" x="259.9325" y="-455" font-family="Helvetica,sans-Serif" font-size="10.00" fill="#000000">msg_ota_update()</text>
<text text-anchor="start" x="265.7765" y="-443" font-family="Helvetica,sans-Serif" font-size="10.00" fill="#000000">msg_get_time()</text>
<text text-anchor="start" x="253.8285" y="-431" font-family="Helvetica,sans-Serif" font-size="10.00" fill="#000000">msg_collector_data()</text>
<text text-anchor="start" x="255.7735" y="-419" font-family="Helvetica,sans-Serif" font-size="10.00" fill="#000000">msg_inverter_data()</text>
<text text-anchor="start" x="264.9405" y="-407" font-family="Helvetica,sans-Serif" font-size="10.00" fill="#000000">msg_unknown()</text>
<text text-anchor="start" x="285.5025" y="-383" font-family="Helvetica,sans-Serif" font-size="10.00" fill="#000000">close()</text>
</g>
<!-- A4&#45;&gt;A5 -->
<g id="edge3" class="edge">
<title>A4&#45;&gt;A5</title>
<path fill="none" stroke="#000000" d="M233.058,-644.3739C239.5598,-628.913 246.1169,-613.3205 252.4553,-598.2481"/>
<polygon fill="none" stroke="#000000" points="229.6695,-643.4029 229.0193,-653.9777 236.1222,-646.1164 229.6695,-643.4029"/>
</g>
<!-- A6 -->
<g id="node7" class="node">
<title>A6</title>
<polygon fill="none" stroke="#000000" points=".5,-530 .5,-562 91.5,-562 91.5,-530 .5,-530"/>
<text text-anchor="start" x="18.495" y="-543" font-family="Helvetica,sans-Serif" font-size="10.00" fill="#000000">SolarmanV5</text>
<polygon fill="none" stroke="#000000" points=".5,-462 .5,-530 91.5,-530 91.5,-462 .5,-462"/>
<text text-anchor="start" x="30.998" y="-511" font-family="Helvetica,sans-Serif" font-size="10.00" fill="#000000">control</text>
<text text-anchor="start" x="34.0575" y="-499" font-family="Helvetica,sans-Serif" font-size="10.00" fill="#000000">serial</text>
<text text-anchor="start" x="39.056" y="-487" font-family="Helvetica,sans-Serif" font-size="10.00" fill="#000000">snr</text>
<text text-anchor="start" x="32.112" y="-475" font-family="Helvetica,sans-Serif" font-size="10.00" fill="#000000">switch</text>
<polygon fill="none" stroke="#000000" points=".5,-406 .5,-462 91.5,-462 91.5,-406 .5,-406"/>
<text text-anchor="start" x="10.4405" y="-443" font-family="Helvetica,sans-Serif" font-size="10.00" fill="#000000">msg_unknown()</text>
<text text-anchor="start" x="31.0025" y="-419" font-family="Helvetica,sans-Serif" font-size="10.00" fill="#000000">close()</text>
</g>
<!-- A4&#45;&gt;A6 -->
<g id="edge4" class="edge">
<title>A4&#45;&gt;A6</title>
<path fill="none" stroke="#000000" d="M113.4937,-644.4225C101.5234,-616.1802 89.3661,-587.4965 78.7055,-562.3442"/>
<polygon fill="none" stroke="#000000" points="110.4186,-646.1364 117.5435,-653.9777 116.8636,-643.4047 110.4186,-646.1364"/>
</g>
<!-- A7 -->
<g id="node8" class="node">
<title>A7</title>
<polygon fill="none" stroke="#000000" points="210.5,-258 210.5,-290 360.5,-290 360.5,-258 210.5,-258"/>
<text text-anchor="start" x="253.5455" y="-271" font-family="Helvetica,sans-Serif" font-size="10.00" fill="#000000">ConnectionG3</text>
<polygon fill="none" stroke="#000000" points="210.5,-226 210.5,-258 360.5,-258 360.5,-226 210.5,-226"/>
<text text-anchor="start" x="220.487" y="-239" font-family="Helvetica,sans-Serif" font-size="10.00" fill="#000000">remoteStream:ConnectionG3</text>
<polygon fill="none" stroke="#000000" points="210.5,-194 210.5,-226 360.5,-226 360.5,-194 210.5,-194"/>
<text text-anchor="start" x="270.5025" y="-207" font-family="Helvetica,sans-Serif" font-size="10.00" fill="#000000">close()</text>
</g>
<!-- A5&#45;&gt;A7 -->
<g id="edge5" class="edge">
<title>A5&#45;&gt;A7</title>
<path fill="none" stroke="#000000" d="M292.7856,-359.5407C291.2573,-334.8843 289.7409,-310.4196 288.4905,-290.2462"/>
<polygon fill="none" stroke="#000000" points="289.3053,-359.968 293.4173,-369.7323 296.2918,-359.5349 289.3053,-359.968"/>
</g>
<!-- A8 -->
<g id="node9" class="node">
<title>A8</title>
<polygon fill="none" stroke="#000000" points="18.5,-258 18.5,-290 174.5,-290 174.5,-258 18.5,-258"/>
<text text-anchor="start" x="61.211" y="-271" font-family="Helvetica,sans-Serif" font-size="10.00" fill="#000000">ConnectionG3P</text>
<polygon fill="none" stroke="#000000" points="18.5,-226 18.5,-258 174.5,-258 174.5,-226 18.5,-226"/>
<text text-anchor="start" x="28.1525" y="-239" font-family="Helvetica,sans-Serif" font-size="10.00" fill="#000000">remoteStream:ConnectionG3P</text>
<polygon fill="none" stroke="#000000" points="18.5,-194 18.5,-226 174.5,-226 174.5,-194 18.5,-194"/>
<text text-anchor="start" x="81.5025" y="-207" font-family="Helvetica,sans-Serif" font-size="10.00" fill="#000000">close()</text>
</g>
<!-- A6&#45;&gt;A8 -->
<g id="edge6" class="edge">
<title>A6&#45;&gt;A8</title>
<path fill="none" stroke="#000000" d="M64.0865,-395.8051C71.6179,-360.0682 80.0195,-320.2015 86.3817,-290.0125"/>
<polygon fill="none" stroke="#000000" points="60.6253,-395.2569 61.9878,-405.7637 67.4748,-396.7004 60.6253,-395.2569"/>
</g>
<!-- A7&#45;&gt;A7 -->
<g id="edge13" class="edge">
<title>A7&#45;&gt;A7</title>
<path fill="none" stroke="#000000" d="M360.6684,-272.6238C371.3394,-267.6708 378.5,-257.4629 378.5,-242 378.5,-231.1277 374.9599,-222.8533 369.1486,-217.1769"/>
<polygon fill="#000000" stroke="#000000" points="360.6684,-211.3762 371.4628,-213.3079 364.7953,-214.1991 368.9222,-217.0221 368.9222,-217.0221 368.9222,-217.0221 364.7953,-214.1991 366.3816,-220.7363 360.6684,-211.3762 360.6684,-211.3762"/>
<text text-anchor="middle" x="380.4014" y="-211.6335" font-family="Helvetica,sans-Serif" font-size="10.00" fill="#000000">0..1</text>
<text text-anchor="middle" x="372.7075" y="-253.6532" font-family="Helvetica,sans-Serif" font-size="10.00" fill="#000000">has</text>
</g>
<!-- A11 -->
<g id="node12" class="node">
<title>A11</title>
<polygon fill="none" stroke="#000000" points="306.5,-88 306.5,-120 428.5,-120 428.5,-88 306.5,-88"/>
<text text-anchor="start" x="343.8845" y="-101" font-family="Helvetica,sans-Serif" font-size="10.00" fill="#000000">InverterG3</text>
<polygon fill="none" stroke="#000000" points="306.5,-56 306.5,-88 428.5,-88 428.5,-56 306.5,-56"/>
<text text-anchor="start" x="336.9355" y="-69" font-family="Helvetica,sans-Serif" font-size="10.00" fill="#000000">__ha_restarts</text>
<polygon fill="none" stroke="#000000" points="306.5,0 306.5,-56 428.5,-56 428.5,0 306.5,0"/>
<text text-anchor="start" x="316.1035" y="-37" font-family="Helvetica,sans-Serif" font-size="10.00" fill="#000000">async_create_remote()</text>
<text text-anchor="start" x="352.5025" y="-13" font-family="Helvetica,sans-Serif" font-size="10.00" fill="#000000">close()</text>
</g>
<!-- A7&#45;&gt;A11 -->
<g id="edge12" class="edge">
<title>A7&#45;&gt;A11</title>
<path fill="none" stroke="#000000" d="M311.4044,-184.5048C320.6254,-164.0387 331.0304,-140.9447 340.3527,-120.2539"/>
<polygon fill="none" stroke="#000000" points="308.176,-183.1501 307.2592,-193.7052 314.5582,-186.0256 308.176,-183.1501"/>
</g>
<!-- A8&#45;&gt;A8 -->
<g id="edge15" class="edge">
<title>A8&#45;&gt;A8</title>
<path fill="none" stroke="#000000" d="M174.8471,-272.2739C185.4443,-267.1987 192.5,-257.1074 192.5,-242 192.5,-231.3776 189.0118,-223.2351 183.2569,-217.5725"/>
<polygon fill="#000000" stroke="#000000" points="174.8471,-211.7261 185.6266,-213.7393 178.9525,-214.5802 183.0579,-217.4342 183.0579,-217.4342 183.0579,-217.4342 178.9525,-214.5802 180.4893,-221.1291 174.8471,-211.7261 174.8471,-211.7261"/>
<text text-anchor="middle" x="194.5548" y="-212.1325" font-family="Helvetica,sans-Serif" font-size="10.00" fill="#000000">0..1</text>
<text text-anchor="middle" x="186.7174" y="-253.1774" font-family="Helvetica,sans-Serif" font-size="10.00" fill="#000000">has</text>
</g>
<!-- A12 -->
<g id="node13" class="node">
<title>A12</title>
<polygon fill="none" stroke="#000000" points="142.5,-88 142.5,-120 264.5,-120 264.5,-88 142.5,-88"/>
<text text-anchor="start" x="176.55" y="-101" font-family="Helvetica,sans-Serif" font-size="10.00" fill="#000000">InverterG3P</text>
<polygon fill="none" stroke="#000000" points="142.5,-56 142.5,-88 264.5,-88 264.5,-56 142.5,-56"/>
<text text-anchor="start" x="172.9355" y="-69" font-family="Helvetica,sans-Serif" font-size="10.00" fill="#000000">__ha_restarts</text>
<polygon fill="none" stroke="#000000" points="142.5,0 142.5,-56 264.5,-56 264.5,0 142.5,0"/>
<text text-anchor="start" x="152.1035" y="-37" font-family="Helvetica,sans-Serif" font-size="10.00" fill="#000000">async_create_remote()</text>
<text text-anchor="start" x="188.5025" y="-13" font-family="Helvetica,sans-Serif" font-size="10.00" fill="#000000">close()</text>
</g>
<!-- A8&#45;&gt;A12 -->
<g id="edge14" class="edge">
<title>A8&#45;&gt;A12</title>
<path fill="none" stroke="#000000" d="M129.9773,-185.0573C142.0896,-164.4551 155.802,-141.1311 168.076,-120.2539"/>
<polygon fill="none" stroke="#000000" points="126.9441,-183.3107 124.8931,-193.7052 132.9785,-186.8585 126.9441,-183.3107"/>
</g>
<!-- A9 -->
<g id="node10" class="node">
<title>A9</title>
<polygon fill="none" stroke="#000000" points="109.5,-572 109.5,-604 225.5,-604 225.5,-572 109.5,-572"/>
<text text-anchor="start" x="137.774" y="-585" font-family="Helvetica,sans-Serif" font-size="10.00" fill="#000000">AsyncStream</text>
<polygon fill="none" stroke="#000000" points="109.5,-492 109.5,-572 225.5,-572 225.5,-492 109.5,-492"/>
<text text-anchor="start" x="153.053" y="-553" font-family="Helvetica,sans-Serif" font-size="10.00" fill="#000000">reader</text>
<text text-anchor="start" x="155.283" y="-541" font-family="Helvetica,sans-Serif" font-size="10.00" fill="#000000">writer</text>
<text text-anchor="start" x="157.497" y="-529" font-family="Helvetica,sans-Serif" font-size="10.00" fill="#000000">addr</text>
<text text-anchor="start" x="153.053" y="-517" font-family="Helvetica,sans-Serif" font-size="10.00" fill="#000000">r_addr</text>
<text text-anchor="start" x="153.608" y="-505" font-family="Helvetica,sans-Serif" font-size="10.00" fill="#000000">l_addr</text>
<polygon fill="none" stroke="#000000" points="109.5,-364 109.5,-492 225.5,-492 225.5,-364 109.5,-364"/>
<text text-anchor="start" x="119.1575" y="-473" font-family="Helvetica,sans-Serif" font-size="10.00" fill="#000000">&lt;async&gt;server_loop()</text>
<text text-anchor="start" x="121.378" y="-461" font-family="Helvetica,sans-Serif" font-size="10.00" fill="#000000">&lt;async&gt;client_loop()</text>
<text text-anchor="start" x="139.154" y="-449" font-family="Helvetica,sans-Serif" font-size="10.00" fill="#000000">&lt;async&gt;loop</text>
<text text-anchor="start" x="155.282" y="-437" font-family="Helvetica,sans-Serif" font-size="10.00" fill="#000000">disc()</text>
<text text-anchor="start" x="152.5025" y="-425" font-family="Helvetica,sans-Serif" font-size="10.00" fill="#000000">close()</text>
<text text-anchor="start" x="132.7705" y="-401" font-family="Helvetica,sans-Serif" font-size="10.00" fill="#000000">__async_read()</text>
<text text-anchor="start" x="132.221" y="-389" font-family="Helvetica,sans-Serif" font-size="10.00" fill="#000000">__async_write()</text>
<text text-anchor="start" x="126.107" y="-377" font-family="Helvetica,sans-Serif" font-size="10.00" fill="#000000">__async_forward()</text>
</g>
<!-- A9&#45;&gt;A7 -->
<g id="edge7" class="edge">
<title>A9&#45;&gt;A7</title>
<path fill="none" stroke="#000000" d="M230.0233,-355.7743C241.4579,-332.3236 252.7154,-309.2362 262.0696,-290.0521"/>
<polygon fill="none" stroke="#000000" points="226.8727,-354.25 225.6358,-364.7724 233.1645,-357.318 226.8727,-354.25"/>
</g>
<!-- A9&#45;&gt;A8 -->
<g id="edge8" class="edge">
<title>A9&#45;&gt;A8</title>
<path fill="none" stroke="#000000" d="M129.3389,-353.9299C122.6561,-331.1516 116.0996,-308.8044 110.6242,-290.1415"/>
<polygon fill="none" stroke="#000000" points="126.0343,-355.0988 132.208,-363.709 132.7512,-353.1281 126.0343,-355.0988"/>
</g>
<!-- A10&#45;&gt;A11 -->
<g id="edge9" class="edge">
<title>A10&#45;&gt;A11</title>
<path fill="none" stroke="#000000" d="M413.3164,-160.4648C407.1223,-146.8826 400.7985,-133.016 394.9051,-120.0931"/>
<polygon fill="none" stroke="#000000" points="410.2431,-162.1611 417.577,-169.8074 416.6121,-159.2566 410.2431,-162.1611"/>
</g>
<!-- A10&#45;&gt;A12 -->
<g id="edge10" class="edge">
<title>A10&#45;&gt;A12</title>
<path fill="none" stroke="#000000" d="M388.6131,-170.9072C388.2425,-170.6025 387.8715,-170.3001 387.5,-170 351.9061,-141.2441 336.8037,-143.4318 297.5,-120 286.7739,-113.6054 275.4857,-106.6243 264.5994,-99.7581"/>
<polygon fill="none" stroke="#000000" points="386.4756,-173.6866 396.3191,-177.6053 391.0678,-168.4034 386.4756,-173.6866"/>
</g>
</g>
</svg>
