<?xml version="1.0" encoding="UTF-8" standalone="no"?>
<!DOCTYPE svg PUBLIC "-//W3C//DTD SVG 1.1//EN"
 "http://www.w3.org/Graphics/SVG/1.1/DTD/svg11.dtd">
<!-- Generated by graphviz version 2.40.1 (20161225.0304)
 -->
<!-- Title: G Pages: 1 -->
<svg width="355pt" height="1028pt"
 viewBox="0.00 0.00 354.50 1028.00" xmlns="http://www.w3.org/2000/svg" xmlns:xlink="http://www.w3.org/1999/xlink">
<g id="graph0" class="graph" transform="scale(1 1) rotate(0) translate(4 1024)">
<title>G</title>
<polygon fill="#ffffff" stroke="transparent" points="-4,4 -4,-1024 350.5,-1024 350.5,4 -4,4"/>
<!-- A0 -->
<g id="node1" class="node">
<title>A0</title>
<polygon fill="#fff8dc" stroke="#000000" points="117.1964,-996 8.8036,-996 8.8036,-960 123.1964,-960 123.1964,-990 117.1964,-996"/>
<polyline fill="none" stroke="#000000" points="117.1964,-996 117.1964,-990 "/>
<polyline fill="none" stroke="#000000" points="123.1964,-990 117.1964,-990 "/>
<text text-anchor="middle" x="66" y="-981" font-family="Helvetica,sans-Serif" font-size="10.00" fill="#000000">You can stick notes</text>
<text text-anchor="middle" x="66" y="-969" font-family="Helvetica,sans-Serif" font-size="10.00" fill="#000000">on diagrams too!</text>
</g>
<!-- A1 -->
<g id="node2" class="node">
<title>A1</title>
<polygon fill="none" stroke="#000000" points="142,-988 142,-1020 213,-1020 213,-988 142,-988"/>
<text text-anchor="start" x="151.945" y="-1001" font-family="Helvetica,sans-Serif" font-size="10.00" fill="#000000">IterRegistry</text>
<polygon fill="none" stroke="#000000" points="142,-968 142,-988 213,-988 213,-968 142,-968"/>
<polygon fill="none" stroke="#000000" points="142,-936 142,-968 213,-968 213,-936 142,-936"/>
<text text-anchor="start" x="159.439" y="-949" font-family="Helvetica,sans-Serif" font-size="10.00" fill="#000000">__iter__</text>
</g>
<!-- A2 -->
<g id="node3" class="node">
<title>A2</title>
<polygon fill="none" stroke="#000000" points="110,-854 110,-886 244,-886 244,-854 110,-854"/>
<text text-anchor="start" x="156.7175" y="-867" font-family="Helvetica,sans-Serif" font-size="10.00" fill="#000000">Message</text>
<polygon fill="none" stroke="#000000" points="110,-690 110,-854 244,-854 244,-690 110,-690"/>
<text text-anchor="start" x="140.3265" y="-835" font-family="Helvetica,sans-Serif" font-size="10.00" fill="#000000">server_side:bool</text>
<text text-anchor="start" x="137.543" y="-823" font-family="Helvetica,sans-Serif" font-size="10.00" fill="#000000">header_valid:bool</text>
<text text-anchor="start" x="130.314" y="-811" font-family="Helvetica,sans-Serif" font-size="10.00" fill="#000000">header_len:unsigned</text>
<text text-anchor="start" x="136.148" y="-799" font-family="Helvetica,sans-Serif" font-size="10.00" fill="#000000">data_len:unsigned</text>
<text text-anchor="start" x="155.3245" y="-787" font-family="Helvetica,sans-Serif" font-size="10.00" fill="#000000">unique_id</text>
<text text-anchor="start" x="159.2135" y="-775" font-family="Helvetica,sans-Serif" font-size="10.00" fill="#000000">node_id</text>
<text text-anchor="start" x="156.1585" y="-763" font-family="Helvetica,sans-Serif" font-size="10.00" fill="#000000">sug_area</text>
<text text-anchor="start" x="126.989" y="-751" font-family="Helvetica,sans-Serif" font-size="10.00" fill="#000000">_recv_buffer:bytearray</text>
<text text-anchor="start" x="125.5945" y="-739" font-family="Helvetica,sans-Serif" font-size="10.00" fill="#000000">_send_buffer:bytearray</text>
<text text-anchor="start" x="119.7665" y="-727" font-family="Helvetica,sans-Serif" font-size="10.00" fill="#000000">_forward_buffer:bytearray</text>
<text text-anchor="start" x="159.2135" y="-715" font-family="Helvetica,sans-Serif" font-size="10.00" fill="#000000">db:Infos</text>
<text text-anchor="start" x="147.826" y="-703" font-family="Helvetica,sans-Serif" font-size="10.00" fill="#000000">new_data:list</text>
<polygon fill="none" stroke="#000000" points="110,-622 110,-690 244,-690 244,-622 110,-622"/>
<text text-anchor="start" x="126.7095" y="-671" font-family="Helvetica,sans-Serif" font-size="10.00" fill="#000000">_read():void&lt;abstract&gt;</text>
<text text-anchor="start" x="151.4445" y="-659" font-family="Helvetica,sans-Serif" font-size="10.00" fill="#000000">close():void</text>
<text text-anchor="start" x="137.2725" y="-647" font-family="Helvetica,sans-Serif" font-size="10.00" fill="#000000">inc_counter():void</text>
<text text-anchor="start" x="135.6025" y="-635" font-family="Helvetica,sans-Serif" font-size="10.00" fill="#000000">dec_counter():void</text>
</g>
<!-- A1&#45;&gt;A2 -->
<g id="edge1" class="edge">
<title>A1&#45;&gt;A2</title>
<path fill="none" stroke="#000000" d="M177,-925.5789C177,-913.4616 177,-900.0319 177,-886.1761"/>
<polygon fill="none" stroke="#000000" points="173.5001,-925.8673 177,-935.8673 180.5001,-925.8673 173.5001,-925.8673"/>
</g>
<!-- A3 -->
<g id="node4" class="node">
<title>A3</title>
<polygon fill="none" stroke="#000000" points="0,-540 0,-572 114,-572 114,-540 0,-540"/>
<text text-anchor="start" x="43.108" y="-553" font-family="Helvetica,sans-Serif" font-size="10.00" fill="#000000">Talent</text>
<polygon fill="none" stroke="#000000" points="0,-460 0,-540 114,-540 114,-460 0,-460"/>
<text text-anchor="start" x="9.763" y="-521" font-family="Helvetica,sans-Serif" font-size="10.00" fill="#000000">await_conn_resp_cnt</text>
<text text-anchor="start" x="44.7775" y="-509" font-family="Helvetica,sans-Serif" font-size="10.00" fill="#000000">id_str</text>
<text text-anchor="start" x="25.6" y="-497" font-family="Helvetica,sans-Serif" font-size="10.00" fill="#000000">contact_name</text>
<text text-anchor="start" x="28.94" y="-485" font-family="Helvetica,sans-Serif" font-size="10.00" fill="#000000">contact_mail</text>
<text text-anchor="start" x="43.112" y="-473" font-family="Helvetica,sans-Serif" font-size="10.00" fill="#000000">switch</text>
<polygon fill="none" stroke="#000000" points="0,-344 0,-460 114,-460 114,-344 0,-344"/>
<text text-anchor="start" x="14.4925" y="-441" font-family="Helvetica,sans-Serif" font-size="10.00" fill="#000000">msg_contact_info()</text>
<text text-anchor="start" x="16.4325" y="-429" font-family="Helvetica,sans-Serif" font-size="10.00" fill="#000000">msg_ota_update()</text>
<text text-anchor="start" x="22.2765" y="-417" font-family="Helvetica,sans-Serif" font-size="10.00" fill="#000000">msg_get_time()</text>
<text text-anchor="start" x="10.3285" y="-405" font-family="Helvetica,sans-Serif" font-size="10.00" fill="#000000">msg_collector_data()</text>
<text text-anchor="start" x="12.2735" y="-393" font-family="Helvetica,sans-Serif" font-size="10.00" fill="#000000">msg_inverter_data()</text>
<text text-anchor="start" x="21.4405" y="-381" font-family="Helvetica,sans-Serif" font-size="10.00" fill="#000000">msg_unknown()</text>
<text text-anchor="start" x="42.0025" y="-357" font-family="Helvetica,sans-Serif" font-size="10.00" fill="#000000">close()</text>
</g>
<!-- A2&#45;&gt;A3 -->
<g id="edge2" class="edge">
<title>A2&#45;&gt;A3</title>
<path fill="none" stroke="#000000" d="M119.5529,-612.2971C114.1051,-598.8592 108.6292,-585.352 103.3053,-572.2197"/>
<polygon fill="none" stroke="#000000" points="116.317,-613.6312 123.3177,-621.5837 122.8042,-611.0013 116.317,-613.6312"/>
</g>
<!-- A4 -->
<g id="node5" class="node">
<title>A4</title>
<polygon fill="none" stroke="#000000" points="253,-504 253,-536 344,-536 344,-504 253,-504"/>
<text text-anchor="start" x="270.995" y="-517" font-family="Helvetica,sans-Serif" font-size="10.00" fill="#000000">SolarmanV5</text>
<polygon fill="none" stroke="#000000" points="253,-436 253,-504 344,-504 344,-436 253,-436"/>
<text text-anchor="start" x="283.498" y="-485" font-family="Helvetica,sans-Serif" font-size="10.00" fill="#000000">control</text>
<text text-anchor="start" x="286.5575" y="-473" font-family="Helvetica,sans-Serif" font-size="10.00" fill="#000000">serial</text>
<text text-anchor="start" x="291.556" y="-461" font-family="Helvetica,sans-Serif" font-size="10.00" fill="#000000">snr</text>
<text text-anchor="start" x="284.612" y="-449" font-family="Helvetica,sans-Serif" font-size="10.00" fill="#000000">switch</text>
<polygon fill="none" stroke="#000000" points="253,-380 253,-436 344,-436 344,-380 253,-380"/>
<text text-anchor="start" x="262.9405" y="-417" font-family="Helvetica,sans-Serif" font-size="10.00" fill="#000000">msg_unknown()</text>
<text text-anchor="start" x="283.5025" y="-393" font-family="Helvetica,sans-Serif" font-size="10.00" fill="#000000">close()</text>
</g>
<!-- A2&#45;&gt;A4 -->
<g id="edge3" class="edge">
<title>A2&#45;&gt;A4</title>
<path fill="none" stroke="#000000" d="M234.9214,-612.3079C245.6604,-586.0373 256.508,-559.5012 266.1073,-536.0185"/>
<polygon fill="none" stroke="#000000" points="231.6738,-611.0028 231.1297,-621.5837 238.1534,-613.6516 231.6738,-611.0028"/>
</g>
<!-- A5 -->
<g id="node6" class="node">
<title>A5</title>
<polygon fill="none" stroke="#000000" points="11,-248 11,-280 103,-280 103,-248 11,-248"/>
<text text-anchor="start" x="20.605" y="-261" font-family="Helvetica,sans-Serif" font-size="10.00" fill="#000000">AsyncStreamG3</text>
<polygon fill="none" stroke="#000000" points="11,-216 11,-248 103,-248 103,-216 11,-216"/>
<text text-anchor="start" x="25.331" y="-229" font-family="Helvetica,sans-Serif" font-size="10.00" fill="#000000">remoteStream</text>
<polygon fill="none" stroke="#000000" points="11,-184 11,-216 103,-216 103,-184 11,-184"/>
<text text-anchor="start" x="42.0025" y="-197" font-family="Helvetica,sans-Serif" font-size="10.00" fill="#000000">close()</text>
</g>
<!-- A3&#45;&gt;A5 -->
<g id="edge4" class="edge">
<title>A3&#45;&gt;A5</title>
<path fill="none" stroke="#000000" d="M57,-333.4356C57,-314.4985 57,-295.9992 57,-280.0952"/>
<polygon fill="none" stroke="#000000" points="53.5001,-333.6758 57,-343.6758 60.5001,-333.6758 53.5001,-333.6758"/>
</g>
<!-- A6 -->
<g id="node7" class="node">
<title>A6</title>
<polygon fill="none" stroke="#000000" points="248,-248 248,-280 347,-280 347,-248 248,-248"/>
<text text-anchor="start" x="257.7705" y="-261" font-family="Helvetica,sans-Serif" font-size="10.00" fill="#000000">AsyncStreamG3P</text>
<polygon fill="none" stroke="#000000" points="248,-216 248,-248 347,-248 347,-216 248,-216"/>
<text text-anchor="start" x="265.831" y="-229" font-family="Helvetica,sans-Serif" font-size="10.00" fill="#000000">remoteStream</text>
<polygon fill="none" stroke="#000000" points="248,-184 248,-216 347,-216 347,-184 248,-184"/>
<text text-anchor="start" x="282.5025" y="-197" font-family="Helvetica,sans-Serif" font-size="10.00" fill="#000000">close()</text>
</g>
<!-- A4&#45;&gt;A6 -->
<g id="edge5" class="edge">
<title>A4&#45;&gt;A6</title>
<path fill="none" stroke="#000000" d="M297.6092,-369.6759C297.4743,-339.1814 297.3282,-306.1664 297.2129,-280.1125"/>
<polygon fill="none" stroke="#000000" points="294.1101,-369.9228 297.6545,-379.9072 301.1101,-369.8917 294.1101,-369.9228"/>
</g>
<!-- A9 -->
<g id="node10" class="node">
<title>A9</title>
<polygon fill="none" stroke="#000000" points="52,-88 52,-120 168,-120 168,-88 52,-88"/>
<text text-anchor="start" x="86.3845" y="-101" font-family="Helvetica,sans-Serif" font-size="10.00" fill="#000000">InverterG3</text>
<polygon fill="none" stroke="#000000" points="52,-68 52,-88 168,-88 168,-68 52,-68"/>
<polygon fill="none" stroke="#000000" points="52,0 52,-68 168,-68 168,0 52,0"/>
<text text-anchor="start" x="61.6575" y="-49" font-family="Helvetica,sans-Serif" font-size="10.00" fill="#000000">&lt;async&gt;server_loop()</text>
<text text-anchor="start" x="63.878" y="-37" font-family="Helvetica,sans-Serif" font-size="10.00" fill="#000000">&lt;async&gt;client_loop()</text>
<text text-anchor="start" x="95.0025" y="-13" font-family="Helvetica,sans-Serif" font-size="10.00" fill="#000000">close()</text>
</g>
<!-- A5&#45;&gt;A9 -->
<g id="edge10" class="edge">
<title>A5&#45;&gt;A9</title>
<path fill="none" stroke="#000000" d="M74.9622,-173.7074C80.2686,-156.487 86.0862,-137.607 91.43,-120.2648"/>
<polygon fill="none" stroke="#000000" points="71.5045,-173.0434 71.9045,-183.6307 78.1941,-175.1048 71.5045,-173.0434"/>
</g>
<!-- A10 -->
<g id="node11" class="node">
<title>A10</title>
<polygon fill="none" stroke="#000000" points="212,-82 212,-114 328,-114 328,-82 212,-82"/>
<text text-anchor="start" x="243.05" y="-95" font-family="Helvetica,sans-Serif" font-size="10.00" fill="#000000">InverterG3P</text>
<polygon fill="none" stroke="#000000" points="212,-62 212,-82 328,-82 328,-62 212,-62"/>
<polygon fill="none" stroke="#000000" points="212,-6 212,-62 328,-62 328,-6 212,-6"/>
<text text-anchor="start" x="221.6575" y="-43" font-family="Helvetica,sans-Serif" font-size="10.00" fill="#000000">&lt;async&gt;server_loop()</text>
<text text-anchor="start" x="255.0025" y="-19" font-family="Helvetica,sans-Serif" font-size="10.00" fill="#000000">close()</text>
</g>
<!-- A6&#45;&gt;A10 -->
<g id="edge11" class="edge">
<title>A6&#45;&gt;A10</title>
<path fill="none" stroke="#000000" d="M287.8555,-173.7465C284.8241,-154.4349 281.4645,-133.0328 278.4848,-114.0513"/>
<polygon fill="none" stroke="#000000" points="284.3986,-174.2945 289.4071,-183.6307 291.3139,-173.2089 284.3986,-174.2945"/>
</g>
<!-- A7 -->
<g id="node8" class="node">
<title>A7</title>
<polygon fill="none" stroke="#000000" points="132,-534 132,-566 234,-566 234,-534 132,-534"/>
<text text-anchor="start" x="153.274" y="-547" font-family="Helvetica,sans-Serif" font-size="10.00" fill="#000000">AsyncStream</text>
<polygon fill="none" stroke="#000000" points="132,-454 132,-534 234,-534 234,-454 132,-454"/>
<text text-anchor="start" x="168.553" y="-515" font-family="Helvetica,sans-Serif" font-size="10.00" fill="#000000">reader</text>
<text text-anchor="start" x="170.783" y="-503" font-family="Helvetica,sans-Serif" font-size="10.00" fill="#000000">writer</text>
<text text-anchor="start" x="172.997" y="-491" font-family="Helvetica,sans-Serif" font-size="10.00" fill="#000000">addr</text>
<text text-anchor="start" x="168.553" y="-479" font-family="Helvetica,sans-Serif" font-size="10.00" fill="#000000">r_addr</text>
<text text-anchor="start" x="169.108" y="-467" font-family="Helvetica,sans-Serif" font-size="10.00" fill="#000000">l_addr</text>
<polygon fill="none" stroke="#000000" points="132,-350 132,-454 234,-454 234,-350 132,-350"/>
<text text-anchor="start" x="154.654" y="-435" font-family="Helvetica,sans-Serif" font-size="10.00" fill="#000000">&lt;async&gt;loop</text>
<text text-anchor="start" x="170.782" y="-423" font-family="Helvetica,sans-Serif" font-size="10.00" fill="#000000">disc()</text>
<text text-anchor="start" x="168.0025" y="-411" font-family="Helvetica,sans-Serif" font-size="10.00" fill="#000000">close()</text>
<text text-anchor="start" x="148.2705" y="-387" font-family="Helvetica,sans-Serif" font-size="10.00" fill="#000000">__async_read()</text>
<text text-anchor="start" x="147.721" y="-375" font-family="Helvetica,sans-Serif" font-size="10.00" fill="#000000">__async_write()</text>
<text text-anchor="start" x="141.607" y="-363" font-family="Helvetica,sans-Serif" font-size="10.00" fill="#000000">__async_forward()</text>
</g>
<!-- A7&#45;&gt;A5 -->
<g id="edge6" class="edge">
<title>A7&#45;&gt;A5</title>
<path fill="none" stroke="#000000" d="M127.0217,-351.2575C125.6741,-348.8121 124.3322,-346.3901 123,-344 111.2427,-322.9061 97.7837,-299.8792 86.0995,-280.2202"/>
<polygon fill="none" stroke="#000000" points="124.0455,-353.1097 131.9191,-360.199 130.1849,-349.747 124.0455,-353.1097"/>
</g>
<!-- A7&#45;&gt;A6 -->
<g id="edge7" class="edge">
<title>A7&#45;&gt;A6</title>
<path fill="none" stroke="#000000" d="M238.7431,-347.4918C250.7108,-323.7664 262.7524,-299.8944 272.7562,-280.0622"/>
<polygon fill="none" stroke="#000000" points="235.5432,-346.0641 234.1644,-356.5689 241.7931,-349.2168 235.5432,-346.0641"/>
</g>
<!-- A8 -->
<g id="node9" class="node">
<title>A8</title>
<polygon fill="none" stroke="#000000" points="121,-262 121,-294 229,-294 229,-262 121,-262"/>
<text text-anchor="start" x="158.0535" y="-275" font-family="Helvetica,sans-Serif" font-size="10.00" fill="#000000">Inverter</text>
<polygon fill="none" stroke="#000000" points="121,-170 121,-262 229,-262 229,-170 121,-170"/>
<text text-anchor="start" x="151.104" y="-243" font-family="Helvetica,sans-Serif" font-size="10.00" fill="#000000">cls.db_stat</text>
<text text-anchor="start" x="144.4405" y="-231" font-family="Helvetica,sans-Serif" font-size="10.00" fill="#000000">cls.entity_prfx</text>
<text text-anchor="start" x="135.2755" y="-219" font-family="Helvetica,sans-Serif" font-size="10.00" fill="#000000">cls.discovery_prfx</text>
<text text-anchor="start" x="134.7115" y="-207" font-family="Helvetica,sans-Serif" font-size="10.00" fill="#000000">cls.proxy_node_id</text>
<text text-anchor="start" x="130.8225" y="-195" font-family="Helvetica,sans-Serif" font-size="10.00" fill="#000000">cls.proxy_unique_id</text>
<text text-anchor="start" x="157.778" y="-183" font-family="Helvetica,sans-Serif" font-size="10.00" fill="#000000">cls.mqtt</text>
</g>
<!-- A8&#45;&gt;A9 -->
<g id="edge8" class="edge">
<title>A8&#45;&gt;A9</title>
<path fill="none" stroke="#000000" d="M147.9081,-160.3107C142.8762,-146.9956 137.6664,-133.2096 132.7795,-120.2781"/>
<polygon fill="none" stroke="#000000" points="144.7244,-161.787 151.5335,-169.9041 151.2724,-159.3124 144.7244,-161.787"/>
</g>
<!-- A8&#45;&gt;A10 -->
<g id="edge9" class="edge">
<title>A8&#45;&gt;A10</title>
<path fill="none" stroke="#000000" d="M214.3282,-160.7953C222.961,-145.1654 231.9651,-128.8632 240.1532,-114.0384"/>
<polygon fill="none" stroke="#000000" points="211.0683,-159.4583 209.2972,-169.9041 217.1958,-162.8427 211.0683,-159.4583"/>
</g>
</g>
</svg>
