<?xml version="1.0" encoding="UTF-8" standalone="no"?>
<!DOCTYPE svg PUBLIC "-//W3C//DTD SVG 1.1//EN"
 "http://www.w3.org/Graphics/SVG/1.1/DTD/svg11.dtd">
<!-- Generated by graphviz version 2.40.1 (20161225.0304)
 -->
<!-- Title: G Pages: 1 -->
<svg width="346pt" height="1028pt"
 viewBox="0.00 0.00 345.85 1028.00" xmlns="http://www.w3.org/2000/svg" xmlns:xlink="http://www.w3.org/1999/xlink">
<g id="graph0" class="graph" transform="scale(1 1) rotate(0) translate(4 1024)">
<title>G</title>
<polygon fill="#ffffff" stroke="transparent" points="-4,4 -4,-1024 341.848,-1024 341.848,4 -4,4"/>
<!-- A0 -->
<g id="node1" class="node">
<title>A0</title>
<polygon fill="#fff8dc" stroke="#000000" points="108.5444,-996 .1516,-996 .1516,-960 114.5444,-960 114.5444,-990 108.5444,-996"/>
<polyline fill="none" stroke="#000000" points="108.5444,-996 108.5444,-990 "/>
<polyline fill="none" stroke="#000000" points="114.5444,-990 108.5444,-990 "/>
<text text-anchor="middle" x="57.348" y="-981" font-family="Helvetica,sans-Serif" font-size="10.00" fill="#000000">You can stick notes</text>
<text text-anchor="middle" x="57.348" y="-969" font-family="Helvetica,sans-Serif" font-size="10.00" fill="#000000">on diagrams too!</text>
</g>
<!-- A1 -->
<g id="node2" class="node">
<title>A1</title>
<polygon fill="none" stroke="#000000" points="133.348,-988 133.348,-1020 204.348,-1020 204.348,-988 133.348,-988"/>
<text text-anchor="start" x="143.293" y="-1001" font-family="Helvetica,sans-Serif" font-size="10.00" fill="#000000">IterRegistry</text>
<polygon fill="none" stroke="#000000" points="133.348,-968 133.348,-988 204.348,-988 204.348,-968 133.348,-968"/>
<polygon fill="none" stroke="#000000" points="133.348,-936 133.348,-968 204.348,-968 204.348,-936 133.348,-936"/>
<text text-anchor="start" x="150.787" y="-949" font-family="Helvetica,sans-Serif" font-size="10.00" fill="#000000">__iter__</text>
</g>
<!-- A2 -->
<g id="node3" class="node">
<title>A2</title>
<polygon fill="none" stroke="#000000" points="101.348,-854 101.348,-886 235.348,-886 235.348,-854 101.348,-854"/>
<text text-anchor="start" x="148.0655" y="-867" font-family="Helvetica,sans-Serif" font-size="10.00" fill="#000000">Message</text>
<polygon fill="none" stroke="#000000" points="101.348,-690 101.348,-854 235.348,-854 235.348,-690 101.348,-690"/>
<text text-anchor="start" x="131.6745" y="-835" font-family="Helvetica,sans-Serif" font-size="10.00" fill="#000000">server_side:bool</text>
<text text-anchor="start" x="128.891" y="-823" font-family="Helvetica,sans-Serif" font-size="10.00" fill="#000000">header_valid:bool</text>
<text text-anchor="start" x="121.662" y="-811" font-family="Helvetica,sans-Serif" font-size="10.00" fill="#000000">header_len:unsigned</text>
<text text-anchor="start" x="127.496" y="-799" font-family="Helvetica,sans-Serif" font-size="10.00" fill="#000000">data_len:unsigned</text>
<text text-anchor="start" x="146.6725" y="-787" font-family="Helvetica,sans-Serif" font-size="10.00" fill="#000000">unique_id</text>
<text text-anchor="start" x="150.5615" y="-775" font-family="Helvetica,sans-Serif" font-size="10.00" fill="#000000">node_id</text>
<text text-anchor="start" x="147.5065" y="-763" font-family="Helvetica,sans-Serif" font-size="10.00" fill="#000000">sug_area</text>
<text text-anchor="start" x="118.337" y="-751" font-family="Helvetica,sans-Serif" font-size="10.00" fill="#000000">_recv_buffer:bytearray</text>
<text text-anchor="start" x="116.9425" y="-739" font-family="Helvetica,sans-Serif" font-size="10.00" fill="#000000">_send_buffer:bytearray</text>
<text text-anchor="start" x="111.1145" y="-727" font-family="Helvetica,sans-Serif" font-size="10.00" fill="#000000">_forward_buffer:bytearray</text>
<text text-anchor="start" x="150.5615" y="-715" font-family="Helvetica,sans-Serif" font-size="10.00" fill="#000000">db:Infos</text>
<text text-anchor="start" x="139.174" y="-703" font-family="Helvetica,sans-Serif" font-size="10.00" fill="#000000">new_data:list</text>
<polygon fill="none" stroke="#000000" points="101.348,-622 101.348,-690 235.348,-690 235.348,-622 101.348,-622"/>
<text text-anchor="start" x="118.0575" y="-671" font-family="Helvetica,sans-Serif" font-size="10.00" fill="#000000">_read():void&lt;abstract&gt;</text>
<text text-anchor="start" x="142.7925" y="-659" font-family="Helvetica,sans-Serif" font-size="10.00" fill="#000000">close():void</text>
<text text-anchor="start" x="128.6205" y="-647" font-family="Helvetica,sans-Serif" font-size="10.00" fill="#000000">inc_counter():void</text>
<text text-anchor="start" x="126.9505" y="-635" font-family="Helvetica,sans-Serif" font-size="10.00" fill="#000000">dec_counter():void</text>
</g>
<!-- A1&#45;&gt;A2 -->
<g id="edge1" class="edge">
<title>A1&#45;&gt;A2</title>
<path fill="none" stroke="#000000" d="M168.348,-925.5789C168.348,-913.4616 168.348,-900.0319 168.348,-886.1761"/>
<polygon fill="none" stroke="#000000" points="164.8481,-925.8673 168.348,-935.8673 171.8481,-925.8673 164.8481,-925.8673"/>
</g>
<!-- A3 -->
<g id="node4" class="node">
<title>A3</title>
<polygon fill="none" stroke="#000000" points="2.348,-540 2.348,-572 116.348,-572 116.348,-540 2.348,-540"/>
<text text-anchor="start" x="45.456" y="-553" font-family="Helvetica,sans-Serif" font-size="10.00" fill="#000000">Talent</text>
<polygon fill="none" stroke="#000000" points="2.348,-460 2.348,-540 116.348,-540 116.348,-460 2.348,-460"/>
<text text-anchor="start" x="12.111" y="-521" font-family="Helvetica,sans-Serif" font-size="10.00" fill="#000000">await_conn_resp_cnt</text>
<text text-anchor="start" x="47.1255" y="-509" font-family="Helvetica,sans-Serif" font-size="10.00" fill="#000000">id_str</text>
<text text-anchor="start" x="27.948" y="-497" font-family="Helvetica,sans-Serif" font-size="10.00" fill="#000000">contact_name</text>
<text text-anchor="start" x="31.288" y="-485" font-family="Helvetica,sans-Serif" font-size="10.00" fill="#000000">contact_mail</text>
<text text-anchor="start" x="45.46" y="-473" font-family="Helvetica,sans-Serif" font-size="10.00" fill="#000000">switch</text>
<polygon fill="none" stroke="#000000" points="2.348,-344 2.348,-460 116.348,-460 116.348,-344 2.348,-344"/>
<text text-anchor="start" x="16.8405" y="-441" font-family="Helvetica,sans-Serif" font-size="10.00" fill="#000000">msg_contact_info()</text>
<text text-anchor="start" x="18.7805" y="-429" font-family="Helvetica,sans-Serif" font-size="10.00" fill="#000000">msg_ota_update()</text>
<text text-anchor="start" x="24.6245" y="-417" font-family="Helvetica,sans-Serif" font-size="10.00" fill="#000000">msg_get_time()</text>
<text text-anchor="start" x="12.6765" y="-405" font-family="Helvetica,sans-Serif" font-size="10.00" fill="#000000">msg_collector_data()</text>
<text text-anchor="start" x="14.6215" y="-393" font-family="Helvetica,sans-Serif" font-size="10.00" fill="#000000">msg_inverter_data()</text>
<text text-anchor="start" x="23.7885" y="-381" font-family="Helvetica,sans-Serif" font-size="10.00" fill="#000000">msg_unknown()</text>
<text text-anchor="start" x="44.3505" y="-357" font-family="Helvetica,sans-Serif" font-size="10.00" fill="#000000">close()</text>
</g>
<!-- A2&#45;&gt;A3 -->
<g id="edge2" class="edge">
<title>A2&#45;&gt;A3</title>
<path fill="none" stroke="#000000" d="M116.0241,-611.9094C111.1228,-598.5995 106.198,-585.2257 101.4086,-572.2197"/>
<polygon fill="none" stroke="#000000" points="112.8465,-613.4092 119.5866,-621.5837 119.4153,-610.9902 112.8465,-613.4092"/>
</g>
<!-- A4 -->
<g id="node5" class="node">
<title>A4</title>
<polygon fill="none" stroke="#000000" points="240.348,-504 240.348,-536 331.348,-536 331.348,-504 240.348,-504"/>
<text text-anchor="start" x="258.343" y="-517" font-family="Helvetica,sans-Serif" font-size="10.00" fill="#000000">SolarmanV5</text>
<polygon fill="none" stroke="#000000" points="240.348,-436 240.348,-504 331.348,-504 331.348,-436 240.348,-436"/>
<text text-anchor="start" x="270.846" y="-485" font-family="Helvetica,sans-Serif" font-size="10.00" fill="#000000">control</text>
<text text-anchor="start" x="273.9055" y="-473" font-family="Helvetica,sans-Serif" font-size="10.00" fill="#000000">serial</text>
<text text-anchor="start" x="278.904" y="-461" font-family="Helvetica,sans-Serif" font-size="10.00" fill="#000000">snr</text>
<text text-anchor="start" x="271.96" y="-449" font-family="Helvetica,sans-Serif" font-size="10.00" fill="#000000">switch</text>
<polygon fill="none" stroke="#000000" points="240.348,-380 240.348,-436 331.348,-436 331.348,-380 240.348,-380"/>
<text text-anchor="start" x="250.2885" y="-417" font-family="Helvetica,sans-Serif" font-size="10.00" fill="#000000">msg_unknown()</text>
<text text-anchor="start" x="270.8505" y="-393" font-family="Helvetica,sans-Serif" font-size="10.00" fill="#000000">close()</text>
</g>
<!-- A2&#45;&gt;A4 -->
<g id="edge3" class="edge">
<title>A2&#45;&gt;A4</title>
<path fill="none" stroke="#000000" d="M224.4907,-611.9638C234.8302,-585.8056 245.2681,-559.3986 254.5096,-536.0185"/>
<polygon fill="none" stroke="#000000" points="221.1093,-610.9972 220.6882,-621.5837 227.6192,-613.5704 221.1093,-610.9972"/>
</g>
<!-- A5 -->
<g id="node6" class="node">
<title>A5</title>
<polygon fill="none" stroke="#000000" points="2.348,-248 2.348,-280 94.348,-280 94.348,-248 2.348,-248"/>
<text text-anchor="start" x="11.953" y="-261" font-family="Helvetica,sans-Serif" font-size="10.00" fill="#000000">AsyncStreamG3</text>
<polygon fill="none" stroke="#000000" points="2.348,-216 2.348,-248 94.348,-248 94.348,-216 2.348,-216"/>
<text text-anchor="start" x="16.679" y="-229" font-family="Helvetica,sans-Serif" font-size="10.00" fill="#000000">remoteStream</text>
<polygon fill="none" stroke="#000000" points="2.348,-184 2.348,-216 94.348,-216 94.348,-184 2.348,-184"/>
<text text-anchor="start" x="33.3505" y="-197" font-family="Helvetica,sans-Serif" font-size="10.00" fill="#000000">close()</text>
</g>
<!-- A3&#45;&gt;A5 -->
<g id="edge4" class="edge">
<title>A3&#45;&gt;A5</title>
<path fill="none" stroke="#000000" d="M53.2851,-333.4356C52.3634,-314.4985 51.463,-295.9992 50.6889,-280.0952"/>
<polygon fill="none" stroke="#000000" points="49.8014,-333.8578 53.7835,-343.6758 56.7932,-333.5174 49.8014,-333.8578"/>
</g>
<!-- A6 -->
<g id="node7" class="node">
<title>A6</title>
<polygon fill="none" stroke="#000000" points="239.348,-232 239.348,-264 338.348,-264 338.348,-232 239.348,-232"/>
<text text-anchor="start" x="249.1185" y="-245" font-family="Helvetica,sans-Serif" font-size="10.00" fill="#000000">AsyncStreamG3P</text>
<polygon fill="none" stroke="#000000" points="239.348,-200 239.348,-232 338.348,-232 338.348,-200 239.348,-200"/>
<text text-anchor="start" x="273.8505" y="-213" font-family="Helvetica,sans-Serif" font-size="10.00" fill="#000000">close()</text>
</g>
<!-- A4&#45;&gt;A6 -->
<g id="edge5" class="edge">
<title>A4&#45;&gt;A6</title>
<path fill="none" stroke="#000000" d="M286.5221,-369.5504C287.0148,-332.4316 287.5569,-291.5991 287.9213,-264.1417"/>
<polygon fill="none" stroke="#000000" points="283.0178,-369.8616 286.3846,-379.9072 290.0171,-369.9545 283.0178,-369.8616"/>
</g>
<!-- A9 -->
<g id="node10" class="node">
<title>A9</title>
<polygon fill="none" stroke="#000000" points="43.348,-88 43.348,-120 159.348,-120 159.348,-88 43.348,-88"/>
<text text-anchor="start" x="77.7325" y="-101" font-family="Helvetica,sans-Serif" font-size="10.00" fill="#000000">InverterG3</text>
<polygon fill="none" stroke="#000000" points="43.348,-68 43.348,-88 159.348,-88 159.348,-68 43.348,-68"/>
<polygon fill="none" stroke="#000000" points="43.348,0 43.348,-68 159.348,-68 159.348,0 43.348,0"/>
<text text-anchor="start" x="53.0055" y="-49" font-family="Helvetica,sans-Serif" font-size="10.00" fill="#000000">&lt;async&gt;server_loop()</text>
<text text-anchor="start" x="55.226" y="-37" font-family="Helvetica,sans-Serif" font-size="10.00" fill="#000000">&lt;async&gt;client_loop()</text>
<text text-anchor="start" x="86.3505" y="-13" font-family="Helvetica,sans-Serif" font-size="10.00" fill="#000000">close()</text>
</g>
<!-- A5&#45;&gt;A9 -->
<g id="edge10" class="edge">
<title>A5&#45;&gt;A9</title>
<path fill="none" stroke="#000000" d="M66.3102,-173.7074C71.6166,-156.487 77.4342,-137.607 82.778,-120.2648"/>
<polygon fill="none" stroke="#000000" points="62.8525,-173.0434 63.2525,-183.6307 69.5421,-175.1048 62.8525,-173.0434"/>
</g>
<!-- A10 -->
<g id="node11" class="node">
<title>A10</title>
<polygon fill="none" stroke="#000000" points="203.348,-82 203.348,-114 319.348,-114 319.348,-82 203.348,-82"/>
<text text-anchor="start" x="234.398" y="-95" font-family="Helvetica,sans-Serif" font-size="10.00" fill="#000000">InverterG3P</text>
<polygon fill="none" stroke="#000000" points="203.348,-62 203.348,-82 319.348,-82 319.348,-62 203.348,-62"/>
<polygon fill="none" stroke="#000000" points="203.348,-6 203.348,-62 319.348,-62 319.348,-6 203.348,-6"/>
<text text-anchor="start" x="213.0055" y="-43" font-family="Helvetica,sans-Serif" font-size="10.00" fill="#000000">&lt;async&gt;server_loop()</text>
<text text-anchor="start" x="246.3505" y="-19" font-family="Helvetica,sans-Serif" font-size="10.00" fill="#000000">close()</text>
</g>
<!-- A6&#45;&gt;A10 -->
<g id="edge11" class="edge">
<title>A6&#45;&gt;A10</title>
<path fill="none" stroke="#000000" d="M281.6942,-189.6127C278.1205,-166.8473 273.6765,-138.5372 269.8542,-114.1876"/>
<polygon fill="none" stroke="#000000" points="278.261,-190.3119 283.2695,-199.6481 285.1763,-189.2263 278.261,-190.3119"/>
</g>
<!-- A7 -->
<g id="node8" class="node">
<title>A7</title>
<polygon fill="none" stroke="#000000" points="140.348,-516 140.348,-548 219.348,-548 219.348,-516 140.348,-516"/>
<text text-anchor="start" x="150.122" y="-529" font-family="Helvetica,sans-Serif" font-size="10.00" fill="#000000">AsyncStream</text>
<polygon fill="none" stroke="#000000" points="140.348,-436 140.348,-516 219.348,-516 219.348,-436 140.348,-436"/>
<text text-anchor="start" x="165.401" y="-497" font-family="Helvetica,sans-Serif" font-size="10.00" fill="#000000">reader</text>
<text text-anchor="start" x="167.631" y="-485" font-family="Helvetica,sans-Serif" font-size="10.00" fill="#000000">writer</text>
<text text-anchor="start" x="169.845" y="-473" font-family="Helvetica,sans-Serif" font-size="10.00" fill="#000000">addr</text>
<text text-anchor="start" x="165.401" y="-461" font-family="Helvetica,sans-Serif" font-size="10.00" fill="#000000">r_addr</text>
<text text-anchor="start" x="165.956" y="-449" font-family="Helvetica,sans-Serif" font-size="10.00" fill="#000000">l_addr</text>
<polygon fill="none" stroke="#000000" points="140.348,-368 140.348,-436 219.348,-436 219.348,-368 140.348,-368"/>
<text text-anchor="start" x="151.502" y="-417" font-family="Helvetica,sans-Serif" font-size="10.00" fill="#000000">&lt;async&gt;loop</text>
<text text-anchor="start" x="167.63" y="-393" font-family="Helvetica,sans-Serif" font-size="10.00" fill="#000000">disc()</text>
<text text-anchor="start" x="164.8505" y="-381" font-family="Helvetica,sans-Serif" font-size="10.00" fill="#000000">close()</text>
</g>
<!-- A7&#45;&gt;A5 -->
<g id="edge6" class="edge">
<title>A7&#45;&gt;A5</title>
<path fill="none" stroke="#000000" d="M135.1372,-361.7837C131.9277,-355.7114 128.6514,-349.7384 125.348,-344 112.9282,-322.4252 97.6678,-299.6113 84.0174,-280.2438"/>
<polygon fill="none" stroke="#000000" points="132.0715,-363.4746 139.7872,-370.7354 138.2834,-360.2478 132.0715,-363.4746"/>
</g>
<!-- A7&#45;&gt;A6 -->
<g id="edge7" class="edge">
<title>A7&#45;&gt;A6</title>
<path fill="none" stroke="#000000" d="M223.1641,-361.1831C225.908,-355.357 228.6505,-349.5934 231.348,-344 244.4267,-316.8805 259.9685,-286.4533 271.5173,-264.1651"/>
<polygon fill="none" stroke="#000000" points="219.9309,-359.8343 218.8573,-370.3746 226.2696,-362.8044 219.9309,-359.8343"/>
</g>
<!-- A8 -->
<g id="node9" class="node">
<title>A8</title>
<polygon fill="none" stroke="#000000" points="112.348,-262 112.348,-294 220.348,-294 220.348,-262 112.348,-262"/>
<text text-anchor="start" x="149.4015" y="-275" font-family="Helvetica,sans-Serif" font-size="10.00" fill="#000000">Inverter</text>
<polygon fill="none" stroke="#000000" points="112.348,-170 112.348,-262 220.348,-262 220.348,-170 112.348,-170"/>
<text text-anchor="start" x="142.452" y="-243" font-family="Helvetica,sans-Serif" font-size="10.00" fill="#000000">cls.db_stat</text>
<text text-anchor="start" x="135.7885" y="-231" font-family="Helvetica,sans-Serif" font-size="10.00" fill="#000000">cls.entity_prfx</text>
<text text-anchor="start" x="126.6235" y="-219" font-family="Helvetica,sans-Serif" font-size="10.00" fill="#000000">cls.discovery_prfx</text>
<text text-anchor="start" x="126.0595" y="-207" font-family="Helvetica,sans-Serif" font-size="10.00" fill="#000000">cls.proxy_node_id</text>
<text text-anchor="start" x="122.1705" y="-195" font-family="Helvetica,sans-Serif" font-size="10.00" fill="#000000">cls.proxy_unique_id</text>
<text text-anchor="start" x="149.126" y="-183" font-family="Helvetica,sans-Serif" font-size="10.00" fill="#000000">cls.mqtt</text>
</g>
<!-- A8&#45;&gt;A9 -->
<g id="edge8" class="edge">
<title>A8&#45;&gt;A9</title>
<path fill="none" stroke="#000000" d="M139.2561,-160.3107C134.2242,-146.9956 129.0144,-133.2096 124.1275,-120.2781"/>
<polygon fill="none" stroke="#000000" points="136.0724,-161.787 142.8815,-169.9041 142.6204,-159.3124 136.0724,-161.787"/>
</g>
<!-- A8&#45;&gt;A10 -->
<g id="edge9" class="edge">
<title>A8&#45;&gt;A10</title>
<path fill="none" stroke="#000000" d="M205.6762,-160.7953C214.309,-145.1654 223.3131,-128.8632 231.5012,-114.0384"/>
<polygon fill="none" stroke="#000000" points="202.4163,-159.4583 200.6452,-169.9041 208.5438,-162.8427 202.4163,-159.4583"/>
</g>
</g>
</svg>
