<?xml version="1.0" encoding="UTF-8" standalone="no"?>
<!DOCTYPE svg PUBLIC "-//W3C//DTD SVG 1.1//EN"
 "http://www.w3.org/Graphics/SVG/1.1/DTD/svg11.dtd">
<!-- Generated by graphviz version 2.40.1 (20161225.0304)
 -->
<!-- Title: G Pages: 1 -->
<svg width="927pt" height="1386pt"
 viewBox="0.00 0.00 927.00 1386.00" xmlns="http://www.w3.org/2000/svg" xmlns:xlink="http://www.w3.org/1999/xlink">
<g id="graph0" class="graph" transform="scale(1 1) rotate(0) translate(4 1382)">
<title>G</title>
<polygon fill="#ffffff" stroke="transparent" points="-4,4 -4,-1382 923,-1382 923,4 -4,4"/>
<!-- A0 -->
<g id="node1" class="node">
<title>A0</title>
<polygon fill="#fff8dc" stroke="#000000" points="565.6964,-1354 457.3036,-1354 457.3036,-1318 571.6964,-1318 571.6964,-1348 565.6964,-1354"/>
<polyline fill="none" stroke="#000000" points="565.6964,-1354 565.6964,-1348 "/>
<polyline fill="none" stroke="#000000" points="571.6964,-1348 565.6964,-1348 "/>
<text text-anchor="middle" x="514.5" y="-1339" font-family="Helvetica,sans-Serif" font-size="10.00" fill="#000000">You can stick notes</text>
<text text-anchor="middle" x="514.5" y="-1327" font-family="Helvetica,sans-Serif" font-size="10.00" fill="#000000">on diagrams too!</text>
</g>
<!-- A1 -->
<g id="node2" class="node">
<title>A1</title>
<polygon fill="none" stroke="#000000" points="180.5,-820 180.5,-864 302.5,-864 302.5,-820 180.5,-820"/>
<text text-anchor="start" x="231.777" y="-845" font-family="Helvetica,sans-Serif" font-size="10.00" fill="#000000">Mqtt</text>
<text text-anchor="start" x="208.9815" y="-833" font-family="Helvetica,sans-Serif" font-size="10.00" fill="#000000">&lt;&lt;Singleton&gt;&gt;</text>
<polygon fill="none" stroke="#000000" points="180.5,-764 180.5,-820 302.5,-820 302.5,-764 180.5,-764"/>
<text text-anchor="start" x="198.9875" y="-801" font-family="Helvetica,sans-Serif" font-size="10.00" fill="#000000">&lt;static&gt;ha_restarts</text>
<text text-anchor="start" x="206.7665" y="-789" font-family="Helvetica,sans-Serif" font-size="10.00" fill="#000000">&lt;static&gt;__client</text>
<text text-anchor="start" x="190.3735" y="-777" font-family="Helvetica,sans-Serif" font-size="10.00" fill="#000000">&lt;static&gt;__cb_MqttIsUp</text>
<polygon fill="none" stroke="#000000" points="180.5,-720 180.5,-764 302.5,-764 302.5,-720 180.5,-720"/>
<text text-anchor="start" x="203.436" y="-745" font-family="Helvetica,sans-Serif" font-size="10.00" fill="#000000">&lt;async&gt;publish()</text>
<text text-anchor="start" x="207.6045" y="-733" font-family="Helvetica,sans-Serif" font-size="10.00" fill="#000000">&lt;async&gt;close()</text>
</g>
<!-- A2 -->
<g id="node3" class="node">
<title>A2</title>
<polygon fill="none" stroke="#000000" points="187.5,-482 187.5,-514 295.5,-514 295.5,-482 187.5,-482"/>
<text text-anchor="start" x="224.5535" y="-495" font-family="Helvetica,sans-Serif" font-size="10.00" fill="#000000">Inverter</text>
<polygon fill="none" stroke="#000000" points="187.5,-390 187.5,-482 295.5,-482 295.5,-390 187.5,-390"/>
<text text-anchor="start" x="217.604" y="-463" font-family="Helvetica,sans-Serif" font-size="10.00" fill="#000000">cls.db_stat</text>
<text text-anchor="start" x="210.9405" y="-451" font-family="Helvetica,sans-Serif" font-size="10.00" fill="#000000">cls.entity_prfx</text>
<text text-anchor="start" x="201.7755" y="-439" font-family="Helvetica,sans-Serif" font-size="10.00" fill="#000000">cls.discovery_prfx</text>
<text text-anchor="start" x="201.2115" y="-427" font-family="Helvetica,sans-Serif" font-size="10.00" fill="#000000">cls.proxy_node_id</text>
<text text-anchor="start" x="197.3225" y="-415" font-family="Helvetica,sans-Serif" font-size="10.00" fill="#000000">cls.proxy_unique_id</text>
<text text-anchor="start" x="213.1655" y="-403" font-family="Helvetica,sans-Serif" font-size="10.00" fill="#000000">cls.mqtt:Mqtt</text>
<polygon fill="none" stroke="#000000" points="187.5,-370 187.5,-390 295.5,-390 295.5,-370 187.5,-370"/>
</g>
<!-- A1&#45;&gt;A2 -->
<g id="edge3" class="edge">
<title>A1&#45;&gt;A2</title>
<path fill="none" stroke="#000000" d="M241.5,-709.8039C241.5,-654.5754 241.5,-581.9953 241.5,-526.3277"/>
<polygon fill="#000000" stroke="#000000" points="241.5,-719.9042 237.0001,-709.9041 241.5,-714.9042 241.5001,-709.9042 241.5001,-709.9042 241.5001,-709.9042 241.5,-714.9042 246.0001,-709.9042 241.5,-719.9042 241.5,-719.9042"/>
<polygon fill="#000000" stroke="#000000" points="241.5001,-526.0023 237.5,-520.0023 241.5,-514.0023 245.5,-520.0023 241.5001,-526.0023"/>
</g>
<!-- A3 -->
<g id="node4" class="node">
<title>A3</title>
<polygon fill="none" stroke="#000000" points="142.5,-186 142.5,-218 264.5,-218 264.5,-186 142.5,-186"/>
<text text-anchor="start" x="179.8845" y="-199" font-family="Helvetica,sans-Serif" font-size="10.00" fill="#000000">InverterG3</text>
<polygon fill="none" stroke="#000000" points="142.5,-154 142.5,-186 264.5,-186 264.5,-154 142.5,-154"/>
<text text-anchor="start" x="172.9355" y="-167" font-family="Helvetica,sans-Serif" font-size="10.00" fill="#000000">__ha_restarts</text>
<polygon fill="none" stroke="#000000" points="142.5,-86 142.5,-154 264.5,-154 264.5,-86 142.5,-86"/>
<text text-anchor="start" x="152.1035" y="-135" font-family="Helvetica,sans-Serif" font-size="10.00" fill="#000000">async_create_remote()</text>
<text text-anchor="start" x="162.382" y="-123" font-family="Helvetica,sans-Serif" font-size="10.00" fill="#000000">async_publ_mqtt()</text>
<text text-anchor="start" x="188.5025" y="-99" font-family="Helvetica,sans-Serif" font-size="10.00" fill="#000000">close()</text>
</g>
<!-- A2&#45;&gt;A3 -->
<g id="edge1" class="edge">
<title>A2&#45;&gt;A3</title>
<path fill="none" stroke="#000000" d="M230.7486,-359.9499C224.8735,-315.1138 217.6928,-260.3131 212.1779,-218.2258"/>
<polygon fill="none" stroke="#000000" points="227.2883,-360.4815 232.0579,-369.942 234.2289,-359.572 227.2883,-360.4815"/>
</g>
<!-- A4 -->
<g id="node5" class="node">
<title>A4</title>
<polygon fill="none" stroke="#000000" points="528.5,-180 528.5,-212 647.5,-212 647.5,-180 528.5,-180"/>
<text text-anchor="start" x="561.05" y="-193" font-family="Helvetica,sans-Serif" font-size="10.00" fill="#000000">InverterG3P</text>
<polygon fill="none" stroke="#000000" points="528.5,-148 528.5,-180 647.5,-180 647.5,-148 528.5,-148"/>
<text text-anchor="start" x="557.4355" y="-161" font-family="Helvetica,sans-Serif" font-size="10.00" fill="#000000">__ha_restarts</text>
<polygon fill="none" stroke="#000000" points="528.5,-92 528.5,-148 647.5,-148 647.5,-92 528.5,-92"/>
<text text-anchor="start" x="538.268" y="-129" font-family="Helvetica,sans-Serif" font-size="10.00" fill="#000000">async_create_remote(</text>
<text text-anchor="start" x="545.2175" y="-117" font-family="Helvetica,sans-Serif" font-size="10.00" fill="#000000">)async_publ_mqtt()</text>
<text text-anchor="start" x="573.0025" y="-105" font-family="Helvetica,sans-Serif" font-size="10.00" fill="#000000">close()</text>
</g>
<!-- A2&#45;&gt;A4 -->
<g id="edge2" class="edge">
<title>A2&#45;&gt;A4</title>
<path fill="none" stroke="#000000" d="M253.8698,-359.8546C262.7907,-327.0676 278.1312,-291.5818 304.5,-268 375.3712,-204.6196 428.113,-261.8022 512.5,-218 517.7341,-215.2832 522.9008,-212.1238 527.9257,-208.6874"/>
<polygon fill="none" stroke="#000000" points="250.3809,-359.3724 251.3023,-369.9271 257.164,-361.1015 250.3809,-359.3724"/>
</g>
<!-- A5 -->
<g id="node6" class="node">
<title>A5</title>
<polygon fill="none" stroke="#000000" points="590.5,-1346 590.5,-1378 661.5,-1378 661.5,-1346 590.5,-1346"/>
<text text-anchor="start" x="600.445" y="-1359" font-family="Helvetica,sans-Serif" font-size="10.00" fill="#000000">IterRegistry</text>
<polygon fill="none" stroke="#000000" points="590.5,-1326 590.5,-1346 661.5,-1346 661.5,-1326 590.5,-1326"/>
<polygon fill="none" stroke="#000000" points="590.5,-1294 590.5,-1326 661.5,-1326 661.5,-1294 590.5,-1294"/>
<text text-anchor="start" x="607.939" y="-1307" font-family="Helvetica,sans-Serif" font-size="10.00" fill="#000000">__iter__</text>
</g>
<!-- A6 -->
<g id="node7" class="node">
<title>A6</title>
<polygon fill="none" stroke="#000000" points="558.5,-1212 558.5,-1244 692.5,-1244 692.5,-1212 558.5,-1212"/>
<text text-anchor="start" x="605.2175" y="-1225" font-family="Helvetica,sans-Serif" font-size="10.00" fill="#000000">Message</text>
<polygon fill="none" stroke="#000000" points="558.5,-1036 558.5,-1212 692.5,-1212 692.5,-1036 558.5,-1036"/>
<text text-anchor="start" x="588.8265" y="-1193" font-family="Helvetica,sans-Serif" font-size="10.00" fill="#000000">server_side:bool</text>
<text text-anchor="start" x="586.043" y="-1181" font-family="Helvetica,sans-Serif" font-size="10.00" fill="#000000">header_valid:bool</text>
<text text-anchor="start" x="578.814" y="-1169" font-family="Helvetica,sans-Serif" font-size="10.00" fill="#000000">header_len:unsigned</text>
<text text-anchor="start" x="584.648" y="-1157" font-family="Helvetica,sans-Serif" font-size="10.00" fill="#000000">data_len:unsigned</text>
<text text-anchor="start" x="603.8245" y="-1145" font-family="Helvetica,sans-Serif" font-size="10.00" fill="#000000">unique_id</text>
<text text-anchor="start" x="607.7135" y="-1133" font-family="Helvetica,sans-Serif" font-size="10.00" fill="#000000">node_id</text>
<text text-anchor="start" x="604.6585" y="-1121" font-family="Helvetica,sans-Serif" font-size="10.00" fill="#000000">sug_area</text>
<text text-anchor="start" x="575.489" y="-1109" font-family="Helvetica,sans-Serif" font-size="10.00" fill="#000000">_recv_buffer:bytearray</text>
<text text-anchor="start" x="574.0945" y="-1097" font-family="Helvetica,sans-Serif" font-size="10.00" fill="#000000">_send_buffer:bytearray</text>
<text text-anchor="start" x="568.2665" y="-1085" font-family="Helvetica,sans-Serif" font-size="10.00" fill="#000000">_forward_buffer:bytearray</text>
<text text-anchor="start" x="607.7135" y="-1073" font-family="Helvetica,sans-Serif" font-size="10.00" fill="#000000">db:Infos</text>
<text text-anchor="start" x="596.326" y="-1061" font-family="Helvetica,sans-Serif" font-size="10.00" fill="#000000">new_data:list</text>
<text text-anchor="start" x="614.662" y="-1049" font-family="Helvetica,sans-Serif" font-size="10.00" fill="#000000">state</text>
<polygon fill="none" stroke="#000000" points="558.5,-968 558.5,-1036 692.5,-1036 692.5,-968 558.5,-968"/>
<text text-anchor="start" x="575.2095" y="-1017" font-family="Helvetica,sans-Serif" font-size="10.00" fill="#000000">_read():void&lt;abstract&gt;</text>
<text text-anchor="start" x="599.9445" y="-1005" font-family="Helvetica,sans-Serif" font-size="10.00" fill="#000000">close():void</text>
<text text-anchor="start" x="585.7725" y="-993" font-family="Helvetica,sans-Serif" font-size="10.00" fill="#000000">inc_counter():void</text>
<text text-anchor="start" x="584.1025" y="-981" font-family="Helvetica,sans-Serif" font-size="10.00" fill="#000000">dec_counter():void</text>
</g>
<!-- A5&#45;&gt;A6 -->
<g id="edge4" class="edge">
<title>A5&#45;&gt;A6</title>
<path fill="none" stroke="#000000" d="M625.5,-1283.5582C625.5,-1271.4749 625.5,-1258.067 625.5,-1244.189"/>
<polygon fill="none" stroke="#000000" points="622.0001,-1283.8144 625.5,-1293.8145 629.0001,-1283.8145 622.0001,-1283.8144"/>
</g>
<!-- A15 -->
<g id="node16" class="node">
<title>A15</title>
<polygon fill="none" stroke="#000000" points="356.5,-886 356.5,-918 470.5,-918 470.5,-886 356.5,-886"/>
<text text-anchor="start" x="399.608" y="-899" font-family="Helvetica,sans-Serif" font-size="10.00" fill="#000000">Talent</text>
<polygon fill="none" stroke="#000000" points="356.5,-782 356.5,-886 470.5,-886 470.5,-782 356.5,-782"/>
<text text-anchor="start" x="366.263" y="-867" font-family="Helvetica,sans-Serif" font-size="10.00" fill="#000000">await_conn_resp_cnt</text>
<text text-anchor="start" x="401.2775" y="-855" font-family="Helvetica,sans-Serif" font-size="10.00" fill="#000000">id_str</text>
<text text-anchor="start" x="382.1" y="-843" font-family="Helvetica,sans-Serif" font-size="10.00" fill="#000000">contact_name</text>
<text text-anchor="start" x="385.44" y="-831" font-family="Helvetica,sans-Serif" font-size="10.00" fill="#000000">contact_mail</text>
<text text-anchor="start" x="389.0445" y="-819" font-family="Helvetica,sans-Serif" font-size="10.00" fill="#000000">db:InfosG3</text>
<text text-anchor="start" x="387.384" y="-807" font-family="Helvetica,sans-Serif" font-size="10.00" fill="#000000">mb:Modbus</text>
<text text-anchor="start" x="399.612" y="-795" font-family="Helvetica,sans-Serif" font-size="10.00" fill="#000000">switch</text>
<polygon fill="none" stroke="#000000" points="356.5,-666 356.5,-782 470.5,-782 470.5,-666 356.5,-666"/>
<text text-anchor="start" x="370.9925" y="-763" font-family="Helvetica,sans-Serif" font-size="10.00" fill="#000000">msg_contact_info()</text>
<text text-anchor="start" x="372.9325" y="-751" font-family="Helvetica,sans-Serif" font-size="10.00" fill="#000000">msg_ota_update()</text>
<text text-anchor="start" x="378.7765" y="-739" font-family="Helvetica,sans-Serif" font-size="10.00" fill="#000000">msg_get_time()</text>
<text text-anchor="start" x="366.8285" y="-727" font-family="Helvetica,sans-Serif" font-size="10.00" fill="#000000">msg_collector_data()</text>
<text text-anchor="start" x="368.7735" y="-715" font-family="Helvetica,sans-Serif" font-size="10.00" fill="#000000">msg_inverter_data()</text>
<text text-anchor="start" x="377.9405" y="-703" font-family="Helvetica,sans-Serif" font-size="10.00" fill="#000000">msg_unknown()</text>
<text text-anchor="start" x="398.5025" y="-679" font-family="Helvetica,sans-Serif" font-size="10.00" fill="#000000">close()</text>
</g>
<!-- A6&#45;&gt;A15 -->
<g id="edge21" class="edge">
<title>A6&#45;&gt;A15</title>
<path fill="none" stroke="#000000" d="M552.2302,-1011.4277C540.9417,-996.8789 529.4136,-982.0336 518.5,-968 501.1988,-945.7528 494.7669,-941.6895 479.5,-918 476.4901,-913.3296 473.4995,-908.5069 470.548,-903.5947"/>
<polygon fill="none" stroke="#000000" points="549.5765,-1013.7171 558.4715,-1019.4729 555.1073,-1009.4264 549.5765,-1013.7171"/>
</g>
<!-- A16 -->
<g id="node17" class="node">
<title>A16</title>
<polygon fill="none" stroke="#000000" points="610.5,-850 610.5,-882 701.5,-882 701.5,-850 610.5,-850"/>
<text text-anchor="start" x="628.495" y="-863" font-family="Helvetica,sans-Serif" font-size="10.00" fill="#000000">SolarmanV5</text>
<polygon fill="none" stroke="#000000" points="610.5,-758 610.5,-850 701.5,-850 701.5,-758 610.5,-758"/>
<text text-anchor="start" x="640.998" y="-831" font-family="Helvetica,sans-Serif" font-size="10.00" fill="#000000">control</text>
<text text-anchor="start" x="644.0575" y="-819" font-family="Helvetica,sans-Serif" font-size="10.00" fill="#000000">serial</text>
<text text-anchor="start" x="649.056" y="-807" font-family="Helvetica,sans-Serif" font-size="10.00" fill="#000000">snr</text>
<text text-anchor="start" x="628.21" y="-795" font-family="Helvetica,sans-Serif" font-size="10.00" fill="#000000">db:InfosG3P</text>
<text text-anchor="start" x="629.884" y="-783" font-family="Helvetica,sans-Serif" font-size="10.00" fill="#000000">mb:Modbus</text>
<text text-anchor="start" x="642.112" y="-771" font-family="Helvetica,sans-Serif" font-size="10.00" fill="#000000">switch</text>
<polygon fill="none" stroke="#000000" points="610.5,-702 610.5,-758 701.5,-758 701.5,-702 610.5,-702"/>
<text text-anchor="start" x="620.4405" y="-739" font-family="Helvetica,sans-Serif" font-size="10.00" fill="#000000">msg_unknown()</text>
<text text-anchor="start" x="641.0025" y="-715" font-family="Helvetica,sans-Serif" font-size="10.00" fill="#000000">close()</text>
</g>
<!-- A6&#45;&gt;A16 -->
<g id="edge22" class="edge">
<title>A6&#45;&gt;A16</title>
<path fill="none" stroke="#000000" d="M639.6776,-957.6082C642.1325,-931.9128 644.617,-905.9091 646.8668,-882.3611"/>
<polygon fill="none" stroke="#000000" points="636.1691,-957.5305 638.7021,-967.8181 643.1374,-958.1963 636.1691,-957.5305"/>
</g>
<!-- A7 -->
<g id="node8" class="node">
<title>A7</title>
<polygon fill="none" stroke="#000000" points="399.5,-584 399.5,-616 516.5,-616 516.5,-584 399.5,-584"/>
<text text-anchor="start" x="427.429" y="-597" font-family="Helvetica,sans-Serif" font-size="10.00" fill="#000000">&lt;&lt;AsyncIfc&gt;&gt;</text>
<polygon fill="none" stroke="#000000" points="399.5,-564 399.5,-584 516.5,-584 516.5,-564 399.5,-564"/>
<polygon fill="none" stroke="#000000" points="399.5,-268 399.5,-564 516.5,-564 516.5,-268 399.5,-268"/>
<text text-anchor="start" x="427.436" y="-545" font-family="Helvetica,sans-Serif" font-size="10.00" fill="#000000">set_node_id()</text>
<text text-anchor="start" x="425.766" y="-533" font-family="Helvetica,sans-Serif" font-size="10.00" fill="#000000">get_conn_no()</text>
<text text-anchor="start" x="439.6635" y="-509" font-family="Helvetica,sans-Serif" font-size="10.00" fill="#000000">tx_add()</text>
<text text-anchor="start" x="437.444" y="-497" font-family="Helvetica,sans-Serif" font-size="10.00" fill="#000000">tx_flush()</text>
<text text-anchor="start" x="441.0535" y="-485" font-family="Helvetica,sans-Serif" font-size="10.00" fill="#000000">tx_get()</text>
<text text-anchor="start" x="437.1635" y="-473" font-family="Helvetica,sans-Serif" font-size="10.00" fill="#000000">tx_peek()</text>
<text text-anchor="start" x="441.3335" y="-461" font-family="Helvetica,sans-Serif" font-size="10.00" fill="#000000">tx_log()</text>
<text text-anchor="start" x="437.169" y="-449" font-family="Helvetica,sans-Serif" font-size="10.00" fill="#000000">tx_clear()</text>
<text text-anchor="start" x="441.3335" y="-437" font-family="Helvetica,sans-Serif" font-size="10.00" fill="#000000">tx_len()</text>
<text text-anchor="start" x="435.7745" y="-413" font-family="Helvetica,sans-Serif" font-size="10.00" fill="#000000">fwd_add()</text>
<text text-anchor="start" x="433.555" y="-401" font-family="Helvetica,sans-Serif" font-size="10.00" fill="#000000">fwd_flush()</text>
<text text-anchor="start" x="437.4445" y="-389" font-family="Helvetica,sans-Serif" font-size="10.00" fill="#000000">fwd_log()</text>
<text text-anchor="start" x="433.28" y="-377" font-family="Helvetica,sans-Serif" font-size="10.00" fill="#000000">fwd_clear()</text>
<text text-anchor="start" x="440.7785" y="-365" font-family="Helvetica,sans-Serif" font-size="10.00" fill="#000000">rx_get()</text>
<text text-anchor="start" x="436.8885" y="-353" font-family="Helvetica,sans-Serif" font-size="10.00" fill="#000000">rx_peek()</text>
<text text-anchor="start" x="441.0585" y="-341" font-family="Helvetica,sans-Serif" font-size="10.00" fill="#000000">rx_log()</text>
<text text-anchor="start" x="436.894" y="-329" font-family="Helvetica,sans-Serif" font-size="10.00" fill="#000000">rx_clear()</text>
<text text-anchor="start" x="441.0585" y="-317" font-family="Helvetica,sans-Serif" font-size="10.00" fill="#000000">rx_len()</text>
<text text-anchor="start" x="432.999" y="-305" font-family="Helvetica,sans-Serif" font-size="10.00" fill="#000000">rx_set_cb()</text>
<text text-anchor="start" x="409.3795" y="-281" font-family="Helvetica,sans-Serif" font-size="10.00" fill="#000000">prot_set_timeout_cb()</text>
</g>
<!-- A8 -->
<g id="node9" class="node">
<title>A8</title>
<polygon fill="none" stroke="#000000" points="411.5,-182 411.5,-214 504.5,-214 504.5,-182 411.5,-182"/>
<text text-anchor="start" x="429.664" y="-195" font-family="Helvetica,sans-Serif" font-size="10.00" fill="#000000">AsyncIfcImpl</text>
<polygon fill="none" stroke="#000000" points="411.5,-90 411.5,-182 504.5,-182 504.5,-90 411.5,-90"/>
<text text-anchor="start" x="421.048" y="-163" font-family="Helvetica,sans-Serif" font-size="10.00" fill="#000000">fwd_fifo:ByteFifo</text>
<text text-anchor="start" x="424.937" y="-151" font-family="Helvetica,sans-Serif" font-size="10.00" fill="#000000">tx_fifo:ByteFifo</text>
<text text-anchor="start" x="424.662" y="-139" font-family="Helvetica,sans-Serif" font-size="10.00" fill="#000000">rx_fifo:ByteFifo</text>
<text text-anchor="start" x="424.096" y="-127" font-family="Helvetica,sans-Serif" font-size="10.00" fill="#000000">conn_no:Count</text>
<text text-anchor="start" x="440.2135" y="-115" font-family="Helvetica,sans-Serif" font-size="10.00" fill="#000000">node_id</text>
<text text-anchor="start" x="433.5495" y="-103" font-family="Helvetica,sans-Serif" font-size="10.00" fill="#000000">timeout_cb</text>
</g>
<!-- A7&#45;&gt;A8 -->
<g id="edge5" class="edge">
<title>A7&#45;&gt;A8</title>
<path fill="none" stroke="#000000" stroke-dasharray="5,2" d="M457.5,-257.632C457.5,-242.1873 457.5,-227.3874 457.5,-214.0086"/>
<polygon fill="none" stroke="#000000" points="454.0001,-257.8659 457.5,-267.8659 461.0001,-257.866 454.0001,-257.8659"/>
</g>
<!-- A9 -->
<g id="node10" class="node">
<title>A9</title>
<polygon fill="none" stroke="#000000" points="501.4532,-36 413.5468,-36 413.5468,0 501.4532,0 501.4532,-36"/>
<text text-anchor="middle" x="457.5" y="-15" font-family="Helvetica,sans-Serif" font-size="10.00" fill="#000000">AsyncStream</text>
</g>
<!-- A8&#45;&gt;A9 -->
<g id="edge6" class="edge">
<title>A8&#45;&gt;A9</title>
<path fill="none" stroke="#000000" d="M457.5,-79.615C457.5,-63.4386 457.5,-47.6836 457.5,-36.1546"/>
<polygon fill="#000000" stroke="#000000" points="457.5,-89.7075 453.0001,-79.7074 457.5,-84.7075 457.5001,-79.7075 457.5001,-79.7075 457.5001,-79.7075 457.5,-84.7075 462.0001,-79.7075 457.5,-89.7075 457.5,-89.7075"/>
</g>
<!-- A10 -->
<g id="node11" class="node">
<title>A10</title>
<polygon fill="none" stroke="#000000" points=".5,-464 .5,-496 151.5,-496 151.5,-464 .5,-464"/>
<text text-anchor="start" x="44.0455" y="-477" font-family="Helvetica,sans-Serif" font-size="10.00" fill="#000000">ConnectionG3</text>
<polygon fill="none" stroke="#000000" points=".5,-432 .5,-464 151.5,-464 151.5,-432 .5,-432"/>
<text text-anchor="start" x="10.432" y="-445" font-family="Helvetica,sans-Serif" font-size="10.00" fill="#000000">remote.stream:ConnectionG3</text>
<polygon fill="none" stroke="#000000" points=".5,-388 .5,-432 151.5,-432 151.5,-388 .5,-388"/>
<text text-anchor="start" x="56.554" y="-413" font-family="Helvetica,sans-Serif" font-size="10.00" fill="#000000">healthy()</text>
<text text-anchor="start" x="61.0025" y="-401" font-family="Helvetica,sans-Serif" font-size="10.00" fill="#000000">close()</text>
</g>
<!-- A10&#45;&gt;A3 -->
<g id="edge7" class="edge">
<title>A10&#45;&gt;A3</title>
<path fill="none" stroke="#000000" d="M103.5115,-378.5364C124.4716,-331.0488 153.0618,-266.2741 174.3025,-218.1506"/>
<polygon fill="none" stroke="#000000" points="100.2617,-377.2316 99.4257,-387.7934 106.6657,-380.0582 100.2617,-377.2316"/>
</g>
<!-- A10&#45;&gt;A9 -->
<g id="edge9" class="edge">
<title>A10&#45;&gt;A9</title>
<path fill="none" stroke="#000000" d="M65.9191,-375.3961C58.4986,-295.6629 59.6829,-163.2447 133.5,-86 170.0095,-47.7953 321.2395,-29.3905 403.5448,-22.053"/>
<polygon fill="#000000" stroke="#000000" points="65.9586,-375.7857 70.5458,-381.3497 67.1741,-387.724 62.5869,-382.16 65.9586,-375.7857"/>
<polygon fill="#000000" stroke="#000000" points="413.7128,-21.1716 404.1388,-26.5185 408.7314,-21.6034 403.7501,-22.0353 403.7501,-22.0353 403.7501,-22.0353 408.7314,-21.6034 403.3615,-17.5521 413.7128,-21.1716 413.7128,-21.1716"/>
<text text-anchor="middle" x="396.3843" y="-28.1578" font-family="Helvetica,sans-Serif" font-size="10.00" fill="#000000">1</text>
</g>
<!-- A10&#45;&gt;A10 -->
<g id="edge8" class="edge">
<title>A10&#45;&gt;A10</title>
<path fill="none" stroke="#000000" d="M129.3063,-496.0431C150.8867,-499.0964 169,-481.082 169,-442 169,-409.3299 156.3426,-391.3816 139.5832,-388.1553"/>
<polygon fill="#000000" stroke="#000000" points="129.3063,-387.9569 139.3914,-383.6508 134.3054,-388.0534 139.3044,-388.15 139.3044,-388.15 139.3044,-388.15 134.3054,-388.0534 139.2175,-392.6492 129.3063,-387.9569 129.3063,-387.9569"/>
<text text-anchor="middle" x="147.5922" y="-376.856" font-family="Helvetica,sans-Serif" font-size="10.00" fill="#000000">0..1</text>
<text text-anchor="middle" x="147.7917" y="-485.4082" font-family="Helvetica,sans-Serif" font-size="10.00" fill="#000000">has</text>
</g>
<!-- A11 -->
<g id="node12" class="node">
<title>A11</title>
<polygon fill="none" stroke="#000000" points="744.5,-464 744.5,-496 901.5,-496 901.5,-464 744.5,-464"/>
<text text-anchor="start" x="787.711" y="-477" font-family="Helvetica,sans-Serif" font-size="10.00" fill="#000000">ConnectionG3P</text>
<polygon fill="none" stroke="#000000" points="744.5,-432 744.5,-464 901.5,-464 901.5,-432 744.5,-432"/>
<text text-anchor="start" x="754.0975" y="-445" font-family="Helvetica,sans-Serif" font-size="10.00" fill="#000000">remote.stream:ConnectionG3P</text>
<polygon fill="none" stroke="#000000" points="744.5,-388 744.5,-432 901.5,-432 901.5,-388 744.5,-388"/>
<text text-anchor="start" x="803.554" y="-413" font-family="Helvetica,sans-Serif" font-size="10.00" fill="#000000">healthy()</text>
<text text-anchor="start" x="808.0025" y="-401" font-family="Helvetica,sans-Serif" font-size="10.00" fill="#000000">close()</text>
</g>
<!-- A11&#45;&gt;A4 -->
<g id="edge10" class="edge">
<title>A11&#45;&gt;A4</title>
<path fill="none" stroke="#000000" d="M798.6926,-378.1971C783.8063,-343.412 762.3505,-300.8772 735.5,-268 710.6165,-237.5312 676.3674,-210.0448 647.0827,-189.4838"/>
<polygon fill="none" stroke="#000000" points="795.6201,-379.9208 802.7161,-387.7883 802.0752,-377.2128 795.6201,-379.9208"/>
</g>
<!-- A11&#45;&gt;A9 -->
<g id="edge12" class="edge">
<title>A11&#45;&gt;A9</title>
<path fill="none" stroke="#000000" d="M808.4328,-376.0571C788.1602,-296.5483 743.2373,-163.9158 656.5,-86 615.9314,-49.5574 554.9588,-32.4915 511.2023,-24.5972"/>
<polygon fill="#000000" stroke="#000000" points="808.4732,-376.2202 813.8001,-381.0807 811.3623,-387.8673 806.0354,-383.0068 808.4732,-376.2202"/>
<polygon fill="#000000" stroke="#000000" points="501.3083,-22.9145 511.9213,-20.1549 506.2375,-23.7529 511.1668,-24.5912 511.1668,-24.5912 511.1668,-24.5912 506.2375,-23.7529 510.4123,-29.0275 501.3083,-22.9145 501.3083,-22.9145"/>
<text text-anchor="middle" x="520.595" y="-14.6208" font-family="Helvetica,sans-Serif" font-size="10.00" fill="#000000">1</text>
</g>
<!-- A11&#45;&gt;A11 -->
<g id="edge11" class="edge">
<title>A11&#45;&gt;A11</title>
<path fill="none" stroke="#000000" d="M878.0327,-496.0431C900.3055,-499.0964 919,-481.082 919,-442 919,-409.0245 905.6911,-391.0474 888.1533,-388.0687"/>
<polygon fill="#000000" stroke="#000000" points="878.0327,-387.9569 888.0819,-383.5677 883.0324,-388.0122 888.0321,-388.0675 888.0321,-388.0675 888.0321,-388.0675 883.0324,-388.0122 887.9823,-392.5672 878.0327,-387.9569 878.0327,-387.9569"/>
<text text-anchor="middle" x="896.2511" y="-376.7053" font-family="Helvetica,sans-Serif" font-size="10.00" fill="#000000">0..1</text>
<text text-anchor="middle" x="896.5075" y="-485.3826" font-family="Helvetica,sans-Serif" font-size="10.00" fill="#000000">has</text>
</g>
<!-- A12 -->
<g id="node13" class="node">
<title>A12</title>
<polygon fill="none" stroke="#000000" points="489.5,-880 489.5,-912 592.5,-912 592.5,-880 489.5,-880"/>
<text text-anchor="start" x="530.162" y="-893" font-family="Helvetica,sans-Serif" font-size="10.00" fill="#000000">Infos</text>
<polygon fill="none" stroke="#000000" points="489.5,-824 489.5,-880 592.5,-880 592.5,-824 489.5,-824"/>
<text text-anchor="start" x="532.9415" y="-861" font-family="Helvetica,sans-Serif" font-size="10.00" fill="#000000">stat</text>
<text text-anchor="start" x="508.486" y="-849" font-family="Helvetica,sans-Serif" font-size="10.00" fill="#000000">new_stat_data</text>
<text text-anchor="start" x="522.1035" y="-837" font-family="Helvetica,sans-Serif" font-size="10.00" fill="#000000">info_dev</text>
<polygon fill="none" stroke="#000000" points="489.5,-672 489.5,-824 592.5,-824 592.5,-672 489.5,-672"/>
<text text-anchor="start" x="516.8355" y="-805" font-family="Helvetica,sans-Serif" font-size="10.00" fill="#000000">static_init()</text>
<text text-anchor="start" x="514.8845" y="-793" font-family="Helvetica,sans-Serif" font-size="10.00" fill="#000000">dev_value()</text>
<text text-anchor="start" x="511.8305" y="-781" font-family="Helvetica,sans-Serif" font-size="10.00" fill="#000000">inc_counter()</text>
<text text-anchor="start" x="510.1605" y="-769" font-family="Helvetica,sans-Serif" font-size="10.00" fill="#000000">dec_counter()</text>
<text text-anchor="start" x="508.21" y="-757" font-family="Helvetica,sans-Serif" font-size="10.00" fill="#000000">ha_proxy_conf</text>
<text text-anchor="start" x="523.213" y="-745" font-family="Helvetica,sans-Serif" font-size="10.00" fill="#000000">ha_conf</text>
<text text-anchor="start" x="515.994" y="-733" font-family="Helvetica,sans-Serif" font-size="10.00" fill="#000000">ha_remove</text>
<text text-anchor="start" x="517.3745" y="-721" font-family="Helvetica,sans-Serif" font-size="10.00" fill="#000000">update_db</text>
<text text-anchor="start" x="501.537" y="-709" font-family="Helvetica,sans-Serif" font-size="10.00" fill="#000000">set_db_def_value</text>
<text text-anchor="start" x="510.9855" y="-697" font-family="Helvetica,sans-Serif" font-size="10.00" fill="#000000">get_db_value</text>
<text text-anchor="start" x="499.3225" y="-685" font-family="Helvetica,sans-Serif" font-size="10.00" fill="#000000">ignore_this_device</text>
</g>
<!-- A13 -->
<g id="node14" class="node">
<title>A13</title>
<polygon fill="none" stroke="#000000" points="314.5,-458 314.5,-490 381.5,-490 381.5,-458 314.5,-458"/>
<text text-anchor="start" x="330.493" y="-471" font-family="Helvetica,sans-Serif" font-size="10.00" fill="#000000">InfosG3</text>
<polygon fill="none" stroke="#000000" points="314.5,-438 314.5,-458 381.5,-458 381.5,-438 314.5,-438"/>
<polygon fill="none" stroke="#000000" points="314.5,-394 314.5,-438 381.5,-438 381.5,-394 314.5,-394"/>
<text text-anchor="start" x="324.384" y="-419" font-family="Helvetica,sans-Serif" font-size="10.00" fill="#000000">ha_confs()</text>
<text text-anchor="start" x="332.168" y="-407" font-family="Helvetica,sans-Serif" font-size="10.00" fill="#000000">parse()</text>
</g>
<!-- A12&#45;&gt;A13 -->
<g id="edge13" class="edge">
<title>A12&#45;&gt;A13</title>
<path fill="none" stroke="#000000" d="M482.2133,-668.9537C481.32,-667.9536 480.4156,-666.9686 479.5,-666 448.0663,-632.7472 417.2023,-652.4199 389.5,-616 361.9383,-579.7649 352.1673,-528.0191 348.8512,-490.3816"/>
<polygon fill="none" stroke="#000000" points="479.7494,-671.4639 488.8434,-676.8998 485.1241,-666.9792 479.7494,-671.4639"/>
</g>
<!-- A14 -->
<g id="node15" class="node">
<title>A14</title>
<polygon fill="none" stroke="#000000" points="659.5,-458 659.5,-490 726.5,-490 726.5,-458 659.5,-458"/>
<text text-anchor="start" x="672.1585" y="-471" font-family="Helvetica,sans-Serif" font-size="10.00" fill="#000000">InfosG3P</text>
<polygon fill="none" stroke="#000000" points="659.5,-438 659.5,-458 726.5,-458 726.5,-438 659.5,-438"/>
<polygon fill="none" stroke="#000000" points="659.5,-394 659.5,-438 726.5,-438 726.5,-394 659.5,-394"/>
<text text-anchor="start" x="669.384" y="-419" font-family="Helvetica,sans-Serif" font-size="10.00" fill="#000000">ha_confs()</text>
<text text-anchor="start" x="677.168" y="-407" font-family="Helvetica,sans-Serif" font-size="10.00" fill="#000000">parse()</text>
</g>
<!-- A12&#45;&gt;A14 -->
<g id="edge14" class="edge">
<title>A12&#45;&gt;A14</title>
<path fill="none" stroke="#000000" d="M597.6498,-671.6826C598.9193,-669.7598 600.2029,-667.864 601.5,-666 619.0948,-640.7144 634.6333,-642.98 649.5,-616 671.1251,-576.755 682.0274,-526.606 687.4278,-490.2373"/>
<polygon fill="none" stroke="#000000" points="594.5993,-669.9569 592.1768,-680.2711 600.5026,-673.7188 594.5993,-669.9569"/>
</g>
<!-- A15&#45;&gt;A7 -->
<g id="edge16" class="edge">
<title>A15&#45;&gt;A7</title>
<path fill="none" stroke="#000000" d="M429.385,-665.642C430.9935,-652.8472 432.6494,-639.6756 434.3143,-626.4317"/>
<polygon fill="#000000" stroke="#000000" points="435.5886,-616.295 438.8061,-626.7783 434.9649,-621.256 434.3412,-626.217 434.3412,-626.217 434.3412,-626.217 434.9649,-621.256 429.8764,-625.6556 435.5886,-616.295 435.5886,-616.295"/>
<text text-anchor="middle" x="423.2596" y="-643.6031" font-family="Helvetica,sans-Serif" font-size="10.00" fill="#000000">use</text>
</g>
<!-- A15&#45;&gt;A10 -->
<g id="edge15" class="edge">
<title>A15&#45;&gt;A10</title>
<path fill="none" stroke="#000000" d="M349.6312,-700.7451C337.9746,-687.9557 325.1424,-675.8414 311.5,-666 260.2851,-629.0543 226.8831,-656.5836 178.5,-616 140.443,-584.0779 112.9887,-534.285 96.0432,-496.1296"/>
<polygon fill="none" stroke="#000000" points="347.1067,-703.1737 356.3558,-708.3413 352.348,-698.5337 347.1067,-703.1737"/>
</g>
<!-- A15&#45;&gt;A13 -->
<g id="edge17" class="edge">
<title>A15&#45;&gt;A13</title>
<path fill="none" stroke="#000000" d="M389.6725,-665.642C378.9966,-609.0277 366.9296,-545.0355 358.447,-500.0525"/>
<polygon fill="#000000" stroke="#000000" points="356.5861,-490.1839 362.8613,-499.1768 357.5127,-495.0973 358.4392,-500.0107 358.4392,-500.0107 358.4392,-500.0107 357.5127,-495.0973 354.0172,-500.8446 356.5861,-490.1839 356.5861,-490.1839"/>
</g>
<!-- A16&#45;&gt;A7 -->
<g id="edge19" class="edge">
<title>A16&#45;&gt;A7</title>
<path fill="none" stroke="#000000" d="M624.6836,-701.7474C618.1571,-689.0117 610.4679,-676.6496 601.5,-666 575.2168,-634.7882 550.1961,-647.697 524.5,-616 523.7865,-615.1199 523.08,-614.2314 522.3805,-613.3347"/>
<polygon fill="#000000" stroke="#000000" points="516.2699,-605.0582 525.8298,-610.4303 519.2397,-609.0807 522.2095,-613.1032 522.2095,-613.1032 522.2095,-613.1032 519.2397,-609.0807 518.5893,-615.776 516.2699,-605.0582 516.2699,-605.0582"/>
<text text-anchor="middle" x="608.7901" y="-686.6067" font-family="Helvetica,sans-Serif" font-size="10.00" fill="#000000">use</text>
</g>
<!-- A16&#45;&gt;A11 -->
<g id="edge18" class="edge">
<title>A16&#45;&gt;A11</title>
<path fill="none" stroke="#000000" d="M702.9385,-692.5781C733.3829,-628.7724 771.744,-548.3749 796.6816,-496.1104"/>
<polygon fill="none" stroke="#000000" points="699.6542,-691.3338 698.5066,-701.8663 705.9719,-694.3483 699.6542,-691.3338"/>
</g>
<!-- A16&#45;&gt;A14 -->
<g id="edge20" class="edge">
<title>A16&#45;&gt;A14</title>
<path fill="none" stroke="#000000" d="M665.0284,-701.8663C671.7268,-638.5029 680.4957,-555.5538 686.3042,-500.609"/>
<polygon fill="#000000" stroke="#000000" points="687.389,-490.3473 690.8127,-500.765 686.8633,-495.3196 686.3376,-500.2919 686.3376,-500.2919 686.3376,-500.2919 686.8633,-495.3196 681.8626,-499.8187 687.389,-490.3473 687.389,-490.3473"/>
</g>
<!-- A17 -->
<g id="node18" class="node">
<title>A17</title>
<polygon fill="none" stroke="#000000" points="435.5,-1200 435.5,-1232 510.5,-1232 510.5,-1200 435.5,-1200"/>
<text text-anchor="start" x="455.2175" y="-1213" font-family="Helvetica,sans-Serif" font-size="10.00" fill="#000000">Modbus</text>
<polygon fill="none" stroke="#000000" points="435.5,-1048 435.5,-1200 510.5,-1200 510.5,-1048 435.5,-1048"/>
<text text-anchor="start" x="464.6615" y="-1181" font-family="Helvetica,sans-Serif" font-size="10.00" fill="#000000">que</text>
<text text-anchor="start" x="445.49" y="-1157" font-family="Helvetica,sans-Serif" font-size="10.00" fill="#000000">snd_handler</text>
<text text-anchor="start" x="446.605" y="-1145" font-family="Helvetica,sans-Serif" font-size="10.00" fill="#000000">rsp_handler</text>
<text text-anchor="start" x="456.6085" y="-1133" font-family="Helvetica,sans-Serif" font-size="10.00" fill="#000000">timeout</text>
<text text-anchor="start" x="446.8895" y="-1121" font-family="Helvetica,sans-Serif" font-size="10.00" fill="#000000">max_retires</text>
<text text-anchor="start" x="454.942" y="-1109" font-family="Helvetica,sans-Serif" font-size="10.00" fill="#000000">last_xxx</text>
<text text-anchor="start" x="466.8915" y="-1097" font-family="Helvetica,sans-Serif" font-size="10.00" fill="#000000">err</text>
<text text-anchor="start" x="453.5535" y="-1085" font-family="Helvetica,sans-Serif" font-size="10.00" fill="#000000">retry_cnt</text>
<text text-anchor="start" x="451.879" y="-1073" font-family="Helvetica,sans-Serif" font-size="10.00" fill="#000000">req_pend</text>
<text text-anchor="start" x="466.3365" y="-1061" font-family="Helvetica,sans-Serif" font-size="10.00" fill="#000000">tim</text>
<polygon fill="none" stroke="#000000" points="435.5,-980 435.5,-1048 510.5,-1048 510.5,-980 435.5,-980"/>
<text text-anchor="start" x="446.89" y="-1029" font-family="Helvetica,sans-Serif" font-size="10.00" fill="#000000">build_msg()</text>
<text text-anchor="start" x="450.224" y="-1017" font-family="Helvetica,sans-Serif" font-size="10.00" fill="#000000">recv_req()</text>
<text text-anchor="start" x="447.724" y="-1005" font-family="Helvetica,sans-Serif" font-size="10.00" fill="#000000">recv_resp()</text>
<text text-anchor="start" x="458.0025" y="-993" font-family="Helvetica,sans-Serif" font-size="10.00" fill="#000000">close()</text>
</g>
<!-- A17&#45;&gt;A15 -->
<g id="edge24" class="edge">
<title>A17&#45;&gt;A15</title>
<path fill="none" stroke="#000000" d="M446.8724,-969.6092C443.6566,-952.4944 440.3783,-935.047 437.1939,-918.0999"/>
<polygon fill="#000000" stroke="#000000" points="448.7575,-979.6415 442.4881,-970.6445 447.8341,-974.7275 446.9107,-969.8135 446.9107,-969.8135 446.9107,-969.8135 447.8341,-974.7275 451.3333,-968.9824 448.7575,-979.6415 448.7575,-979.6415"/>
<text text-anchor="middle" x="448.8482" y="-931.3534" font-family="Helvetica,sans-Serif" font-size="10.00" fill="#000000">has</text>
<text text-anchor="middle" x="437.1032" y="-960.3879" font-family="Helvetica,sans-Serif" font-size="10.00" fill="#000000">1</text>
</g>
<!-- A17&#45;&gt;A16 -->
<g id="edge23" class="edge">
<title>A17&#45;&gt;A16</title>
<path fill="none" stroke="#000000" d="M514.9768,-1020.5466C525.3303,-1002.5556 537.0447,-984.1492 549.5,-968 569.0808,-942.6121 583.2659,-944.3717 601.5,-918 609.1473,-906.9397 616.0494,-894.6241 622.1627,-882.146"/>
<polygon fill="#000000" stroke="#000000" points="510.0062,-1029.3335 511.0131,-1018.414 512.4681,-1024.9816 514.9299,-1020.6296 514.9299,-1020.6296 514.9299,-1020.6296 512.4681,-1024.9816 518.8467,-1022.8453 510.0062,-1029.3335 510.0062,-1029.3335"/>
<text text-anchor="middle" x="621.6642" y="-899.1398" font-family="Helvetica,sans-Serif" font-size="10.00" fill="#000000">has</text>
<text text-anchor="middle" x="511.574" y="-1006.3951" font-family="Helvetica,sans-Serif" font-size="10.00" fill="#000000">1</text>
</g>
<!-- A18 -->
<g id="node19" class="node">
<title>A18</title>
<polygon fill="none" stroke="#000000" points="534.5,-470 534.5,-502 641.5,-502 641.5,-470 534.5,-470"/>
<text text-anchor="start" x="558.2695" y="-483" font-family="Helvetica,sans-Serif" font-size="10.00" fill="#000000">ModbusConn</text>
<polygon fill="none" stroke="#000000" points="534.5,-402 534.5,-470 641.5,-470 641.5,-402 534.5,-402"/>
<text text-anchor="start" x="578.5515" y="-451" font-family="Helvetica,sans-Serif" font-size="10.00" fill="#000000">host</text>
<text text-anchor="start" x="579.387" y="-439" font-family="Helvetica,sans-Serif" font-size="10.00" fill="#000000">port</text>
<text text-anchor="start" x="577.997" y="-427" font-family="Helvetica,sans-Serif" font-size="10.00" fill="#000000">addr</text>
<text text-anchor="start" x="544.383" y="-415" font-family="Helvetica,sans-Serif" font-size="10.00" fill="#000000">stream:InverterG3P</text>
<polygon fill="none" stroke="#000000" points="534.5,-382 534.5,-402 641.5,-402 641.5,-382 534.5,-382"/>
</g>
<!-- A18&#45;&gt;A4 -->
<g id="edge25" class="edge">
<title>A18&#45;&gt;A4</title>
<path fill="none" stroke="#000000" d="M587.5,-381.9118C587.5,-335.4458 587.5,-271.0175 587.5,-222.1832"/>
<polygon fill="#000000" stroke="#000000" points="587.5,-212.0112 592.0001,-222.0112 587.5,-217.0112 587.5001,-222.0112 587.5001,-222.0112 587.5001,-222.0112 587.5,-217.0112 583.0001,-222.0113 587.5,-212.0112 587.5,-212.0112"/>
<text text-anchor="middle" x="595.9524" y="-227.1374" font-family="Helvetica,sans-Serif" font-size="10.00" fill="#000000">1</text>
<text text-anchor="middle" x="579.0476" y="-360.7857" font-family="Helvetica,sans-Serif" font-size="10.00" fill="#000000">has</text>
</g>
</g>
</svg>
