<?xml version="1.0" encoding="UTF-8" standalone="no"?>
<!DOCTYPE svg PUBLIC "-//W3C//DTD SVG 1.1//EN"
 "http://www.w3.org/Graphics/SVG/1.1/DTD/svg11.dtd">
<!-- Generated by graphviz version 2.40.1 (20161225.0304)
 -->
<!-- Title: G Pages: 1 -->
<svg width="720pt" height="1360pt"
 viewBox="0.00 0.00 719.50 1360.00" xmlns="http://www.w3.org/2000/svg" xmlns:xlink="http://www.w3.org/1999/xlink">
<g id="graph0" class="graph" transform="scale(1 1) rotate(0) translate(4 1356)">
<title>G</title>
<polygon fill="#ffffff" stroke="transparent" points="-4,4 -4,-1356 715.5,-1356 715.5,4 -4,4"/>
<!-- A0 -->
<g id="node1" class="node">
<title>A0</title>
<polygon fill="#fff8dc" stroke="#000000" points="153.6964,-1250 45.3036,-1250 45.3036,-1214 159.6964,-1214 159.6964,-1244 153.6964,-1250"/>
<polyline fill="none" stroke="#000000" points="153.6964,-1250 153.6964,-1244 "/>
<polyline fill="none" stroke="#000000" points="159.6964,-1244 153.6964,-1244 "/>
<text text-anchor="middle" x="102.5" y="-1235" font-family="Helvetica,sans-Serif" font-size="10.00" fill="#000000">You can stick notes</text>
<text text-anchor="middle" x="102.5" y="-1223" font-family="Helvetica,sans-Serif" font-size="10.00" fill="#000000">on diagrams too!</text>
</g>
<!-- A1 -->
<g id="node2" class="node">
<title>A1</title>
<polygon fill="none" stroke="#000000" points="685.1817,-942 615.8183,-942 615.8183,-906 685.1817,-906 685.1817,-942"/>
<text text-anchor="middle" x="650.5" y="-921" font-family="Helvetica,sans-Serif" font-size="10.00" fill="#000000">Singleton</text>
</g>
<!-- A2 -->
<g id="node3" class="node">
<title>A2</title>
<polygon fill="none" stroke="#000000" points="589.5,-644 589.5,-676 711.5,-676 711.5,-644 589.5,-644"/>
<text text-anchor="start" x="640.777" y="-657" font-family="Helvetica,sans-Serif" font-size="10.00" fill="#000000">Mqtt</text>
<polygon fill="none" stroke="#000000" points="589.5,-588 589.5,-644 711.5,-644 711.5,-588 589.5,-588"/>
<text text-anchor="start" x="607.9875" y="-625" font-family="Helvetica,sans-Serif" font-size="10.00" fill="#000000">&lt;static&gt;ha_restarts</text>
<text text-anchor="start" x="615.7665" y="-613" font-family="Helvetica,sans-Serif" font-size="10.00" fill="#000000">&lt;static&gt;__client</text>
<text text-anchor="start" x="599.3735" y="-601" font-family="Helvetica,sans-Serif" font-size="10.00" fill="#000000">&lt;static&gt;__cb_MqttIsUp</text>
<polygon fill="none" stroke="#000000" points="589.5,-544 589.5,-588 711.5,-588 711.5,-544 589.5,-544"/>
<text text-anchor="start" x="612.436" y="-569" font-family="Helvetica,sans-Serif" font-size="10.00" fill="#000000">&lt;async&gt;publish()</text>
<text text-anchor="start" x="616.6045" y="-557" font-family="Helvetica,sans-Serif" font-size="10.00" fill="#000000">&lt;async&gt;close()</text>
</g>
<!-- A1&#45;&gt;A2 -->
<g id="edge1" class="edge">
<title>A1&#45;&gt;A2</title>
<path fill="none" stroke="#000000" d="M650.5,-895.5395C650.5,-846.311 650.5,-744.0351 650.5,-676.2069"/>
<polygon fill="none" stroke="#000000" points="647.0001,-895.7608 650.5,-905.7608 654.0001,-895.7608 647.0001,-895.7608"/>
</g>
<!-- A11 -->
<g id="node12" class="node">
<title>A11</title>
<polygon fill="none" stroke="#000000" points="596.5,-348 596.5,-380 704.5,-380 704.5,-348 596.5,-348"/>
<text text-anchor="start" x="633.5535" y="-361" font-family="Helvetica,sans-Serif" font-size="10.00" fill="#000000">Inverter</text>
<polygon fill="none" stroke="#000000" points="596.5,-256 596.5,-348 704.5,-348 704.5,-256 596.5,-256"/>
<text text-anchor="start" x="626.604" y="-329" font-family="Helvetica,sans-Serif" font-size="10.00" fill="#000000">cls.db_stat</text>
<text text-anchor="start" x="619.9405" y="-317" font-family="Helvetica,sans-Serif" font-size="10.00" fill="#000000">cls.entity_prfx</text>
<text text-anchor="start" x="610.7755" y="-305" font-family="Helvetica,sans-Serif" font-size="10.00" fill="#000000">cls.discovery_prfx</text>
<text text-anchor="start" x="610.2115" y="-293" font-family="Helvetica,sans-Serif" font-size="10.00" fill="#000000">cls.proxy_node_id</text>
<text text-anchor="start" x="606.3225" y="-281" font-family="Helvetica,sans-Serif" font-size="10.00" fill="#000000">cls.proxy_unique_id</text>
<text text-anchor="start" x="622.1655" y="-269" font-family="Helvetica,sans-Serif" font-size="10.00" fill="#000000">cls.mqtt:Mqtt</text>
<polygon fill="none" stroke="#000000" points="596.5,-236 596.5,-256 704.5,-256 704.5,-236 596.5,-236"/>
</g>
<!-- A2&#45;&gt;A11 -->
<g id="edge13" class="edge">
<title>A2&#45;&gt;A11</title>
<path fill="none" stroke="#000000" d="M650.5,-543.7248C650.5,-495.3688 650.5,-429.8734 650.5,-380.1918"/>
</g>
<!-- A3 -->
<g id="node4" class="node">
<title>A3</title>
<polygon fill="none" stroke="#000000" points="318.5,-402 318.5,-434 393.5,-434 393.5,-402 318.5,-402"/>
<text text-anchor="start" x="338.2175" y="-415" font-family="Helvetica,sans-Serif" font-size="10.00" fill="#000000">Modbus</text>
<polygon fill="none" stroke="#000000" points="318.5,-250 318.5,-402 393.5,-402 393.5,-250 318.5,-250"/>
<text text-anchor="start" x="347.6615" y="-383" font-family="Helvetica,sans-Serif" font-size="10.00" fill="#000000">que</text>
<text text-anchor="start" x="328.49" y="-359" font-family="Helvetica,sans-Serif" font-size="10.00" fill="#000000">snd_handler</text>
<text text-anchor="start" x="329.605" y="-347" font-family="Helvetica,sans-Serif" font-size="10.00" fill="#000000">rsp_handler</text>
<text text-anchor="start" x="339.6085" y="-335" font-family="Helvetica,sans-Serif" font-size="10.00" fill="#000000">timeout</text>
<text text-anchor="start" x="329.8895" y="-323" font-family="Helvetica,sans-Serif" font-size="10.00" fill="#000000">max_retires</text>
<text text-anchor="start" x="337.942" y="-311" font-family="Helvetica,sans-Serif" font-size="10.00" fill="#000000">last_xxx</text>
<text text-anchor="start" x="349.8915" y="-299" font-family="Helvetica,sans-Serif" font-size="10.00" fill="#000000">err</text>
<text text-anchor="start" x="336.5535" y="-287" font-family="Helvetica,sans-Serif" font-size="10.00" fill="#000000">retry_cnt</text>
<text text-anchor="start" x="334.879" y="-275" font-family="Helvetica,sans-Serif" font-size="10.00" fill="#000000">req_pend</text>
<text text-anchor="start" x="349.3365" y="-263" font-family="Helvetica,sans-Serif" font-size="10.00" fill="#000000">tim</text>
<polygon fill="none" stroke="#000000" points="318.5,-182 318.5,-250 393.5,-250 393.5,-182 318.5,-182"/>
<text text-anchor="start" x="329.89" y="-231" font-family="Helvetica,sans-Serif" font-size="10.00" fill="#000000">build_msg()</text>
<text text-anchor="start" x="333.224" y="-219" font-family="Helvetica,sans-Serif" font-size="10.00" fill="#000000">recv_req()</text>
<text text-anchor="start" x="330.724" y="-207" font-family="Helvetica,sans-Serif" font-size="10.00" fill="#000000">recv_resp()</text>
<text text-anchor="start" x="341.0025" y="-195" font-family="Helvetica,sans-Serif" font-size="10.00" fill="#000000">close()</text>
</g>
<!-- A4 -->
<g id="node5" class="node">
<title>A4</title>
<polygon fill="none" stroke="#000000" points="308.5,-1242 308.5,-1274 379.5,-1274 379.5,-1242 308.5,-1242"/>
<text text-anchor="start" x="318.445" y="-1255" font-family="Helvetica,sans-Serif" font-size="10.00" fill="#000000">IterRegistry</text>
<polygon fill="none" stroke="#000000" points="308.5,-1222 308.5,-1242 379.5,-1242 379.5,-1222 308.5,-1222"/>
<polygon fill="none" stroke="#000000" points="308.5,-1190 308.5,-1222 379.5,-1222 379.5,-1190 308.5,-1190"/>
<text text-anchor="start" x="325.939" y="-1203" font-family="Helvetica,sans-Serif" font-size="10.00" fill="#000000">__iter__</text>
</g>
<!-- A5 -->
<g id="node6" class="node">
<title>A5</title>
<polygon fill="none" stroke="#000000" points="276.5,-1030 276.5,-1062 410.5,-1062 410.5,-1030 276.5,-1030"/>
<text text-anchor="start" x="323.2175" y="-1043" font-family="Helvetica,sans-Serif" font-size="10.00" fill="#000000">Message</text>
<polygon fill="none" stroke="#000000" points="276.5,-854 276.5,-1030 410.5,-1030 410.5,-854 276.5,-854"/>
<text text-anchor="start" x="306.8265" y="-1011" font-family="Helvetica,sans-Serif" font-size="10.00" fill="#000000">server_side:bool</text>
<text text-anchor="start" x="304.043" y="-999" font-family="Helvetica,sans-Serif" font-size="10.00" fill="#000000">header_valid:bool</text>
<text text-anchor="start" x="296.814" y="-987" font-family="Helvetica,sans-Serif" font-size="10.00" fill="#000000">header_len:unsigned</text>
<text text-anchor="start" x="302.648" y="-975" font-family="Helvetica,sans-Serif" font-size="10.00" fill="#000000">data_len:unsigned</text>
<text text-anchor="start" x="321.8245" y="-963" font-family="Helvetica,sans-Serif" font-size="10.00" fill="#000000">unique_id</text>
<text text-anchor="start" x="325.7135" y="-951" font-family="Helvetica,sans-Serif" font-size="10.00" fill="#000000">node_id</text>
<text text-anchor="start" x="322.6585" y="-939" font-family="Helvetica,sans-Serif" font-size="10.00" fill="#000000">sug_area</text>
<text text-anchor="start" x="293.489" y="-927" font-family="Helvetica,sans-Serif" font-size="10.00" fill="#000000">_recv_buffer:bytearray</text>
<text text-anchor="start" x="292.0945" y="-915" font-family="Helvetica,sans-Serif" font-size="10.00" fill="#000000">_send_buffer:bytearray</text>
<text text-anchor="start" x="286.2665" y="-903" font-family="Helvetica,sans-Serif" font-size="10.00" fill="#000000">_forward_buffer:bytearray</text>
<text text-anchor="start" x="325.7135" y="-891" font-family="Helvetica,sans-Serif" font-size="10.00" fill="#000000">db:Infos</text>
<text text-anchor="start" x="314.326" y="-879" font-family="Helvetica,sans-Serif" font-size="10.00" fill="#000000">new_data:list</text>
<text text-anchor="start" x="332.662" y="-867" font-family="Helvetica,sans-Serif" font-size="10.00" fill="#000000">state</text>
<polygon fill="none" stroke="#000000" points="276.5,-786 276.5,-854 410.5,-854 410.5,-786 276.5,-786"/>
<text text-anchor="start" x="293.2095" y="-835" font-family="Helvetica,sans-Serif" font-size="10.00" fill="#000000">_read():void&lt;abstract&gt;</text>
<text text-anchor="start" x="317.9445" y="-823" font-family="Helvetica,sans-Serif" font-size="10.00" fill="#000000">close():void</text>
<text text-anchor="start" x="303.7725" y="-811" font-family="Helvetica,sans-Serif" font-size="10.00" fill="#000000">inc_counter():void</text>
<text text-anchor="start" x="302.1025" y="-799" font-family="Helvetica,sans-Serif" font-size="10.00" fill="#000000">dec_counter():void</text>
</g>
<!-- A4&#45;&gt;A5 -->
<g id="edge2" class="edge">
<title>A4&#45;&gt;A5</title>
<path fill="none" stroke="#000000" d="M343.5,-1179.6793C343.5,-1147.2188 343.5,-1103.8616 343.5,-1062.0836"/>
<polygon fill="none" stroke="#000000" points="340.0001,-1179.8197 343.5,-1189.8197 347.0001,-1179.8198 340.0001,-1179.8197"/>
</g>
<!-- A6 -->
<g id="node7" class="node">
<title>A6</title>
<polygon fill="none" stroke="#000000" points="415.5,-704 415.5,-736 529.5,-736 529.5,-704 415.5,-704"/>
<text text-anchor="start" x="458.608" y="-717" font-family="Helvetica,sans-Serif" font-size="10.00" fill="#000000">Talent</text>
<polygon fill="none" stroke="#000000" points="415.5,-600 415.5,-704 529.5,-704 529.5,-600 415.5,-600"/>
<text text-anchor="start" x="425.263" y="-685" font-family="Helvetica,sans-Serif" font-size="10.00" fill="#000000">await_conn_resp_cnt</text>
<text text-anchor="start" x="460.2775" y="-673" font-family="Helvetica,sans-Serif" font-size="10.00" fill="#000000">id_str</text>
<text text-anchor="start" x="441.1" y="-661" font-family="Helvetica,sans-Serif" font-size="10.00" fill="#000000">contact_name</text>
<text text-anchor="start" x="444.44" y="-649" font-family="Helvetica,sans-Serif" font-size="10.00" fill="#000000">contact_mail</text>
<text text-anchor="start" x="448.0445" y="-637" font-family="Helvetica,sans-Serif" font-size="10.00" fill="#000000">db:InfosG3</text>
<text text-anchor="start" x="446.384" y="-625" font-family="Helvetica,sans-Serif" font-size="10.00" fill="#000000">mb:Modbus</text>
<text text-anchor="start" x="458.612" y="-613" font-family="Helvetica,sans-Serif" font-size="10.00" fill="#000000">switch</text>
<polygon fill="none" stroke="#000000" points="415.5,-484 415.5,-600 529.5,-600 529.5,-484 415.5,-484"/>
<text text-anchor="start" x="429.9925" y="-581" font-family="Helvetica,sans-Serif" font-size="10.00" fill="#000000">msg_contact_info()</text>
<text text-anchor="start" x="431.9325" y="-569" font-family="Helvetica,sans-Serif" font-size="10.00" fill="#000000">msg_ota_update()</text>
<text text-anchor="start" x="437.7765" y="-557" font-family="Helvetica,sans-Serif" font-size="10.00" fill="#000000">msg_get_time()</text>
<text text-anchor="start" x="425.8285" y="-545" font-family="Helvetica,sans-Serif" font-size="10.00" fill="#000000">msg_collector_data()</text>
<text text-anchor="start" x="427.7735" y="-533" font-family="Helvetica,sans-Serif" font-size="10.00" fill="#000000">msg_inverter_data()</text>
<text text-anchor="start" x="436.9405" y="-521" font-family="Helvetica,sans-Serif" font-size="10.00" fill="#000000">msg_unknown()</text>
<text text-anchor="start" x="457.5025" y="-497" font-family="Helvetica,sans-Serif" font-size="10.00" fill="#000000">close()</text>
</g>
<!-- A5&#45;&gt;A6 -->
<g id="edge3" class="edge">
<title>A5&#45;&gt;A6</title>
<path fill="none" stroke="#000000" d="M404.0814,-776.5383C409.5999,-763.1056 415.1569,-749.5794 420.5898,-736.355"/>
<polygon fill="none" stroke="#000000" points="400.8317,-775.2382 400.269,-785.8181 407.3066,-777.8983 400.8317,-775.2382"/>
</g>
<!-- A7 -->
<g id="node8" class="node">
<title>A7</title>
<polygon fill="none" stroke="#000000" points="172.5,-668 172.5,-700 263.5,-700 263.5,-668 172.5,-668"/>
<text text-anchor="start" x="190.495" y="-681" font-family="Helvetica,sans-Serif" font-size="10.00" fill="#000000">SolarmanV5</text>
<polygon fill="none" stroke="#000000" points="172.5,-576 172.5,-668 263.5,-668 263.5,-576 172.5,-576"/>
<text text-anchor="start" x="202.998" y="-649" font-family="Helvetica,sans-Serif" font-size="10.00" fill="#000000">control</text>
<text text-anchor="start" x="206.0575" y="-637" font-family="Helvetica,sans-Serif" font-size="10.00" fill="#000000">serial</text>
<text text-anchor="start" x="211.056" y="-625" font-family="Helvetica,sans-Serif" font-size="10.00" fill="#000000">snr</text>
<text text-anchor="start" x="190.21" y="-613" font-family="Helvetica,sans-Serif" font-size="10.00" fill="#000000">db:InfosG3P</text>
<text text-anchor="start" x="191.884" y="-601" font-family="Helvetica,sans-Serif" font-size="10.00" fill="#000000">mb:Modbus</text>
<text text-anchor="start" x="204.112" y="-589" font-family="Helvetica,sans-Serif" font-size="10.00" fill="#000000">switch</text>
<polygon fill="none" stroke="#000000" points="172.5,-520 172.5,-576 263.5,-576 263.5,-520 172.5,-520"/>
<text text-anchor="start" x="182.4405" y="-557" font-family="Helvetica,sans-Serif" font-size="10.00" fill="#000000">msg_unknown()</text>
<text text-anchor="start" x="203.0025" y="-533" font-family="Helvetica,sans-Serif" font-size="10.00" fill="#000000">close()</text>
</g>
<!-- A5&#45;&gt;A7 -->
<g id="edge4" class="edge">
<title>A5&#45;&gt;A7</title>
<path fill="none" stroke="#000000" d="M284.228,-776.2903C273.8281,-750.3733 263.2923,-724.1174 253.7595,-700.3611"/>
<polygon fill="none" stroke="#000000" points="281.0788,-777.8409 288.0512,-785.8181 287.5753,-775.2339 281.0788,-777.8409"/>
</g>
<!-- A6&#45;&gt;A3 -->
<g id="edge6" class="edge">
<title>A6&#45;&gt;A3</title>
<path fill="none" stroke="#000000" d="M420.9917,-483.781C414.3472,-467.074 407.7026,-450.1475 401.5,-434 399.8828,-429.7898 398.247,-425.4956 396.6047,-421.154"/>
<polygon fill="#000000" stroke="#000000" points="393.0037,-411.5882 400.7383,-419.3616 394.7652,-416.2676 396.5268,-420.947 396.5268,-420.947 396.5268,-420.947 394.7652,-416.2676 392.3154,-422.5325 393.0037,-411.5882 393.0037,-411.5882"/>
<text text-anchor="middle" x="407.3001" y="-422.5743" font-family="Helvetica,sans-Serif" font-size="10.00" fill="#000000">1</text>
<text text-anchor="middle" x="406.4454" y="-467.0549" font-family="Helvetica,sans-Serif" font-size="10.00" fill="#000000">has</text>
</g>
<!-- A8 -->
<g id="node9" class="node">
<title>A8</title>
<polygon fill="none" stroke="#000000" points="410.5,-330 410.5,-362 560.5,-362 560.5,-330 410.5,-330"/>
<text text-anchor="start" x="453.5455" y="-343" font-family="Helvetica,sans-Serif" font-size="10.00" fill="#000000">ConnectionG3</text>
<polygon fill="none" stroke="#000000" points="410.5,-298 410.5,-330 560.5,-330 560.5,-298 410.5,-298"/>
<text text-anchor="start" x="420.487" y="-311" font-family="Helvetica,sans-Serif" font-size="10.00" fill="#000000">remote_stream:ConnectionG3</text>
<polygon fill="none" stroke="#000000" points="410.5,-254 410.5,-298 560.5,-298 560.5,-254 410.5,-254"/>
<text text-anchor="start" x="466.054" y="-279" font-family="Helvetica,sans-Serif" font-size="10.00" fill="#000000">healthy()</text>
<text text-anchor="start" x="470.5025" y="-267" font-family="Helvetica,sans-Serif" font-size="10.00" fill="#000000">close()</text>
</g>
<!-- A6&#45;&gt;A8 -->
<g id="edge5" class="edge">
<title>A6&#45;&gt;A8</title>
<path fill="none" stroke="#000000" d="M478.3685,-473.6691C480.0687,-434.1731 481.827,-393.3258 483.1723,-362.0732"/>
<polygon fill="none" stroke="#000000" points="474.8712,-473.5333 477.9378,-483.6747 481.8648,-473.8345 474.8712,-473.5333"/>
</g>
<!-- A7&#45;&gt;A3 -->
<g id="edge8" class="edge">
<title>A7&#45;&gt;A3</title>
<path fill="none" stroke="#000000" d="M254.1161,-519.7083C259.8714,-507.5039 266.0613,-495.3029 272.5,-484 286.0537,-460.2067 295.6001,-458.1541 308.5,-434 310.2529,-430.7178 311.9697,-427.3559 313.6482,-423.937"/>
<polygon fill="#000000" stroke="#000000" points="317.9998,-414.7692 317.7769,-425.7328 315.8557,-419.2862 313.7116,-423.8032 313.7116,-423.8032 313.7116,-423.8032 315.8557,-419.2862 309.6463,-421.8735 317.9998,-414.7692 317.9998,-414.7692"/>
<text text-anchor="middle" x="317.8629" y="-431.7687" font-family="Helvetica,sans-Serif" font-size="10.00" fill="#000000">1</text>
<text text-anchor="middle" x="254.262" y="-496.7088" font-family="Helvetica,sans-Serif" font-size="10.00" fill="#000000">has</text>
</g>
<!-- A9 -->
<g id="node10" class="node">
<title>A9</title>
<polygon fill="none" stroke="#000000" points="125.5,-330 125.5,-362 281.5,-362 281.5,-330 125.5,-330"/>
<text text-anchor="start" x="168.211" y="-343" font-family="Helvetica,sans-Serif" font-size="10.00" fill="#000000">ConnectionG3P</text>
<polygon fill="none" stroke="#000000" points="125.5,-298 125.5,-330 281.5,-330 281.5,-298 125.5,-298"/>
<text text-anchor="start" x="135.1525" y="-311" font-family="Helvetica,sans-Serif" font-size="10.00" fill="#000000">remote_stream:ConnectionG3P</text>
<polygon fill="none" stroke="#000000" points="125.5,-254 125.5,-298 281.5,-298 281.5,-254 125.5,-254"/>
<text text-anchor="start" x="184.054" y="-279" font-family="Helvetica,sans-Serif" font-size="10.00" fill="#000000">healthy()</text>
<text text-anchor="start" x="188.5025" y="-267" font-family="Helvetica,sans-Serif" font-size="10.00" fill="#000000">close()</text>
</g>
<!-- A7&#45;&gt;A9 -->
<g id="edge7" class="edge">
<title>A7&#45;&gt;A9</title>
<path fill="none" stroke="#000000" d="M212.8528,-509.7531C210.5717,-460.5471 207.9134,-403.2043 206.0152,-362.2565"/>
<polygon fill="none" stroke="#000000" points="209.3591,-509.972 213.3185,-519.7991 216.3516,-509.6477 209.3591,-509.972"/>
</g>
<!-- A8&#45;&gt;A8 -->
<g id="edge15" class="edge">
<title>A8&#45;&gt;A8</title>
<path fill="none" stroke="#000000" d="M560.6684,-348.7195C571.3394,-342.1337 578.5,-328.5605 578.5,-308 578.5,-292.9008 574.6382,-281.57 568.3604,-274.0076"/>
<polygon fill="#000000" stroke="#000000" points="560.6684,-267.2805 571.1583,-270.4763 564.4321,-270.5721 568.1958,-273.8637 568.1958,-273.8637 568.1958,-273.8637 564.4321,-270.5721 565.2334,-277.251 560.6684,-267.2805 560.6684,-267.2805"/>
<text text-anchor="middle" x="579.877" y="-269.8507" font-family="Helvetica,sans-Serif" font-size="10.00" fill="#000000">0..1</text>
<text text-anchor="middle" x="570.593" y="-328.3557" font-family="Helvetica,sans-Serif" font-size="10.00" fill="#000000">has</text>
</g>
<!-- A12 -->
<g id="node13" class="node">
<title>A12</title>
<polygon fill="none" stroke="#000000" points="506.5,-100 506.5,-132 628.5,-132 628.5,-100 506.5,-100"/>
<text text-anchor="start" x="543.8845" y="-113" font-family="Helvetica,sans-Serif" font-size="10.00" fill="#000000">InverterG3</text>
<polygon fill="none" stroke="#000000" points="506.5,-68 506.5,-100 628.5,-100 628.5,-68 506.5,-68"/>
<text text-anchor="start" x="536.9355" y="-81" font-family="Helvetica,sans-Serif" font-size="10.00" fill="#000000">__ha_restarts</text>
<polygon fill="none" stroke="#000000" points="506.5,0 506.5,-68 628.5,-68 628.5,0 506.5,0"/>
<text text-anchor="start" x="516.1035" y="-49" font-family="Helvetica,sans-Serif" font-size="10.00" fill="#000000">async_create_remote()</text>
<text text-anchor="start" x="526.382" y="-37" font-family="Helvetica,sans-Serif" font-size="10.00" fill="#000000">async_publ_mqtt()</text>
<text text-anchor="start" x="552.5025" y="-13" font-family="Helvetica,sans-Serif" font-size="10.00" fill="#000000">close()</text>
</g>
<!-- A8&#45;&gt;A12 -->
<g id="edge14" class="edge">
<title>A8&#45;&gt;A12</title>
<path fill="none" stroke="#000000" d="M507.022,-244.4839C518.719,-209.9635 533.1714,-167.3112 545.0148,-132.3588"/>
<polygon fill="none" stroke="#000000" points="503.6947,-243.3974 503.8003,-253.9917 510.3245,-245.6439 503.6947,-243.3974"/>
</g>
<!-- A9&#45;&gt;A9 -->
<g id="edge17" class="edge">
<title>A9&#45;&gt;A9</title>
<path fill="none" stroke="#000000" d="M281.8471,-348.2542C292.4443,-341.506 299.5,-328.0879 299.5,-308 299.5,-293.248 295.6948,-282.093 289.4763,-274.5351"/>
<polygon fill="#000000" stroke="#000000" points="281.8471,-267.7458 292.3089,-271.0321 285.5822,-271.0697 289.3174,-274.3937 289.3174,-274.3937 289.3174,-274.3937 285.5822,-271.0697 286.3258,-277.7553 281.8471,-267.7458 281.8471,-267.7458"/>
<text text-anchor="middle" x="301.0069" y="-270.4817" font-family="Helvetica,sans-Serif" font-size="10.00" fill="#000000">0..1</text>
<text text-anchor="middle" x="291.5637" y="-327.7732" font-family="Helvetica,sans-Serif" font-size="10.00" fill="#000000">has</text>
</g>
<!-- A13 -->
<g id="node14" class="node">
<title>A13</title>
<polygon fill="none" stroke="#000000" points="144.5,-94 144.5,-126 263.5,-126 263.5,-94 144.5,-94"/>
<text text-anchor="start" x="177.05" y="-107" font-family="Helvetica,sans-Serif" font-size="10.00" fill="#000000">InverterG3P</text>
<polygon fill="none" stroke="#000000" points="144.5,-62 144.5,-94 263.5,-94 263.5,-62 144.5,-62"/>
<text text-anchor="start" x="173.4355" y="-75" font-family="Helvetica,sans-Serif" font-size="10.00" fill="#000000">__ha_restarts</text>
<polygon fill="none" stroke="#000000" points="144.5,-6 144.5,-62 263.5,-62 263.5,-6 144.5,-6"/>
<text text-anchor="start" x="154.268" y="-43" font-family="Helvetica,sans-Serif" font-size="10.00" fill="#000000">async_create_remote(</text>
<text text-anchor="start" x="161.2175" y="-31" font-family="Helvetica,sans-Serif" font-size="10.00" fill="#000000">)async_publ_mqtt()</text>
<text text-anchor="start" x="189.0025" y="-19" font-family="Helvetica,sans-Serif" font-size="10.00" fill="#000000">close()</text>
</g>
<!-- A9&#45;&gt;A13 -->
<g id="edge16" class="edge">
<title>A9&#45;&gt;A13</title>
<path fill="none" stroke="#000000" d="M203.5,-243.955C203.5,-207.4743 203.5,-162.045 203.5,-126.2187"/>
<polygon fill="none" stroke="#000000" points="200.0001,-243.9917 203.5,-253.9917 207.0001,-243.9917 200.0001,-243.9917"/>
</g>
<!-- A10 -->
<g id="node11" class="node">
<title>A10</title>
<polygon fill="none" stroke="#000000" points="281.5,-698 281.5,-730 397.5,-730 397.5,-698 281.5,-698"/>
<text text-anchor="start" x="309.774" y="-711" font-family="Helvetica,sans-Serif" font-size="10.00" fill="#000000">AsyncStream</text>
<polygon fill="none" stroke="#000000" points="281.5,-618 281.5,-698 397.5,-698 397.5,-618 281.5,-618"/>
<text text-anchor="start" x="325.053" y="-679" font-family="Helvetica,sans-Serif" font-size="10.00" fill="#000000">reader</text>
<text text-anchor="start" x="327.283" y="-667" font-family="Helvetica,sans-Serif" font-size="10.00" fill="#000000">writer</text>
<text text-anchor="start" x="329.497" y="-655" font-family="Helvetica,sans-Serif" font-size="10.00" fill="#000000">addr</text>
<text text-anchor="start" x="325.053" y="-643" font-family="Helvetica,sans-Serif" font-size="10.00" fill="#000000">r_addr</text>
<text text-anchor="start" x="325.608" y="-631" font-family="Helvetica,sans-Serif" font-size="10.00" fill="#000000">l_addr</text>
<polygon fill="none" stroke="#000000" points="281.5,-490 281.5,-618 397.5,-618 397.5,-490 281.5,-490"/>
<text text-anchor="start" x="291.1575" y="-599" font-family="Helvetica,sans-Serif" font-size="10.00" fill="#000000">&lt;async&gt;server_loop()</text>
<text text-anchor="start" x="293.378" y="-587" font-family="Helvetica,sans-Serif" font-size="10.00" fill="#000000">&lt;async&gt;client_loop()</text>
<text text-anchor="start" x="311.154" y="-575" font-family="Helvetica,sans-Serif" font-size="10.00" fill="#000000">&lt;async&gt;loop</text>
<text text-anchor="start" x="327.282" y="-563" font-family="Helvetica,sans-Serif" font-size="10.00" fill="#000000">disc()</text>
<text text-anchor="start" x="324.5025" y="-551" font-family="Helvetica,sans-Serif" font-size="10.00" fill="#000000">close()</text>
<text text-anchor="start" x="304.7705" y="-527" font-family="Helvetica,sans-Serif" font-size="10.00" fill="#000000">__async_read()</text>
<text text-anchor="start" x="309.78" y="-515" font-family="Helvetica,sans-Serif" font-size="10.00" fill="#000000">async_write()</text>
<text text-anchor="start" x="298.107" y="-503" font-family="Helvetica,sans-Serif" font-size="10.00" fill="#000000">__async_forward()</text>
</g>
<!-- A10&#45;&gt;A8 -->
<g id="edge9" class="edge">
<title>A10&#45;&gt;A8</title>
<path fill="none" stroke="#000000" d="M402.0319,-480.6532C422.1536,-439.0316 443.3588,-395.1687 459.3606,-362.0691"/>
<polygon fill="none" stroke="#000000" points="398.824,-479.2474 397.6226,-489.7739 405.1262,-482.2941 398.824,-479.2474"/>
</g>
<!-- A10&#45;&gt;A9 -->
<g id="edge10" class="edge">
<title>A10&#45;&gt;A9</title>
<path fill="none" stroke="#000000" d="M281.2511,-480.6532C262.5076,-439.0316 242.7548,-395.1687 227.849,-362.0691"/>
<polygon fill="none" stroke="#000000" points="278.0609,-482.0929 285.3584,-489.7739 284.4435,-479.2186 278.0609,-482.0929"/>
</g>
<!-- A11&#45;&gt;A12 -->
<g id="edge11" class="edge">
<title>A11&#45;&gt;A12</title>
<path fill="none" stroke="#000000" d="M622.3544,-225.9369C611.8702,-195.3687 600.1133,-161.0894 590.181,-132.1301"/>
<polygon fill="none" stroke="#000000" points="619.1547,-227.3962 625.7097,-235.7198 625.7761,-225.1252 619.1547,-227.3962"/>
</g>
<!-- A11&#45;&gt;A13 -->
<g id="edge12" class="edge">
<title>A11&#45;&gt;A13</title>
<path fill="none" stroke="#000000" d="M622.0673,-226.7211C613.147,-210.1001 601.7805,-194.0346 587.5,-182 538.0407,-140.3192 358.189,-98.0533 263.2057,-77.9953"/>
<polygon fill="none" stroke="#000000" points="619.1257,-228.6587 626.7743,-235.9901 625.367,-225.4892 619.1257,-228.6587"/>
</g>
<!-- A14 -->
<g id="node15" class="node">
<title>A14</title>
<polygon fill="none" stroke="#000000" points="178.5,-1320 178.5,-1352 281.5,-1352 281.5,-1320 178.5,-1320"/>
<text text-anchor="start" x="219.162" y="-1333" font-family="Helvetica,sans-Serif" font-size="10.00" fill="#000000">Infos</text>
<polygon fill="none" stroke="#000000" points="178.5,-1264 178.5,-1320 281.5,-1320 281.5,-1264 178.5,-1264"/>
<text text-anchor="start" x="221.9415" y="-1301" font-family="Helvetica,sans-Serif" font-size="10.00" fill="#000000">stat</text>
<text text-anchor="start" x="197.486" y="-1289" font-family="Helvetica,sans-Serif" font-size="10.00" fill="#000000">new_stat_data</text>
<text text-anchor="start" x="211.1035" y="-1277" font-family="Helvetica,sans-Serif" font-size="10.00" fill="#000000">info_dev</text>
<polygon fill="none" stroke="#000000" points="178.5,-1112 178.5,-1264 281.5,-1264 281.5,-1112 178.5,-1112"/>
<text text-anchor="start" x="205.8355" y="-1245" font-family="Helvetica,sans-Serif" font-size="10.00" fill="#000000">static_init()</text>
<text text-anchor="start" x="203.8845" y="-1233" font-family="Helvetica,sans-Serif" font-size="10.00" fill="#000000">dev_value()</text>
<text text-anchor="start" x="200.8305" y="-1221" font-family="Helvetica,sans-Serif" font-size="10.00" fill="#000000">inc_counter()</text>
<text text-anchor="start" x="199.1605" y="-1209" font-family="Helvetica,sans-Serif" font-size="10.00" fill="#000000">dec_counter()</text>
<text text-anchor="start" x="197.21" y="-1197" font-family="Helvetica,sans-Serif" font-size="10.00" fill="#000000">ha_proxy_conf</text>
<text text-anchor="start" x="212.213" y="-1185" font-family="Helvetica,sans-Serif" font-size="10.00" fill="#000000">ha_conf</text>
<text text-anchor="start" x="204.994" y="-1173" font-family="Helvetica,sans-Serif" font-size="10.00" fill="#000000">ha_remove</text>
<text text-anchor="start" x="206.3745" y="-1161" font-family="Helvetica,sans-Serif" font-size="10.00" fill="#000000">update_db</text>
<text text-anchor="start" x="190.537" y="-1149" font-family="Helvetica,sans-Serif" font-size="10.00" fill="#000000">set_db_def_value</text>
<text text-anchor="start" x="199.9855" y="-1137" font-family="Helvetica,sans-Serif" font-size="10.00" fill="#000000">get_db_value</text>
<text text-anchor="start" x="188.3225" y="-1125" font-family="Helvetica,sans-Serif" font-size="10.00" fill="#000000">ignore_this_device</text>
</g>
<!-- A15 -->
<g id="node16" class="node">
<title>A15</title>
<polygon fill="none" stroke="#000000" points="431.5,-940 431.5,-972 498.5,-972 498.5,-940 431.5,-940"/>
<text text-anchor="start" x="447.493" y="-953" font-family="Helvetica,sans-Serif" font-size="10.00" fill="#000000">InfosG3</text>
<polygon fill="none" stroke="#000000" points="431.5,-920 431.5,-940 498.5,-940 498.5,-920 431.5,-920"/>
<polygon fill="none" stroke="#000000" points="431.5,-876 431.5,-920 498.5,-920 498.5,-876 431.5,-876"/>
<text text-anchor="start" x="441.384" y="-901" font-family="Helvetica,sans-Serif" font-size="10.00" fill="#000000">ha_confs()</text>
<text text-anchor="start" x="449.168" y="-889" font-family="Helvetica,sans-Serif" font-size="10.00" fill="#000000">parse()</text>
</g>
<!-- A14&#45;&gt;A15 -->
<g id="edge18" class="edge">
<title>A14&#45;&gt;A15</title>
<path fill="none" stroke="#000000" d="M287.6238,-1123.7067C291.4001,-1119.5529 295.359,-1115.6229 299.5,-1112 342.985,-1073.9563 380.3024,-1104.4478 419.5,-1062 442.1524,-1037.4693 453.4109,-1001.3633 459.0018,-972.2357"/>
<polygon fill="none" stroke="#000000" points="284.8741,-1121.5366 281.0238,-1131.4071 290.1891,-1126.0921 284.8741,-1121.5366"/>
</g>
<!-- A16 -->
<g id="node17" class="node">
<title>A16</title>
<polygon fill="none" stroke="#000000" points="187.5,-940 187.5,-972 254.5,-972 254.5,-940 187.5,-940"/>
<text text-anchor="start" x="200.1585" y="-953" font-family="Helvetica,sans-Serif" font-size="10.00" fill="#000000">InfosG3P</text>
<polygon fill="none" stroke="#000000" points="187.5,-920 187.5,-940 254.5,-940 254.5,-920 187.5,-920"/>
<polygon fill="none" stroke="#000000" points="187.5,-876 187.5,-920 254.5,-920 254.5,-876 187.5,-876"/>
<text text-anchor="start" x="197.384" y="-901" font-family="Helvetica,sans-Serif" font-size="10.00" fill="#000000">ha_confs()</text>
<text text-anchor="start" x="205.168" y="-889" font-family="Helvetica,sans-Serif" font-size="10.00" fill="#000000">parse()</text>
</g>
<!-- A14&#45;&gt;A16 -->
<g id="edge19" class="edge">
<title>A14&#45;&gt;A16</title>
<path fill="none" stroke="#000000" d="M225.6878,-1101.5366C224.3454,-1055.5988 222.9195,-1006.7991 221.9029,-972.012"/>
<polygon fill="none" stroke="#000000" points="222.191,-1101.7024 225.9817,-1111.5959 229.188,-1101.4979 222.191,-1101.7024"/>
</g>
<!-- A15&#45;&gt;A6 -->
<g id="edge21" class="edge">
<title>A15&#45;&gt;A6</title>
<path fill="none" stroke="#000000" d="M465.7237,-875.9684C466.6086,-841.2366 467.8512,-792.4655 469.031,-746.1572"/>
<polygon fill="#000000" stroke="#000000" points="469.2896,-736.0098 473.5333,-746.1212 469.1622,-741.0082 469.0348,-746.0066 469.0348,-746.0066 469.0348,-746.0066 469.1622,-741.0082 464.5362,-745.8919 469.2896,-736.0098 469.2896,-736.0098"/>
</g>
<!-- A16&#45;&gt;A7 -->
<g id="edge20" class="edge">
<title>A16&#45;&gt;A7</title>
<path fill="none" stroke="#000000" d="M220.0411,-875.9684C219.6216,-832.0581 218.9877,-765.7079 218.4579,-710.2644"/>
<polygon fill="#000000" stroke="#000000" points="218.3603,-700.0467 222.9557,-710.0032 218.4081,-705.0465 218.456,-710.0463 218.456,-710.0463 218.456,-710.0463 218.4081,-705.0465 213.9562,-710.0893 218.3603,-700.0467 218.3603,-700.0467"/>
</g>
<!-- A17 -->
<g id="node18" class="node">
<title>A17</title>
<polygon fill="none" stroke="#000000" points=".5,-336 .5,-368 107.5,-368 107.5,-336 .5,-336"/>
<text text-anchor="start" x="24.2695" y="-349" font-family="Helvetica,sans-Serif" font-size="10.00" fill="#000000">ModbusConn</text>
<polygon fill="none" stroke="#000000" points=".5,-268 .5,-336 107.5,-336 107.5,-268 .5,-268"/>
<text text-anchor="start" x="44.5515" y="-317" font-family="Helvetica,sans-Serif" font-size="10.00" fill="#000000">host</text>
<text text-anchor="start" x="45.387" y="-305" font-family="Helvetica,sans-Serif" font-size="10.00" fill="#000000">port</text>
<text text-anchor="start" x="43.997" y="-293" font-family="Helvetica,sans-Serif" font-size="10.00" fill="#000000">addr</text>
<text text-anchor="start" x="10.383" y="-281" font-family="Helvetica,sans-Serif" font-size="10.00" fill="#000000">stream:InverterG3P</text>
<polygon fill="none" stroke="#000000" points=".5,-248 .5,-268 107.5,-268 107.5,-248 .5,-248"/>
</g>
<!-- A17&#45;&gt;A13 -->
<g id="edge22" class="edge">
<title>A17&#45;&gt;A13</title>
<path fill="none" stroke="#000000" d="M80.8473,-247.8342C91.2165,-226.5814 103.6422,-202.8044 116.5,-182 126.2708,-166.1905 137.6417,-149.852 148.8772,-134.6044"/>
<polygon fill="#000000" stroke="#000000" points="155.0942,-126.2561 152.7306,-136.9642 152.1078,-130.2663 149.1214,-134.2765 149.1214,-134.2765 149.1214,-134.2765 152.1078,-130.2663 145.5123,-131.5887 155.0942,-126.2561 155.0942,-126.2561"/>
<text text-anchor="middle" x="151.047" y="-142.8423" font-family="Helvetica,sans-Serif" font-size="10.00" fill="#000000">1</text>
<text text-anchor="middle" x="81.2636" y="-224.8385" font-family="Helvetica,sans-Serif" font-size="10.00" fill="#000000">has</text>
</g>
</g>
</svg>
