<?xml version="1.0" encoding="UTF-8" standalone="no"?>
<!DOCTYPE svg PUBLIC "-//W3C//DTD SVG 1.1//EN"
 "http://www.w3.org/Graphics/SVG/1.1/DTD/svg11.dtd">
<!-- Generated by graphviz version 2.40.1 (20161225.0304)
 -->
<!-- Title: G Pages: 1 -->
<svg width="346pt" height="1052pt"
 viewBox="0.00 0.00 345.85 1052.00" xmlns="http://www.w3.org/2000/svg" xmlns:xlink="http://www.w3.org/1999/xlink">
<g id="graph0" class="graph" transform="scale(1 1) rotate(0) translate(4 1048)">
<title>G</title>
<polygon fill="#ffffff" stroke="transparent" points="-4,4 -4,-1048 341.848,-1048 341.848,4 -4,4"/>
<!-- A0 -->
<g id="node1" class="node">
<title>A0</title>
<polygon fill="#fff8dc" stroke="#000000" points="108.5444,-1020 .1516,-1020 .1516,-984 114.5444,-984 114.5444,-1014 108.5444,-1020"/>
<polyline fill="none" stroke="#000000" points="108.5444,-1020 108.5444,-1014 "/>
<polyline fill="none" stroke="#000000" points="114.5444,-1014 108.5444,-1014 "/>
<text text-anchor="middle" x="57.348" y="-1005" font-family="Helvetica,sans-Serif" font-size="10.00" fill="#000000">You can stick notes</text>
<text text-anchor="middle" x="57.348" y="-993" font-family="Helvetica,sans-Serif" font-size="10.00" fill="#000000">on diagrams too!</text>
</g>
<!-- A1 -->
<g id="node2" class="node">
<title>A1</title>
<polygon fill="none" stroke="#000000" points="133.348,-1012 133.348,-1044 204.348,-1044 204.348,-1012 133.348,-1012"/>
<text text-anchor="start" x="143.293" y="-1025" font-family="Helvetica,sans-Serif" font-size="10.00" fill="#000000">IterRegistry</text>
<polygon fill="none" stroke="#000000" points="133.348,-992 133.348,-1012 204.348,-1012 204.348,-992 133.348,-992"/>
<polygon fill="none" stroke="#000000" points="133.348,-960 133.348,-992 204.348,-992 204.348,-960 133.348,-960"/>
<text text-anchor="start" x="150.787" y="-973" font-family="Helvetica,sans-Serif" font-size="10.00" fill="#000000">__iter__</text>
</g>
<!-- A2 -->
<g id="node3" class="node">
<title>A2</title>
<polygon fill="none" stroke="#000000" points="101.348,-878 101.348,-910 235.348,-910 235.348,-878 101.348,-878"/>
<text text-anchor="start" x="148.0655" y="-891" font-family="Helvetica,sans-Serif" font-size="10.00" fill="#000000">Message</text>
<polygon fill="none" stroke="#000000" points="101.348,-714 101.348,-878 235.348,-878 235.348,-714 101.348,-714"/>
<text text-anchor="start" x="131.6745" y="-859" font-family="Helvetica,sans-Serif" font-size="10.00" fill="#000000">server_side:bool</text>
<text text-anchor="start" x="128.891" y="-847" font-family="Helvetica,sans-Serif" font-size="10.00" fill="#000000">header_valid:bool</text>
<text text-anchor="start" x="121.662" y="-835" font-family="Helvetica,sans-Serif" font-size="10.00" fill="#000000">header_len:unsigned</text>
<text text-anchor="start" x="127.496" y="-823" font-family="Helvetica,sans-Serif" font-size="10.00" fill="#000000">data_len:unsigned</text>
<text text-anchor="start" x="146.6725" y="-811" font-family="Helvetica,sans-Serif" font-size="10.00" fill="#000000">unique_id</text>
<text text-anchor="start" x="150.5615" y="-799" font-family="Helvetica,sans-Serif" font-size="10.00" fill="#000000">node_id</text>
<text text-anchor="start" x="147.5065" y="-787" font-family="Helvetica,sans-Serif" font-size="10.00" fill="#000000">sug_area</text>
<text text-anchor="start" x="118.337" y="-775" font-family="Helvetica,sans-Serif" font-size="10.00" fill="#000000">_recv_buffer:bytearray</text>
<text text-anchor="start" x="116.9425" y="-763" font-family="Helvetica,sans-Serif" font-size="10.00" fill="#000000">_send_buffer:bytearray</text>
<text text-anchor="start" x="111.1145" y="-751" font-family="Helvetica,sans-Serif" font-size="10.00" fill="#000000">_forward_buffer:bytearray</text>
<text text-anchor="start" x="150.5615" y="-739" font-family="Helvetica,sans-Serif" font-size="10.00" fill="#000000">db:Infos</text>
<text text-anchor="start" x="139.174" y="-727" font-family="Helvetica,sans-Serif" font-size="10.00" fill="#000000">new_data:list</text>
<polygon fill="none" stroke="#000000" points="101.348,-646 101.348,-714 235.348,-714 235.348,-646 101.348,-646"/>
<text text-anchor="start" x="118.0575" y="-695" font-family="Helvetica,sans-Serif" font-size="10.00" fill="#000000">_read():void&lt;abstract&gt;</text>
<text text-anchor="start" x="142.7925" y="-683" font-family="Helvetica,sans-Serif" font-size="10.00" fill="#000000">close():void</text>
<text text-anchor="start" x="128.6205" y="-671" font-family="Helvetica,sans-Serif" font-size="10.00" fill="#000000">inc_counter():void</text>
<text text-anchor="start" x="126.9505" y="-659" font-family="Helvetica,sans-Serif" font-size="10.00" fill="#000000">dec_counter():void</text>
</g>
<!-- A1&#45;&gt;A2 -->
<g id="edge1" class="edge">
<title>A1&#45;&gt;A2</title>
<path fill="none" stroke="#000000" d="M168.348,-949.5789C168.348,-937.4616 168.348,-924.0319 168.348,-910.1761"/>
<polygon fill="none" stroke="#000000" points="164.8481,-949.8673 168.348,-959.8673 171.8481,-949.8673 164.8481,-949.8673"/>
</g>
<!-- A3 -->
<g id="node4" class="node">
<title>A3</title>
<polygon fill="none" stroke="#000000" points="2.348,-564 2.348,-596 116.348,-596 116.348,-564 2.348,-564"/>
<text text-anchor="start" x="45.456" y="-577" font-family="Helvetica,sans-Serif" font-size="10.00" fill="#000000">Talent</text>
<polygon fill="none" stroke="#000000" points="2.348,-484 2.348,-564 116.348,-564 116.348,-484 2.348,-484"/>
<text text-anchor="start" x="12.111" y="-545" font-family="Helvetica,sans-Serif" font-size="10.00" fill="#000000">await_conn_resp_cnt</text>
<text text-anchor="start" x="47.1255" y="-533" font-family="Helvetica,sans-Serif" font-size="10.00" fill="#000000">id_str</text>
<text text-anchor="start" x="27.948" y="-521" font-family="Helvetica,sans-Serif" font-size="10.00" fill="#000000">contact_name</text>
<text text-anchor="start" x="31.288" y="-509" font-family="Helvetica,sans-Serif" font-size="10.00" fill="#000000">contact_mail</text>
<text text-anchor="start" x="45.46" y="-497" font-family="Helvetica,sans-Serif" font-size="10.00" fill="#000000">switch</text>
<polygon fill="none" stroke="#000000" points="2.348,-368 2.348,-484 116.348,-484 116.348,-368 2.348,-368"/>
<text text-anchor="start" x="16.8405" y="-465" font-family="Helvetica,sans-Serif" font-size="10.00" fill="#000000">msg_contact_info()</text>
<text text-anchor="start" x="18.7805" y="-453" font-family="Helvetica,sans-Serif" font-size="10.00" fill="#000000">msg_ota_update()</text>
<text text-anchor="start" x="24.6245" y="-441" font-family="Helvetica,sans-Serif" font-size="10.00" fill="#000000">msg_get_time()</text>
<text text-anchor="start" x="12.6765" y="-429" font-family="Helvetica,sans-Serif" font-size="10.00" fill="#000000">msg_collector_data()</text>
<text text-anchor="start" x="14.6215" y="-417" font-family="Helvetica,sans-Serif" font-size="10.00" fill="#000000">msg_inverter_data()</text>
<text text-anchor="start" x="23.7885" y="-405" font-family="Helvetica,sans-Serif" font-size="10.00" fill="#000000">msg_unknown()</text>
<text text-anchor="start" x="44.3505" y="-381" font-family="Helvetica,sans-Serif" font-size="10.00" fill="#000000">close()</text>
</g>
<!-- A2&#45;&gt;A3 -->
<g id="edge2" class="edge">
<title>A2&#45;&gt;A3</title>
<path fill="none" stroke="#000000" d="M116.0241,-635.9094C111.1228,-622.5995 106.198,-609.2257 101.4086,-596.2197"/>
<polygon fill="none" stroke="#000000" points="112.8465,-637.4092 119.5866,-645.5837 119.4153,-634.9902 112.8465,-637.4092"/>
</g>
<!-- A4 -->
<g id="node5" class="node">
<title>A4</title>
<polygon fill="none" stroke="#000000" points="240.348,-528 240.348,-560 331.348,-560 331.348,-528 240.348,-528"/>
<text text-anchor="start" x="258.343" y="-541" font-family="Helvetica,sans-Serif" font-size="10.00" fill="#000000">SolarmanV5</text>
<polygon fill="none" stroke="#000000" points="240.348,-460 240.348,-528 331.348,-528 331.348,-460 240.348,-460"/>
<text text-anchor="start" x="270.846" y="-509" font-family="Helvetica,sans-Serif" font-size="10.00" fill="#000000">control</text>
<text text-anchor="start" x="273.9055" y="-497" font-family="Helvetica,sans-Serif" font-size="10.00" fill="#000000">serial</text>
<text text-anchor="start" x="278.904" y="-485" font-family="Helvetica,sans-Serif" font-size="10.00" fill="#000000">snr</text>
<text text-anchor="start" x="271.96" y="-473" font-family="Helvetica,sans-Serif" font-size="10.00" fill="#000000">switch</text>
<polygon fill="none" stroke="#000000" points="240.348,-404 240.348,-460 331.348,-460 331.348,-404 240.348,-404"/>
<text text-anchor="start" x="250.2885" y="-441" font-family="Helvetica,sans-Serif" font-size="10.00" fill="#000000">msg_unknown()</text>
<text text-anchor="start" x="270.8505" y="-417" font-family="Helvetica,sans-Serif" font-size="10.00" fill="#000000">close()</text>
</g>
<!-- A2&#45;&gt;A4 -->
<g id="edge3" class="edge">
<title>A2&#45;&gt;A4</title>
<path fill="none" stroke="#000000" d="M224.4907,-635.9638C234.8302,-609.8056 245.2681,-583.3986 254.5096,-560.0185"/>
<polygon fill="none" stroke="#000000" points="221.1093,-634.9972 220.6882,-645.5837 227.6192,-637.5704 221.1093,-634.9972"/>
</g>
<!-- A5 -->
<g id="node6" class="node">
<title>A5</title>
<polygon fill="none" stroke="#000000" points="2.348,-272 2.348,-304 94.348,-304 94.348,-272 2.348,-272"/>
<text text-anchor="start" x="11.953" y="-285" font-family="Helvetica,sans-Serif" font-size="10.00" fill="#000000">AsyncStreamG3</text>
<polygon fill="none" stroke="#000000" points="2.348,-240 2.348,-272 94.348,-272 94.348,-240 2.348,-240"/>
<text text-anchor="start" x="16.679" y="-253" font-family="Helvetica,sans-Serif" font-size="10.00" fill="#000000">remoteStream</text>
<polygon fill="none" stroke="#000000" points="2.348,-208 2.348,-240 94.348,-240 94.348,-208 2.348,-208"/>
<text text-anchor="start" x="33.3505" y="-221" font-family="Helvetica,sans-Serif" font-size="10.00" fill="#000000">close()</text>
</g>
<!-- A3&#45;&gt;A5 -->
<g id="edge4" class="edge">
<title>A3&#45;&gt;A5</title>
<path fill="none" stroke="#000000" d="M53.2851,-357.4356C52.3634,-338.4985 51.463,-319.9992 50.6889,-304.0952"/>
<polygon fill="none" stroke="#000000" points="49.8014,-357.8578 53.7835,-367.6758 56.7932,-357.5174 49.8014,-357.8578"/>
</g>
<!-- A6 -->
<g id="node7" class="node">
<title>A6</title>
<polygon fill="none" stroke="#000000" points="239.348,-256 239.348,-288 338.348,-288 338.348,-256 239.348,-256"/>
<text text-anchor="start" x="249.1185" y="-269" font-family="Helvetica,sans-Serif" font-size="10.00" fill="#000000">AsyncStreamG3P</text>
<polygon fill="none" stroke="#000000" points="239.348,-224 239.348,-256 338.348,-256 338.348,-224 239.348,-224"/>
<text text-anchor="start" x="273.8505" y="-237" font-family="Helvetica,sans-Serif" font-size="10.00" fill="#000000">close()</text>
</g>
<!-- A4&#45;&gt;A6 -->
<g id="edge5" class="edge">
<title>A4&#45;&gt;A6</title>
<path fill="none" stroke="#000000" d="M286.5221,-393.5504C287.0148,-356.4316 287.5569,-315.5991 287.9213,-288.1417"/>
<polygon fill="none" stroke="#000000" points="283.0178,-393.8616 286.3846,-403.9072 290.0171,-393.9545 283.0178,-393.8616"/>
</g>
<!-- A9 -->
<g id="node10" class="node">
<title>A9</title>
<polygon fill="none" stroke="#000000" points="73.348,-112 73.348,-144 151.348,-144 151.348,-112 73.348,-112"/>
<text text-anchor="start" x="88.7325" y="-125" font-family="Helvetica,sans-Serif" font-size="10.00" fill="#000000">InverterG3</text>
<polygon fill="none" stroke="#000000" points="73.348,-92 73.348,-112 151.348,-112 151.348,-92 73.348,-92"/>
<polygon fill="none" stroke="#000000" points="73.348,0 73.348,-92 151.348,-92 151.348,0 73.348,0"/>
<text text-anchor="start" x="99.289" y="-73" font-family="Helvetica,sans-Serif" font-size="10.00" fill="#000000">async</text>
<text text-anchor="start" x="82.9035" y="-61" font-family="Helvetica,sans-Serif" font-size="10.00" fill="#000000">server_loop()</text>
<text text-anchor="start" x="99.289" y="-49" font-family="Helvetica,sans-Serif" font-size="10.00" fill="#000000">async</text>
<text text-anchor="start" x="85.124" y="-37" font-family="Helvetica,sans-Serif" font-size="10.00" fill="#000000">client_loop()</text>
<text text-anchor="start" x="97.3505" y="-13" font-family="Helvetica,sans-Serif" font-size="10.00" fill="#000000">close()</text>
</g>
<!-- A5&#45;&gt;A9 -->
<g id="edge10" class="edge">
<title>A5&#45;&gt;A9</title>
<path fill="none" stroke="#000000" d="M68.5679,-197.8679C74.4855,-180.8546 81.0278,-162.0454 87.2114,-144.2678"/>
<polygon fill="none" stroke="#000000" points="65.1428,-197.0613 65.1632,-207.6562 71.7543,-199.361 65.1428,-197.0613"/>
</g>
<!-- A10 -->
<g id="node11" class="node">
<title>A10</title>
<polygon fill="none" stroke="#000000" points="180.348,-100 180.348,-132 258.348,-132 258.348,-100 180.348,-100"/>
<text text-anchor="start" x="192.398" y="-113" font-family="Helvetica,sans-Serif" font-size="10.00" fill="#000000">InverterG3P</text>
<polygon fill="none" stroke="#000000" points="180.348,-80 180.348,-100 258.348,-100 258.348,-80 180.348,-80"/>
<polygon fill="none" stroke="#000000" points="180.348,-12 180.348,-80 258.348,-80 258.348,-12 180.348,-12"/>
<text text-anchor="start" x="206.289" y="-61" font-family="Helvetica,sans-Serif" font-size="10.00" fill="#000000">async</text>
<text text-anchor="start" x="189.9035" y="-49" font-family="Helvetica,sans-Serif" font-size="10.00" fill="#000000">server_loop()</text>
<text text-anchor="start" x="204.3505" y="-25" font-family="Helvetica,sans-Serif" font-size="10.00" fill="#000000">close()</text>
</g>
<!-- A6&#45;&gt;A10 -->
<g id="edge11" class="edge">
<title>A6&#45;&gt;A10</title>
<path fill="none" stroke="#000000" d="M272.7275,-214.3453C263.6403,-190.1127 252.0278,-159.1463 241.9561,-132.2883"/>
<polygon fill="none" stroke="#000000" points="269.5407,-215.8153 276.3291,-223.9496 276.095,-213.3574 269.5407,-215.8153"/>
</g>
<!-- A7 -->
<g id="node8" class="node">
<title>A7</title>
<polygon fill="none" stroke="#000000" points="140.348,-522 140.348,-554 219.348,-554 219.348,-522 140.348,-522"/>
<text text-anchor="start" x="150.122" y="-535" font-family="Helvetica,sans-Serif" font-size="10.00" fill="#000000">AsyncStream</text>
<polygon fill="none" stroke="#000000" points="140.348,-442 140.348,-522 219.348,-522 219.348,-442 140.348,-442"/>
<text text-anchor="start" x="165.401" y="-503" font-family="Helvetica,sans-Serif" font-size="10.00" fill="#000000">reader</text>
<text text-anchor="start" x="167.631" y="-491" font-family="Helvetica,sans-Serif" font-size="10.00" fill="#000000">writer</text>
<text text-anchor="start" x="169.845" y="-479" font-family="Helvetica,sans-Serif" font-size="10.00" fill="#000000">addr</text>
<text text-anchor="start" x="165.401" y="-467" font-family="Helvetica,sans-Serif" font-size="10.00" fill="#000000">r_addr</text>
<text text-anchor="start" x="165.956" y="-455" font-family="Helvetica,sans-Serif" font-size="10.00" fill="#000000">l_addr</text>
<polygon fill="none" stroke="#000000" points="140.348,-410 140.348,-442 219.348,-442 219.348,-410 140.348,-410"/>
<text text-anchor="start" x="164.8505" y="-423" font-family="Helvetica,sans-Serif" font-size="10.00" fill="#000000">close()</text>
</g>
<!-- A7&#45;&gt;A5 -->
<g id="edge6" class="edge">
<title>A7&#45;&gt;A5</title>
<path fill="none" stroke="#000000" d="M142.9395,-400.9735C137.3273,-389.7498 131.3828,-378.4833 125.348,-368 112.9282,-346.4252 97.6678,-323.6113 84.0174,-304.2438"/>
<polygon fill="none" stroke="#000000" points="139.8036,-402.528 147.3645,-409.9497 146.0821,-399.4328 139.8036,-402.528"/>
</g>
<!-- A7&#45;&gt;A6 -->
<g id="edge7" class="edge">
<title>A7&#45;&gt;A6</title>
<path fill="none" stroke="#000000" d="M215.99,-400.5426C221.0761,-389.5694 226.2911,-378.4858 231.348,-368 244.4267,-340.8805 259.9685,-310.4533 271.5173,-288.1651"/>
<polygon fill="none" stroke="#000000" points="212.7676,-399.1723 211.7543,-409.7185 219.1232,-402.1061 212.7676,-399.1723"/>
</g>
<!-- A8 -->
<g id="node9" class="node">
<title>A8</title>
<polygon fill="none" stroke="#000000" points="112.348,-286 112.348,-318 220.348,-318 220.348,-286 112.348,-286"/>
<text text-anchor="start" x="149.4015" y="-299" font-family="Helvetica,sans-Serif" font-size="10.00" fill="#000000">Inverter</text>
<polygon fill="none" stroke="#000000" points="112.348,-194 112.348,-286 220.348,-286 220.348,-194 112.348,-194"/>
<text text-anchor="start" x="142.452" y="-267" font-family="Helvetica,sans-Serif" font-size="10.00" fill="#000000">cls.db_stat</text>
<text text-anchor="start" x="135.7885" y="-255" font-family="Helvetica,sans-Serif" font-size="10.00" fill="#000000">cls.entity_prfx</text>
<text text-anchor="start" x="126.6235" y="-243" font-family="Helvetica,sans-Serif" font-size="10.00" fill="#000000">cls.discovery_prfx</text>
<text text-anchor="start" x="126.0595" y="-231" font-family="Helvetica,sans-Serif" font-size="10.00" fill="#000000">cls.proxy_node_id</text>
<text text-anchor="start" x="122.1705" y="-219" font-family="Helvetica,sans-Serif" font-size="10.00" fill="#000000">cls.proxy_unique_id</text>
<text text-anchor="start" x="149.126" y="-207" font-family="Helvetica,sans-Serif" font-size="10.00" fill="#000000">cls.mqtt</text>
</g>
<!-- A8&#45;&gt;A9 -->
<g id="edge8" class="edge">
<title>A8&#45;&gt;A9</title>
<path fill="none" stroke="#000000" d="M145.243,-184.0868C141.4032,-171.0027 137.396,-157.3488 133.5532,-144.2549"/>
<polygon fill="none" stroke="#000000" points="141.9669,-185.3528 148.1413,-193.9625 148.6836,-183.3816 141.9669,-185.3528"/>
</g>
<!-- A8&#45;&gt;A10 -->
<g id="edge9" class="edge">
<title>A8&#45;&gt;A10</title>
<path fill="none" stroke="#000000" d="M187.086,-184.0038C192.0224,-166.8663 197.2391,-148.7556 202.0051,-132.2092"/>
<polygon fill="none" stroke="#000000" points="183.6222,-183.3844 184.2175,-193.9625 190.3487,-185.322 183.6222,-183.3844"/>
</g>
</g>
</svg>
