<?xml version="1.0" encoding="UTF-8" standalone="no"?>
<!DOCTYPE svg PUBLIC "-//W3C//DTD SVG 1.1//EN"
 "http://www.w3.org/Graphics/SVG/1.1/DTD/svg11.dtd">
<!-- Generated by graphviz version 2.40.1 (20161225.0304)
 -->
<!-- Title: G Pages: 1 -->
<svg width="463pt" height="882pt"
 viewBox="0.00 0.00 463.35 882.00" xmlns="http://www.w3.org/2000/svg" xmlns:xlink="http://www.w3.org/1999/xlink">
<g id="graph0" class="graph" transform="scale(1 1) rotate(0) translate(4 878)">
<title>G</title>
<polygon fill="#ffffff" stroke="transparent" points="-4,4 -4,-878 459.348,-878 459.348,4 -4,4"/>
<!-- A0 -->
<g id="node1" class="node">
<title>A0</title>
<polygon fill="#fff8dc" stroke="#000000" points="108.5444,-850 .1516,-850 .1516,-814 114.5444,-814 114.5444,-844 108.5444,-850"/>
<polyline fill="none" stroke="#000000" points="108.5444,-850 108.5444,-844 "/>
<polyline fill="none" stroke="#000000" points="114.5444,-844 108.5444,-844 "/>
<text text-anchor="middle" x="57.348" y="-835" font-family="Helvetica,sans-Serif" font-size="10.00" fill="#000000">You can stick notes</text>
<text text-anchor="middle" x="57.348" y="-823" font-family="Helvetica,sans-Serif" font-size="10.00" fill="#000000">on diagrams too!</text>
</g>
<!-- A1 -->
<g id="node2" class="node">
<title>A1</title>
<polygon fill="none" stroke="#000000" points="133.348,-842 133.348,-874 204.348,-874 204.348,-842 133.348,-842"/>
<text text-anchor="start" x="143.293" y="-855" font-family="Helvetica,sans-Serif" font-size="10.00" fill="#000000">IterRegistry</text>
<polygon fill="none" stroke="#000000" points="133.348,-822 133.348,-842 204.348,-842 204.348,-822 133.348,-822"/>
<polygon fill="none" stroke="#000000" points="133.348,-790 133.348,-822 204.348,-822 204.348,-790 133.348,-790"/>
<text text-anchor="start" x="150.787" y="-803" font-family="Helvetica,sans-Serif" font-size="10.00" fill="#000000">__iter__</text>
</g>
<!-- A3 -->
<g id="node4" class="node">
<title>A3</title>
<polygon fill="none" stroke="#000000" points="20.348,-708 20.348,-740 316.348,-740 316.348,-708 20.348,-708"/>
<text text-anchor="start" x="151.4015" y="-721" font-family="Helvetica,sans-Serif" font-size="10.00" fill="#000000">Inverter</text>
<polygon fill="none" stroke="#000000" points="20.348,-592 20.348,-708 316.348,-708 316.348,-592 20.348,-592"/>
<text text-anchor="start" x="144.452" y="-689" font-family="Helvetica,sans-Serif" font-size="10.00" fill="#000000">cls.db_stat</text>
<text text-anchor="start" x="137.7885" y="-677" font-family="Helvetica,sans-Serif" font-size="10.00" fill="#000000">cls.entity_prfx</text>
<text text-anchor="start" x="128.6235" y="-665" font-family="Helvetica,sans-Serif" font-size="10.00" fill="#000000">cls.discovery_prfx</text>
<text text-anchor="start" x="128.0595" y="-653" font-family="Helvetica,sans-Serif" font-size="10.00" fill="#000000">cls.proxy_node_id</text>
<text text-anchor="start" x="124.1705" y="-641" font-family="Helvetica,sans-Serif" font-size="10.00" fill="#000000">cls.proxy_unique_id</text>
<text text-anchor="start" x="140.0135" y="-629" font-family="Helvetica,sans-Serif" font-size="10.00" fill="#000000">cls.mqtt:Mqtt</text>
<text text-anchor="start" x="137.7835" y="-605" font-family="Helvetica,sans-Serif" font-size="10.00" fill="#000000">__ha_restarts</text>
<polygon fill="none" stroke="#000000" points="20.348,-560 20.348,-592 316.348,-592 316.348,-560 20.348,-560"/>
<text text-anchor="start" x="30.266" y="-573" font-family="Helvetica,sans-Serif" font-size="10.00" fill="#000000">async_create_remote(inv_prot, conn_class)async_publ_mqtt()</text>
</g>
<!-- A1&#45;&gt;A3 -->
<g id="edge5" class="edge">
<title>A1&#45;&gt;A3</title>
<path fill="none" stroke="#000000" d="M168.348,-779.6728C168.348,-767.2695 168.348,-753.6887 168.348,-740.1336"/>
<polygon fill="none" stroke="#000000" points="164.8481,-779.7881 168.348,-789.7881 171.8481,-779.7881 164.8481,-779.7881"/>
</g>
<!-- A2 -->
<g id="node3" class="node">
<title>A2</title>
<polygon fill="none" stroke="#000000" points="27.348,-466 27.348,-510 149.348,-510 149.348,-466 27.348,-466"/>
<text text-anchor="start" x="78.625" y="-491" font-family="Helvetica,sans-Serif" font-size="10.00" fill="#000000">Mqtt</text>
<text text-anchor="start" x="55.8295" y="-479" font-family="Helvetica,sans-Serif" font-size="10.00" fill="#000000">&lt;&lt;Singleton&gt;&gt;</text>
<polygon fill="none" stroke="#000000" points="27.348,-410 27.348,-466 149.348,-466 149.348,-410 27.348,-410"/>
<text text-anchor="start" x="45.8355" y="-447" font-family="Helvetica,sans-Serif" font-size="10.00" fill="#000000">&lt;static&gt;ha_restarts</text>
<text text-anchor="start" x="53.6145" y="-435" font-family="Helvetica,sans-Serif" font-size="10.00" fill="#000000">&lt;static&gt;__client</text>
<text text-anchor="start" x="37.2215" y="-423" font-family="Helvetica,sans-Serif" font-size="10.00" fill="#000000">&lt;static&gt;__cb_MqttIsUp</text>
<polygon fill="none" stroke="#000000" points="27.348,-366 27.348,-410 149.348,-410 149.348,-366 27.348,-366"/>
<text text-anchor="start" x="50.284" y="-391" font-family="Helvetica,sans-Serif" font-size="10.00" fill="#000000">&lt;async&gt;publish()</text>
<text text-anchor="start" x="54.4525" y="-379" font-family="Helvetica,sans-Serif" font-size="10.00" fill="#000000">&lt;async&gt;close()</text>
</g>
<!-- A3&#45;&gt;A2 -->
<g id="edge4" class="edge">
<title>A3&#45;&gt;A2</title>
<path fill="none" stroke="#000000" d="M130.0325,-548.4638C126.3726,-538.7653 122.694,-529.0169 119.1193,-519.544"/>
<polygon fill="#000000" stroke="#000000" points="130.068,-548.5583 135.9288,-552.7596 134.3048,-559.7855 128.444,-555.5841 130.068,-548.5583"/>
<polygon fill="#000000" stroke="#000000" points="115.5839,-510.1751 123.3248,-517.9424 117.3492,-514.8532 119.1145,-519.5312 119.1145,-519.5312 119.1145,-519.5312 117.3492,-514.8532 114.9043,-521.12 115.5839,-510.1751 115.5839,-510.1751"/>
</g>
<!-- A4 -->
<g id="node5" class="node">
<title>A4</title>
<polygon fill="none" stroke="#000000" points="168.348,-460 168.348,-492 329.348,-492 329.348,-460 168.348,-460"/>
<text text-anchor="start" x="220.508" y="-473" font-family="Helvetica,sans-Serif" font-size="10.00" fill="#000000">InverterBase</text>
<polygon fill="none" stroke="#000000" points="168.348,-440 168.348,-460 329.348,-460 329.348,-440 168.348,-440"/>
<polygon fill="none" stroke="#000000" points="168.348,-384 168.348,-440 329.348,-440 329.348,-384 168.348,-384"/>
<text text-anchor="start" x="178.274" y="-421" font-family="Helvetica,sans-Serif" font-size="10.00" fill="#000000">&lt;async&gt;disc(shutdown_started)</text>
<text text-anchor="start" x="178.5535" y="-409" font-family="Helvetica,sans-Serif" font-size="10.00" fill="#000000">&lt;async&gt;async_create_remote()</text>
<text text-anchor="start" x="229.402" y="-397" font-family="Helvetica,sans-Serif" font-size="10.00" fill="#000000">healthy()</text>
</g>
<!-- A3&#45;&gt;A4 -->
<g id="edge1" class="edge">
<title>A3&#45;&gt;A4</title>
<path fill="none" stroke="#000000" d="M205.9667,-550.3105C213.5193,-530.2961 221.1855,-509.9807 227.8831,-492.2319"/>
<polygon fill="none" stroke="#000000" points="202.6472,-549.1938 202.3912,-559.7855 209.1964,-551.6652 202.6472,-549.1938"/>
</g>
<!-- A5 -->
<g id="node6" class="node">
<title>A5</title>
<polygon fill="none" stroke="#000000" points="187.348,-284 187.348,-316 309.348,-316 309.348,-284 187.348,-284"/>
<text text-anchor="start" x="224.7325" y="-297" font-family="Helvetica,sans-Serif" font-size="10.00" fill="#000000">InverterG3</text>
<polygon fill="none" stroke="#000000" points="187.348,-228 187.348,-284 309.348,-284 309.348,-228 187.348,-228"/>
<text text-anchor="start" x="238.345" y="-265" font-family="Helvetica,sans-Serif" font-size="10.00" fill="#000000">addr</text>
<text text-anchor="start" x="208.901" y="-253" font-family="Helvetica,sans-Serif" font-size="10.00" fill="#000000">remote:StreamPtr</text>
<text text-anchor="start" x="214.18" y="-241" font-family="Helvetica,sans-Serif" font-size="10.00" fill="#000000">local:StreamPtr</text>
<polygon fill="none" stroke="#000000" points="187.348,-172 187.348,-228 309.348,-228 309.348,-172 187.348,-172"/>
<text text-anchor="start" x="196.9515" y="-209" font-family="Helvetica,sans-Serif" font-size="10.00" fill="#000000">async_create_remote()</text>
<text text-anchor="start" x="233.3505" y="-185" font-family="Helvetica,sans-Serif" font-size="10.00" fill="#000000">close()</text>
</g>
<!-- A4&#45;&gt;A5 -->
<g id="edge2" class="edge">
<title>A4&#45;&gt;A5</title>
<path fill="none" stroke="#000000" d="M248.348,-373.9068C248.348,-355.4405 248.348,-335.1691 248.348,-316.2449"/>
<polygon fill="none" stroke="#000000" points="244.8481,-373.9601 248.348,-383.9602 251.8481,-373.9602 244.8481,-373.9601"/>
</g>
<!-- A6 -->
<g id="node7" class="node">
<title>A6</title>
<polygon fill="none" stroke="#000000" points="333.348,-284 333.348,-316 455.348,-316 455.348,-284 333.348,-284"/>
<text text-anchor="start" x="367.398" y="-297" font-family="Helvetica,sans-Serif" font-size="10.00" fill="#000000">InverterG3P</text>
<polygon fill="none" stroke="#000000" points="333.348,-228 333.348,-284 455.348,-284 455.348,-228 333.348,-228"/>
<text text-anchor="start" x="384.345" y="-265" font-family="Helvetica,sans-Serif" font-size="10.00" fill="#000000">addr</text>
<text text-anchor="start" x="354.901" y="-253" font-family="Helvetica,sans-Serif" font-size="10.00" fill="#000000">remote:StreamPtr</text>
<text text-anchor="start" x="360.18" y="-241" font-family="Helvetica,sans-Serif" font-size="10.00" fill="#000000">local:StreamPtr</text>
<polygon fill="none" stroke="#000000" points="333.348,-172 333.348,-228 455.348,-228 455.348,-172 333.348,-172"/>
<text text-anchor="start" x="342.9515" y="-209" font-family="Helvetica,sans-Serif" font-size="10.00" fill="#000000">async_create_remote()</text>
<text text-anchor="start" x="379.3505" y="-185" font-family="Helvetica,sans-Serif" font-size="10.00" fill="#000000">close()</text>
</g>
<!-- A4&#45;&gt;A6 -->
<g id="edge3" class="edge">
<title>A4&#45;&gt;A6</title>
<path fill="none" stroke="#000000" d="M295.0446,-375.9511C309.349,-356.9439 325.2087,-335.87 339.9781,-316.2449"/>
<polygon fill="none" stroke="#000000" points="292.2338,-373.8654 289.0171,-383.9602 297.8269,-378.0747 292.2338,-373.8654"/>
</g>
<!-- A7 -->
<g id="node8" class="node">
<title>A7</title>
<polygon fill="none" stroke="#000000" points="362.9901,-36 273.7059,-36 273.7059,0 362.9901,0 362.9901,-36"/>
<text text-anchor="middle" x="318.348" y="-15" font-family="Helvetica,sans-Serif" font-size="10.00" fill="#000000">&lt;&lt;AsyncIfc&gt;&gt;</text>
</g>
<!-- A5&#45;&gt;A7 -->
<g id="edge7" class="edge">
<title>A5&#45;&gt;A7</title>
<path fill="none" stroke="#000000" d="M240.5289,-171.6857C240.2064,-143.9437 243.216,-112.5864 254.348,-86 261.2443,-69.5295 274.0532,-54.6444 286.4105,-43.0292"/>
<polygon fill="#000000" stroke="#000000" points="293.9894,-36.2348 289.5473,-46.2607 290.2664,-39.5724 286.5434,-42.91 286.5434,-42.91 286.5434,-42.91 290.2664,-39.5724 283.5396,-39.5594 293.9894,-36.2348 293.9894,-36.2348"/>
<text text-anchor="middle" x="286.135" y="-51.6279" font-family="Helvetica,sans-Serif" font-size="10.00" fill="#000000">1..2</text>
</g>
<!-- A8 -->
<g id="node9" class="node">
<title>A8</title>
<polygon fill="none" stroke="#000000" points="373.6053,-122 263.0907,-122 263.0907,-86 373.6053,-86 373.6053,-122"/>
<text text-anchor="middle" x="318.348" y="-101" font-family="Helvetica,sans-Serif" font-size="10.00" fill="#000000">&lt;&lt;MessageProt&gt;&gt;</text>
</g>
<!-- A5&#45;&gt;A8 -->
<g id="edge6" class="edge">
<title>A5&#45;&gt;A8</title>
<path fill="none" stroke="#000000" d="M284.3733,-171.9495C291.5966,-157.5029 298.7616,-143.1729 304.6363,-131.4235"/>
<polygon fill="#000000" stroke="#000000" points="309.2405,-122.215 308.7932,-133.1718 307.0044,-126.6872 304.7683,-131.1593 304.7683,-131.1593 304.7683,-131.1593 307.0044,-126.6872 300.7434,-129.1468 309.2405,-122.215 309.2405,-122.215"/>
<text text-anchor="middle" x="308.6942" y="-139.2076" font-family="Helvetica,sans-Serif" font-size="10.00" fill="#000000">1..2</text>
</g>
<!-- A6&#45;&gt;A7 -->
<g id="edge9" class="edge">
<title>A6&#45;&gt;A7</title>
<path fill="none" stroke="#000000" d="M398.9275,-171.9166C398.1587,-144.0552 394.0617,-112.5537 382.348,-86 375.087,-69.5402 362.0955,-54.573 349.7057,-42.8973"/>
<polygon fill="#000000" stroke="#000000" points="342.1257,-36.0689 352.5675,-39.4186 345.8407,-39.4154 349.5556,-42.762 349.5556,-42.762 349.5556,-42.762 345.8407,-39.4154 346.5437,-46.1054 342.1257,-36.0689 342.1257,-36.0689"/>
<text text-anchor="middle" x="361.2504" y="-38.921" font-family="Helvetica,sans-Serif" font-size="10.00" fill="#000000">1..2</text>
</g>
<!-- A6&#45;&gt;A8 -->
<g id="edge8" class="edge">
<title>A6&#45;&gt;A8</title>
<path fill="none" stroke="#000000" d="M355.2349,-171.9495C347.314,-157.3584 339.4577,-142.8863 333.0441,-131.0718"/>
<polygon fill="#000000" stroke="#000000" points="328.2362,-122.215 336.962,-128.8567 330.6217,-126.6093 333.0071,-131.0036 333.0071,-131.0036 333.0071,-131.0036 330.6217,-126.6093 329.0523,-133.1505 328.2362,-122.215 328.2362,-122.215"/>
<text text-anchor="middle" x="344.3124" y="-131.1127" font-family="Helvetica,sans-Serif" font-size="10.00" fill="#000000">1..2</text>
</g>
<!-- A8&#45;&gt;A7 -->
<g id="edge10" class="edge">
<title>A8&#45;&gt;A7</title>
<path fill="none" stroke="#000000" stroke-dasharray="5,2" d="M318.348,-85.7616C318.348,-74.3597 318.348,-59.4342 318.348,-46.494"/>
<polygon fill="#000000" stroke="#000000" points="318.348,-36.2121 322.8481,-46.2121 318.348,-41.2121 318.3481,-46.2121 318.3481,-46.2121 318.3481,-46.2121 318.348,-41.2121 313.8481,-46.2121 318.348,-36.2121 318.348,-36.2121"/>
<text text-anchor="middle" x="309.8956" y="-64.6355" font-family="Helvetica,sans-Serif" font-size="10.00" fill="#000000">use</text>
</g>
<!-- A9 -->
<g id="node10" class="node">
<title>A9</title>
<polygon fill="none" stroke="#000000" points="347.348,-466 347.348,-498 454.348,-498 454.348,-466 347.348,-466"/>
<text text-anchor="start" x="371.1175" y="-479" font-family="Helvetica,sans-Serif" font-size="10.00" fill="#000000">ModbusConn</text>
<polygon fill="none" stroke="#000000" points="347.348,-398 347.348,-466 454.348,-466 454.348,-398 347.348,-398"/>
<text text-anchor="start" x="391.3995" y="-447" font-family="Helvetica,sans-Serif" font-size="10.00" fill="#000000">host</text>
<text text-anchor="start" x="392.235" y="-435" font-family="Helvetica,sans-Serif" font-size="10.00" fill="#000000">port</text>
<text text-anchor="start" x="390.845" y="-423" font-family="Helvetica,sans-Serif" font-size="10.00" fill="#000000">addr</text>
<text text-anchor="start" x="357.231" y="-411" font-family="Helvetica,sans-Serif" font-size="10.00" fill="#000000">stream:InverterG3P</text>
<polygon fill="none" stroke="#000000" points="347.348,-378 347.348,-398 454.348,-398 454.348,-378 347.348,-378"/>
</g>
<!-- A9&#45;&gt;A6 -->
<g id="edge11" class="edge">
<title>A9&#45;&gt;A6</title>
<path fill="none" stroke="#000000" d="M398.4907,-377.9458C397.9843,-361.5736 397.4269,-343.5504 396.8896,-326.177"/>
<polygon fill="#000000" stroke="#000000" points="396.576,-316.0403 401.3831,-325.8963 396.7307,-321.0379 396.8853,-326.0355 396.8853,-326.0355 396.8853,-326.0355 396.7307,-321.0379 392.3874,-326.1746 396.576,-316.0403 396.576,-316.0403"/>
<text text-anchor="middle" x="405.5847" y="-330.8965" font-family="Helvetica,sans-Serif" font-size="10.00" fill="#000000">1</text>
<text text-anchor="middle" x="389.482" y="-357.0896" font-family="Helvetica,sans-Serif" font-size="10.00" fill="#000000">has</text>
</g>
</g>
</svg>
