<?xml version="1.0" encoding="UTF-8" standalone="no"?>
<!DOCTYPE svg PUBLIC "-//W3C//DTD SVG 1.1//EN"
 "http://www.w3.org/Graphics/SVG/1.1/DTD/svg11.dtd">
<!-- Generated by graphviz version 2.40.1 (20161225.0304)
 -->
<!-- Title: G Pages: 1 -->
<svg width="673pt" height="1216pt"
 viewBox="0.00 0.00 673.35 1216.00" xmlns="http://www.w3.org/2000/svg" xmlns:xlink="http://www.w3.org/1999/xlink">
<g id="graph0" class="graph" transform="scale(1 1) rotate(0) translate(4 1212)">
<title>G</title>
<polygon fill="#ffffff" stroke="transparent" points="-4,4 -4,-1212 669.348,-1212 669.348,4 -4,4"/>
<!-- A0 -->
<g id="node1" class="node">
<title>A0</title>
<polygon fill="#fff8dc" stroke="#000000" points="108.5444,-1112 .1516,-1112 .1516,-1076 114.5444,-1076 114.5444,-1106 108.5444,-1112"/>
<polyline fill="none" stroke="#000000" points="108.5444,-1112 108.5444,-1106 "/>
<polyline fill="none" stroke="#000000" points="114.5444,-1106 108.5444,-1106 "/>
<text text-anchor="middle" x="57.348" y="-1097" font-family="Helvetica,sans-Serif" font-size="10.00" fill="#000000">You can stick notes</text>
<text text-anchor="middle" x="57.348" y="-1085" font-family="Helvetica,sans-Serif" font-size="10.00" fill="#000000">on diagrams too!</text>
</g>
<!-- A1 -->
<g id="node2" class="node">
<title>A1</title>
<polygon fill="none" stroke="#000000" points="639.0297,-816 569.6663,-816 569.6663,-780 639.0297,-780 639.0297,-816"/>
<text text-anchor="middle" x="604.348" y="-795" font-family="Helvetica,sans-Serif" font-size="10.00" fill="#000000">Singleton</text>
</g>
<!-- A2 -->
<g id="node3" class="node">
<title>A2</title>
<polygon fill="none" stroke="#000000" points="543.348,-524 543.348,-556 665.348,-556 665.348,-524 543.348,-524"/>
<text text-anchor="start" x="594.625" y="-537" font-family="Helvetica,sans-Serif" font-size="10.00" fill="#000000">Mqtt</text>
<polygon fill="none" stroke="#000000" points="543.348,-468 543.348,-524 665.348,-524 665.348,-468 543.348,-468"/>
<text text-anchor="start" x="561.8355" y="-505" font-family="Helvetica,sans-Serif" font-size="10.00" fill="#000000">&lt;static&gt;ha_restarts</text>
<text text-anchor="start" x="569.6145" y="-493" font-family="Helvetica,sans-Serif" font-size="10.00" fill="#000000">&lt;static&gt;__client</text>
<text text-anchor="start" x="553.2215" y="-481" font-family="Helvetica,sans-Serif" font-size="10.00" fill="#000000">&lt;static&gt;__cb_MqttIsUp</text>
<polygon fill="none" stroke="#000000" points="543.348,-424 543.348,-468 665.348,-468 665.348,-424 543.348,-424"/>
<text text-anchor="start" x="566.284" y="-449" font-family="Helvetica,sans-Serif" font-size="10.00" fill="#000000">&lt;async&gt;publish()</text>
<text text-anchor="start" x="570.4525" y="-437" font-family="Helvetica,sans-Serif" font-size="10.00" fill="#000000">&lt;async&gt;close()</text>
</g>
<!-- A1&#45;&gt;A2 -->
<g id="edge1" class="edge">
<title>A1&#45;&gt;A2</title>
<path fill="none" stroke="#000000" d="M604.348,-769.6429C604.348,-721.5141 604.348,-622.6159 604.348,-556.2865"/>
<polygon fill="none" stroke="#000000" points="600.8481,-769.6555 604.348,-779.6556 607.8481,-769.6556 600.8481,-769.6555"/>
</g>
<!-- A11 -->
<g id="node12" class="node">
<title>A11</title>
<polygon fill="none" stroke="#000000" points="550.348,-282 550.348,-314 658.348,-314 658.348,-282 550.348,-282"/>
<text text-anchor="start" x="587.4015" y="-295" font-family="Helvetica,sans-Serif" font-size="10.00" fill="#000000">Inverter</text>
<polygon fill="none" stroke="#000000" points="550.348,-190 550.348,-282 658.348,-282 658.348,-190 550.348,-190"/>
<text text-anchor="start" x="580.452" y="-263" font-family="Helvetica,sans-Serif" font-size="10.00" fill="#000000">cls.db_stat</text>
<text text-anchor="start" x="573.7885" y="-251" font-family="Helvetica,sans-Serif" font-size="10.00" fill="#000000">cls.entity_prfx</text>
<text text-anchor="start" x="564.6235" y="-239" font-family="Helvetica,sans-Serif" font-size="10.00" fill="#000000">cls.discovery_prfx</text>
<text text-anchor="start" x="564.0595" y="-227" font-family="Helvetica,sans-Serif" font-size="10.00" fill="#000000">cls.proxy_node_id</text>
<text text-anchor="start" x="560.1705" y="-215" font-family="Helvetica,sans-Serif" font-size="10.00" fill="#000000">cls.proxy_unique_id</text>
<text text-anchor="start" x="576.0135" y="-203" font-family="Helvetica,sans-Serif" font-size="10.00" fill="#000000">cls.mqtt:Mqtt</text>
<polygon fill="none" stroke="#000000" points="550.348,-170 550.348,-190 658.348,-190 658.348,-170 550.348,-170"/>
</g>
<!-- A2&#45;&gt;A11 -->
<g id="edge13" class="edge">
<title>A2&#45;&gt;A11</title>
<path fill="none" stroke="#000000" d="M604.348,-423.8663C604.348,-390.0029 604.348,-348.7174 604.348,-314.0468"/>
</g>
<!-- A3 -->
<g id="node4" class="node">
<title>A3</title>
<polygon fill="none" stroke="#000000" points="274.348,-276 274.348,-308 346.348,-308 346.348,-276 274.348,-276"/>
<text text-anchor="start" x="292.5655" y="-289" font-family="Helvetica,sans-Serif" font-size="10.00" fill="#000000">Modbus</text>
<polygon fill="none" stroke="#000000" points="274.348,-232 274.348,-276 346.348,-276 346.348,-232 274.348,-232"/>
<text text-anchor="start" x="304.2395" y="-257" font-family="Helvetica,sans-Serif" font-size="10.00" fill="#000000">err</text>
<text text-anchor="start" x="290.9015" y="-245" font-family="Helvetica,sans-Serif" font-size="10.00" fill="#000000">retry_cnt</text>
<polygon fill="none" stroke="#000000" points="274.348,-176 274.348,-232 346.348,-232 346.348,-176 274.348,-176"/>
<text text-anchor="start" x="284.238" y="-213" font-family="Helvetica,sans-Serif" font-size="10.00" fill="#000000">build_msg()</text>
<text text-anchor="start" x="287.572" y="-201" font-family="Helvetica,sans-Serif" font-size="10.00" fill="#000000">recv_req()</text>
<text text-anchor="start" x="285.072" y="-189" font-family="Helvetica,sans-Serif" font-size="10.00" fill="#000000">recv_resp()</text>
</g>
<!-- A4 -->
<g id="node5" class="node">
<title>A4</title>
<polygon fill="none" stroke="#000000" points="263.348,-1104 263.348,-1136 334.348,-1136 334.348,-1104 263.348,-1104"/>
<text text-anchor="start" x="273.293" y="-1117" font-family="Helvetica,sans-Serif" font-size="10.00" fill="#000000">IterRegistry</text>
<polygon fill="none" stroke="#000000" points="263.348,-1084 263.348,-1104 334.348,-1104 334.348,-1084 263.348,-1084"/>
<polygon fill="none" stroke="#000000" points="263.348,-1052 263.348,-1084 334.348,-1084 334.348,-1052 263.348,-1052"/>
<text text-anchor="start" x="280.787" y="-1065" font-family="Helvetica,sans-Serif" font-size="10.00" fill="#000000">__iter__</text>
</g>
<!-- A5 -->
<g id="node6" class="node">
<title>A5</title>
<polygon fill="none" stroke="#000000" points="231.348,-898 231.348,-930 365.348,-930 365.348,-898 231.348,-898"/>
<text text-anchor="start" x="278.0655" y="-911" font-family="Helvetica,sans-Serif" font-size="10.00" fill="#000000">Message</text>
<polygon fill="none" stroke="#000000" points="231.348,-734 231.348,-898 365.348,-898 365.348,-734 231.348,-734"/>
<text text-anchor="start" x="261.6745" y="-879" font-family="Helvetica,sans-Serif" font-size="10.00" fill="#000000">server_side:bool</text>
<text text-anchor="start" x="258.891" y="-867" font-family="Helvetica,sans-Serif" font-size="10.00" fill="#000000">header_valid:bool</text>
<text text-anchor="start" x="251.662" y="-855" font-family="Helvetica,sans-Serif" font-size="10.00" fill="#000000">header_len:unsigned</text>
<text text-anchor="start" x="257.496" y="-843" font-family="Helvetica,sans-Serif" font-size="10.00" fill="#000000">data_len:unsigned</text>
<text text-anchor="start" x="276.6725" y="-831" font-family="Helvetica,sans-Serif" font-size="10.00" fill="#000000">unique_id</text>
<text text-anchor="start" x="280.5615" y="-819" font-family="Helvetica,sans-Serif" font-size="10.00" fill="#000000">node_id</text>
<text text-anchor="start" x="277.5065" y="-807" font-family="Helvetica,sans-Serif" font-size="10.00" fill="#000000">sug_area</text>
<text text-anchor="start" x="248.337" y="-795" font-family="Helvetica,sans-Serif" font-size="10.00" fill="#000000">_recv_buffer:bytearray</text>
<text text-anchor="start" x="246.9425" y="-783" font-family="Helvetica,sans-Serif" font-size="10.00" fill="#000000">_send_buffer:bytearray</text>
<text text-anchor="start" x="241.1145" y="-771" font-family="Helvetica,sans-Serif" font-size="10.00" fill="#000000">_forward_buffer:bytearray</text>
<text text-anchor="start" x="280.5615" y="-759" font-family="Helvetica,sans-Serif" font-size="10.00" fill="#000000">db:Infos</text>
<text text-anchor="start" x="269.174" y="-747" font-family="Helvetica,sans-Serif" font-size="10.00" fill="#000000">new_data:list</text>
<polygon fill="none" stroke="#000000" points="231.348,-666 231.348,-734 365.348,-734 365.348,-666 231.348,-666"/>
<text text-anchor="start" x="248.0575" y="-715" font-family="Helvetica,sans-Serif" font-size="10.00" fill="#000000">_read():void&lt;abstract&gt;</text>
<text text-anchor="start" x="272.7925" y="-703" font-family="Helvetica,sans-Serif" font-size="10.00" fill="#000000">close():void</text>
<text text-anchor="start" x="258.6205" y="-691" font-family="Helvetica,sans-Serif" font-size="10.00" fill="#000000">inc_counter():void</text>
<text text-anchor="start" x="256.9505" y="-679" font-family="Helvetica,sans-Serif" font-size="10.00" fill="#000000">dec_counter():void</text>
</g>
<!-- A4&#45;&gt;A5 -->
<g id="edge2" class="edge">
<title>A4&#45;&gt;A5</title>
<path fill="none" stroke="#000000" d="M298.348,-1041.7414C298.348,-1010.6043 298.348,-969.5621 298.348,-930.0536"/>
<polygon fill="none" stroke="#000000" points="294.8481,-1041.9047 298.348,-1051.9048 301.8481,-1041.9048 294.8481,-1041.9047"/>
</g>
<!-- A6 -->
<g id="node7" class="node">
<title>A6</title>
<polygon fill="none" stroke="#000000" points="370.348,-584 370.348,-616 484.348,-616 484.348,-584 370.348,-584"/>
<text text-anchor="start" x="413.456" y="-597" font-family="Helvetica,sans-Serif" font-size="10.00" fill="#000000">Talent</text>
<polygon fill="none" stroke="#000000" points="370.348,-480 370.348,-584 484.348,-584 484.348,-480 370.348,-480"/>
<text text-anchor="start" x="380.111" y="-565" font-family="Helvetica,sans-Serif" font-size="10.00" fill="#000000">await_conn_resp_cnt</text>
<text text-anchor="start" x="415.1255" y="-553" font-family="Helvetica,sans-Serif" font-size="10.00" fill="#000000">id_str</text>
<text text-anchor="start" x="395.948" y="-541" font-family="Helvetica,sans-Serif" font-size="10.00" fill="#000000">contact_name</text>
<text text-anchor="start" x="399.288" y="-529" font-family="Helvetica,sans-Serif" font-size="10.00" fill="#000000">contact_mail</text>
<text text-anchor="start" x="402.8925" y="-517" font-family="Helvetica,sans-Serif" font-size="10.00" fill="#000000">db:InfosG3</text>
<text text-anchor="start" x="401.232" y="-505" font-family="Helvetica,sans-Serif" font-size="10.00" fill="#000000">mb:Modbus</text>
<text text-anchor="start" x="413.46" y="-493" font-family="Helvetica,sans-Serif" font-size="10.00" fill="#000000">switch</text>
<polygon fill="none" stroke="#000000" points="370.348,-364 370.348,-480 484.348,-480 484.348,-364 370.348,-364"/>
<text text-anchor="start" x="384.8405" y="-461" font-family="Helvetica,sans-Serif" font-size="10.00" fill="#000000">msg_contact_info()</text>
<text text-anchor="start" x="386.7805" y="-449" font-family="Helvetica,sans-Serif" font-size="10.00" fill="#000000">msg_ota_update()</text>
<text text-anchor="start" x="392.6245" y="-437" font-family="Helvetica,sans-Serif" font-size="10.00" fill="#000000">msg_get_time()</text>
<text text-anchor="start" x="380.6765" y="-425" font-family="Helvetica,sans-Serif" font-size="10.00" fill="#000000">msg_collector_data()</text>
<text text-anchor="start" x="382.6215" y="-413" font-family="Helvetica,sans-Serif" font-size="10.00" fill="#000000">msg_inverter_data()</text>
<text text-anchor="start" x="391.7885" y="-401" font-family="Helvetica,sans-Serif" font-size="10.00" fill="#000000">msg_unknown()</text>
<text text-anchor="start" x="412.3505" y="-377" font-family="Helvetica,sans-Serif" font-size="10.00" fill="#000000">close()</text>
</g>
<!-- A5&#45;&gt;A6 -->
<g id="edge3" class="edge">
<title>A5&#45;&gt;A6</title>
<path fill="none" stroke="#000000" d="M357.819,-656.0073C363.3477,-642.8069 368.9261,-629.488 374.3902,-616.442"/>
<polygon fill="none" stroke="#000000" points="354.4392,-655.017 353.8043,-665.5928 360.8958,-657.7213 354.4392,-655.017"/>
</g>
<!-- A7 -->
<g id="node8" class="node">
<title>A7</title>
<polygon fill="none" stroke="#000000" points="127.348,-548 127.348,-580 218.348,-580 218.348,-548 127.348,-548"/>
<text text-anchor="start" x="145.343" y="-561" font-family="Helvetica,sans-Serif" font-size="10.00" fill="#000000">SolarmanV5</text>
<polygon fill="none" stroke="#000000" points="127.348,-456 127.348,-548 218.348,-548 218.348,-456 127.348,-456"/>
<text text-anchor="start" x="157.846" y="-529" font-family="Helvetica,sans-Serif" font-size="10.00" fill="#000000">control</text>
<text text-anchor="start" x="160.9055" y="-517" font-family="Helvetica,sans-Serif" font-size="10.00" fill="#000000">serial</text>
<text text-anchor="start" x="165.904" y="-505" font-family="Helvetica,sans-Serif" font-size="10.00" fill="#000000">snr</text>
<text text-anchor="start" x="145.058" y="-493" font-family="Helvetica,sans-Serif" font-size="10.00" fill="#000000">db:InfosG3P</text>
<text text-anchor="start" x="146.732" y="-481" font-family="Helvetica,sans-Serif" font-size="10.00" fill="#000000">mb:Modbus</text>
<text text-anchor="start" x="158.96" y="-469" font-family="Helvetica,sans-Serif" font-size="10.00" fill="#000000">switch</text>
<polygon fill="none" stroke="#000000" points="127.348,-400 127.348,-456 218.348,-456 218.348,-400 127.348,-400"/>
<text text-anchor="start" x="137.2885" y="-437" font-family="Helvetica,sans-Serif" font-size="10.00" fill="#000000">msg_unknown()</text>
<text text-anchor="start" x="157.8505" y="-413" font-family="Helvetica,sans-Serif" font-size="10.00" fill="#000000">close()</text>
</g>
<!-- A5&#45;&gt;A7 -->
<g id="edge4" class="edge">
<title>A5&#45;&gt;A7</title>
<path fill="none" stroke="#000000" d="M240.2947,-656.0919C229.716,-630.2328 218.9501,-603.9162 209.2,-580.0827"/>
<polygon fill="none" stroke="#000000" points="237.1556,-657.6626 244.1814,-665.5928 243.6344,-655.0121 237.1556,-657.6626"/>
</g>
<!-- A6&#45;&gt;A3 -->
<g id="edge6" class="edge">
<title>A6&#45;&gt;A3</title>
<path fill="none" stroke="#000000" d="M370.219,-368.906C361.9756,-351.4328 353.6959,-333.8827 346.0351,-317.6444"/>
<polygon fill="#000000" stroke="#000000" points="341.601,-308.2456 349.9376,-315.3696 343.7344,-312.7676 345.8678,-317.2897 345.8678,-317.2897 345.8678,-317.2897 343.7344,-312.7676 341.7979,-319.2097 341.601,-308.2456 341.601,-308.2456"/>
<text text-anchor="middle" x="356.9793" y="-318.0326" font-family="Helvetica,sans-Serif" font-size="10.00" fill="#000000">1</text>
<text text-anchor="middle" x="354.8406" y="-353.119" font-family="Helvetica,sans-Serif" font-size="10.00" fill="#000000">has</text>
</g>
<!-- A8 -->
<g id="node9" class="node">
<title>A8</title>
<polygon fill="none" stroke="#000000" points="364.348,-258 364.348,-290 514.348,-290 514.348,-258 364.348,-258"/>
<text text-anchor="start" x="407.3935" y="-271" font-family="Helvetica,sans-Serif" font-size="10.00" fill="#000000">ConnectionG3</text>
<polygon fill="none" stroke="#000000" points="364.348,-226 364.348,-258 514.348,-258 514.348,-226 364.348,-226"/>
<text text-anchor="start" x="374.335" y="-239" font-family="Helvetica,sans-Serif" font-size="10.00" fill="#000000">remoteStream:ConnectionG3</text>
<polygon fill="none" stroke="#000000" points="364.348,-194 364.348,-226 514.348,-226 514.348,-194 364.348,-194"/>
<text text-anchor="start" x="424.3505" y="-207" font-family="Helvetica,sans-Serif" font-size="10.00" fill="#000000">close()</text>
</g>
<!-- A6&#45;&gt;A8 -->
<g id="edge5" class="edge">
<title>A6&#45;&gt;A8</title>
<path fill="none" stroke="#000000" d="M433.943,-353.7029C435.0429,-330.9727 436.1158,-308.7991 437.012,-290.2778"/>
<polygon fill="none" stroke="#000000" points="430.441,-353.6629 433.4535,-363.8204 437.4328,-354.0013 430.441,-353.6629"/>
</g>
<!-- A7&#45;&gt;A3 -->
<g id="edge8" class="edge">
<title>A7&#45;&gt;A3</title>
<path fill="none" stroke="#000000" d="M208.5342,-399.8871C214.3752,-387.5945 220.7034,-375.3217 227.348,-364 241.4757,-339.9278 249.4905,-336.9696 265.348,-314 266.3556,-312.5405 267.3678,-311.0592 268.3821,-309.5614"/>
<polygon fill="#000000" stroke="#000000" points="274.1947,-300.8381 272.3944,-311.6552 271.4221,-304.999 268.6496,-309.1599 268.6496,-309.1599 268.6496,-309.1599 271.4221,-304.999 264.9048,-306.6646 274.1947,-300.8381 274.1947,-300.8381"/>
<text text-anchor="middle" x="271.1774" y="-317.6092" font-family="Helvetica,sans-Serif" font-size="10.00" fill="#000000">1</text>
<text text-anchor="middle" x="208.7462" y="-376.8883" font-family="Helvetica,sans-Serif" font-size="10.00" fill="#000000">has</text>
</g>
<!-- A9 -->
<g id="node10" class="node">
<title>A9</title>
<polygon fill="none" stroke="#000000" points="82.348,-258 82.348,-290 238.348,-290 238.348,-258 82.348,-258"/>
<text text-anchor="start" x="125.059" y="-271" font-family="Helvetica,sans-Serif" font-size="10.00" fill="#000000">ConnectionG3P</text>
<polygon fill="none" stroke="#000000" points="82.348,-226 82.348,-258 238.348,-258 238.348,-226 82.348,-226"/>
<text text-anchor="start" x="92.0005" y="-239" font-family="Helvetica,sans-Serif" font-size="10.00" fill="#000000">remoteStream:ConnectionG3P</text>
<polygon fill="none" stroke="#000000" points="82.348,-194 82.348,-226 238.348,-226 238.348,-194 82.348,-194"/>
<text text-anchor="start" x="145.3505" y="-207" font-family="Helvetica,sans-Serif" font-size="10.00" fill="#000000">close()</text>
</g>
<!-- A7&#45;&gt;A9 -->
<g id="edge7" class="edge">
<title>A7&#45;&gt;A9</title>
<path fill="none" stroke="#000000" d="M167.4931,-389.6656C165.8292,-355.2775 164.0432,-318.3674 162.6731,-290.0512"/>
<polygon fill="none" stroke="#000000" points="164.0025,-389.9456 167.9818,-399.7648 170.9943,-389.6073 164.0025,-389.9456"/>
</g>
<!-- A8&#45;&gt;A8 -->
<g id="edge15" class="edge">
<title>A8&#45;&gt;A8</title>
<path fill="none" stroke="#000000" d="M514.5164,-272.6238C525.1874,-267.6708 532.348,-257.4629 532.348,-242 532.348,-231.1277 528.8079,-222.8533 522.9966,-217.1769"/>
<polygon fill="#000000" stroke="#000000" points="514.5164,-211.3762 525.3108,-213.3079 518.6433,-214.1991 522.7702,-217.0221 522.7702,-217.0221 522.7702,-217.0221 518.6433,-214.1991 520.2296,-220.7363 514.5164,-211.3762 514.5164,-211.3762"/>
<text text-anchor="middle" x="534.2494" y="-211.6335" font-family="Helvetica,sans-Serif" font-size="10.00" fill="#000000">0..1</text>
<text text-anchor="middle" x="526.5555" y="-253.6532" font-family="Helvetica,sans-Serif" font-size="10.00" fill="#000000">has</text>
</g>
<!-- A12 -->
<g id="node13" class="node">
<title>A12</title>
<polygon fill="none" stroke="#000000" points="460.348,-88 460.348,-120 582.348,-120 582.348,-88 460.348,-88"/>
<text text-anchor="start" x="497.7325" y="-101" font-family="Helvetica,sans-Serif" font-size="10.00" fill="#000000">InverterG3</text>
<polygon fill="none" stroke="#000000" points="460.348,-56 460.348,-88 582.348,-88 582.348,-56 460.348,-56"/>
<text text-anchor="start" x="490.7835" y="-69" font-family="Helvetica,sans-Serif" font-size="10.00" fill="#000000">__ha_restarts</text>
<polygon fill="none" stroke="#000000" points="460.348,0 460.348,-56 582.348,-56 582.348,0 460.348,0"/>
<text text-anchor="start" x="469.9515" y="-37" font-family="Helvetica,sans-Serif" font-size="10.00" fill="#000000">async_create_remote()</text>
<text text-anchor="start" x="506.3505" y="-13" font-family="Helvetica,sans-Serif" font-size="10.00" fill="#000000">close()</text>
</g>
<!-- A8&#45;&gt;A12 -->
<g id="edge14" class="edge">
<title>A8&#45;&gt;A12</title>
<path fill="none" stroke="#000000" d="M465.2524,-184.5048C474.4734,-164.0387 484.8784,-140.9447 494.2007,-120.2539"/>
<polygon fill="none" stroke="#000000" points="462.024,-183.1501 461.1072,-193.7052 468.4062,-186.0256 462.024,-183.1501"/>
</g>
<!-- A9&#45;&gt;A9 -->
<g id="edge17" class="edge">
<title>A9&#45;&gt;A9</title>
<path fill="none" stroke="#000000" d="M238.6951,-272.2739C249.2923,-267.1987 256.348,-257.1074 256.348,-242 256.348,-231.3776 252.8598,-223.2351 247.1049,-217.5725"/>
<polygon fill="#000000" stroke="#000000" points="238.6951,-211.7261 249.4746,-213.7393 242.8005,-214.5802 246.9059,-217.4342 246.9059,-217.4342 246.9059,-217.4342 242.8005,-214.5802 244.3373,-221.1291 238.6951,-211.7261 238.6951,-211.7261"/>
<text text-anchor="middle" x="258.4028" y="-212.1325" font-family="Helvetica,sans-Serif" font-size="10.00" fill="#000000">0..1</text>
<text text-anchor="middle" x="250.5654" y="-253.1774" font-family="Helvetica,sans-Serif" font-size="10.00" fill="#000000">has</text>
</g>
<!-- A13 -->
<g id="node14" class="node">
<title>A13</title>
<polygon fill="none" stroke="#000000" points="251.348,-88 251.348,-120 373.348,-120 373.348,-88 251.348,-88"/>
<text text-anchor="start" x="285.398" y="-101" font-family="Helvetica,sans-Serif" font-size="10.00" fill="#000000">InverterG3P</text>
<polygon fill="none" stroke="#000000" points="251.348,-56 251.348,-88 373.348,-88 373.348,-56 251.348,-56"/>
<text text-anchor="start" x="281.7835" y="-69" font-family="Helvetica,sans-Serif" font-size="10.00" fill="#000000">__ha_restarts</text>
<polygon fill="none" stroke="#000000" points="251.348,0 251.348,-56 373.348,-56 373.348,0 251.348,0"/>
<text text-anchor="start" x="260.9515" y="-37" font-family="Helvetica,sans-Serif" font-size="10.00" fill="#000000">async_create_remote()</text>
<text text-anchor="start" x="297.3505" y="-13" font-family="Helvetica,sans-Serif" font-size="10.00" fill="#000000">close()</text>
</g>
<!-- A9&#45;&gt;A13 -->
<g id="edge16" class="edge">
<title>A9&#45;&gt;A13</title>
<path fill="none" stroke="#000000" d="M207.2144,-185.8836C224.5887,-165.0802 244.3566,-141.4107 262.0261,-120.2539"/>
<polygon fill="none" stroke="#000000" points="204.406,-183.7863 200.6821,-193.7052 209.7787,-188.2734 204.406,-183.7863"/>
</g>
<!-- A10 -->
<g id="node11" class="node">
<title>A10</title>
<polygon fill="none" stroke="#000000" points="236.348,-578 236.348,-610 352.348,-610 352.348,-578 236.348,-578"/>
<text text-anchor="start" x="264.622" y="-591" font-family="Helvetica,sans-Serif" font-size="10.00" fill="#000000">AsyncStream</text>
<polygon fill="none" stroke="#000000" points="236.348,-498 236.348,-578 352.348,-578 352.348,-498 236.348,-498"/>
<text text-anchor="start" x="279.901" y="-559" font-family="Helvetica,sans-Serif" font-size="10.00" fill="#000000">reader</text>
<text text-anchor="start" x="282.131" y="-547" font-family="Helvetica,sans-Serif" font-size="10.00" fill="#000000">writer</text>
<text text-anchor="start" x="284.345" y="-535" font-family="Helvetica,sans-Serif" font-size="10.00" fill="#000000">addr</text>
<text text-anchor="start" x="279.901" y="-523" font-family="Helvetica,sans-Serif" font-size="10.00" fill="#000000">r_addr</text>
<text text-anchor="start" x="280.456" y="-511" font-family="Helvetica,sans-Serif" font-size="10.00" fill="#000000">l_addr</text>
<polygon fill="none" stroke="#000000" points="236.348,-370 236.348,-498 352.348,-498 352.348,-370 236.348,-370"/>
<text text-anchor="start" x="246.0055" y="-479" font-family="Helvetica,sans-Serif" font-size="10.00" fill="#000000">&lt;async&gt;server_loop()</text>
<text text-anchor="start" x="248.226" y="-467" font-family="Helvetica,sans-Serif" font-size="10.00" fill="#000000">&lt;async&gt;client_loop()</text>
<text text-anchor="start" x="266.002" y="-455" font-family="Helvetica,sans-Serif" font-size="10.00" fill="#000000">&lt;async&gt;loop</text>
<text text-anchor="start" x="282.13" y="-443" font-family="Helvetica,sans-Serif" font-size="10.00" fill="#000000">disc()</text>
<text text-anchor="start" x="279.3505" y="-431" font-family="Helvetica,sans-Serif" font-size="10.00" fill="#000000">close()</text>
<text text-anchor="start" x="259.6185" y="-407" font-family="Helvetica,sans-Serif" font-size="10.00" fill="#000000">__async_read()</text>
<text text-anchor="start" x="264.628" y="-395" font-family="Helvetica,sans-Serif" font-size="10.00" fill="#000000">async_write()</text>
<text text-anchor="start" x="252.955" y="-383" font-family="Helvetica,sans-Serif" font-size="10.00" fill="#000000">__async_forward()</text>
</g>
<!-- A10&#45;&gt;A8 -->
<g id="edge9" class="edge">
<title>A10&#45;&gt;A8</title>
<path fill="none" stroke="#000000" d="M357.4808,-370.672C358.7731,-368.4252 360.063,-366.1993 361.348,-364 375.806,-339.2552 392.855,-312.3558 407.3203,-290.1276"/>
<polygon fill="none" stroke="#000000" points="354.4004,-369.0085 352.4898,-379.4297 360.4821,-372.4746 354.4004,-369.0085"/>
</g>
<!-- A10&#45;&gt;A9 -->
<g id="edge10" class="edge">
<title>A10&#45;&gt;A9</title>
<path fill="none" stroke="#000000" d="M231.527,-371.7451C230.1228,-369.1386 228.7284,-366.5542 227.348,-364 214.1359,-339.5527 199.2736,-312.4504 186.9099,-290.012"/>
<polygon fill="none" stroke="#000000" points="228.5137,-373.5316 236.3333,-380.6803 234.6785,-370.2155 228.5137,-373.5316"/>
</g>
<!-- A11&#45;&gt;A12 -->
<g id="edge11" class="edge">
<title>A11&#45;&gt;A12</title>
<path fill="none" stroke="#000000" d="M567.1644,-160.4648C560.9703,-146.8826 554.6465,-133.016 548.7531,-120.0931"/>
<polygon fill="none" stroke="#000000" points="564.0911,-162.1611 571.425,-169.8074 570.4601,-159.2566 564.0911,-162.1611"/>
</g>
<!-- A11&#45;&gt;A13 -->
<g id="edge12" class="edge">
<title>A11&#45;&gt;A13</title>
<path fill="none" stroke="#000000" d="M542.4867,-170.8745C542.1078,-170.5805 541.7282,-170.2889 541.348,-170 513.3438,-148.7162 431.3406,-111.2534 373.497,-86.0342"/>
<polygon fill="none" stroke="#000000" points="540.4079,-173.6974 550.3407,-177.3838 544.8747,-168.3078 540.4079,-173.6974"/>
</g>
<!-- A14 -->
<g id="node15" class="node">
<title>A14</title>
<polygon fill="none" stroke="#000000" points="133.348,-1176 133.348,-1208 236.348,-1208 236.348,-1176 133.348,-1176"/>
<text text-anchor="start" x="174.01" y="-1189" font-family="Helvetica,sans-Serif" font-size="10.00" fill="#000000">Infos</text>
<polygon fill="none" stroke="#000000" points="133.348,-1120 133.348,-1176 236.348,-1176 236.348,-1120 133.348,-1120"/>
<text text-anchor="start" x="176.7895" y="-1157" font-family="Helvetica,sans-Serif" font-size="10.00" fill="#000000">stat</text>
<text text-anchor="start" x="152.334" y="-1145" font-family="Helvetica,sans-Serif" font-size="10.00" fill="#000000">new_stat_data</text>
<text text-anchor="start" x="165.9515" y="-1133" font-family="Helvetica,sans-Serif" font-size="10.00" fill="#000000">info_dev</text>
<polygon fill="none" stroke="#000000" points="133.348,-980 133.348,-1120 236.348,-1120 236.348,-980 133.348,-980"/>
<text text-anchor="start" x="160.6835" y="-1101" font-family="Helvetica,sans-Serif" font-size="10.00" fill="#000000">static_init()</text>
<text text-anchor="start" x="158.7325" y="-1089" font-family="Helvetica,sans-Serif" font-size="10.00" fill="#000000">dev_value()</text>
<text text-anchor="start" x="155.6785" y="-1077" font-family="Helvetica,sans-Serif" font-size="10.00" fill="#000000">inc_counter()</text>
<text text-anchor="start" x="154.0085" y="-1065" font-family="Helvetica,sans-Serif" font-size="10.00" fill="#000000">dec_counter()</text>
<text text-anchor="start" x="152.058" y="-1053" font-family="Helvetica,sans-Serif" font-size="10.00" fill="#000000">ha_proxy_conf</text>
<text text-anchor="start" x="167.061" y="-1041" font-family="Helvetica,sans-Serif" font-size="10.00" fill="#000000">ha_conf</text>
<text text-anchor="start" x="161.2225" y="-1029" font-family="Helvetica,sans-Serif" font-size="10.00" fill="#000000">update_db</text>
<text text-anchor="start" x="145.385" y="-1017" font-family="Helvetica,sans-Serif" font-size="10.00" fill="#000000">set_db_def_value</text>
<text text-anchor="start" x="154.8335" y="-1005" font-family="Helvetica,sans-Serif" font-size="10.00" fill="#000000">get_db_value</text>
<text text-anchor="start" x="143.1705" y="-993" font-family="Helvetica,sans-Serif" font-size="10.00" fill="#000000">ignore_this_device</text>
</g>
<!-- A15 -->
<g id="node16" class="node">
<title>A15</title>
<polygon fill="none" stroke="#000000" points="386.348,-814 386.348,-846 453.348,-846 453.348,-814 386.348,-814"/>
<text text-anchor="start" x="402.341" y="-827" font-family="Helvetica,sans-Serif" font-size="10.00" fill="#000000">InfosG3</text>
<polygon fill="none" stroke="#000000" points="386.348,-794 386.348,-814 453.348,-814 453.348,-794 386.348,-794"/>
<polygon fill="none" stroke="#000000" points="386.348,-750 386.348,-794 453.348,-794 453.348,-750 386.348,-750"/>
<text text-anchor="start" x="396.232" y="-775" font-family="Helvetica,sans-Serif" font-size="10.00" fill="#000000">ha_confs()</text>
<text text-anchor="start" x="404.016" y="-763" font-family="Helvetica,sans-Serif" font-size="10.00" fill="#000000">parse()</text>
</g>
<!-- A14&#45;&gt;A15 -->
<g id="edge18" class="edge">
<title>A14&#45;&gt;A15</title>
<path fill="none" stroke="#000000" d="M242.8857,-990.9876C246.5464,-987.0913 250.3682,-983.4032 254.348,-980 298.2601,-942.4501 334.8682,-972.1855 374.348,-930 395.7725,-907.1072 407.0366,-873.5975 412.9375,-846.0704"/>
<polygon fill="none" stroke="#000000" points="240.0515,-988.9088 236.0452,-998.717 245.2936,-993.548 240.0515,-988.9088"/>
</g>
<!-- A16 -->
<g id="node17" class="node">
<title>A16</title>
<polygon fill="none" stroke="#000000" points="142.348,-814 142.348,-846 209.348,-846 209.348,-814 142.348,-814"/>
<text text-anchor="start" x="155.0065" y="-827" font-family="Helvetica,sans-Serif" font-size="10.00" fill="#000000">InfosG3P</text>
<polygon fill="none" stroke="#000000" points="142.348,-794 142.348,-814 209.348,-814 209.348,-794 142.348,-794"/>
<polygon fill="none" stroke="#000000" points="142.348,-750 142.348,-794 209.348,-794 209.348,-750 142.348,-750"/>
<text text-anchor="start" x="152.232" y="-775" font-family="Helvetica,sans-Serif" font-size="10.00" fill="#000000">ha_confs()</text>
<text text-anchor="start" x="160.016" y="-763" font-family="Helvetica,sans-Serif" font-size="10.00" fill="#000000">parse()</text>
</g>
<!-- A14&#45;&gt;A16 -->
<g id="edge19" class="edge">
<title>A14&#45;&gt;A16</title>
<path fill="none" stroke="#000000" d="M180.5733,-969.853C179.2476,-926.2551 177.8358,-879.821 176.8143,-846.2247"/>
<polygon fill="none" stroke="#000000" points="177.0788,-970.0931 180.8812,-979.9821 184.0756,-969.8803 177.0788,-970.0931"/>
</g>
<!-- A15&#45;&gt;A6 -->
<g id="edge21" class="edge">
<title>A15&#45;&gt;A6</title>
<path fill="none" stroke="#000000" d="M420.598,-749.875C421.4623,-716.5989 422.6586,-670.54 423.8044,-626.4296"/>
<polygon fill="#000000" stroke="#000000" points="424.071,-616.1641 428.3097,-626.2776 423.9411,-621.1624 423.8113,-626.1607 423.8113,-626.1607 423.8113,-626.1607 423.9411,-621.1624 419.3128,-626.0438 424.071,-616.1641 424.071,-616.1641"/>
</g>
<!-- A16&#45;&gt;A7 -->
<g id="edge20" class="edge">
<title>A16&#45;&gt;A7</title>
<path fill="none" stroke="#000000" d="M174.8793,-749.875C174.4651,-707.3571 173.8477,-643.9701 173.3263,-590.4435"/>
<polygon fill="#000000" stroke="#000000" points="173.2268,-580.2253 177.8241,-590.181 173.2756,-585.2251 173.3243,-590.2249 173.3243,-590.2249 173.3243,-590.2249 173.2756,-585.2251 168.8245,-590.2687 173.2268,-580.2253 173.2268,-580.2253"/>
</g>
</g>
</svg>
