<?xml version="1.0" encoding="UTF-8" standalone="no"?>
<!DOCTYPE svg PUBLIC "-//W3C//DTD SVG 1.1//EN"
 "http://www.w3.org/Graphics/SVG/1.1/DTD/svg11.dtd">
<!-- Generated by graphviz version 2.40.1 (20161225.0304)
 -->
<!-- Title: G Pages: 1 -->
<svg width="691pt" height="1312pt"
 viewBox="0.00 0.00 691.35 1312.00" xmlns="http://www.w3.org/2000/svg" xmlns:xlink="http://www.w3.org/1999/xlink">
<g id="graph0" class="graph" transform="scale(1 1) rotate(0) translate(4 1308)">
<title>G</title>
<polygon fill="#ffffff" stroke="transparent" points="-4,4 -4,-1308 687.348,-1308 687.348,4 -4,4"/>
<!-- A0 -->
<g id="node1" class="node">
<title>A0</title>
<polygon fill="#fff8dc" stroke="#000000" points="108.5444,-1208 .1516,-1208 .1516,-1172 114.5444,-1172 114.5444,-1202 108.5444,-1208"/>
<polyline fill="none" stroke="#000000" points="108.5444,-1208 108.5444,-1202 "/>
<polyline fill="none" stroke="#000000" points="114.5444,-1202 108.5444,-1202 "/>
<text text-anchor="middle" x="57.348" y="-1193" font-family="Helvetica,sans-Serif" font-size="10.00" fill="#000000">You can stick notes</text>
<text text-anchor="middle" x="57.348" y="-1181" font-family="Helvetica,sans-Serif" font-size="10.00" fill="#000000">on diagrams too!</text>
</g>
<!-- A1 -->
<g id="node2" class="node">
<title>A1</title>
<polygon fill="none" stroke="#000000" points="657.0297,-906 587.6663,-906 587.6663,-870 657.0297,-870 657.0297,-906"/>
<text text-anchor="middle" x="622.348" y="-885" font-family="Helvetica,sans-Serif" font-size="10.00" fill="#000000">Singleton</text>
</g>
<!-- A2 -->
<g id="node3" class="node">
<title>A2</title>
<polygon fill="none" stroke="#000000" points="561.348,-608 561.348,-640 683.348,-640 683.348,-608 561.348,-608"/>
<text text-anchor="start" x="612.625" y="-621" font-family="Helvetica,sans-Serif" font-size="10.00" fill="#000000">Mqtt</text>
<polygon fill="none" stroke="#000000" points="561.348,-552 561.348,-608 683.348,-608 683.348,-552 561.348,-552"/>
<text text-anchor="start" x="579.8355" y="-589" font-family="Helvetica,sans-Serif" font-size="10.00" fill="#000000">&lt;static&gt;ha_restarts</text>
<text text-anchor="start" x="587.6145" y="-577" font-family="Helvetica,sans-Serif" font-size="10.00" fill="#000000">&lt;static&gt;__client</text>
<text text-anchor="start" x="571.2215" y="-565" font-family="Helvetica,sans-Serif" font-size="10.00" fill="#000000">&lt;static&gt;__cb_MqttIsUp</text>
<polygon fill="none" stroke="#000000" points="561.348,-508 561.348,-552 683.348,-552 683.348,-508 561.348,-508"/>
<text text-anchor="start" x="584.284" y="-533" font-family="Helvetica,sans-Serif" font-size="10.00" fill="#000000">&lt;async&gt;publish()</text>
<text text-anchor="start" x="588.4525" y="-521" font-family="Helvetica,sans-Serif" font-size="10.00" fill="#000000">&lt;async&gt;close()</text>
</g>
<!-- A1&#45;&gt;A2 -->
<g id="edge1" class="edge">
<title>A1&#45;&gt;A2</title>
<path fill="none" stroke="#000000" d="M622.348,-859.5395C622.348,-810.311 622.348,-708.0351 622.348,-640.2069"/>
<polygon fill="none" stroke="#000000" points="618.8481,-859.7608 622.348,-869.7608 625.8481,-859.7608 618.8481,-859.7608"/>
</g>
<!-- A11 -->
<g id="node12" class="node">
<title>A11</title>
<polygon fill="none" stroke="#000000" points="568.348,-324 568.348,-356 676.348,-356 676.348,-324 568.348,-324"/>
<text text-anchor="start" x="605.4015" y="-337" font-family="Helvetica,sans-Serif" font-size="10.00" fill="#000000">Inverter</text>
<polygon fill="none" stroke="#000000" points="568.348,-232 568.348,-324 676.348,-324 676.348,-232 568.348,-232"/>
<text text-anchor="start" x="598.452" y="-305" font-family="Helvetica,sans-Serif" font-size="10.00" fill="#000000">cls.db_stat</text>
<text text-anchor="start" x="591.7885" y="-293" font-family="Helvetica,sans-Serif" font-size="10.00" fill="#000000">cls.entity_prfx</text>
<text text-anchor="start" x="582.6235" y="-281" font-family="Helvetica,sans-Serif" font-size="10.00" fill="#000000">cls.discovery_prfx</text>
<text text-anchor="start" x="582.0595" y="-269" font-family="Helvetica,sans-Serif" font-size="10.00" fill="#000000">cls.proxy_node_id</text>
<text text-anchor="start" x="578.1705" y="-257" font-family="Helvetica,sans-Serif" font-size="10.00" fill="#000000">cls.proxy_unique_id</text>
<text text-anchor="start" x="594.0135" y="-245" font-family="Helvetica,sans-Serif" font-size="10.00" fill="#000000">cls.mqtt:Mqtt</text>
<polygon fill="none" stroke="#000000" points="568.348,-212 568.348,-232 676.348,-232 676.348,-212 568.348,-212"/>
</g>
<!-- A2&#45;&gt;A11 -->
<g id="edge13" class="edge">
<title>A2&#45;&gt;A11</title>
<path fill="none" stroke="#000000" d="M622.348,-507.8316C622.348,-462.6124 622.348,-402.6972 622.348,-356.2361"/>
</g>
<!-- A3 -->
<g id="node4" class="node">
<title>A3</title>
<polygon fill="none" stroke="#000000" points="257.348,-366 257.348,-398 364.348,-398 364.348,-366 257.348,-366"/>
<text text-anchor="start" x="293.0655" y="-379" font-family="Helvetica,sans-Serif" font-size="10.00" fill="#000000">Modbus</text>
<polygon fill="none" stroke="#000000" points="257.348,-226 257.348,-366 364.348,-366 364.348,-226 257.348,-226"/>
<text text-anchor="start" x="302.5095" y="-347" font-family="Helvetica,sans-Serif" font-size="10.00" fill="#000000">que</text>
<text text-anchor="start" x="283.338" y="-323" font-family="Helvetica,sans-Serif" font-size="10.00" fill="#000000">snd_handler</text>
<text text-anchor="start" x="284.453" y="-311" font-family="Helvetica,sans-Serif" font-size="10.00" fill="#000000">rsp_handler</text>
<text text-anchor="start" x="266.9565" y="-299" font-family="Helvetica,sans-Serif" font-size="10.00" fill="#000000">timeout:max_retires</text>
<text text-anchor="start" x="292.79" y="-287" font-family="Helvetica,sans-Serif" font-size="10.00" fill="#000000">last_xxx</text>
<text text-anchor="start" x="304.7395" y="-275" font-family="Helvetica,sans-Serif" font-size="10.00" fill="#000000">err</text>
<text text-anchor="start" x="291.4015" y="-263" font-family="Helvetica,sans-Serif" font-size="10.00" fill="#000000">retry_cnt</text>
<text text-anchor="start" x="289.727" y="-251" font-family="Helvetica,sans-Serif" font-size="10.00" fill="#000000">req_pend</text>
<text text-anchor="start" x="304.1845" y="-239" font-family="Helvetica,sans-Serif" font-size="10.00" fill="#000000">tim</text>
<polygon fill="none" stroke="#000000" points="257.348,-170 257.348,-226 364.348,-226 364.348,-170 257.348,-170"/>
<text text-anchor="start" x="284.738" y="-207" font-family="Helvetica,sans-Serif" font-size="10.00" fill="#000000">build_msg()</text>
<text text-anchor="start" x="288.072" y="-195" font-family="Helvetica,sans-Serif" font-size="10.00" fill="#000000">recv_req()</text>
<text text-anchor="start" x="285.572" y="-183" font-family="Helvetica,sans-Serif" font-size="10.00" fill="#000000">recv_resp()</text>
</g>
<!-- A4 -->
<g id="node5" class="node">
<title>A4</title>
<polygon fill="none" stroke="#000000" points="263.348,-1200 263.348,-1232 334.348,-1232 334.348,-1200 263.348,-1200"/>
<text text-anchor="start" x="273.293" y="-1213" font-family="Helvetica,sans-Serif" font-size="10.00" fill="#000000">IterRegistry</text>
<polygon fill="none" stroke="#000000" points="263.348,-1180 263.348,-1200 334.348,-1200 334.348,-1180 263.348,-1180"/>
<polygon fill="none" stroke="#000000" points="263.348,-1148 263.348,-1180 334.348,-1180 334.348,-1148 263.348,-1148"/>
<text text-anchor="start" x="280.787" y="-1161" font-family="Helvetica,sans-Serif" font-size="10.00" fill="#000000">__iter__</text>
</g>
<!-- A5 -->
<g id="node6" class="node">
<title>A5</title>
<polygon fill="none" stroke="#000000" points="231.348,-994 231.348,-1026 365.348,-1026 365.348,-994 231.348,-994"/>
<text text-anchor="start" x="278.0655" y="-1007" font-family="Helvetica,sans-Serif" font-size="10.00" fill="#000000">Message</text>
<polygon fill="none" stroke="#000000" points="231.348,-818 231.348,-994 365.348,-994 365.348,-818 231.348,-818"/>
<text text-anchor="start" x="261.6745" y="-975" font-family="Helvetica,sans-Serif" font-size="10.00" fill="#000000">server_side:bool</text>
<text text-anchor="start" x="258.891" y="-963" font-family="Helvetica,sans-Serif" font-size="10.00" fill="#000000">header_valid:bool</text>
<text text-anchor="start" x="251.662" y="-951" font-family="Helvetica,sans-Serif" font-size="10.00" fill="#000000">header_len:unsigned</text>
<text text-anchor="start" x="257.496" y="-939" font-family="Helvetica,sans-Serif" font-size="10.00" fill="#000000">data_len:unsigned</text>
<text text-anchor="start" x="276.6725" y="-927" font-family="Helvetica,sans-Serif" font-size="10.00" fill="#000000">unique_id</text>
<text text-anchor="start" x="280.5615" y="-915" font-family="Helvetica,sans-Serif" font-size="10.00" fill="#000000">node_id</text>
<text text-anchor="start" x="277.5065" y="-903" font-family="Helvetica,sans-Serif" font-size="10.00" fill="#000000">sug_area</text>
<text text-anchor="start" x="248.337" y="-891" font-family="Helvetica,sans-Serif" font-size="10.00" fill="#000000">_recv_buffer:bytearray</text>
<text text-anchor="start" x="246.9425" y="-879" font-family="Helvetica,sans-Serif" font-size="10.00" fill="#000000">_send_buffer:bytearray</text>
<text text-anchor="start" x="241.1145" y="-867" font-family="Helvetica,sans-Serif" font-size="10.00" fill="#000000">_forward_buffer:bytearray</text>
<text text-anchor="start" x="280.5615" y="-855" font-family="Helvetica,sans-Serif" font-size="10.00" fill="#000000">db:Infos</text>
<text text-anchor="start" x="269.174" y="-843" font-family="Helvetica,sans-Serif" font-size="10.00" fill="#000000">new_data:list</text>
<text text-anchor="start" x="287.51" y="-831" font-family="Helvetica,sans-Serif" font-size="10.00" fill="#000000">state</text>
<polygon fill="none" stroke="#000000" points="231.348,-750 231.348,-818 365.348,-818 365.348,-750 231.348,-750"/>
<text text-anchor="start" x="248.0575" y="-799" font-family="Helvetica,sans-Serif" font-size="10.00" fill="#000000">_read():void&lt;abstract&gt;</text>
<text text-anchor="start" x="272.7925" y="-787" font-family="Helvetica,sans-Serif" font-size="10.00" fill="#000000">close():void</text>
<text text-anchor="start" x="258.6205" y="-775" font-family="Helvetica,sans-Serif" font-size="10.00" fill="#000000">inc_counter():void</text>
<text text-anchor="start" x="256.9505" y="-763" font-family="Helvetica,sans-Serif" font-size="10.00" fill="#000000">dec_counter():void</text>
</g>
<!-- A4&#45;&gt;A5 -->
<g id="edge2" class="edge">
<title>A4&#45;&gt;A5</title>
<path fill="none" stroke="#000000" d="M298.348,-1137.5879C298.348,-1106.6429 298.348,-1065.8843 298.348,-1026.2983"/>
<polygon fill="none" stroke="#000000" points="294.8481,-1137.6902 298.348,-1147.6902 301.8481,-1137.6902 294.8481,-1137.6902"/>
</g>
<!-- A6 -->
<g id="node7" class="node">
<title>A6</title>
<polygon fill="none" stroke="#000000" points="370.348,-668 370.348,-700 484.348,-700 484.348,-668 370.348,-668"/>
<text text-anchor="start" x="413.456" y="-681" font-family="Helvetica,sans-Serif" font-size="10.00" fill="#000000">Talent</text>
<polygon fill="none" stroke="#000000" points="370.348,-564 370.348,-668 484.348,-668 484.348,-564 370.348,-564"/>
<text text-anchor="start" x="380.111" y="-649" font-family="Helvetica,sans-Serif" font-size="10.00" fill="#000000">await_conn_resp_cnt</text>
<text text-anchor="start" x="415.1255" y="-637" font-family="Helvetica,sans-Serif" font-size="10.00" fill="#000000">id_str</text>
<text text-anchor="start" x="395.948" y="-625" font-family="Helvetica,sans-Serif" font-size="10.00" fill="#000000">contact_name</text>
<text text-anchor="start" x="399.288" y="-613" font-family="Helvetica,sans-Serif" font-size="10.00" fill="#000000">contact_mail</text>
<text text-anchor="start" x="402.8925" y="-601" font-family="Helvetica,sans-Serif" font-size="10.00" fill="#000000">db:InfosG3</text>
<text text-anchor="start" x="401.232" y="-589" font-family="Helvetica,sans-Serif" font-size="10.00" fill="#000000">mb:Modbus</text>
<text text-anchor="start" x="413.46" y="-577" font-family="Helvetica,sans-Serif" font-size="10.00" fill="#000000">switch</text>
<polygon fill="none" stroke="#000000" points="370.348,-448 370.348,-564 484.348,-564 484.348,-448 370.348,-448"/>
<text text-anchor="start" x="384.8405" y="-545" font-family="Helvetica,sans-Serif" font-size="10.00" fill="#000000">msg_contact_info()</text>
<text text-anchor="start" x="386.7805" y="-533" font-family="Helvetica,sans-Serif" font-size="10.00" fill="#000000">msg_ota_update()</text>
<text text-anchor="start" x="392.6245" y="-521" font-family="Helvetica,sans-Serif" font-size="10.00" fill="#000000">msg_get_time()</text>
<text text-anchor="start" x="380.6765" y="-509" font-family="Helvetica,sans-Serif" font-size="10.00" fill="#000000">msg_collector_data()</text>
<text text-anchor="start" x="382.6215" y="-497" font-family="Helvetica,sans-Serif" font-size="10.00" fill="#000000">msg_inverter_data()</text>
<text text-anchor="start" x="391.7885" y="-485" font-family="Helvetica,sans-Serif" font-size="10.00" fill="#000000">msg_unknown()</text>
<text text-anchor="start" x="412.3505" y="-461" font-family="Helvetica,sans-Serif" font-size="10.00" fill="#000000">close()</text>
</g>
<!-- A5&#45;&gt;A6 -->
<g id="edge3" class="edge">
<title>A5&#45;&gt;A6</title>
<path fill="none" stroke="#000000" d="M358.9294,-740.5383C364.4479,-727.1056 370.0049,-713.5794 375.4378,-700.355"/>
<polygon fill="none" stroke="#000000" points="355.6797,-739.2382 355.117,-749.8181 362.1546,-741.8983 355.6797,-739.2382"/>
</g>
<!-- A7 -->
<g id="node8" class="node">
<title>A7</title>
<polygon fill="none" stroke="#000000" points="127.348,-632 127.348,-664 218.348,-664 218.348,-632 127.348,-632"/>
<text text-anchor="start" x="145.343" y="-645" font-family="Helvetica,sans-Serif" font-size="10.00" fill="#000000">SolarmanV5</text>
<polygon fill="none" stroke="#000000" points="127.348,-540 127.348,-632 218.348,-632 218.348,-540 127.348,-540"/>
<text text-anchor="start" x="157.846" y="-613" font-family="Helvetica,sans-Serif" font-size="10.00" fill="#000000">control</text>
<text text-anchor="start" x="160.9055" y="-601" font-family="Helvetica,sans-Serif" font-size="10.00" fill="#000000">serial</text>
<text text-anchor="start" x="165.904" y="-589" font-family="Helvetica,sans-Serif" font-size="10.00" fill="#000000">snr</text>
<text text-anchor="start" x="145.058" y="-577" font-family="Helvetica,sans-Serif" font-size="10.00" fill="#000000">db:InfosG3P</text>
<text text-anchor="start" x="146.732" y="-565" font-family="Helvetica,sans-Serif" font-size="10.00" fill="#000000">mb:Modbus</text>
<text text-anchor="start" x="158.96" y="-553" font-family="Helvetica,sans-Serif" font-size="10.00" fill="#000000">switch</text>
<polygon fill="none" stroke="#000000" points="127.348,-484 127.348,-540 218.348,-540 218.348,-484 127.348,-484"/>
<text text-anchor="start" x="137.2885" y="-521" font-family="Helvetica,sans-Serif" font-size="10.00" fill="#000000">msg_unknown()</text>
<text text-anchor="start" x="157.8505" y="-497" font-family="Helvetica,sans-Serif" font-size="10.00" fill="#000000">close()</text>
</g>
<!-- A5&#45;&gt;A7 -->
<g id="edge4" class="edge">
<title>A5&#45;&gt;A7</title>
<path fill="none" stroke="#000000" d="M239.076,-740.2903C228.6761,-714.3733 218.1403,-688.1174 208.6075,-664.3611"/>
<polygon fill="none" stroke="#000000" points="235.9268,-741.8409 242.8992,-749.8181 242.4233,-739.2339 235.9268,-741.8409"/>
</g>
<!-- A6&#45;&gt;A3 -->
<g id="edge6" class="edge">
<title>A6&#45;&gt;A3</title>
<path fill="none" stroke="#000000" d="M376.3705,-447.6454C371.0187,-434.3805 365.5816,-420.9039 360.2423,-407.6696"/>
<polygon fill="#000000" stroke="#000000" points="356.3743,-398.0824 364.289,-405.6724 358.2451,-402.7192 360.1158,-407.3561 360.1158,-407.3561 360.1158,-407.3561 358.2451,-402.7192 355.9427,-409.0397 356.3743,-398.0824 356.3743,-398.0824"/>
<text text-anchor="middle" x="370.9946" y="-408.7296" font-family="Helvetica,sans-Serif" font-size="10.00" fill="#000000">1</text>
<text text-anchor="middle" x="361.7502" y="-430.9982" font-family="Helvetica,sans-Serif" font-size="10.00" fill="#000000">has</text>
</g>
<!-- A8 -->
<g id="node9" class="node">
<title>A8</title>
<polygon fill="none" stroke="#000000" points="382.348,-300 382.348,-332 532.348,-332 532.348,-300 382.348,-300"/>
<text text-anchor="start" x="425.3935" y="-313" font-family="Helvetica,sans-Serif" font-size="10.00" fill="#000000">ConnectionG3</text>
<polygon fill="none" stroke="#000000" points="382.348,-268 382.348,-300 532.348,-300 532.348,-268 382.348,-268"/>
<text text-anchor="start" x="392.335" y="-281" font-family="Helvetica,sans-Serif" font-size="10.00" fill="#000000">remoteStream:ConnectionG3</text>
<polygon fill="none" stroke="#000000" points="382.348,-236 382.348,-268 532.348,-268 532.348,-236 382.348,-236"/>
<text text-anchor="start" x="442.3505" y="-249" font-family="Helvetica,sans-Serif" font-size="10.00" fill="#000000">close()</text>
</g>
<!-- A6&#45;&gt;A8 -->
<g id="edge5" class="edge">
<title>A6&#45;&gt;A8</title>
<path fill="none" stroke="#000000" d="M441.464,-437.5454C445.3714,-399.7739 449.3591,-361.2265 452.3615,-332.203"/>
<polygon fill="none" stroke="#000000" points="437.9668,-437.3383 440.4192,-447.6454 444.9297,-438.0587 437.9668,-437.3383"/>
</g>
<!-- A7&#45;&gt;A3 -->
<g id="edge8" class="edge">
<title>A7&#45;&gt;A3</title>
<path fill="none" stroke="#000000" d="M210.935,-483.8952C216.3404,-471.7801 221.9084,-459.553 227.348,-448 235.1472,-431.4354 243.6196,-414.0579 252.0717,-397.0641"/>
<polygon fill="#000000" stroke="#000000" points="256.7608,-387.6701 256.3209,-398.6272 254.5277,-392.1437 252.2946,-396.6174 252.2946,-396.6174 252.2946,-396.6174 254.5277,-392.1437 248.2683,-394.6076 256.7608,-387.6701 256.7608,-387.6701"/>
<text text-anchor="middle" x="256.228" y="-404.663" font-family="Helvetica,sans-Serif" font-size="10.00" fill="#000000">1</text>
<text text-anchor="middle" x="210.6174" y="-460.8977" font-family="Helvetica,sans-Serif" font-size="10.00" fill="#000000">has</text>
</g>
<!-- A9 -->
<g id="node10" class="node">
<title>A9</title>
<polygon fill="none" stroke="#000000" points="64.348,-300 64.348,-332 220.348,-332 220.348,-300 64.348,-300"/>
<text text-anchor="start" x="107.059" y="-313" font-family="Helvetica,sans-Serif" font-size="10.00" fill="#000000">ConnectionG3P</text>
<polygon fill="none" stroke="#000000" points="64.348,-268 64.348,-300 220.348,-300 220.348,-268 64.348,-268"/>
<text text-anchor="start" x="74.0005" y="-281" font-family="Helvetica,sans-Serif" font-size="10.00" fill="#000000">remoteStream:ConnectionG3P</text>
<polygon fill="none" stroke="#000000" points="64.348,-236 64.348,-268 220.348,-268 220.348,-236 64.348,-236"/>
<text text-anchor="start" x="127.3505" y="-249" font-family="Helvetica,sans-Serif" font-size="10.00" fill="#000000">close()</text>
</g>
<!-- A7&#45;&gt;A9 -->
<g id="edge7" class="edge">
<title>A7&#45;&gt;A9</title>
<path fill="none" stroke="#000000" d="M161.9757,-473.7349C157.0236,-425.8645 151.3255,-370.7828 147.349,-332.3431"/>
<polygon fill="none" stroke="#000000" points="158.5098,-474.2451 163.0203,-483.8319 165.4726,-473.5248 158.5098,-474.2451"/>
</g>
<!-- A8&#45;&gt;A8 -->
<g id="edge15" class="edge">
<title>A8&#45;&gt;A8</title>
<path fill="none" stroke="#000000" d="M532.5164,-321.6908C543.1874,-315.5948 550.348,-303.0313 550.348,-284 550.348,-270.3213 546.6488,-259.9838 540.6058,-252.9875"/>
<polygon fill="#000000" stroke="#000000" points="532.5164,-246.3092 543.0929,-249.2054 536.3722,-249.4924 540.228,-252.6756 540.228,-252.6756 540.228,-252.6756 536.3722,-249.4924 537.3632,-256.1459 532.5164,-246.3092 532.5164,-246.3092"/>
<text text-anchor="middle" x="551.8757" y="-248.3308" font-family="Helvetica,sans-Serif" font-size="10.00" fill="#000000">0..1</text>
<text text-anchor="middle" x="543.0584" y="-301.6947" font-family="Helvetica,sans-Serif" font-size="10.00" fill="#000000">has</text>
</g>
<!-- A12 -->
<g id="node13" class="node">
<title>A12</title>
<polygon fill="none" stroke="#000000" points="478.348,-88 478.348,-120 600.348,-120 600.348,-88 478.348,-88"/>
<text text-anchor="start" x="515.7325" y="-101" font-family="Helvetica,sans-Serif" font-size="10.00" fill="#000000">InverterG3</text>
<polygon fill="none" stroke="#000000" points="478.348,-56 478.348,-88 600.348,-88 600.348,-56 478.348,-56"/>
<text text-anchor="start" x="508.7835" y="-69" font-family="Helvetica,sans-Serif" font-size="10.00" fill="#000000">__ha_restarts</text>
<polygon fill="none" stroke="#000000" points="478.348,0 478.348,-56 600.348,-56 600.348,0 478.348,0"/>
<text text-anchor="start" x="487.9515" y="-37" font-family="Helvetica,sans-Serif" font-size="10.00" fill="#000000">async_create_remote()</text>
<text text-anchor="start" x="524.3505" y="-13" font-family="Helvetica,sans-Serif" font-size="10.00" fill="#000000">close()</text>
</g>
<!-- A8&#45;&gt;A12 -->
<g id="edge14" class="edge">
<title>A8&#45;&gt;A12</title>
<path fill="none" stroke="#000000" d="M478.5265,-226.1465C490.409,-193.6871 505.2165,-153.2373 517.2458,-120.3767"/>
<polygon fill="none" stroke="#000000" points="475.09,-225.3526 474.9391,-235.9464 481.6634,-227.759 475.09,-225.3526"/>
</g>
<!-- A9&#45;&gt;A9 -->
<g id="edge17" class="edge">
<title>A9&#45;&gt;A9</title>
<path fill="none" stroke="#000000" d="M220.6951,-321.2601C231.2923,-315.0138 238.348,-302.5938 238.348,-284 238.348,-270.6357 234.703,-260.4608 228.7179,-253.4753"/>
<polygon fill="#000000" stroke="#000000" points="220.6951,-246.7399 231.2473,-249.7232 224.5245,-249.9548 228.3539,-253.1697 228.3539,-253.1697 228.3539,-253.1697 224.5245,-249.9548 225.4605,-256.6162 220.6951,-246.7399 220.6951,-246.7399"/>
<text text-anchor="middle" x="240.0123" y="-248.9211" font-family="Helvetica,sans-Serif" font-size="10.00" fill="#000000">0..1</text>
<text text-anchor="middle" x="231.039" y="-301.1428" font-family="Helvetica,sans-Serif" font-size="10.00" fill="#000000">has</text>
</g>
<!-- A13 -->
<g id="node14" class="node">
<title>A13</title>
<polygon fill="none" stroke="#000000" points="251.348,-88 251.348,-120 373.348,-120 373.348,-88 251.348,-88"/>
<text text-anchor="start" x="285.398" y="-101" font-family="Helvetica,sans-Serif" font-size="10.00" fill="#000000">InverterG3P</text>
<polygon fill="none" stroke="#000000" points="251.348,-56 251.348,-88 373.348,-88 373.348,-56 251.348,-56"/>
<text text-anchor="start" x="281.7835" y="-69" font-family="Helvetica,sans-Serif" font-size="10.00" fill="#000000">__ha_restarts</text>
<polygon fill="none" stroke="#000000" points="251.348,0 251.348,-56 373.348,-56 373.348,0 251.348,0"/>
<text text-anchor="start" x="260.9515" y="-37" font-family="Helvetica,sans-Serif" font-size="10.00" fill="#000000">async_create_remote()</text>
<text text-anchor="start" x="297.3505" y="-13" font-family="Helvetica,sans-Serif" font-size="10.00" fill="#000000">close()</text>
</g>
<!-- A9&#45;&gt;A13 -->
<g id="edge16" class="edge">
<title>A9&#45;&gt;A13</title>
<path fill="none" stroke="#000000" d="M184.9859,-227.8183C209.8288,-195.0842 241.1576,-153.8039 266.5264,-120.3767"/>
<polygon fill="none" stroke="#000000" points="182.0747,-225.8647 178.8173,-235.9464 187.6507,-230.0965 182.0747,-225.8647"/>
</g>
<!-- A10 -->
<g id="node11" class="node">
<title>A10</title>
<polygon fill="none" stroke="#000000" points="236.348,-662 236.348,-694 352.348,-694 352.348,-662 236.348,-662"/>
<text text-anchor="start" x="264.622" y="-675" font-family="Helvetica,sans-Serif" font-size="10.00" fill="#000000">AsyncStream</text>
<polygon fill="none" stroke="#000000" points="236.348,-582 236.348,-662 352.348,-662 352.348,-582 236.348,-582"/>
<text text-anchor="start" x="279.901" y="-643" font-family="Helvetica,sans-Serif" font-size="10.00" fill="#000000">reader</text>
<text text-anchor="start" x="282.131" y="-631" font-family="Helvetica,sans-Serif" font-size="10.00" fill="#000000">writer</text>
<text text-anchor="start" x="284.345" y="-619" font-family="Helvetica,sans-Serif" font-size="10.00" fill="#000000">addr</text>
<text text-anchor="start" x="279.901" y="-607" font-family="Helvetica,sans-Serif" font-size="10.00" fill="#000000">r_addr</text>
<text text-anchor="start" x="280.456" y="-595" font-family="Helvetica,sans-Serif" font-size="10.00" fill="#000000">l_addr</text>
<polygon fill="none" stroke="#000000" points="236.348,-454 236.348,-582 352.348,-582 352.348,-454 236.348,-454"/>
<text text-anchor="start" x="246.0055" y="-563" font-family="Helvetica,sans-Serif" font-size="10.00" fill="#000000">&lt;async&gt;server_loop()</text>
<text text-anchor="start" x="248.226" y="-551" font-family="Helvetica,sans-Serif" font-size="10.00" fill="#000000">&lt;async&gt;client_loop()</text>
<text text-anchor="start" x="266.002" y="-539" font-family="Helvetica,sans-Serif" font-size="10.00" fill="#000000">&lt;async&gt;loop</text>
<text text-anchor="start" x="282.13" y="-527" font-family="Helvetica,sans-Serif" font-size="10.00" fill="#000000">disc()</text>
<text text-anchor="start" x="279.3505" y="-515" font-family="Helvetica,sans-Serif" font-size="10.00" fill="#000000">close()</text>
<text text-anchor="start" x="259.6185" y="-491" font-family="Helvetica,sans-Serif" font-size="10.00" fill="#000000">__async_read()</text>
<text text-anchor="start" x="264.628" y="-479" font-family="Helvetica,sans-Serif" font-size="10.00" fill="#000000">async_write()</text>
<text text-anchor="start" x="252.955" y="-467" font-family="Helvetica,sans-Serif" font-size="10.00" fill="#000000">__async_forward()</text>
</g>
<!-- A10&#45;&gt;A8 -->
<g id="edge9" class="edge">
<title>A10&#45;&gt;A8</title>
<path fill="none" stroke="#000000" d="M357.3002,-455.2837C358.6569,-452.8318 360.0073,-450.4016 361.348,-448 383.2991,-408.6787 409.1348,-364.6637 428.4716,-332.1398"/>
<polygon fill="none" stroke="#000000" points="354.1241,-453.7956 352.3659,-464.2436 360.2557,-457.1724 354.1241,-453.7956"/>
</g>
<!-- A10&#45;&gt;A9 -->
<g id="edge10" class="edge">
<title>A10&#45;&gt;A9</title>
<path fill="none" stroke="#000000" d="M231.478,-454.0506C209.0706,-411.2997 185.0929,-365.5527 167.6574,-332.2876"/>
<polygon fill="none" stroke="#000000" points="228.4903,-455.8898 236.2327,-463.1221 234.6903,-452.6401 228.4903,-455.8898"/>
</g>
<!-- A11&#45;&gt;A12 -->
<g id="edge11" class="edge">
<title>A11&#45;&gt;A12</title>
<path fill="none" stroke="#000000" d="M592.1173,-202.4136C582.0634,-175.28 571.0546,-145.5697 561.7056,-120.3387"/>
<polygon fill="none" stroke="#000000" points="588.8729,-203.7311 595.6294,-211.892 595.4368,-201.2989 588.8729,-203.7311"/>
</g>
<!-- A11&#45;&gt;A13 -->
<g id="edge12" class="edge">
<title>A11&#45;&gt;A13</title>
<path fill="none" stroke="#000000" d="M586.2753,-202.8933C578.5712,-190.8884 569.6045,-179.4114 559.348,-170 530.8998,-143.8959 437.024,-105.9199 373.5518,-82.1078"/>
<polygon fill="none" stroke="#000000" points="583.4606,-204.9994 591.6624,-211.7061 589.4331,-201.3485 583.4606,-204.9994"/>
</g>
<!-- A14 -->
<g id="node15" class="node">
<title>A14</title>
<polygon fill="none" stroke="#000000" points="133.348,-1272 133.348,-1304 236.348,-1304 236.348,-1272 133.348,-1272"/>
<text text-anchor="start" x="174.01" y="-1285" font-family="Helvetica,sans-Serif" font-size="10.00" fill="#000000">Infos</text>
<polygon fill="none" stroke="#000000" points="133.348,-1216 133.348,-1272 236.348,-1272 236.348,-1216 133.348,-1216"/>
<text text-anchor="start" x="176.7895" y="-1253" font-family="Helvetica,sans-Serif" font-size="10.00" fill="#000000">stat</text>
<text text-anchor="start" x="152.334" y="-1241" font-family="Helvetica,sans-Serif" font-size="10.00" fill="#000000">new_stat_data</text>
<text text-anchor="start" x="165.9515" y="-1229" font-family="Helvetica,sans-Serif" font-size="10.00" fill="#000000">info_dev</text>
<polygon fill="none" stroke="#000000" points="133.348,-1076 133.348,-1216 236.348,-1216 236.348,-1076 133.348,-1076"/>
<text text-anchor="start" x="160.6835" y="-1197" font-family="Helvetica,sans-Serif" font-size="10.00" fill="#000000">static_init()</text>
<text text-anchor="start" x="158.7325" y="-1185" font-family="Helvetica,sans-Serif" font-size="10.00" fill="#000000">dev_value()</text>
<text text-anchor="start" x="155.6785" y="-1173" font-family="Helvetica,sans-Serif" font-size="10.00" fill="#000000">inc_counter()</text>
<text text-anchor="start" x="154.0085" y="-1161" font-family="Helvetica,sans-Serif" font-size="10.00" fill="#000000">dec_counter()</text>
<text text-anchor="start" x="152.058" y="-1149" font-family="Helvetica,sans-Serif" font-size="10.00" fill="#000000">ha_proxy_conf</text>
<text text-anchor="start" x="167.061" y="-1137" font-family="Helvetica,sans-Serif" font-size="10.00" fill="#000000">ha_conf</text>
<text text-anchor="start" x="161.2225" y="-1125" font-family="Helvetica,sans-Serif" font-size="10.00" fill="#000000">update_db</text>
<text text-anchor="start" x="145.385" y="-1113" font-family="Helvetica,sans-Serif" font-size="10.00" fill="#000000">set_db_def_value</text>
<text text-anchor="start" x="154.8335" y="-1101" font-family="Helvetica,sans-Serif" font-size="10.00" fill="#000000">get_db_value</text>
<text text-anchor="start" x="143.1705" y="-1089" font-family="Helvetica,sans-Serif" font-size="10.00" fill="#000000">ignore_this_device</text>
</g>
<!-- A15 -->
<g id="node16" class="node">
<title>A15</title>
<polygon fill="none" stroke="#000000" points="386.348,-904 386.348,-936 453.348,-936 453.348,-904 386.348,-904"/>
<text text-anchor="start" x="402.341" y="-917" font-family="Helvetica,sans-Serif" font-size="10.00" fill="#000000">InfosG3</text>
<polygon fill="none" stroke="#000000" points="386.348,-884 386.348,-904 453.348,-904 453.348,-884 386.348,-884"/>
<polygon fill="none" stroke="#000000" points="386.348,-840 386.348,-884 453.348,-884 453.348,-840 386.348,-840"/>
<text text-anchor="start" x="396.232" y="-865" font-family="Helvetica,sans-Serif" font-size="10.00" fill="#000000">ha_confs()</text>
<text text-anchor="start" x="404.016" y="-853" font-family="Helvetica,sans-Serif" font-size="10.00" fill="#000000">parse()</text>
</g>
<!-- A14&#45;&gt;A15 -->
<g id="edge18" class="edge">
<title>A14&#45;&gt;A15</title>
<path fill="none" stroke="#000000" d="M242.8857,-1086.9876C246.5464,-1083.0913 250.3682,-1079.4032 254.348,-1076 298.2601,-1038.4501 335.1504,-1068.4478 374.348,-1026 397.0004,-1001.4693 408.2589,-965.3633 413.8498,-936.2357"/>
<polygon fill="none" stroke="#000000" points="240.0515,-1084.9088 236.0452,-1094.717 245.2936,-1089.548 240.0515,-1084.9088"/>
</g>
<!-- A16 -->
<g id="node17" class="node">
<title>A16</title>
<polygon fill="none" stroke="#000000" points="142.348,-904 142.348,-936 209.348,-936 209.348,-904 142.348,-904"/>
<text text-anchor="start" x="155.0065" y="-917" font-family="Helvetica,sans-Serif" font-size="10.00" fill="#000000">InfosG3P</text>
<polygon fill="none" stroke="#000000" points="142.348,-884 142.348,-904 209.348,-904 209.348,-884 142.348,-884"/>
<polygon fill="none" stroke="#000000" points="142.348,-840 142.348,-884 209.348,-884 209.348,-840 142.348,-840"/>
<text text-anchor="start" x="152.232" y="-865" font-family="Helvetica,sans-Serif" font-size="10.00" fill="#000000">ha_confs()</text>
<text text-anchor="start" x="160.016" y="-853" font-family="Helvetica,sans-Serif" font-size="10.00" fill="#000000">parse()</text>
</g>
<!-- A14&#45;&gt;A16 -->
<g id="edge19" class="edge">
<title>A14&#45;&gt;A16</title>
<path fill="none" stroke="#000000" d="M180.6399,-1065.5724C179.2846,-1020.0932 177.8303,-971.2935 176.7899,-936.3828"/>
<polygon fill="none" stroke="#000000" points="177.1491,-1065.9355 180.9455,-1075.8267 184.146,-1065.7269 177.1491,-1065.9355"/>
</g>
<!-- A15&#45;&gt;A6 -->
<g id="edge21" class="edge">
<title>A15&#45;&gt;A6</title>
<path fill="none" stroke="#000000" d="M420.5717,-839.9684C421.4566,-805.2366 422.6992,-756.4655 423.879,-710.1572"/>
<polygon fill="#000000" stroke="#000000" points="424.1376,-700.0098 428.3813,-710.1212 424.0102,-705.0082 423.8828,-710.0066 423.8828,-710.0066 423.8828,-710.0066 424.0102,-705.0082 419.3842,-709.8919 424.1376,-700.0098 424.1376,-700.0098"/>
</g>
<!-- A16&#45;&gt;A7 -->
<g id="edge20" class="edge">
<title>A16&#45;&gt;A7</title>
<path fill="none" stroke="#000000" d="M174.8891,-839.9684C174.4696,-796.0581 173.8357,-729.7079 173.3059,-674.2644"/>
<polygon fill="#000000" stroke="#000000" points="173.2083,-664.0467 177.8037,-674.0032 173.2561,-669.0465 173.304,-674.0463 173.304,-674.0463 173.304,-674.0463 173.2561,-669.0465 168.8042,-674.0893 173.2083,-664.0467 173.2083,-664.0467"/>
</g>
</g>
</svg>
