<?xml version="1.0" encoding="UTF-8" standalone="no"?>
<!DOCTYPE svg PUBLIC "-//W3C//DTD SVG 1.1//EN"
 "http://www.w3.org/Graphics/SVG/1.1/DTD/svg11.dtd">
<!-- Generated by graphviz version 2.40.1 (20161225.0304)
 -->
<!-- Title: G Pages: 1 -->
<svg width="468pt" height="1942pt"
 viewBox="0.00 0.00 468.35 1942.00" xmlns="http://www.w3.org/2000/svg" xmlns:xlink="http://www.w3.org/1999/xlink">
<g id="graph0" class="graph" transform="scale(1 1) rotate(0) translate(4 1938)">
<title>G</title>
<polygon fill="#ffffff" stroke="transparent" points="-4,4 -4,-1938 464.348,-1938 464.348,4 -4,4"/>
<!-- A0 -->
<g id="node1" class="node">
<title>A0</title>
<polygon fill="#fff8dc" stroke="#000000" points="108.5444,-1910 .1516,-1910 .1516,-1874 114.5444,-1874 114.5444,-1904 108.5444,-1910"/>
<polyline fill="none" stroke="#000000" points="108.5444,-1910 108.5444,-1904 "/>
<polyline fill="none" stroke="#000000" points="114.5444,-1904 108.5444,-1904 "/>
<text text-anchor="middle" x="57.348" y="-1895" font-family="Helvetica,sans-Serif" font-size="10.00" fill="#000000">You can stick notes</text>
<text text-anchor="middle" x="57.348" y="-1883" font-family="Helvetica,sans-Serif" font-size="10.00" fill="#000000">on diagrams too!</text>
</g>
<!-- A1 -->
<g id="node2" class="node">
<title>A1</title>
<polygon fill="none" stroke="#000000" points="132.348,-1902 132.348,-1934 248.348,-1934 248.348,-1902 132.348,-1902"/>
<text text-anchor="start" x="141.997" y="-1915" font-family="Helvetica,sans-Serif" font-size="10.00" fill="#000000">&lt;&lt;AbstractIterMeta&gt;&gt;</text>
<polygon fill="none" stroke="#000000" points="132.348,-1882 132.348,-1902 248.348,-1902 248.348,-1882 132.348,-1882"/>
<polygon fill="none" stroke="#000000" points="132.348,-1850 132.348,-1882 248.348,-1882 248.348,-1850 132.348,-1850"/>
<text text-anchor="start" x="168.958" y="-1863" font-family="Helvetica,sans-Serif" font-size="10.00" fill="#000000">__iter__()</text>
</g>
<!-- A14 -->
<g id="node15" class="node">
<title>A14</title>
<polygon fill="none" stroke="#000000" points="145.348,-1768 145.348,-1800 235.348,-1800 235.348,-1768 145.348,-1768"/>
<text text-anchor="start" x="155.0545" y="-1781" font-family="Helvetica,sans-Serif" font-size="10.00" fill="#000000">&lt;&lt;ProtocolIfc&gt;&gt;</text>
<polygon fill="none" stroke="#000000" points="145.348,-1736 145.348,-1768 235.348,-1768 235.348,-1736 145.348,-1736"/>
<text text-anchor="start" x="171.1815" y="-1749" font-family="Helvetica,sans-Serif" font-size="10.00" fill="#000000">_registry</text>
<polygon fill="none" stroke="#000000" points="145.348,-1704 145.348,-1736 235.348,-1736 235.348,-1704 145.348,-1704"/>
<text text-anchor="start" x="175.3505" y="-1717" font-family="Helvetica,sans-Serif" font-size="10.00" fill="#000000">close()</text>
</g>
<!-- A1&#45;&gt;A14 -->
<g id="edge19" class="edge">
<title>A1&#45;&gt;A14</title>
<path fill="none" stroke="#000000" stroke-dasharray="5,2" d="M190.348,-1839.847C190.348,-1826.914 190.348,-1813.1101 190.348,-1800.3669"/>
<polygon fill="none" stroke="#000000" points="186.8481,-1839.9953 190.348,-1849.9954 193.8481,-1839.9954 186.8481,-1839.9953"/>
</g>
<!-- A2 -->
<g id="node3" class="node">
<title>A2</title>
<polygon fill="none" stroke="#000000" points="362.348,-584 362.348,-616 460.348,-616 460.348,-584 362.348,-584"/>
<text text-anchor="start" x="387.7325" y="-597" font-family="Helvetica,sans-Serif" font-size="10.00" fill="#000000">InverterG3</text>
<polygon fill="none" stroke="#000000" points="362.348,-528 362.348,-584 460.348,-584 460.348,-528 362.348,-528"/>
<text text-anchor="start" x="401.345" y="-565" font-family="Helvetica,sans-Serif" font-size="10.00" fill="#000000">addr</text>
<text text-anchor="start" x="371.901" y="-553" font-family="Helvetica,sans-Serif" font-size="10.00" fill="#000000">remote:StreamPtr</text>
<text text-anchor="start" x="377.18" y="-541" font-family="Helvetica,sans-Serif" font-size="10.00" fill="#000000">local:StreamPtr</text>
<polygon fill="none" stroke="#000000" points="362.348,-472 362.348,-528 460.348,-528 460.348,-472 362.348,-472"/>
<text text-anchor="start" x="375.79" y="-509" font-family="Helvetica,sans-Serif" font-size="10.00" fill="#000000">create_remote()</text>
<text text-anchor="start" x="396.3505" y="-485" font-family="Helvetica,sans-Serif" font-size="10.00" fill="#000000">close()</text>
</g>
<!-- A7 -->
<g id="node8" class="node">
<title>A7</title>
<polygon fill="none" stroke="#000000" points="29.348,-100 29.348,-132 207.348,-132 207.348,-100 29.348,-100"/>
<text text-anchor="start" x="73.8995" y="-113" font-family="Helvetica,sans-Serif" font-size="10.00" fill="#000000">AsyncStreamServer</text>
<polygon fill="none" stroke="#000000" points="29.348,-68 29.348,-100 207.348,-100 207.348,-68 29.348,-68"/>
<text text-anchor="start" x="86.119" y="-81" font-family="Helvetica,sans-Serif" font-size="10.00" fill="#000000">create_remote</text>
<polygon fill="none" stroke="#000000" points="29.348,0 29.348,-68 207.348,-68 207.348,0 29.348,0"/>
<text text-anchor="start" x="70.0055" y="-49" font-family="Helvetica,sans-Serif" font-size="10.00" fill="#000000">&lt;async&gt;server_loop()</text>
<text text-anchor="start" x="60.8365" y="-37" font-family="Helvetica,sans-Serif" font-size="10.00" fill="#000000">&lt;async&gt;_async_forward()</text>
<text text-anchor="start" x="39.157" y="-25" font-family="Helvetica,sans-Serif" font-size="10.00" fill="#000000">&lt;async&gt;publish_outstanding_mqtt()</text>
<text text-anchor="start" x="103.3505" y="-13" font-family="Helvetica,sans-Serif" font-size="10.00" fill="#000000">close()</text>
</g>
<!-- A2&#45;&gt;A7 -->
<g id="edge8" class="edge">
<title>A2&#45;&gt;A7</title>
<path fill="none" stroke="#000000" d="M377.1669,-460.7015C372.2935,-447.8271 367.5247,-434.6178 363.348,-422 328.6206,-317.0888 364.6855,-270.3837 298.348,-182 272.7246,-147.8611 252.2817,-155.039 216.348,-132 216.2563,-131.9412 216.1645,-131.8823 216.0727,-131.8234"/>
<polygon fill="#000000" stroke="#000000" points="377.1669,-460.7018 383.0503,-464.8714 381.4643,-471.9059 375.5809,-467.7363 377.1669,-460.7018"/>
<polygon fill="#000000" stroke="#000000" points="207.433,-126.2441 218.2748,-127.8888 211.6333,-128.9566 215.8336,-131.6691 215.8336,-131.6691 215.8336,-131.6691 211.6333,-128.9566 213.3923,-135.4493 207.433,-126.2441 207.433,-126.2441"/>
<text text-anchor="middle" x="367.0813" y="-455.0087" font-family="Helvetica,sans-Serif" font-size="10.00" fill="#000000">local</text>
</g>
<!-- A8 -->
<g id="node9" class="node">
<title>A8</title>
<polygon fill="none" stroke="#000000" points="225.348,-82 225.348,-114 363.348,-114 363.348,-82 225.348,-82"/>
<text text-anchor="start" x="251.845" y="-95" font-family="Helvetica,sans-Serif" font-size="10.00" fill="#000000">AsyncStreamClient</text>
<polygon fill="none" stroke="#000000" points="225.348,-62 225.348,-82 363.348,-82 363.348,-62 225.348,-62"/>
<polygon fill="none" stroke="#000000" points="225.348,-18 225.348,-62 363.348,-62 363.348,-18 225.348,-18"/>
<text text-anchor="start" x="248.226" y="-43" font-family="Helvetica,sans-Serif" font-size="10.00" fill="#000000">&lt;async&gt;client_loop()</text>
<text text-anchor="start" x="235.172" y="-31" font-family="Helvetica,sans-Serif" font-size="10.00" fill="#000000">&lt;async&gt;_async_forward())</text>
</g>
<!-- A2&#45;&gt;A8 -->
<g id="edge6" class="edge">
<title>A2&#45;&gt;A8</title>
<path fill="none" stroke="#000000" d="M410.2845,-471.9734C407.2471,-397.4776 396.9339,-278.7213 363.348,-182 356.28,-161.6455 345.3872,-140.9471 334.3293,-122.7781"/>
<polygon fill="#000000" stroke="#000000" points="328.9036,-114.0745 338.0125,-120.18 331.5487,-118.3175 334.1938,-122.5606 334.1938,-122.5606 334.1938,-122.5606 331.5487,-118.3175 330.375,-124.9412 328.9036,-114.0745 328.9036,-114.0745"/>
<text text-anchor="middle" x="345.6654" y="-121.9851" font-family="Helvetica,sans-Serif" font-size="10.00" fill="#000000">remote</text>
</g>
<!-- A3 -->
<g id="node4" class="node">
<title>A3</title>
<polygon fill="none" stroke="#000000" points="40.348,-342 40.348,-374 138.348,-374 138.348,-342 40.348,-342"/>
<text text-anchor="start" x="62.398" y="-355" font-family="Helvetica,sans-Serif" font-size="10.00" fill="#000000">InverterG3P</text>
<polygon fill="none" stroke="#000000" points="40.348,-286 40.348,-342 138.348,-342 138.348,-286 40.348,-286"/>
<text text-anchor="start" x="79.345" y="-323" font-family="Helvetica,sans-Serif" font-size="10.00" fill="#000000">addr</text>
<text text-anchor="start" x="49.901" y="-311" font-family="Helvetica,sans-Serif" font-size="10.00" fill="#000000">remote:StreamPtr</text>
<text text-anchor="start" x="55.18" y="-299" font-family="Helvetica,sans-Serif" font-size="10.00" fill="#000000">local:StreamPtr</text>
<polygon fill="none" stroke="#000000" points="40.348,-230 40.348,-286 138.348,-286 138.348,-230 40.348,-230"/>
<text text-anchor="start" x="53.79" y="-267" font-family="Helvetica,sans-Serif" font-size="10.00" fill="#000000">create_remote()</text>
<text text-anchor="start" x="74.3505" y="-243" font-family="Helvetica,sans-Serif" font-size="10.00" fill="#000000">close()</text>
</g>
<!-- A3&#45;&gt;A7 -->
<g id="edge12" class="edge">
<title>A3&#45;&gt;A7</title>
<path fill="none" stroke="#000000" d="M99.7163,-217.6237C102.7418,-193.0021 106.0292,-166.2494 108.9885,-142.1671"/>
<polygon fill="#000000" stroke="#000000" points="99.6702,-217.9995 102.9085,-224.4425 98.2065,-229.9099 94.9682,-223.4668 99.6702,-217.9995"/>
<polygon fill="#000000" stroke="#000000" points="110.2349,-132.0235 113.4816,-142.4978 109.6251,-136.9862 109.0152,-141.9489 109.0152,-141.9489 109.0152,-141.9489 109.6251,-136.9862 104.5488,-141.4 110.2349,-132.0235 110.2349,-132.0235"/>
<text text-anchor="middle" x="92.028" y="-207.8882" font-family="Helvetica,sans-Serif" font-size="10.00" fill="#000000">local</text>
</g>
<!-- A3&#45;&gt;A8 -->
<g id="edge10" class="edge">
<title>A3&#45;&gt;A8</title>
<path fill="none" stroke="#000000" d="M138.4873,-232.1115C151.0204,-215.3231 164.7944,-197.7122 178.348,-182 196.1632,-161.3474 216.8826,-139.9135 235.8403,-121.173"/>
<polygon fill="#000000" stroke="#000000" points="243.01,-114.1296 239.0299,-124.3477 239.4432,-117.6336 235.8763,-121.1375 235.8763,-121.1375 235.8763,-121.1375 239.4432,-117.6336 232.7227,-117.9274 243.01,-114.1296 243.01,-114.1296"/>
<text text-anchor="middle" x="236.0028" y="-129.8619" font-family="Helvetica,sans-Serif" font-size="10.00" fill="#000000">remote</text>
</g>
<!-- A4 -->
<g id="node5" class="node">
<title>A4</title>
<polygon fill="none" stroke="#000000" points="180.348,-958 180.348,-990 297.348,-990 297.348,-958 180.348,-958"/>
<text text-anchor="start" x="208.277" y="-971" font-family="Helvetica,sans-Serif" font-size="10.00" fill="#000000">&lt;&lt;AsyncIfc&gt;&gt;</text>
<polygon fill="none" stroke="#000000" points="180.348,-938 180.348,-958 297.348,-958 297.348,-938 180.348,-938"/>
<polygon fill="none" stroke="#000000" points="180.348,-666 180.348,-938 297.348,-938 297.348,-666 180.348,-666"/>
<text text-anchor="start" x="208.284" y="-919" font-family="Helvetica,sans-Serif" font-size="10.00" fill="#000000">set_node_id()</text>
<text text-anchor="start" x="206.614" y="-907" font-family="Helvetica,sans-Serif" font-size="10.00" fill="#000000">get_conn_no()</text>
<text text-anchor="start" x="220.5115" y="-883" font-family="Helvetica,sans-Serif" font-size="10.00" fill="#000000">tx_add()</text>
<text text-anchor="start" x="218.292" y="-871" font-family="Helvetica,sans-Serif" font-size="10.00" fill="#000000">tx_flush()</text>
<text text-anchor="start" x="221.9015" y="-859" font-family="Helvetica,sans-Serif" font-size="10.00" fill="#000000">tx_get()</text>
<text text-anchor="start" x="218.0115" y="-847" font-family="Helvetica,sans-Serif" font-size="10.00" fill="#000000">tx_peek()</text>
<text text-anchor="start" x="222.1815" y="-835" font-family="Helvetica,sans-Serif" font-size="10.00" fill="#000000">tx_log()</text>
<text text-anchor="start" x="218.017" y="-823" font-family="Helvetica,sans-Serif" font-size="10.00" fill="#000000">tx_clear()</text>
<text text-anchor="start" x="222.1815" y="-811" font-family="Helvetica,sans-Serif" font-size="10.00" fill="#000000">tx_len()</text>
<text text-anchor="start" x="216.6225" y="-787" font-family="Helvetica,sans-Serif" font-size="10.00" fill="#000000">fwd_add()</text>
<text text-anchor="start" x="218.2925" y="-775" font-family="Helvetica,sans-Serif" font-size="10.00" fill="#000000">fwd_log()</text>
<text text-anchor="start" x="221.6265" y="-763" font-family="Helvetica,sans-Serif" font-size="10.00" fill="#000000">rx_get()</text>
<text text-anchor="start" x="217.7365" y="-751" font-family="Helvetica,sans-Serif" font-size="10.00" fill="#000000">rx_peek()</text>
<text text-anchor="start" x="221.9065" y="-739" font-family="Helvetica,sans-Serif" font-size="10.00" fill="#000000">rx_log()</text>
<text text-anchor="start" x="217.742" y="-727" font-family="Helvetica,sans-Serif" font-size="10.00" fill="#000000">rx_clear()</text>
<text text-anchor="start" x="221.9065" y="-715" font-family="Helvetica,sans-Serif" font-size="10.00" fill="#000000">rx_len()</text>
<text text-anchor="start" x="213.847" y="-703" font-family="Helvetica,sans-Serif" font-size="10.00" fill="#000000">rx_set_cb()</text>
<text text-anchor="start" x="190.2275" y="-679" font-family="Helvetica,sans-Serif" font-size="10.00" fill="#000000">prot_set_timeout_cb()</text>
</g>
<!-- A5 -->
<g id="node6" class="node">
<title>A5</title>
<polygon fill="none" stroke="#000000" points="192.348,-574 192.348,-606 285.348,-606 285.348,-574 192.348,-574"/>
<text text-anchor="start" x="210.512" y="-587" font-family="Helvetica,sans-Serif" font-size="10.00" fill="#000000">AsyncIfcImpl</text>
<polygon fill="none" stroke="#000000" points="192.348,-482 192.348,-574 285.348,-574 285.348,-482 192.348,-482"/>
<text text-anchor="start" x="201.896" y="-555" font-family="Helvetica,sans-Serif" font-size="10.00" fill="#000000">fwd_fifo:ByteFifo</text>
<text text-anchor="start" x="205.785" y="-543" font-family="Helvetica,sans-Serif" font-size="10.00" fill="#000000">tx_fifo:ByteFifo</text>
<text text-anchor="start" x="205.51" y="-531" font-family="Helvetica,sans-Serif" font-size="10.00" fill="#000000">rx_fifo:ByteFifo</text>
<text text-anchor="start" x="204.944" y="-519" font-family="Helvetica,sans-Serif" font-size="10.00" fill="#000000">conn_no:Count</text>
<text text-anchor="start" x="221.0615" y="-507" font-family="Helvetica,sans-Serif" font-size="10.00" fill="#000000">node_id</text>
<text text-anchor="start" x="214.3975" y="-495" font-family="Helvetica,sans-Serif" font-size="10.00" fill="#000000">timeout_cb</text>
</g>
<!-- A4&#45;&gt;A5 -->
<g id="edge1" class="edge">
<title>A4&#45;&gt;A5</title>
<path fill="none" stroke="#000000" stroke-dasharray="5,2" d="M238.348,-655.339C238.348,-637.8929 238.348,-621.0952 238.348,-606.0686"/>
<polygon fill="none" stroke="#000000" points="234.8481,-655.6774 238.348,-665.6775 241.8481,-655.6775 234.8481,-655.6774"/>
</g>
<!-- A6 -->
<g id="node7" class="node">
<title>A6</title>
<polygon fill="none" stroke="#000000" points="187.348,-390 187.348,-422 289.348,-422 289.348,-390 187.348,-390"/>
<text text-anchor="start" x="208.622" y="-403" font-family="Helvetica,sans-Serif" font-size="10.00" fill="#000000">AsyncStream</text>
<polygon fill="none" stroke="#000000" points="187.348,-310 187.348,-390 289.348,-390 289.348,-310 187.348,-310"/>
<text text-anchor="start" x="223.901" y="-371" font-family="Helvetica,sans-Serif" font-size="10.00" fill="#000000">reader</text>
<text text-anchor="start" x="226.131" y="-359" font-family="Helvetica,sans-Serif" font-size="10.00" fill="#000000">writer</text>
<text text-anchor="start" x="228.345" y="-347" font-family="Helvetica,sans-Serif" font-size="10.00" fill="#000000">addr</text>
<text text-anchor="start" x="223.901" y="-335" font-family="Helvetica,sans-Serif" font-size="10.00" fill="#000000">r_addr</text>
<text text-anchor="start" x="224.456" y="-323" font-family="Helvetica,sans-Serif" font-size="10.00" fill="#000000">l_addr</text>
<polygon fill="none" stroke="#000000" points="187.348,-182 187.348,-310 289.348,-310 289.348,-182 187.348,-182"/>
<text text-anchor="start" x="210.002" y="-279" font-family="Helvetica,sans-Serif" font-size="10.00" fill="#000000">&lt;async&gt;loop</text>
<text text-anchor="start" x="226.13" y="-267" font-family="Helvetica,sans-Serif" font-size="10.00" fill="#000000">disc()</text>
<text text-anchor="start" x="223.3505" y="-255" font-family="Helvetica,sans-Serif" font-size="10.00" fill="#000000">close()</text>
<text text-anchor="start" x="218.902" y="-243" font-family="Helvetica,sans-Serif" font-size="10.00" fill="#000000">healthy()</text>
<text text-anchor="start" x="203.6185" y="-219" font-family="Helvetica,sans-Serif" font-size="10.00" fill="#000000">__async_read()</text>
<text text-anchor="start" x="203.069" y="-207" font-family="Helvetica,sans-Serif" font-size="10.00" fill="#000000">__async_write()</text>
<text text-anchor="start" x="196.955" y="-195" font-family="Helvetica,sans-Serif" font-size="10.00" fill="#000000">__async_forward()</text>
</g>
<!-- A5&#45;&gt;A6 -->
<g id="edge2" class="edge">
<title>A5&#45;&gt;A6</title>
<path fill="none" stroke="#000000" d="M238.348,-471.886C238.348,-456.1951 238.348,-439.1858 238.348,-422.1976"/>
<polygon fill="none" stroke="#000000" points="234.8481,-471.9932 238.348,-481.9932 241.8481,-471.9933 234.8481,-471.9932"/>
</g>
<!-- A6&#45;&gt;A7 -->
<g id="edge3" class="edge">
<title>A6&#45;&gt;A7</title>
<path fill="none" stroke="#000000" d="M182.6502,-192.461C172.1789,-171.8674 161.5319,-150.9284 151.9938,-132.1701"/>
<polygon fill="none" stroke="#000000" points="179.6308,-194.2451 187.2832,-201.5725 185.8705,-191.0723 179.6308,-194.2451"/>
</g>
<!-- A6&#45;&gt;A8 -->
<g id="edge4" class="edge">
<title>A6&#45;&gt;A8</title>
<path fill="none" stroke="#000000" d="M269.1746,-172.088C274.0746,-151.438 278.8579,-131.2796 282.9161,-114.1772"/>
<polygon fill="none" stroke="#000000" points="265.7436,-171.3879 266.8402,-181.9259 272.5545,-173.0041 265.7436,-171.3879"/>
</g>
<!-- A9 -->
<g id="node10" class="node">
<title>A9</title>
<polygon fill="none" stroke="#000000" points="302.348,-1320 302.348,-1352 416.348,-1352 416.348,-1320 302.348,-1320"/>
<text text-anchor="start" x="345.456" y="-1333" font-family="Helvetica,sans-Serif" font-size="10.00" fill="#000000">Talent</text>
<polygon fill="none" stroke="#000000" points="302.348,-1168 302.348,-1320 416.348,-1320 416.348,-1168 302.348,-1168"/>
<text text-anchor="start" x="334.0665" y="-1301" font-family="Helvetica,sans-Serif" font-size="10.00" fill="#000000">ifc:AsyncIfc</text>
<text text-anchor="start" x="340.171" y="-1289" font-family="Helvetica,sans-Serif" font-size="10.00" fill="#000000">conn_no</text>
<text text-anchor="start" x="349.345" y="-1277" font-family="Helvetica,sans-Serif" font-size="10.00" fill="#000000">addr</text>
<text text-anchor="start" x="312.111" y="-1253" font-family="Helvetica,sans-Serif" font-size="10.00" fill="#000000">await_conn_resp_cnt</text>
<text text-anchor="start" x="347.1255" y="-1241" font-family="Helvetica,sans-Serif" font-size="10.00" fill="#000000">id_str</text>
<text text-anchor="start" x="327.948" y="-1229" font-family="Helvetica,sans-Serif" font-size="10.00" fill="#000000">contact_name</text>
<text text-anchor="start" x="331.288" y="-1217" font-family="Helvetica,sans-Serif" font-size="10.00" fill="#000000">contact_mail</text>
<text text-anchor="start" x="334.8925" y="-1205" font-family="Helvetica,sans-Serif" font-size="10.00" fill="#000000">db:InfosG3</text>
<text text-anchor="start" x="333.232" y="-1193" font-family="Helvetica,sans-Serif" font-size="10.00" fill="#000000">mb:Modbus</text>
<text text-anchor="start" x="345.46" y="-1181" font-family="Helvetica,sans-Serif" font-size="10.00" fill="#000000">switch</text>
<polygon fill="none" stroke="#000000" points="302.348,-1040 302.348,-1168 416.348,-1168 416.348,-1040 302.348,-1040"/>
<text text-anchor="start" x="316.8405" y="-1149" font-family="Helvetica,sans-Serif" font-size="10.00" fill="#000000">msg_contact_info()</text>
<text text-anchor="start" x="318.7805" y="-1137" font-family="Helvetica,sans-Serif" font-size="10.00" fill="#000000">msg_ota_update()</text>
<text text-anchor="start" x="324.6245" y="-1125" font-family="Helvetica,sans-Serif" font-size="10.00" fill="#000000">msg_get_time()</text>
<text text-anchor="start" x="312.6765" y="-1113" font-family="Helvetica,sans-Serif" font-size="10.00" fill="#000000">msg_collector_data()</text>
<text text-anchor="start" x="314.6215" y="-1101" font-family="Helvetica,sans-Serif" font-size="10.00" fill="#000000">msg_inverter_data()</text>
<text text-anchor="start" x="323.7885" y="-1089" font-family="Helvetica,sans-Serif" font-size="10.00" fill="#000000">msg_unknown()</text>
<text text-anchor="start" x="339.902" y="-1065" font-family="Helvetica,sans-Serif" font-size="10.00" fill="#000000">healthy()</text>
<text text-anchor="start" x="344.3505" y="-1053" font-family="Helvetica,sans-Serif" font-size="10.00" fill="#000000">close()</text>
</g>
<!-- A9&#45;&gt;A2 -->
<g id="edge5" class="edge">
<title>A9&#45;&gt;A2</title>
<path fill="none" stroke="#000000" d="M377.8061,-1029.6429C379.5037,-1016.2527 381.0593,-1002.9144 382.348,-990 395.4702,-858.5013 399.9848,-704.3277 404.1955,-616.0127"/>
<polygon fill="#000000" stroke="#000000" points="376.4823,-1039.8864 373.3012,-1029.3921 377.1232,-1034.9276 377.764,-1029.9689 377.764,-1029.9689 377.764,-1029.9689 377.1232,-1034.9276 382.2269,-1030.5457 376.4823,-1039.8864 376.4823,-1039.8864"/>
<text text-anchor="middle" x="370.4228" y="-1017.8264" font-family="Helvetica,sans-Serif" font-size="10.00" fill="#000000">remote</text>
</g>
<!-- A9&#45;&gt;A2 -->
<g id="edge7" class="edge">
<title>A9&#45;&gt;A2</title>
<path fill="none" stroke="#000000" d="M395.7566,-1029.6429C397.5037,-1016.2527 399.0593,-1002.9144 400.348,-990 412.8936,-864.2801 417.5714,-717.8344 416.9909,-628.0298"/>
<polygon fill="#000000" stroke="#000000" points="394.3845,-1039.8864 391.2521,-1029.3774 395.0484,-1034.9307 395.7122,-1029.9749 395.7122,-1029.9749 395.7122,-1029.9749 395.0484,-1034.9307 400.1724,-1030.5724 394.3845,-1039.8864 394.3845,-1039.8864"/>
<polygon fill="#000000" stroke="#000000" points="416.9908,-628.0122 412.9345,-622.0501 416.8778,-616.0127 420.9341,-621.9747 416.9908,-628.0122"/>
<text text-anchor="middle" x="425.5004" y="-631.0585" font-family="Helvetica,sans-Serif" font-size="10.00" fill="#000000">local</text>
</g>
<!-- A9&#45;&gt;A4 -->
<g id="edge15" class="edge">
<title>A9&#45;&gt;A4</title>
<path fill="none" stroke="#000000" d="M308.0331,-1039.9349C303.6793,-1026.6936 299.2605,-1013.2547 294.8698,-999.9011"/>
<polygon fill="#000000" stroke="#000000" points="291.679,-990.1968 299.0774,-998.2908 293.2408,-994.9466 294.8026,-999.6964 294.8026,-999.6964 294.8026,-999.6964 293.2408,-994.9466 290.5277,-1001.102 291.679,-990.1968 291.679,-990.1968"/>
<text text-anchor="middle" x="294.3419" y="-1022.3558" font-family="Helvetica,sans-Serif" font-size="10.00" fill="#000000">use</text>
</g>
<!-- A12 -->
<g id="node13" class="node">
<title>A12</title>
<polygon fill="none" stroke="#000000" points="315.348,-844 315.348,-876 382.348,-876 382.348,-844 315.348,-844"/>
<text text-anchor="start" x="331.341" y="-857" font-family="Helvetica,sans-Serif" font-size="10.00" fill="#000000">InfosG3</text>
<polygon fill="none" stroke="#000000" points="315.348,-824 315.348,-844 382.348,-844 382.348,-824 315.348,-824"/>
<polygon fill="none" stroke="#000000" points="315.348,-780 315.348,-824 382.348,-824 382.348,-780 315.348,-780"/>
<text text-anchor="start" x="325.232" y="-805" font-family="Helvetica,sans-Serif" font-size="10.00" fill="#000000">ha_confs()</text>
<text text-anchor="start" x="333.016" y="-793" font-family="Helvetica,sans-Serif" font-size="10.00" fill="#000000">parse()</text>
</g>
<!-- A9&#45;&gt;A12 -->
<g id="edge16" class="edge">
<title>A9&#45;&gt;A12</title>
<path fill="none" stroke="#000000" d="M354.683,-1039.9349C353.0582,-985.577 351.3338,-927.8888 350.095,-886.4463"/>
<polygon fill="#000000" stroke="#000000" points="349.7909,-876.272 354.5878,-886.1331 349.9404,-881.2698 350.0898,-886.2676 350.0898,-886.2676 350.0898,-886.2676 349.9404,-881.2698 345.5918,-886.4021 349.7909,-876.272 349.7909,-876.272"/>
</g>
<!-- A10 -->
<g id="node11" class="node">
<title>A10</title>
<polygon fill="none" stroke="#000000" points="72.348,-1284 72.348,-1316 163.348,-1316 163.348,-1284 72.348,-1284"/>
<text text-anchor="start" x="90.343" y="-1297" font-family="Helvetica,sans-Serif" font-size="10.00" fill="#000000">SolarmanV5</text>
<polygon fill="none" stroke="#000000" points="72.348,-1144 72.348,-1284 163.348,-1284 163.348,-1144 72.348,-1144"/>
<text text-anchor="start" x="92.5665" y="-1265" font-family="Helvetica,sans-Serif" font-size="10.00" fill="#000000">ifc:AsyncIfc</text>
<text text-anchor="start" x="98.671" y="-1253" font-family="Helvetica,sans-Serif" font-size="10.00" fill="#000000">conn_no</text>
<text text-anchor="start" x="107.845" y="-1241" font-family="Helvetica,sans-Serif" font-size="10.00" fill="#000000">addr</text>
<text text-anchor="start" x="102.846" y="-1217" font-family="Helvetica,sans-Serif" font-size="10.00" fill="#000000">control</text>
<text text-anchor="start" x="105.9055" y="-1205" font-family="Helvetica,sans-Serif" font-size="10.00" fill="#000000">serial</text>
<text text-anchor="start" x="110.904" y="-1193" font-family="Helvetica,sans-Serif" font-size="10.00" fill="#000000">snr</text>
<text text-anchor="start" x="90.058" y="-1181" font-family="Helvetica,sans-Serif" font-size="10.00" fill="#000000">db:InfosG3P</text>
<text text-anchor="start" x="91.732" y="-1169" font-family="Helvetica,sans-Serif" font-size="10.00" fill="#000000">mb:Modbus</text>
<text text-anchor="start" x="103.96" y="-1157" font-family="Helvetica,sans-Serif" font-size="10.00" fill="#000000">switch</text>
<polygon fill="none" stroke="#000000" points="72.348,-1076 72.348,-1144 163.348,-1144 163.348,-1076 72.348,-1076"/>
<text text-anchor="start" x="82.2885" y="-1125" font-family="Helvetica,sans-Serif" font-size="10.00" fill="#000000">msg_unknown()</text>
<text text-anchor="start" x="98.402" y="-1101" font-family="Helvetica,sans-Serif" font-size="10.00" fill="#000000">healthy()</text>
<text text-anchor="start" x="102.8505" y="-1089" font-family="Helvetica,sans-Serif" font-size="10.00" fill="#000000">close()</text>
</g>
<!-- A10&#45;&gt;A3 -->
<g id="edge9" class="edge">
<title>A10&#45;&gt;A3</title>
<path fill="none" stroke="#000000" d="M85.2254,-1066.0442C81.4271,-1040.8951 78.2542,-1014.6889 76.348,-990 59.0619,-766.107 69.322,-500.0139 79.5568,-374.449"/>
<polygon fill="#000000" stroke="#000000" points="86.7695,-1075.9973 80.7895,-1066.8055 86.0029,-1071.0565 85.2364,-1066.1156 85.2364,-1066.1156 85.2364,-1066.1156 86.0029,-1071.0565 89.6832,-1065.4256 86.7695,-1075.9973 86.7695,-1075.9973"/>
<text text-anchor="middle" x="75.6382" y="-1056.3813" font-family="Helvetica,sans-Serif" font-size="10.00" fill="#000000">remote</text>
</g>
<!-- A10&#45;&gt;A3 -->
<g id="edge11" class="edge">
<title>A10&#45;&gt;A3</title>
<path fill="none" stroke="#000000" d="M102.8817,-1066.0442C99.4271,-1040.8951 96.2542,-1014.6889 94.348,-990 77.6021,-773.1036 86.7076,-516.6035 90.1168,-386.6269"/>
<polygon fill="#000000" stroke="#000000" points="104.2701,-1075.9973 98.4317,-1066.7149 103.5793,-1071.0453 102.8885,-1066.0932 102.8885,-1066.0932 102.8885,-1066.0932 103.5793,-1071.0453 107.3454,-1065.4715 104.2701,-1075.9973 104.2701,-1075.9973"/>
<polygon fill="#000000" stroke="#000000" points="90.1213,-386.4451 86.2759,-380.3449 90.4278,-374.449 94.2733,-380.5493 90.1213,-386.4451"/>
<text text-anchor="middle" x="98.4146" y="-389.7851" font-family="Helvetica,sans-Serif" font-size="10.00" fill="#000000">local</text>
</g>
<!-- A10&#45;&gt;A4 -->
<g id="edge17" class="edge">
<title>A10&#45;&gt;A4</title>
<path fill="none" stroke="#000000" d="M156.8842,-1075.7577C164.8622,-1051.494 173.3952,-1025.5424 181.8248,-999.9053"/>
<polygon fill="#000000" stroke="#000000" points="185.0491,-990.0992 186.2003,-1001.0045 183.4873,-994.849 181.9255,-999.5989 181.9255,-999.5989 181.9255,-999.5989 183.4873,-994.849 177.6506,-998.1932 185.0491,-990.0992 185.0491,-990.0992"/>
<text text-anchor="middle" x="154.5165" y="-1052.8983" font-family="Helvetica,sans-Serif" font-size="10.00" fill="#000000">use</text>
</g>
<!-- A13 -->
<g id="node14" class="node">
<title>A13</title>
<polygon fill="none" stroke="#000000" points="95.348,-844 95.348,-876 162.348,-876 162.348,-844 95.348,-844"/>
<text text-anchor="start" x="108.0065" y="-857" font-family="Helvetica,sans-Serif" font-size="10.00" fill="#000000">InfosG3P</text>
<polygon fill="none" stroke="#000000" points="95.348,-824 95.348,-844 162.348,-844 162.348,-824 95.348,-824"/>
<polygon fill="none" stroke="#000000" points="95.348,-780 95.348,-824 162.348,-824 162.348,-780 95.348,-780"/>
<text text-anchor="start" x="105.232" y="-805" font-family="Helvetica,sans-Serif" font-size="10.00" fill="#000000">ha_confs()</text>
<text text-anchor="start" x="113.016" y="-793" font-family="Helvetica,sans-Serif" font-size="10.00" fill="#000000">parse()</text>
</g>
<!-- A10&#45;&gt;A13 -->
<g id="edge18" class="edge">
<title>A10&#45;&gt;A13</title>
<path fill="none" stroke="#000000" d="M120.9422,-1075.7577C122.842,-1012.1995 125.0881,-937.0598 126.6045,-886.3285"/>
<polygon fill="#000000" stroke="#000000" points="126.9072,-876.2026 131.1063,-886.3326 126.7577,-881.2004 126.6083,-886.1981 126.6083,-886.1981 126.6083,-886.1981 126.7577,-881.2004 122.1103,-886.0636 126.9072,-876.2026 126.9072,-876.2026"/>
</g>
<!-- A11 -->
<g id="node12" class="node">
<title>A11</title>
<polygon fill="none" stroke="#000000" points="181.348,-1284 181.348,-1316 284.348,-1316 284.348,-1284 181.348,-1284"/>
<text text-anchor="start" x="222.01" y="-1297" font-family="Helvetica,sans-Serif" font-size="10.00" fill="#000000">Infos</text>
<polygon fill="none" stroke="#000000" points="181.348,-1228 181.348,-1284 284.348,-1284 284.348,-1228 181.348,-1228"/>
<text text-anchor="start" x="224.7895" y="-1265" font-family="Helvetica,sans-Serif" font-size="10.00" fill="#000000">stat</text>
<text text-anchor="start" x="200.334" y="-1253" font-family="Helvetica,sans-Serif" font-size="10.00" fill="#000000">new_stat_data</text>
<text text-anchor="start" x="213.9515" y="-1241" font-family="Helvetica,sans-Serif" font-size="10.00" fill="#000000">info_dev</text>
<polygon fill="none" stroke="#000000" points="181.348,-1076 181.348,-1228 284.348,-1228 284.348,-1076 181.348,-1076"/>
<text text-anchor="start" x="208.6835" y="-1209" font-family="Helvetica,sans-Serif" font-size="10.00" fill="#000000">static_init()</text>
<text text-anchor="start" x="206.7325" y="-1197" font-family="Helvetica,sans-Serif" font-size="10.00" fill="#000000">dev_value()</text>
<text text-anchor="start" x="203.6785" y="-1185" font-family="Helvetica,sans-Serif" font-size="10.00" fill="#000000">inc_counter()</text>
<text text-anchor="start" x="202.0085" y="-1173" font-family="Helvetica,sans-Serif" font-size="10.00" fill="#000000">dec_counter()</text>
<text text-anchor="start" x="200.058" y="-1161" font-family="Helvetica,sans-Serif" font-size="10.00" fill="#000000">ha_proxy_conf</text>
<text text-anchor="start" x="215.061" y="-1149" font-family="Helvetica,sans-Serif" font-size="10.00" fill="#000000">ha_conf</text>
<text text-anchor="start" x="207.842" y="-1137" font-family="Helvetica,sans-Serif" font-size="10.00" fill="#000000">ha_remove</text>
<text text-anchor="start" x="209.2225" y="-1125" font-family="Helvetica,sans-Serif" font-size="10.00" fill="#000000">update_db</text>
<text text-anchor="start" x="193.385" y="-1113" font-family="Helvetica,sans-Serif" font-size="10.00" fill="#000000">set_db_def_value</text>
<text text-anchor="start" x="202.8335" y="-1101" font-family="Helvetica,sans-Serif" font-size="10.00" fill="#000000">get_db_value</text>
<text text-anchor="start" x="191.1705" y="-1089" font-family="Helvetica,sans-Serif" font-size="10.00" fill="#000000">ignore_this_device</text>
</g>
<!-- A11&#45;&gt;A12 -->
<g id="edge13" class="edge">
<title>A11&#45;&gt;A12</title>
<path fill="none" stroke="#000000" d="M280.9382,-1066.3836C289.808,-1041.1849 298.6736,-1014.8736 306.348,-990 318.0407,-952.103 329.205,-908.562 337.0802,-876.1703"/>
<polygon fill="none" stroke="#000000" points="277.5783,-1065.3868 277.541,-1075.9815 284.1771,-1067.7225 277.5783,-1065.3868"/>
</g>
<!-- A11&#45;&gt;A13 -->
<g id="edge14" class="edge">
<title>A11&#45;&gt;A13</title>
<path fill="none" stroke="#000000" d="M192.4636,-1066.2454C184.9411,-1041.0063 177.2684,-1014.7156 170.348,-990 159.6936,-951.9489 148.506,-908.6064 140.3587,-876.3336"/>
<polygon fill="none" stroke="#000000" points="189.1205,-1067.2825 195.3374,-1075.8616 195.8274,-1065.2781 189.1205,-1067.2825"/>
</g>
<!-- A15 -->
<g id="node16" class="node">
<title>A15</title>
<polygon fill="none" stroke="#000000" points="150.348,-1550 150.348,-1582 231.348,-1582 231.348,-1550 150.348,-1550"/>
<text text-anchor="start" x="170.5655" y="-1563" font-family="Helvetica,sans-Serif" font-size="10.00" fill="#000000">Message</text>
<polygon fill="none" stroke="#000000" points="150.348,-1518 150.348,-1550 231.348,-1550 231.348,-1518 150.348,-1518"/>
<text text-anchor="start" x="173.0615" y="-1531" font-family="Helvetica,sans-Serif" font-size="10.00" fill="#000000">node_id</text>
<polygon fill="none" stroke="#000000" points="150.348,-1474 150.348,-1518 231.348,-1518 231.348,-1474 150.348,-1474"/>
<text text-anchor="start" x="161.6785" y="-1499" font-family="Helvetica,sans-Serif" font-size="10.00" fill="#000000">inc_counter()</text>
<text text-anchor="start" x="160.0085" y="-1487" font-family="Helvetica,sans-Serif" font-size="10.00" fill="#000000">dec_counter()</text>
</g>
<!-- A14&#45;&gt;A15 -->
<g id="edge20" class="edge">
<title>A14&#45;&gt;A15</title>
<path fill="none" stroke="#000000" stroke-dasharray="5,2" d="M190.348,-1693.5712C190.348,-1659.1613 190.348,-1615.9264 190.348,-1582.2666"/>
<polygon fill="none" stroke="#000000" points="186.8481,-1693.9463 190.348,-1703.9464 193.8481,-1693.9464 186.8481,-1693.9463"/>
</g>
<!-- A15&#45;&gt;A9 -->
<g id="edge21" class="edge">
<title>A15&#45;&gt;A9</title>
<path fill="none" stroke="#000000" d="M229.7336,-1465.2507C249.8317,-1432.1375 274.0435,-1390.492 293.348,-1352 296.3143,-1346.0855 299.269,-1340.0055 302.1912,-1333.8349"/>
<polygon fill="none" stroke="#000000" points="226.6683,-1463.555 224.4506,-1473.9151 232.6449,-1467.1992 226.6683,-1463.555"/>
</g>
<!-- A15&#45;&gt;A10 -->
<g id="edge22" class="edge">
<title>A15&#45;&gt;A10</title>
<path fill="none" stroke="#000000" d="M176.3052,-1464.1339C167.0994,-1422.2665 154.7762,-1366.2214 143.7769,-1316.197"/>
<polygon fill="none" stroke="#000000" points="172.8909,-1464.9045 178.4568,-1473.9196 179.7276,-1463.4012 172.8909,-1464.9045"/>
</g>
<!-- A16 -->
<g id="node17" class="node">
<title>A16</title>
<polygon fill="none" stroke="#000000" points="285.348,-1622 285.348,-1654 360.348,-1654 360.348,-1622 285.348,-1622"/>
<text text-anchor="start" x="305.0655" y="-1635" font-family="Helvetica,sans-Serif" font-size="10.00" fill="#000000">Modbus</text>
<polygon fill="none" stroke="#000000" points="285.348,-1470 285.348,-1622 360.348,-1622 360.348,-1470 285.348,-1470"/>
<text text-anchor="start" x="314.5095" y="-1603" font-family="Helvetica,sans-Serif" font-size="10.00" fill="#000000">que</text>
<text text-anchor="start" x="295.338" y="-1579" font-family="Helvetica,sans-Serif" font-size="10.00" fill="#000000">snd_handler</text>
<text text-anchor="start" x="296.453" y="-1567" font-family="Helvetica,sans-Serif" font-size="10.00" fill="#000000">rsp_handler</text>
<text text-anchor="start" x="306.4565" y="-1555" font-family="Helvetica,sans-Serif" font-size="10.00" fill="#000000">timeout</text>
<text text-anchor="start" x="296.7375" y="-1543" font-family="Helvetica,sans-Serif" font-size="10.00" fill="#000000">max_retires</text>
<text text-anchor="start" x="304.79" y="-1531" font-family="Helvetica,sans-Serif" font-size="10.00" fill="#000000">last_xxx</text>
<text text-anchor="start" x="316.7395" y="-1519" font-family="Helvetica,sans-Serif" font-size="10.00" fill="#000000">err</text>
<text text-anchor="start" x="303.4015" y="-1507" font-family="Helvetica,sans-Serif" font-size="10.00" fill="#000000">retry_cnt</text>
<text text-anchor="start" x="301.727" y="-1495" font-family="Helvetica,sans-Serif" font-size="10.00" fill="#000000">req_pend</text>
<text text-anchor="start" x="316.1845" y="-1483" font-family="Helvetica,sans-Serif" font-size="10.00" fill="#000000">tim</text>
<polygon fill="none" stroke="#000000" points="285.348,-1402 285.348,-1470 360.348,-1470 360.348,-1402 285.348,-1402"/>
<text text-anchor="start" x="296.738" y="-1451" font-family="Helvetica,sans-Serif" font-size="10.00" fill="#000000">build_msg()</text>
<text text-anchor="start" x="300.072" y="-1439" font-family="Helvetica,sans-Serif" font-size="10.00" fill="#000000">recv_req()</text>
<text text-anchor="start" x="297.572" y="-1427" font-family="Helvetica,sans-Serif" font-size="10.00" fill="#000000">recv_resp()</text>
<text text-anchor="start" x="307.8505" y="-1415" font-family="Helvetica,sans-Serif" font-size="10.00" fill="#000000">close()</text>
</g>
<!-- A16&#45;&gt;A9 -->
<g id="edge24" class="edge">
<title>A16&#45;&gt;A9</title>
<path fill="none" stroke="#000000" d="M337.5861,-1391.2689C339.0212,-1378.3918 340.4833,-1365.272 341.9365,-1352.2329"/>
<polygon fill="#000000" stroke="#000000" points="336.4417,-1401.5379 333.077,-1391.101 336.9955,-1396.5687 337.5493,-1391.5995 337.5493,-1391.5995 337.5493,-1391.5995 336.9955,-1396.5687 342.0217,-1392.0979 336.4417,-1401.5379 336.4417,-1401.5379"/>
<text text-anchor="middle" x="348.3292" y="-1368.1837" font-family="Helvetica,sans-Serif" font-size="10.00" fill="#000000">has</text>
<text text-anchor="middle" x="330.049" y="-1379.5871" font-family="Helvetica,sans-Serif" font-size="10.00" fill="#000000">1</text>
</g>
<!-- A16&#45;&gt;A10 -->
<g id="edge23" class="edge">
<title>A16&#45;&gt;A10</title>
<path fill="none" stroke="#000000" d="M279.1725,-1451.7757C267.6828,-1434.4941 254.4915,-1416.871 240.348,-1402 214.2483,-1374.5578 193.9188,-1382.411 171.348,-1352 163.2346,-1341.0684 156.273,-1328.8227 150.315,-1316.1269"/>
<polygon fill="#000000" stroke="#000000" points="284.6729,-1460.2184 275.4437,-1454.2962 281.9435,-1456.0291 279.2141,-1451.8397 279.2141,-1451.8397 279.2141,-1451.8397 281.9435,-1456.0291 282.9845,-1449.3833 284.6729,-1460.2184 284.6729,-1460.2184"/>
<text text-anchor="middle" x="165.7688" y="-1325.8225" font-family="Helvetica,sans-Serif" font-size="10.00" fill="#000000">has</text>
<text text-anchor="middle" x="267.6964" y="-1446.645" font-family="Helvetica,sans-Serif" font-size="10.00" fill="#000000">1</text>
</g>
</g>
</svg>
