<?xml version="1.0" encoding="UTF-8" standalone="no"?>
<!DOCTYPE svg PUBLIC "-//W3C//DTD SVG 1.1//EN"
 "http://www.w3.org/Graphics/SVG/1.1/DTD/svg11.dtd">
<!-- Generated by graphviz version 2.40.1 (20161225.0304)
 -->
<!-- Title: G Pages: 1 -->
<svg width="476pt" height="1028pt"
 viewBox="0.00 0.00 475.50 1028.00" xmlns="http://www.w3.org/2000/svg" xmlns:xlink="http://www.w3.org/1999/xlink">
<g id="graph0" class="graph" transform="scale(1 1) rotate(0) translate(4 1024)">
<title>G</title>
<polygon fill="#ffffff" stroke="transparent" points="-4,4 -4,-1024 471.5,-1024 471.5,4 -4,4"/>
<!-- A0 -->
<g id="node1" class="node">
<title>A0</title>
<polygon fill="#fff8dc" stroke="#000000" points="171.1964,-996 62.8036,-996 62.8036,-960 177.1964,-960 177.1964,-990 171.1964,-996"/>
<polyline fill="none" stroke="#000000" points="171.1964,-996 171.1964,-990 "/>
<polyline fill="none" stroke="#000000" points="177.1964,-990 171.1964,-990 "/>
<text text-anchor="middle" x="120" y="-981" font-family="Helvetica,sans-Serif" font-size="10.00" fill="#000000">You can stick notes</text>
<text text-anchor="middle" x="120" y="-969" font-family="Helvetica,sans-Serif" font-size="10.00" fill="#000000">on diagrams too!</text>
</g>
<!-- A1 -->
<g id="node2" class="node">
<title>A1</title>
<polygon fill="none" stroke="#000000" points="196,-988 196,-1020 267,-1020 267,-988 196,-988"/>
<text text-anchor="start" x="205.945" y="-1001" font-family="Helvetica,sans-Serif" font-size="10.00" fill="#000000">IterRegistry</text>
<polygon fill="none" stroke="#000000" points="196,-968 196,-988 267,-988 267,-968 196,-968"/>
<polygon fill="none" stroke="#000000" points="196,-936 196,-968 267,-968 267,-936 196,-936"/>
<text text-anchor="start" x="213.439" y="-949" font-family="Helvetica,sans-Serif" font-size="10.00" fill="#000000">__iter__</text>
</g>
<!-- A2 -->
<g id="node3" class="node">
<title>A2</title>
<polygon fill="none" stroke="#000000" points="164,-854 164,-886 298,-886 298,-854 164,-854"/>
<text text-anchor="start" x="210.7175" y="-867" font-family="Helvetica,sans-Serif" font-size="10.00" fill="#000000">Message</text>
<polygon fill="none" stroke="#000000" points="164,-690 164,-854 298,-854 298,-690 164,-690"/>
<text text-anchor="start" x="194.3265" y="-835" font-family="Helvetica,sans-Serif" font-size="10.00" fill="#000000">server_side:bool</text>
<text text-anchor="start" x="191.543" y="-823" font-family="Helvetica,sans-Serif" font-size="10.00" fill="#000000">header_valid:bool</text>
<text text-anchor="start" x="184.314" y="-811" font-family="Helvetica,sans-Serif" font-size="10.00" fill="#000000">header_len:unsigned</text>
<text text-anchor="start" x="190.148" y="-799" font-family="Helvetica,sans-Serif" font-size="10.00" fill="#000000">data_len:unsigned</text>
<text text-anchor="start" x="209.3245" y="-787" font-family="Helvetica,sans-Serif" font-size="10.00" fill="#000000">unique_id</text>
<text text-anchor="start" x="213.2135" y="-775" font-family="Helvetica,sans-Serif" font-size="10.00" fill="#000000">node_id</text>
<text text-anchor="start" x="210.1585" y="-763" font-family="Helvetica,sans-Serif" font-size="10.00" fill="#000000">sug_area</text>
<text text-anchor="start" x="180.989" y="-751" font-family="Helvetica,sans-Serif" font-size="10.00" fill="#000000">_recv_buffer:bytearray</text>
<text text-anchor="start" x="179.5945" y="-739" font-family="Helvetica,sans-Serif" font-size="10.00" fill="#000000">_send_buffer:bytearray</text>
<text text-anchor="start" x="173.7665" y="-727" font-family="Helvetica,sans-Serif" font-size="10.00" fill="#000000">_forward_buffer:bytearray</text>
<text text-anchor="start" x="213.2135" y="-715" font-family="Helvetica,sans-Serif" font-size="10.00" fill="#000000">db:Infos</text>
<text text-anchor="start" x="201.826" y="-703" font-family="Helvetica,sans-Serif" font-size="10.00" fill="#000000">new_data:list</text>
<polygon fill="none" stroke="#000000" points="164,-622 164,-690 298,-690 298,-622 164,-622"/>
<text text-anchor="start" x="180.7095" y="-671" font-family="Helvetica,sans-Serif" font-size="10.00" fill="#000000">_read():void&lt;abstract&gt;</text>
<text text-anchor="start" x="205.4445" y="-659" font-family="Helvetica,sans-Serif" font-size="10.00" fill="#000000">close():void</text>
<text text-anchor="start" x="191.2725" y="-647" font-family="Helvetica,sans-Serif" font-size="10.00" fill="#000000">inc_counter():void</text>
<text text-anchor="start" x="189.6025" y="-635" font-family="Helvetica,sans-Serif" font-size="10.00" fill="#000000">dec_counter():void</text>
</g>
<!-- A1&#45;&gt;A2 -->
<g id="edge1" class="edge">
<title>A1&#45;&gt;A2</title>
<path fill="none" stroke="#000000" d="M231,-925.5789C231,-913.4616 231,-900.0319 231,-886.1761"/>
<polygon fill="none" stroke="#000000" points="227.5001,-925.8673 231,-935.8673 234.5001,-925.8673 227.5001,-925.8673"/>
</g>
<!-- A3 -->
<g id="node4" class="node">
<title>A3</title>
<polygon fill="none" stroke="#000000" points="54,-540 54,-572 168,-572 168,-540 54,-540"/>
<text text-anchor="start" x="97.108" y="-553" font-family="Helvetica,sans-Serif" font-size="10.00" fill="#000000">Talent</text>
<polygon fill="none" stroke="#000000" points="54,-460 54,-540 168,-540 168,-460 54,-460"/>
<text text-anchor="start" x="63.763" y="-521" font-family="Helvetica,sans-Serif" font-size="10.00" fill="#000000">await_conn_resp_cnt</text>
<text text-anchor="start" x="98.7775" y="-509" font-family="Helvetica,sans-Serif" font-size="10.00" fill="#000000">id_str</text>
<text text-anchor="start" x="79.6" y="-497" font-family="Helvetica,sans-Serif" font-size="10.00" fill="#000000">contact_name</text>
<text text-anchor="start" x="82.94" y="-485" font-family="Helvetica,sans-Serif" font-size="10.00" fill="#000000">contact_mail</text>
<text text-anchor="start" x="97.112" y="-473" font-family="Helvetica,sans-Serif" font-size="10.00" fill="#000000">switch</text>
<polygon fill="none" stroke="#000000" points="54,-344 54,-460 168,-460 168,-344 54,-344"/>
<text text-anchor="start" x="68.4925" y="-441" font-family="Helvetica,sans-Serif" font-size="10.00" fill="#000000">msg_contact_info()</text>
<text text-anchor="start" x="70.4325" y="-429" font-family="Helvetica,sans-Serif" font-size="10.00" fill="#000000">msg_ota_update()</text>
<text text-anchor="start" x="76.2765" y="-417" font-family="Helvetica,sans-Serif" font-size="10.00" fill="#000000">msg_get_time()</text>
<text text-anchor="start" x="64.3285" y="-405" font-family="Helvetica,sans-Serif" font-size="10.00" fill="#000000">msg_collector_data()</text>
<text text-anchor="start" x="66.2735" y="-393" font-family="Helvetica,sans-Serif" font-size="10.00" fill="#000000">msg_inverter_data()</text>
<text text-anchor="start" x="75.4405" y="-381" font-family="Helvetica,sans-Serif" font-size="10.00" fill="#000000">msg_unknown()</text>
<text text-anchor="start" x="96.0025" y="-357" font-family="Helvetica,sans-Serif" font-size="10.00" fill="#000000">close()</text>
</g>
<!-- A2&#45;&gt;A3 -->
<g id="edge2" class="edge">
<title>A2&#45;&gt;A3</title>
<path fill="none" stroke="#000000" d="M173.5529,-612.2971C168.1051,-598.8592 162.6292,-585.352 157.3053,-572.2197"/>
<polygon fill="none" stroke="#000000" points="170.317,-613.6312 177.3177,-621.5837 176.8042,-611.0013 170.317,-613.6312"/>
</g>
<!-- A4 -->
<g id="node5" class="node">
<title>A4</title>
<polygon fill="none" stroke="#000000" points="331,-504 331,-536 422,-536 422,-504 331,-504"/>
<text text-anchor="start" x="348.995" y="-517" font-family="Helvetica,sans-Serif" font-size="10.00" fill="#000000">SolarmanV5</text>
<polygon fill="none" stroke="#000000" points="331,-436 331,-504 422,-504 422,-436 331,-436"/>
<text text-anchor="start" x="361.498" y="-485" font-family="Helvetica,sans-Serif" font-size="10.00" fill="#000000">control</text>
<text text-anchor="start" x="364.5575" y="-473" font-family="Helvetica,sans-Serif" font-size="10.00" fill="#000000">serial</text>
<text text-anchor="start" x="369.556" y="-461" font-family="Helvetica,sans-Serif" font-size="10.00" fill="#000000">snr</text>
<text text-anchor="start" x="362.612" y="-449" font-family="Helvetica,sans-Serif" font-size="10.00" fill="#000000">switch</text>
<polygon fill="none" stroke="#000000" points="331,-380 331,-436 422,-436 422,-380 331,-380"/>
<text text-anchor="start" x="340.9405" y="-417" font-family="Helvetica,sans-Serif" font-size="10.00" fill="#000000">msg_unknown()</text>
<text text-anchor="start" x="361.5025" y="-393" font-family="Helvetica,sans-Serif" font-size="10.00" fill="#000000">close()</text>
</g>
<!-- A2&#45;&gt;A4 -->
<g id="edge3" class="edge">
<title>A2&#45;&gt;A4</title>
<path fill="none" stroke="#000000" d="M300.41,-612.3079C313.279,-586.0373 326.2781,-559.5012 337.7815,-536.0185"/>
<polygon fill="none" stroke="#000000" points="297.1222,-611.0635 295.8661,-621.5837 303.4085,-614.143 297.1222,-611.0635"/>
</g>
<!-- A5 -->
<g id="node6" class="node">
<title>A5</title>
<polygon fill="none" stroke="#000000" points="0,-248 0,-280 158,-280 158,-248 0,-248"/>
<text text-anchor="start" x="42.605" y="-261" font-family="Helvetica,sans-Serif" font-size="10.00" fill="#000000">AsyncStreamG3</text>
<polygon fill="none" stroke="#000000" points="0,-216 0,-248 158,-248 158,-216 0,-216"/>
<text text-anchor="start" x="9.5465" y="-229" font-family="Helvetica,sans-Serif" font-size="10.00" fill="#000000">remoteStream:AsyncStreamG3</text>
<polygon fill="none" stroke="#000000" points="0,-184 0,-216 158,-216 158,-184 0,-184"/>
<text text-anchor="start" x="64.0025" y="-197" font-family="Helvetica,sans-Serif" font-size="10.00" fill="#000000">close()</text>
</g>
<!-- A3&#45;&gt;A5 -->
<g id="edge4" class="edge">
<title>A3&#45;&gt;A5</title>
<path fill="none" stroke="#000000" d="M93.3996,-333.6974C90.7054,-314.6691 88.0722,-296.0725 85.8099,-280.0952"/>
<polygon fill="none" stroke="#000000" points="89.945,-334.2653 94.8125,-343.6758 96.8759,-333.2839 89.945,-334.2653"/>
</g>
<!-- A6 -->
<g id="node7" class="node">
<title>A6</title>
<polygon fill="none" stroke="#000000" points="303,-248 303,-280 468,-280 468,-248 303,-248"/>
<text text-anchor="start" x="345.7705" y="-261" font-family="Helvetica,sans-Serif" font-size="10.00" fill="#000000">AsyncStreamG3P</text>
<polygon fill="none" stroke="#000000" points="303,-216 303,-248 468,-248 468,-216 303,-216"/>
<text text-anchor="start" x="312.712" y="-229" font-family="Helvetica,sans-Serif" font-size="10.00" fill="#000000">remoteStream:AsyncStreamG3P</text>
<polygon fill="none" stroke="#000000" points="303,-184 303,-216 468,-216 468,-184 303,-184"/>
<text text-anchor="start" x="370.5025" y="-197" font-family="Helvetica,sans-Serif" font-size="10.00" fill="#000000">close()</text>
</g>
<!-- A4&#45;&gt;A6 -->
<g id="edge5" class="edge">
<title>A4&#45;&gt;A6</title>
<path fill="none" stroke="#000000" d="M379.5173,-369.6759C380.7317,-339.1814 382.0465,-306.1664 383.084,-280.1125"/>
<polygon fill="none" stroke="#000000" points="376.0107,-369.7758 379.1099,-379.9072 383.0051,-370.0544 376.0107,-369.7758"/>
</g>
<!-- A9 -->
<g id="node10" class="node">
<title>A9</title>
<polygon fill="none" stroke="#000000" points="101,-88 101,-120 217,-120 217,-88 101,-88"/>
<text text-anchor="start" x="135.3845" y="-101" font-family="Helvetica,sans-Serif" font-size="10.00" fill="#000000">InverterG3</text>
<polygon fill="none" stroke="#000000" points="101,-68 101,-88 217,-88 217,-68 101,-68"/>
<polygon fill="none" stroke="#000000" points="101,0 101,-68 217,-68 217,0 101,0"/>
<text text-anchor="start" x="110.6575" y="-49" font-family="Helvetica,sans-Serif" font-size="10.00" fill="#000000">&lt;async&gt;server_loop()</text>
<text text-anchor="start" x="112.878" y="-37" font-family="Helvetica,sans-Serif" font-size="10.00" fill="#000000">&lt;async&gt;client_loop()</text>
<text text-anchor="start" x="144.0025" y="-13" font-family="Helvetica,sans-Serif" font-size="10.00" fill="#000000">close()</text>
</g>
<!-- A5&#45;&gt;A9 -->
<g id="edge10" class="edge">
<title>A5&#45;&gt;A9</title>
<path fill="none" stroke="#000000" d="M105.8885,-174.1898C113.9581,-156.84 122.8284,-137.769 130.9698,-120.2648"/>
<polygon fill="none" stroke="#000000" points="102.5412,-173.0874 101.4974,-183.6307 108.8882,-176.0395 102.5412,-173.0874"/>
</g>
<!-- A10 -->
<g id="node11" class="node">
<title>A10</title>
<polygon fill="none" stroke="#000000" points="243,-82 243,-114 359,-114 359,-82 243,-82"/>
<text text-anchor="start" x="274.05" y="-95" font-family="Helvetica,sans-Serif" font-size="10.00" fill="#000000">InverterG3P</text>
<polygon fill="none" stroke="#000000" points="243,-62 243,-82 359,-82 359,-62 243,-62"/>
<polygon fill="none" stroke="#000000" points="243,-6 243,-62 359,-62 359,-6 243,-6"/>
<text text-anchor="start" x="252.6575" y="-43" font-family="Helvetica,sans-Serif" font-size="10.00" fill="#000000">&lt;async&gt;server_loop()</text>
<text text-anchor="start" x="286.0025" y="-19" font-family="Helvetica,sans-Serif" font-size="10.00" fill="#000000">close()</text>
</g>
<!-- A6&#45;&gt;A10 -->
<g id="edge11" class="edge">
<title>A6&#45;&gt;A10</title>
<path fill="none" stroke="#000000" d="M356.9394,-174.5425C347.4073,-155.0244 336.7948,-133.294 327.3971,-114.0513"/>
<polygon fill="none" stroke="#000000" points="353.8444,-176.1809 361.3778,-183.6307 360.1344,-173.1091 353.8444,-176.1809"/>
</g>
<!-- A7 -->
<g id="node8" class="node">
<title>A7</title>
<polygon fill="none" stroke="#000000" points="202,-534 202,-566 304,-566 304,-534 202,-534"/>
<text text-anchor="start" x="223.274" y="-547" font-family="Helvetica,sans-Serif" font-size="10.00" fill="#000000">AsyncStream</text>
<polygon fill="none" stroke="#000000" points="202,-454 202,-534 304,-534 304,-454 202,-454"/>
<text text-anchor="start" x="238.553" y="-515" font-family="Helvetica,sans-Serif" font-size="10.00" fill="#000000">reader</text>
<text text-anchor="start" x="240.783" y="-503" font-family="Helvetica,sans-Serif" font-size="10.00" fill="#000000">writer</text>
<text text-anchor="start" x="242.997" y="-491" font-family="Helvetica,sans-Serif" font-size="10.00" fill="#000000">addr</text>
<text text-anchor="start" x="238.553" y="-479" font-family="Helvetica,sans-Serif" font-size="10.00" fill="#000000">r_addr</text>
<text text-anchor="start" x="239.108" y="-467" font-family="Helvetica,sans-Serif" font-size="10.00" fill="#000000">l_addr</text>
<polygon fill="none" stroke="#000000" points="202,-350 202,-454 304,-454 304,-350 202,-350"/>
<text text-anchor="start" x="224.654" y="-435" font-family="Helvetica,sans-Serif" font-size="10.00" fill="#000000">&lt;async&gt;loop</text>
<text text-anchor="start" x="240.782" y="-423" font-family="Helvetica,sans-Serif" font-size="10.00" fill="#000000">disc()</text>
<text text-anchor="start" x="238.0025" y="-411" font-family="Helvetica,sans-Serif" font-size="10.00" fill="#000000">close()</text>
<text text-anchor="start" x="218.2705" y="-387" font-family="Helvetica,sans-Serif" font-size="10.00" fill="#000000">__async_read()</text>
<text text-anchor="start" x="217.721" y="-375" font-family="Helvetica,sans-Serif" font-size="10.00" fill="#000000">__async_write()</text>
<text text-anchor="start" x="211.607" y="-363" font-family="Helvetica,sans-Serif" font-size="10.00" fill="#000000">__async_forward()</text>
</g>
<!-- A7&#45;&gt;A5 -->
<g id="edge6" class="edge">
<title>A7&#45;&gt;A5</title>
<path fill="none" stroke="#000000" d="M196.227,-370.2895C189.9014,-361.2944 183.4211,-352.3869 177,-344 160.4297,-322.3567 140.8732,-299.5308 123.606,-280.1727"/>
<polygon fill="none" stroke="#000000" points="193.4005,-372.3553 201.9867,-378.5624 199.1454,-368.3557 193.4005,-372.3553"/>
</g>
<!-- A7&#45;&gt;A6 -->
<g id="edge7" class="edge">
<title>A7&#45;&gt;A6</title>
<path fill="none" stroke="#000000" d="M309.1108,-361.9315C325.5691,-333.7528 342.867,-304.1369 356.7845,-280.3083"/>
<polygon fill="none" stroke="#000000" points="306.0559,-360.2222 304.0346,-370.6225 312.1004,-363.7527 306.0559,-360.2222"/>
</g>
<!-- A8 -->
<g id="node9" class="node">
<title>A8</title>
<polygon fill="none" stroke="#000000" points="176,-262 176,-294 284,-294 284,-262 176,-262"/>
<text text-anchor="start" x="213.0535" y="-275" font-family="Helvetica,sans-Serif" font-size="10.00" fill="#000000">Inverter</text>
<polygon fill="none" stroke="#000000" points="176,-170 176,-262 284,-262 284,-170 176,-170"/>
<text text-anchor="start" x="206.104" y="-243" font-family="Helvetica,sans-Serif" font-size="10.00" fill="#000000">cls.db_stat</text>
<text text-anchor="start" x="199.4405" y="-231" font-family="Helvetica,sans-Serif" font-size="10.00" fill="#000000">cls.entity_prfx</text>
<text text-anchor="start" x="190.2755" y="-219" font-family="Helvetica,sans-Serif" font-size="10.00" fill="#000000">cls.discovery_prfx</text>
<text text-anchor="start" x="189.7115" y="-207" font-family="Helvetica,sans-Serif" font-size="10.00" fill="#000000">cls.proxy_node_id</text>
<text text-anchor="start" x="185.8225" y="-195" font-family="Helvetica,sans-Serif" font-size="10.00" fill="#000000">cls.proxy_unique_id</text>
<text text-anchor="start" x="212.778" y="-183" font-family="Helvetica,sans-Serif" font-size="10.00" fill="#000000">cls.mqtt</text>
</g>
<!-- A8&#45;&gt;A9 -->
<g id="edge8" class="edge">
<title>A8&#45;&gt;A9</title>
<path fill="none" stroke="#000000" d="M200.4073,-160.3107C194.911,-146.9956 189.2202,-133.2096 183.8822,-120.2781"/>
<polygon fill="none" stroke="#000000" points="197.3165,-161.9961 204.3674,-169.9041 203.7869,-159.3251 197.3165,-161.9961"/>
</g>
<!-- A8&#45;&gt;A10 -->
<g id="edge9" class="edge">
<title>A8&#45;&gt;A10</title>
<path fill="none" stroke="#000000" d="M259.5736,-160.3569C265.9703,-144.8608 272.6311,-128.7247 278.6935,-114.0384"/>
<polygon fill="none" stroke="#000000" points="256.2131,-159.3251 255.6326,-169.9041 262.6835,-161.9961 256.2131,-159.3251"/>
</g>
</g>
</svg>
