<?xml version="1.0" encoding="UTF-8" standalone="no"?>
<!DOCTYPE svg PUBLIC "-//W3C//DTD SVG 1.1//EN"
 "http://www.w3.org/Graphics/SVG/1.1/DTD/svg11.dtd">
<!-- Generated by graphviz version 2.40.1 (20161225.0304)
 -->
<!-- Title: G Pages: 1 -->
<svg width="352pt" height="1004pt"
 viewBox="0.00 0.00 352.08 1004.00" xmlns="http://www.w3.org/2000/svg" xmlns:xlink="http://www.w3.org/1999/xlink">
<g id="graph0" class="graph" transform="scale(1 1) rotate(0) translate(4 1000)">
<title>G</title>
<polygon fill="#ffffff" stroke="transparent" points="-4,4 -4,-1000 348.0775,-1000 348.0775,4 -4,4"/>
<!-- A0 -->
<g id="node1" class="node">
<title>A0</title>
<polygon fill="#fff8dc" stroke="#000000" points="108.5444,-972 .1516,-972 .1516,-936 114.5444,-936 114.5444,-966 108.5444,-972"/>
<polyline fill="none" stroke="#000000" points="108.5444,-972 108.5444,-966 "/>
<polyline fill="none" stroke="#000000" points="114.5444,-966 108.5444,-966 "/>
<text text-anchor="middle" x="57.348" y="-957" font-family="Helvetica,sans-Serif" font-size="10.00" fill="#000000">You can stick notes</text>
<text text-anchor="middle" x="57.348" y="-945" font-family="Helvetica,sans-Serif" font-size="10.00" fill="#000000">on diagrams too!</text>
</g>
<!-- A1 -->
<g id="node2" class="node">
<title>A1</title>
<polygon fill="none" stroke="#000000" points="133.348,-964 133.348,-996 204.348,-996 204.348,-964 133.348,-964"/>
<text text-anchor="start" x="143.293" y="-977" font-family="Helvetica,sans-Serif" font-size="10.00" fill="#000000">IterRegistry</text>
<polygon fill="none" stroke="#000000" points="133.348,-944 133.348,-964 204.348,-964 204.348,-944 133.348,-944"/>
<polygon fill="none" stroke="#000000" points="133.348,-912 133.348,-944 204.348,-944 204.348,-912 133.348,-912"/>
<text text-anchor="start" x="150.787" y="-925" font-family="Helvetica,sans-Serif" font-size="10.00" fill="#000000">__iter__</text>
</g>
<!-- A2 -->
<g id="node3" class="node">
<title>A2</title>
<polygon fill="none" stroke="#000000" points="101.348,-830 101.348,-862 235.348,-862 235.348,-830 101.348,-830"/>
<text text-anchor="start" x="148.0655" y="-843" font-family="Helvetica,sans-Serif" font-size="10.00" fill="#000000">Message</text>
<polygon fill="none" stroke="#000000" points="101.348,-666 101.348,-830 235.348,-830 235.348,-666 101.348,-666"/>
<text text-anchor="start" x="131.6745" y="-811" font-family="Helvetica,sans-Serif" font-size="10.00" fill="#000000">server_side:bool</text>
<text text-anchor="start" x="128.891" y="-799" font-family="Helvetica,sans-Serif" font-size="10.00" fill="#000000">header_valid:bool</text>
<text text-anchor="start" x="121.662" y="-787" font-family="Helvetica,sans-Serif" font-size="10.00" fill="#000000">header_len:unsigned</text>
<text text-anchor="start" x="127.496" y="-775" font-family="Helvetica,sans-Serif" font-size="10.00" fill="#000000">data_len:unsigned</text>
<text text-anchor="start" x="146.6725" y="-763" font-family="Helvetica,sans-Serif" font-size="10.00" fill="#000000">unique_id</text>
<text text-anchor="start" x="150.5615" y="-751" font-family="Helvetica,sans-Serif" font-size="10.00" fill="#000000">node_id</text>
<text text-anchor="start" x="147.5065" y="-739" font-family="Helvetica,sans-Serif" font-size="10.00" fill="#000000">sug_area</text>
<text text-anchor="start" x="118.337" y="-727" font-family="Helvetica,sans-Serif" font-size="10.00" fill="#000000">_recv_buffer:bytearray</text>
<text text-anchor="start" x="116.9425" y="-715" font-family="Helvetica,sans-Serif" font-size="10.00" fill="#000000">_send_buffer:bytearray</text>
<text text-anchor="start" x="111.1145" y="-703" font-family="Helvetica,sans-Serif" font-size="10.00" fill="#000000">_forward_buffer:bytearray</text>
<text text-anchor="start" x="150.5615" y="-691" font-family="Helvetica,sans-Serif" font-size="10.00" fill="#000000">db:Infos</text>
<text text-anchor="start" x="139.174" y="-679" font-family="Helvetica,sans-Serif" font-size="10.00" fill="#000000">new_data:list</text>
<polygon fill="none" stroke="#000000" points="101.348,-598 101.348,-666 235.348,-666 235.348,-598 101.348,-598"/>
<text text-anchor="start" x="118.0575" y="-647" font-family="Helvetica,sans-Serif" font-size="10.00" fill="#000000">_read():void&lt;abstract&gt;</text>
<text text-anchor="start" x="142.7925" y="-635" font-family="Helvetica,sans-Serif" font-size="10.00" fill="#000000">close():void</text>
<text text-anchor="start" x="128.6205" y="-623" font-family="Helvetica,sans-Serif" font-size="10.00" fill="#000000">inc_counter():void</text>
<text text-anchor="start" x="126.9505" y="-611" font-family="Helvetica,sans-Serif" font-size="10.00" fill="#000000">dec_counter():void</text>
</g>
<!-- A1&#45;&gt;A2 -->
<g id="edge1" class="edge">
<title>A1&#45;&gt;A2</title>
<path fill="none" stroke="#000000" d="M168.348,-901.5789C168.348,-889.4616 168.348,-876.0319 168.348,-862.1761"/>
<polygon fill="none" stroke="#000000" points="164.8481,-901.8673 168.348,-911.8673 171.8481,-901.8673 164.8481,-901.8673"/>
</g>
<!-- A3 -->
<g id="node4" class="node">
<title>A3</title>
<polygon fill="none" stroke="#000000" points="2.348,-516 2.348,-548 116.348,-548 116.348,-516 2.348,-516"/>
<text text-anchor="start" x="32.3965" y="-529" font-family="Helvetica,sans-Serif" font-size="10.00" fill="#000000">MessageG3</text>
<polygon fill="none" stroke="#000000" points="2.348,-436 2.348,-516 116.348,-516 116.348,-436 2.348,-436"/>
<text text-anchor="start" x="12.111" y="-497" font-family="Helvetica,sans-Serif" font-size="10.00" fill="#000000">await_conn_resp_cnt</text>
<text text-anchor="start" x="47.1255" y="-485" font-family="Helvetica,sans-Serif" font-size="10.00" fill="#000000">id_str</text>
<text text-anchor="start" x="27.948" y="-473" font-family="Helvetica,sans-Serif" font-size="10.00" fill="#000000">contact_name</text>
<text text-anchor="start" x="31.288" y="-461" font-family="Helvetica,sans-Serif" font-size="10.00" fill="#000000">contact_mail</text>
<text text-anchor="start" x="45.46" y="-449" font-family="Helvetica,sans-Serif" font-size="10.00" fill="#000000">switch</text>
<polygon fill="none" stroke="#000000" points="2.348,-344 2.348,-436 116.348,-436 116.348,-344 2.348,-344"/>
<text text-anchor="start" x="16.8405" y="-417" font-family="Helvetica,sans-Serif" font-size="10.00" fill="#000000">msg_contact_info()</text>
<text text-anchor="start" x="18.7805" y="-405" font-family="Helvetica,sans-Serif" font-size="10.00" fill="#000000">msg_ota_update()</text>
<text text-anchor="start" x="24.6245" y="-393" font-family="Helvetica,sans-Serif" font-size="10.00" fill="#000000">msg_get_time()</text>
<text text-anchor="start" x="12.6765" y="-381" font-family="Helvetica,sans-Serif" font-size="10.00" fill="#000000">msg_collector_data()</text>
<text text-anchor="start" x="14.6215" y="-369" font-family="Helvetica,sans-Serif" font-size="10.00" fill="#000000">msg_inverter_data()</text>
<text text-anchor="start" x="23.7885" y="-357" font-family="Helvetica,sans-Serif" font-size="10.00" fill="#000000">msg_unknown()</text>
</g>
<!-- A2&#45;&gt;A3 -->
<g id="edge2" class="edge">
<title>A2&#45;&gt;A3</title>
<path fill="none" stroke="#000000" d="M114.0758,-588.5936C108.8697,-575.0291 103.6609,-561.4575 98.6393,-548.3737"/>
<polygon fill="none" stroke="#000000" points="110.8264,-589.8952 117.6772,-597.9771 117.3616,-587.3869 110.8264,-589.8952"/>
</g>
<!-- A4 -->
<g id="node5" class="node">
<title>A4</title>
<polygon fill="none" stroke="#000000" points="241.348,-480 241.348,-512 332.348,-512 332.348,-480 241.348,-480"/>
<text text-anchor="start" x="259.343" y="-493" font-family="Helvetica,sans-Serif" font-size="10.00" fill="#000000">SolarmanV5</text>
<polygon fill="none" stroke="#000000" points="241.348,-412 241.348,-480 332.348,-480 332.348,-412 241.348,-412"/>
<text text-anchor="start" x="271.846" y="-461" font-family="Helvetica,sans-Serif" font-size="10.00" fill="#000000">control</text>
<text text-anchor="start" x="274.9055" y="-449" font-family="Helvetica,sans-Serif" font-size="10.00" fill="#000000">serial</text>
<text text-anchor="start" x="279.904" y="-437" font-family="Helvetica,sans-Serif" font-size="10.00" fill="#000000">snr</text>
<text text-anchor="start" x="272.96" y="-425" font-family="Helvetica,sans-Serif" font-size="10.00" fill="#000000">switch</text>
<polygon fill="none" stroke="#000000" points="241.348,-380 241.348,-412 332.348,-412 332.348,-380 241.348,-380"/>
<text text-anchor="start" x="251.2885" y="-393" font-family="Helvetica,sans-Serif" font-size="10.00" fill="#000000">msg_unknown()</text>
</g>
<!-- A2&#45;&gt;A4 -->
<g id="edge3" class="edge">
<title>A2&#45;&gt;A4</title>
<path fill="none" stroke="#000000" d="M227.112,-588.568C238.173,-561.9467 249.245,-535.2988 258.773,-512.3669"/>
<polygon fill="none" stroke="#000000" points="223.8075,-587.3995 223.2026,-597.9771 230.2717,-590.0854 223.8075,-587.3995"/>
</g>
<!-- A5 -->
<g id="node6" class="node">
<title>A5</title>
<polygon fill="none" stroke="#000000" points=".348,-232 .348,-264 92.348,-264 92.348,-232 .348,-232"/>
<text text-anchor="start" x="9.953" y="-245" font-family="Helvetica,sans-Serif" font-size="10.00" fill="#000000">AsyncStreamG3</text>
<polygon fill="none" stroke="#000000" points=".348,-200 .348,-232 92.348,-232 92.348,-200 .348,-200"/>
<text text-anchor="start" x="14.679" y="-213" font-family="Helvetica,sans-Serif" font-size="10.00" fill="#000000">remoteStream</text>
</g>
<!-- A3&#45;&gt;A5 -->
<g id="edge4" class="edge">
<title>A3&#45;&gt;A5</title>
<path fill="none" stroke="#000000" d="M52.5182,-333.5707C50.9741,-308.1533 49.455,-283.1456 48.3104,-264.3041"/>
<polygon fill="none" stroke="#000000" points="49.0336,-333.9315 53.1336,-343.7008 56.0207,-333.5069 49.0336,-333.9315"/>
</g>
<!-- A6 -->
<g id="node7" class="node">
<title>A6</title>
<polygon fill="none" stroke="#000000" points="344.308,-250 236.388,-250 236.388,-214 344.308,-214 344.308,-250"/>
<text text-anchor="middle" x="290.348" y="-229" font-family="Helvetica,sans-Serif" font-size="10.00" fill="#000000">AsyncStreamG3P</text>
</g>
<!-- A4&#45;&gt;A6 -->
<g id="edge5" class="edge">
<title>A4&#45;&gt;A6</title>
<path fill="none" stroke="#000000" d="M287.7764,-369.5809C288.5791,-326.6382 289.5158,-276.5214 290.0072,-250.2318"/>
<polygon fill="none" stroke="#000000" points="284.2738,-369.6909 287.5862,-379.7546 291.2726,-369.8218 284.2738,-369.6909"/>
</g>
<!-- A9 -->
<g id="node10" class="node">
<title>A9</title>
<polygon fill="none" stroke="#000000" points="68.348,-88 68.348,-120 146.348,-120 146.348,-88 68.348,-88"/>
<text text-anchor="start" x="83.7325" y="-101" font-family="Helvetica,sans-Serif" font-size="10.00" fill="#000000">InverterG3</text>
<polygon fill="none" stroke="#000000" points="68.348,-68 68.348,-88 146.348,-88 146.348,-68 68.348,-68"/>
<polygon fill="none" stroke="#000000" points="68.348,0 68.348,-68 146.348,-68 146.348,0 68.348,0"/>
<text text-anchor="start" x="94.289" y="-49" font-family="Helvetica,sans-Serif" font-size="10.00" fill="#000000">async</text>
<text text-anchor="start" x="77.9035" y="-37" font-family="Helvetica,sans-Serif" font-size="10.00" fill="#000000">server_loop()</text>
<text text-anchor="start" x="94.289" y="-25" font-family="Helvetica,sans-Serif" font-size="10.00" fill="#000000">async</text>
<text text-anchor="start" x="80.124" y="-13" font-family="Helvetica,sans-Serif" font-size="10.00" fill="#000000">client_loop()</text>
</g>
<!-- A5&#45;&gt;A9 -->
<g id="edge10" class="edge">
<title>A5&#45;&gt;A9</title>
<path fill="none" stroke="#000000" d="M61.2272,-190.0455C68.6882,-169.008 77.8573,-143.1542 86.0493,-120.0554"/>
<polygon fill="none" stroke="#000000" points="57.8655,-189.0534 57.8216,-199.6481 64.4629,-191.3932 57.8655,-189.0534"/>
</g>
<!-- A10 -->
<g id="node11" class="node">
<title>A10</title>
<polygon fill="none" stroke="#000000" points="168.348,-70 168.348,-102 275.348,-102 275.348,-70 168.348,-70"/>
<text text-anchor="start" x="194.898" y="-83" font-family="Helvetica,sans-Serif" font-size="10.00" fill="#000000">InverterG3P</text>
<polygon fill="none" stroke="#000000" points="168.348,-50 168.348,-70 275.348,-70 275.348,-50 168.348,-50"/>
<polygon fill="none" stroke="#000000" points="168.348,-18 168.348,-50 275.348,-50 275.348,-18 168.348,-18"/>
<text text-anchor="start" x="177.955" y="-31" font-family="Helvetica,sans-Serif" font-size="10.00" fill="#000000">async server_loop()</text>
</g>
<!-- A6&#45;&gt;A10 -->
<g id="edge11" class="edge">
<title>A6&#45;&gt;A10</title>
<path fill="none" stroke="#000000" d="M279.3158,-204.4994C268.256,-176.93 251.0791,-134.1122 238.2905,-102.2334"/>
<polygon fill="none" stroke="#000000" points="276.1226,-205.9402 283.0942,-213.9181 282.6193,-203.3339 276.1226,-205.9402"/>
</g>
<!-- A7 -->
<g id="node8" class="node">
<title>A7</title>
<polygon fill="none" stroke="#000000" points="141.348,-470 141.348,-502 220.348,-502 220.348,-470 141.348,-470"/>
<text text-anchor="start" x="151.122" y="-483" font-family="Helvetica,sans-Serif" font-size="10.00" fill="#000000">AsyncStream</text>
<polygon fill="none" stroke="#000000" points="141.348,-390 141.348,-470 220.348,-470 220.348,-390 141.348,-390"/>
<text text-anchor="start" x="166.401" y="-451" font-family="Helvetica,sans-Serif" font-size="10.00" fill="#000000">reader</text>
<text text-anchor="start" x="168.631" y="-439" font-family="Helvetica,sans-Serif" font-size="10.00" fill="#000000">writer</text>
<text text-anchor="start" x="170.845" y="-427" font-family="Helvetica,sans-Serif" font-size="10.00" fill="#000000">addr</text>
<text text-anchor="start" x="166.401" y="-415" font-family="Helvetica,sans-Serif" font-size="10.00" fill="#000000">r_addr</text>
<text text-anchor="start" x="166.956" y="-403" font-family="Helvetica,sans-Serif" font-size="10.00" fill="#000000">l_addr</text>
</g>
<!-- A7&#45;&gt;A5 -->
<g id="edge6" class="edge">
<title>A7&#45;&gt;A5</title>
<path fill="none" stroke="#000000" d="M146.82,-381.0203C139.9778,-368.5785 132.635,-355.7684 125.348,-344 108.1863,-316.2842 86.768,-286.157 70.564,-264.137"/>
<polygon fill="none" stroke="#000000" points="143.8502,-382.8854 151.7057,-389.9947 149.9982,-379.5384 143.8502,-382.8854"/>
</g>
<!-- A7&#45;&gt;A6 -->
<g id="edge7" class="edge">
<title>A7&#45;&gt;A6</title>
<path fill="none" stroke="#000000" d="M213.592,-380.6379C219.8113,-368.4534 226.2673,-355.8342 232.348,-344 249.3607,-310.8901 269.3552,-272.3646 280.869,-250.2169"/>
<polygon fill="none" stroke="#000000" points="210.3188,-379.3522 208.8924,-389.8505 216.5544,-382.5331 210.3188,-379.3522"/>
</g>
<!-- A8 -->
<g id="node9" class="node">
<title>A8</title>
<polygon fill="none" stroke="#000000" points="110.348,-262 110.348,-294 218.348,-294 218.348,-262 110.348,-262"/>
<text text-anchor="start" x="147.4015" y="-275" font-family="Helvetica,sans-Serif" font-size="10.00" fill="#000000">Inverter</text>
<polygon fill="none" stroke="#000000" points="110.348,-170 110.348,-262 218.348,-262 218.348,-170 110.348,-170"/>
<text text-anchor="start" x="140.452" y="-243" font-family="Helvetica,sans-Serif" font-size="10.00" fill="#000000">cls.db_stat</text>
<text text-anchor="start" x="133.7885" y="-231" font-family="Helvetica,sans-Serif" font-size="10.00" fill="#000000">cls.entity_prfx</text>
<text text-anchor="start" x="124.6235" y="-219" font-family="Helvetica,sans-Serif" font-size="10.00" fill="#000000">cls.discovery_prfx</text>
<text text-anchor="start" x="124.0595" y="-207" font-family="Helvetica,sans-Serif" font-size="10.00" fill="#000000">cls.proxy_node_id</text>
<text text-anchor="start" x="120.1705" y="-195" font-family="Helvetica,sans-Serif" font-size="10.00" fill="#000000">cls.proxy_unique_id</text>
<text text-anchor="start" x="147.126" y="-183" font-family="Helvetica,sans-Serif" font-size="10.00" fill="#000000">cls.mqtt</text>
</g>
<!-- A8&#45;&gt;A9 -->
<g id="edge8" class="edge">
<title>A8&#45;&gt;A9</title>
<path fill="none" stroke="#000000" d="M140.5905,-160.3107C136.1779,-146.9956 131.6093,-133.2096 127.3239,-120.2781"/>
<polygon fill="none" stroke="#000000" points="137.3016,-161.5127 143.7697,-169.9041 143.9462,-159.3107 137.3016,-161.5127"/>
</g>
<!-- A8&#45;&gt;A10 -->
<g id="edge9" class="edge">
<title>A8&#45;&gt;A10</title>
<path fill="none" stroke="#000000" d="M188.1147,-160.283C194.6788,-140.4756 201.5875,-119.6281 207.3951,-102.1035"/>
<polygon fill="none" stroke="#000000" points="184.7498,-159.3107 184.9263,-169.9041 191.3944,-161.5127 184.7498,-159.3107"/>
</g>
</g>
</svg>
