<?xml version="1.0" encoding="UTF-8" standalone="no"?>
<!DOCTYPE svg PUBLIC "-//W3C//DTD SVG 1.1//EN"
 "http://www.w3.org/Graphics/SVG/1.1/DTD/svg11.dtd">
<!-- Generated by graphviz version 2.40.1 (20161225.0304)
 -->
<!-- Title: G Pages: 1 -->
<svg width="626pt" height="966pt"
 viewBox="0.00 0.00 625.50 966.00" xmlns="http://www.w3.org/2000/svg" xmlns:xlink="http://www.w3.org/1999/xlink">
<g id="graph0" class="graph" transform="scale(1 1) rotate(0) translate(4 962)">
<title>G</title>
<polygon fill="#ffffff" stroke="transparent" points="-4,4 -4,-962 621.5,-962 621.5,4 -4,4"/>
<!-- A0 -->
<g id="node1" class="node">
<title>A0</title>
<polygon fill="#fff8dc" stroke="#000000" points="191.6964,-934 83.3036,-934 83.3036,-898 197.6964,-898 197.6964,-928 191.6964,-934"/>
<polyline fill="none" stroke="#000000" points="191.6964,-934 191.6964,-928 "/>
<polyline fill="none" stroke="#000000" points="197.6964,-928 191.6964,-928 "/>
<text text-anchor="middle" x="140.5" y="-919" font-family="Helvetica,sans-Serif" font-size="10.00" fill="#000000">You can stick notes</text>
<text text-anchor="middle" x="140.5" y="-907" font-family="Helvetica,sans-Serif" font-size="10.00" fill="#000000">on diagrams too!</text>
</g>
<!-- A1 -->
<g id="node2" class="node">
<title>A1</title>
<polygon fill="none" stroke="#000000" points="215.5,-926 215.5,-958 331.5,-958 331.5,-926 215.5,-926"/>
<text text-anchor="start" x="225.149" y="-939" font-family="Helvetica,sans-Serif" font-size="10.00" fill="#000000">&lt;&lt;AbstractIterMeta&gt;&gt;</text>
<polygon fill="none" stroke="#000000" points="215.5,-906 215.5,-926 331.5,-926 331.5,-906 215.5,-906"/>
<polygon fill="none" stroke="#000000" points="215.5,-874 215.5,-906 331.5,-906 331.5,-874 215.5,-874"/>
<text text-anchor="start" x="252.11" y="-887" font-family="Helvetica,sans-Serif" font-size="10.00" fill="#000000">__iter__()</text>
</g>
<!-- A4 -->
<g id="node5" class="node">
<title>A4</title>
<polygon fill="none" stroke="#000000" points="178.5,-726 178.5,-758 369.5,-758 369.5,-726 178.5,-726"/>
<text text-anchor="start" x="240.0965" y="-739" font-family="Helvetica,sans-Serif" font-size="10.00" fill="#000000">&lt;&lt;InverterIfc&gt;&gt;</text>
<polygon fill="none" stroke="#000000" points="178.5,-706 178.5,-726 369.5,-726 369.5,-706 178.5,-706"/>
<polygon fill="none" stroke="#000000" points="178.5,-650 178.5,-706 369.5,-706 369.5,-650 178.5,-650"/>
<text text-anchor="start" x="240.522" y="-687" font-family="Helvetica,sans-Serif" font-size="10.00" fill="#000000">healthy()&#45;&gt;bool</text>
<text text-anchor="start" x="188.2835" y="-675" font-family="Helvetica,sans-Serif" font-size="10.00" fill="#000000">&lt;async&gt;disc(shutdown_started=False)</text>
<text text-anchor="start" x="219.544" y="-663" font-family="Helvetica,sans-Serif" font-size="10.00" fill="#000000">&lt;async&gt;create_remote()</text>
</g>
<!-- A1&#45;&gt;A4 -->
<g id="edge1" class="edge">
<title>A1&#45;&gt;A4</title>
<path fill="none" stroke="#000000" stroke-dasharray="5,2" d="M273.5,-863.7744C273.5,-831.6663 273.5,-790.6041 273.5,-758.1476"/>
<polygon fill="none" stroke="#000000" points="270.0001,-863.8621 273.5,-873.8622 277.0001,-863.8622 270.0001,-863.8621"/>
</g>
<!-- A2 -->
<g id="node3" class="node">
<title>A2</title>
<polygon fill="none" stroke="#000000" points="441.5,-454 441.5,-498 563.5,-498 563.5,-454 441.5,-454"/>
<text text-anchor="start" x="492.777" y="-479" font-family="Helvetica,sans-Serif" font-size="10.00" fill="#000000">Mqtt</text>
<text text-anchor="start" x="469.9815" y="-467" font-family="Helvetica,sans-Serif" font-size="10.00" fill="#000000">&lt;&lt;Singleton&gt;&gt;</text>
<polygon fill="none" stroke="#000000" points="441.5,-398 441.5,-454 563.5,-454 563.5,-398 441.5,-398"/>
<text text-anchor="start" x="459.9875" y="-435" font-family="Helvetica,sans-Serif" font-size="10.00" fill="#000000">&lt;static&gt;ha_restarts</text>
<text text-anchor="start" x="467.7665" y="-423" font-family="Helvetica,sans-Serif" font-size="10.00" fill="#000000">&lt;static&gt;__client</text>
<text text-anchor="start" x="451.3735" y="-411" font-family="Helvetica,sans-Serif" font-size="10.00" fill="#000000">&lt;static&gt;__cb_MqttIsUp</text>
<polygon fill="none" stroke="#000000" points="441.5,-354 441.5,-398 563.5,-398 563.5,-354 441.5,-354"/>
<text text-anchor="start" x="464.436" y="-379" font-family="Helvetica,sans-Serif" font-size="10.00" fill="#000000">&lt;async&gt;publish()</text>
<text text-anchor="start" x="468.6045" y="-367" font-family="Helvetica,sans-Serif" font-size="10.00" fill="#000000">&lt;async&gt;close()</text>
</g>
<!-- A3 -->
<g id="node4" class="node">
<title>A3</title>
<polygon fill="none" stroke="#000000" points="387.5,-792 387.5,-824 617.5,-824 617.5,-792 387.5,-792"/>
<text text-anchor="start" x="489.7215" y="-805" font-family="Helvetica,sans-Serif" font-size="10.00" fill="#000000">Proxy</text>
<polygon fill="none" stroke="#000000" points="387.5,-676 387.5,-792 617.5,-792 617.5,-676 387.5,-676"/>
<text text-anchor="start" x="474.1545" y="-773" font-family="Helvetica,sans-Serif" font-size="10.00" fill="#000000">&lt;cls&gt;db_stat</text>
<text text-anchor="start" x="467.491" y="-761" font-family="Helvetica,sans-Serif" font-size="10.00" fill="#000000">&lt;cls&gt;entity_prfx</text>
<text text-anchor="start" x="458.326" y="-749" font-family="Helvetica,sans-Serif" font-size="10.00" fill="#000000">&lt;cls&gt;discovery_prfx</text>
<text text-anchor="start" x="457.762" y="-737" font-family="Helvetica,sans-Serif" font-size="10.00" fill="#000000">&lt;cls&gt;proxy_node_id</text>
<text text-anchor="start" x="453.873" y="-725" font-family="Helvetica,sans-Serif" font-size="10.00" fill="#000000">&lt;cls&gt;proxy_unique_id</text>
<text text-anchor="start" x="469.716" y="-713" font-family="Helvetica,sans-Serif" font-size="10.00" fill="#000000">&lt;cls&gt;mqtt:Mqtt</text>
<text text-anchor="start" x="471.9355" y="-689" font-family="Helvetica,sans-Serif" font-size="10.00" fill="#000000">__ha_restarts</text>
<polygon fill="none" stroke="#000000" points="387.5,-584 387.5,-676 617.5,-676 617.5,-584 387.5,-584"/>
<text text-anchor="start" x="478.6145" y="-657" font-family="Helvetica,sans-Serif" font-size="10.00" fill="#000000">class_init()</text>
<text text-anchor="start" x="473.334" y="-645" font-family="Helvetica,sans-Serif" font-size="10.00" fill="#000000">class_close()</text>
<text text-anchor="start" x="444.984" y="-621" font-family="Helvetica,sans-Serif" font-size="10.00" fill="#000000">&lt;async&gt;_cb_mqtt_is_up()</text>
<text text-anchor="start" x="397.197" y="-609" font-family="Helvetica,sans-Serif" font-size="10.00" fill="#000000">&lt;async&gt;_register_proxy_stat_home_assistant()</text>
<text text-anchor="start" x="406.084" y="-597" font-family="Helvetica,sans-Serif" font-size="10.00" fill="#000000">&lt;async&gt;_async_publ_mqtt_proxy_stat(key)</text>
</g>
<!-- A3&#45;&gt;A2 -->
<g id="edge9" class="edge">
<title>A3&#45;&gt;A2</title>
<path fill="none" stroke="#000000" d="M502.5,-571.373C502.5,-549.9571 502.5,-528.339 502.5,-508.5579"/>
<polygon fill="#000000" stroke="#000000" points="502.5001,-571.682 506.5,-577.6821 502.5,-583.682 498.5,-577.682 502.5001,-571.682"/>
<polygon fill="#000000" stroke="#000000" points="502.5,-498.392 507.0001,-508.3919 502.5,-503.392 502.5001,-508.392 502.5001,-508.392 502.5001,-508.392 502.5,-503.392 498.0001,-508.392 502.5,-498.392 502.5,-498.392"/>
</g>
<!-- A5 -->
<g id="node6" class="node">
<title>A5</title>
<polygon fill="none" stroke="#000000" points="205.5,-502 205.5,-534 396.5,-534 396.5,-502 205.5,-502"/>
<text text-anchor="start" x="272.66" y="-515" font-family="Helvetica,sans-Serif" font-size="10.00" fill="#000000">InverterBase</text>
<polygon fill="none" stroke="#000000" points="205.5,-386 205.5,-502 396.5,-502 396.5,-386 205.5,-386"/>
<text text-anchor="start" x="281.8335" y="-483" font-family="Helvetica,sans-Serif" font-size="10.00" fill="#000000">_registry</text>
<text text-anchor="start" x="270.4355" y="-471" font-family="Helvetica,sans-Serif" font-size="10.00" fill="#000000">__ha_restarts</text>
<text text-anchor="start" x="290.997" y="-447" font-family="Helvetica,sans-Serif" font-size="10.00" fill="#000000">addr</text>
<text text-anchor="start" x="274.0505" y="-435" font-family="Helvetica,sans-Serif" font-size="10.00" fill="#000000">config_id:str</text>
<text text-anchor="start" x="247.3785" y="-423" font-family="Helvetica,sans-Serif" font-size="10.00" fill="#000000">prot_class:MessageProt</text>
<text text-anchor="start" x="261.553" y="-411" font-family="Helvetica,sans-Serif" font-size="10.00" fill="#000000">remote:StreamPtr</text>
<text text-anchor="start" x="266.832" y="-399" font-family="Helvetica,sans-Serif" font-size="10.00" fill="#000000">local:StreamPtr</text>
<polygon fill="none" stroke="#000000" points="205.5,-318 205.5,-386 396.5,-386 396.5,-318 205.5,-318"/>
<text text-anchor="start" x="267.522" y="-367" font-family="Helvetica,sans-Serif" font-size="10.00" fill="#000000">healthy()&#45;&gt;bool</text>
<text text-anchor="start" x="215.2835" y="-355" font-family="Helvetica,sans-Serif" font-size="10.00" fill="#000000">&lt;async&gt;disc(shutdown_started=False)</text>
<text text-anchor="start" x="246.544" y="-343" font-family="Helvetica,sans-Serif" font-size="10.00" fill="#000000">&lt;async&gt;create_remote()</text>
<text text-anchor="start" x="240.984" y="-331" font-family="Helvetica,sans-Serif" font-size="10.00" fill="#000000">&lt;async&gt;async_publ_mqtt()</text>
</g>
<!-- A3&#45;&gt;A5 -->
<g id="edge7" class="edge">
<title>A3&#45;&gt;A5</title>
<path fill="none" stroke="#000000" d="M409.1791,-575.5683C399.1409,-561.7533 389.0008,-547.7982 379.1588,-534.2532"/>
<polygon fill="none" stroke="#000000" points="406.3649,-577.6495 415.0747,-583.682 412.0279,-573.5347 406.3649,-577.6495"/>
</g>
<!-- A4&#45;&gt;A5 -->
<g id="edge2" class="edge">
<title>A4&#45;&gt;A5</title>
<path fill="none" stroke="#000000" stroke-dasharray="5,2" d="M279.7719,-639.4228C282.8086,-608.1559 286.5373,-569.7639 289.991,-534.2034"/>
<polygon fill="none" stroke="#000000" points="276.2531,-639.4473 278.77,-649.7389 283.2203,-640.1241 276.2531,-639.4473"/>
</g>
<!-- A6 -->
<g id="node7" class="node">
<title>A6</title>
<polygon fill="none" stroke="#000000" points="356.5,-236 356.5,-268 456.5,-268 456.5,-236 356.5,-236"/>
<text text-anchor="start" x="383.9995" y="-249" font-family="Helvetica,sans-Serif" font-size="10.00" fill="#000000">StreamPtr</text>
<polygon fill="none" stroke="#000000" points="356.5,-216 356.5,-236 456.5,-236 456.5,-216 356.5,-216"/>
<polygon fill="none" stroke="#000000" points="356.5,-172 356.5,-216 456.5,-216 456.5,-172 356.5,-172"/>
<text text-anchor="start" x="366.2175" y="-197" font-family="Helvetica,sans-Serif" font-size="10.00" fill="#000000">stream:ProtocolIfc</text>
<text text-anchor="start" x="381.2185" y="-185" font-family="Helvetica,sans-Serif" font-size="10.00" fill="#000000">ifc:AsyncIfc</text>
</g>
<!-- A5&#45;&gt;A6 -->
<g id="edge8" class="edge">
<title>A5&#45;&gt;A6</title>
<path fill="none" stroke="#000000" d="M356.1387,-317.872C363.3786,-303.802 370.5526,-289.86 377.1187,-277.0995"/>
<polygon fill="#000000" stroke="#000000" points="381.7846,-268.0318 381.2105,-278.9826 379.4969,-272.4777 377.2091,-276.9237 377.2091,-276.9237 377.2091,-276.9237 379.4969,-272.4777 373.2078,-274.8647 381.7846,-268.0318 381.7846,-268.0318"/>
<text text-anchor="middle" x="381.0069" y="-285.0166" font-family="Helvetica,sans-Serif" font-size="10.00" fill="#000000">2</text>
</g>
<!-- A7 -->
<g id="node8" class="node">
<title>A7</title>
<polygon fill="none" stroke="#000000" points="338.2314,-238 262.7686,-238 262.7686,-202 338.2314,-202 338.2314,-238"/>
<text text-anchor="middle" x="300.5" y="-217" font-family="Helvetica,sans-Serif" font-size="10.00" fill="#000000">InverterG3</text>
</g>
<!-- A5&#45;&gt;A7 -->
<g id="edge5" class="edge">
<title>A5&#45;&gt;A7</title>
<path fill="none" stroke="#000000" d="M300.5,-307.7729C300.5,-280.5002 300.5,-254.684 300.5,-238.2013"/>
<polygon fill="none" stroke="#000000" points="297.0001,-307.872 300.5,-317.872 304.0001,-307.872 297.0001,-307.872"/>
</g>
<!-- A9 -->
<g id="node10" class="node">
<title>A9</title>
<polygon fill="none" stroke="#000000" points="94.4001,-238 12.5999,-238 12.5999,-202 94.4001,-202 94.4001,-238"/>
<text text-anchor="middle" x="53.5" y="-217" font-family="Helvetica,sans-Serif" font-size="10.00" fill="#000000">InverterG3P</text>
</g>
<!-- A5&#45;&gt;A9 -->
<g id="edge6" class="edge">
<title>A5&#45;&gt;A9</title>
<path fill="none" stroke="#000000" d="M196.7667,-346.4637C165.8973,-321.9347 132.3582,-294.4156 102.5,-268 91.7971,-258.5312 80.3616,-247.3925 71.232,-238.23"/>
<polygon fill="none" stroke="#000000" points="194.962,-349.4991 204.9739,-352.965 199.3086,-344.0121 194.962,-349.4991"/>
</g>
<!-- A11 -->
<g id="node12" class="node">
<title>A11</title>
<polygon fill="none" stroke="#000000" points="450.1421,-36 360.8579,-36 360.8579,0 450.1421,0 450.1421,-36"/>
<text text-anchor="middle" x="405.5" y="-15" font-family="Helvetica,sans-Serif" font-size="10.00" fill="#000000">&lt;&lt;AsyncIfc&gt;&gt;</text>
</g>
<!-- A6&#45;&gt;A11 -->
<g id="edge11" class="edge">
<title>A6&#45;&gt;A11</title>
<path fill="none" stroke="#000000" d="M392.6633,-171.974C386.9982,-146.4565 382.5868,-114.547 386.5,-86 388.3468,-72.5276 392.161,-57.9618 395.8907,-45.7804"/>
<polygon fill="#000000" stroke="#000000" points="398.9587,-36.1851 400.1994,-47.0805 397.4359,-40.9476 395.9131,-45.71 395.9131,-45.71 395.9131,-45.71 397.4359,-40.9476 391.6269,-44.3395 398.9587,-36.1851 398.9587,-36.1851"/>
<text text-anchor="middle" x="401.4892" y="-53.0243" font-family="Helvetica,sans-Serif" font-size="10.00" fill="#000000">1</text>
</g>
<!-- A12 -->
<g id="node13" class="node">
<title>A12</title>
<polygon fill="none" stroke="#000000" points="493.5879,-122 395.4121,-122 395.4121,-86 493.5879,-86 493.5879,-122"/>
<text text-anchor="middle" x="444.5" y="-101" font-family="Helvetica,sans-Serif" font-size="10.00" fill="#000000">&lt;&lt;ProtocolIfc&gt;&gt;</text>
</g>
<!-- A6&#45;&gt;A12 -->
<g id="edge10" class="edge">
<title>A6&#45;&gt;A12</title>
<path fill="none" stroke="#000000" d="M422.2853,-171.8133C426.7329,-158.2365 431.4225,-143.9208 435.3408,-131.9595"/>
<polygon fill="#000000" stroke="#000000" points="438.5602,-122.132 439.7235,-133.036 437.0036,-126.8835 435.4471,-131.6351 435.4471,-131.6351 435.4471,-131.6351 437.0036,-126.8835 431.1707,-130.2341 438.5602,-122.132 438.5602,-122.132"/>
<text text-anchor="middle" x="440.9498" y="-138.9887" font-family="Helvetica,sans-Serif" font-size="10.00" fill="#000000">1</text>
</g>
<!-- A8 -->
<g id="node9" class="node">
<title>A8</title>
<polygon fill="#fff8dc" stroke="#000000" points="574.906,-248 474.094,-248 474.094,-192 580.906,-192 580.906,-242 574.906,-248"/>
<polyline fill="none" stroke="#000000" points="574.906,-248 574.906,-242 "/>
<polyline fill="none" stroke="#000000" points="580.906,-242 574.906,-242 "/>
<text text-anchor="middle" x="527.5" y="-235" font-family="Helvetica,sans-Serif" font-size="10.00" fill="#000000">Creates an GEN3</text>
<text text-anchor="middle" x="527.5" y="-223" font-family="Helvetica,sans-Serif" font-size="10.00" fill="#000000">inverter instance</text>
<text text-anchor="middle" x="527.5" y="-211" font-family="Helvetica,sans-Serif" font-size="10.00" fill="#000000">with</text>
<text text-anchor="middle" x="527.5" y="-199" font-family="Helvetica,sans-Serif" font-size="10.00" fill="#000000">prot_class:Talent</text>
</g>
<!-- A7&#45;&gt;A8 -->
<g id="edge3" class="edge">
<title>A7&#45;&gt;A8</title>
<path fill="none" stroke="#000000" stroke-dasharray="5,2" d="M308.5491,-238.3283C317.4345,-256.0056 333.5793,-281.6949 356.5,-293 396.3598,-312.6598 415.5578,-310.2929 456.5,-293 478.1607,-283.8511 496.4784,-264.5049 509.0802,-248.0264"/>
</g>
<!-- A10 -->
<g id="node11" class="node">
<title>A10</title>
<polygon fill="#fff8dc" stroke="#000000" points="239.022,-248 111.978,-248 111.978,-192 245.022,-192 245.022,-242 239.022,-248"/>
<polyline fill="none" stroke="#000000" points="239.022,-248 239.022,-242 "/>
<polyline fill="none" stroke="#000000" points="245.022,-242 239.022,-242 "/>
<text text-anchor="middle" x="178.5" y="-235" font-family="Helvetica,sans-Serif" font-size="10.00" fill="#000000">Creates an GEN3PLUS</text>
<text text-anchor="middle" x="178.5" y="-223" font-family="Helvetica,sans-Serif" font-size="10.00" fill="#000000">inverter instance</text>
<text text-anchor="middle" x="178.5" y="-211" font-family="Helvetica,sans-Serif" font-size="10.00" fill="#000000">with</text>
<text text-anchor="middle" x="178.5" y="-199" font-family="Helvetica,sans-Serif" font-size="10.00" fill="#000000">prot_class:SolarmanV5</text>
</g>
<!-- A9&#45;&gt;A10 -->
<g id="edge4" class="edge">
<title>A9&#45;&gt;A10</title>
<path fill="none" stroke="#000000" stroke-dasharray="5,2" d="M94.5156,-220C100.3114,-220 106.1072,-220 111.903,-220"/>
</g>
<!-- A12&#45;&gt;A11 -->
<g id="edge12" class="edge">
<title>A12&#45;&gt;A11</title>
<path fill="none" stroke="#000000" stroke-dasharray="5,2" d="M436.2291,-85.7616C430.9033,-74.0176 423.8824,-58.5355 417.896,-45.3349"/>
<polygon fill="#000000" stroke="#000000" points="413.759,-36.2121 421.9874,-43.4608 415.824,-40.7657 417.8891,-45.3194 417.8891,-45.3194 417.8891,-45.3194 415.824,-40.7657 413.7908,-47.1779 413.759,-36.2121 413.759,-36.2121"/>
<text text-anchor="middle" x="421.0451" y="-69.7445" font-family="Helvetica,sans-Serif" font-size="10.00" fill="#000000">use</text>
</g>
<!-- A13 -->
<g id="node14" class="node">
<title>A13</title>
<polygon fill="none" stroke="#000000" points=".5,-454 .5,-486 107.5,-486 107.5,-454 .5,-454"/>
<text text-anchor="start" x="24.2695" y="-467" font-family="Helvetica,sans-Serif" font-size="10.00" fill="#000000">ModbusConn</text>
<polygon fill="none" stroke="#000000" points=".5,-386 .5,-454 107.5,-454 107.5,-386 .5,-386"/>
<text text-anchor="start" x="44.5515" y="-435" font-family="Helvetica,sans-Serif" font-size="10.00" fill="#000000">host</text>
<text text-anchor="start" x="45.387" y="-423" font-family="Helvetica,sans-Serif" font-size="10.00" fill="#000000">port</text>
<text text-anchor="start" x="43.997" y="-411" font-family="Helvetica,sans-Serif" font-size="10.00" fill="#000000">addr</text>
<text text-anchor="start" x="10.383" y="-399" font-family="Helvetica,sans-Serif" font-size="10.00" fill="#000000">stream:InverterG3P</text>
<polygon fill="none" stroke="#000000" points=".5,-366 .5,-386 107.5,-386 107.5,-366 .5,-366"/>
</g>
<!-- A13&#45;&gt;A9 -->
<g id="edge13" class="edge">
<title>A13&#45;&gt;A9</title>
<path fill="none" stroke="#000000" d="M53.5,-365.8625C53.5,-327.1513 53.5,-278.6088 53.5,-248.4442"/>
<polygon fill="#000000" stroke="#000000" points="53.5,-238.2147 58.0001,-248.2147 53.5,-243.2147 53.5001,-248.2147 53.5001,-248.2147 53.5001,-248.2147 53.5,-243.2147 49.0001,-248.2148 53.5,-238.2147 53.5,-238.2147"/>
<text text-anchor="middle" x="61.9524" y="-253.3409" font-family="Helvetica,sans-Serif" font-size="10.00" fill="#000000">1</text>
<text text-anchor="middle" x="45.0476" y="-344.7363" font-family="Helvetica,sans-Serif" font-size="10.00" fill="#000000">has</text>
</g>
<!-- A14 -->
<g id="node15" class="node">
<title>A14</title>
<polygon fill="none" stroke="#000000" points="93.7333,-722 13.2667,-722 13.2667,-686 93.7333,-686 93.7333,-722"/>
<text text-anchor="middle" x="53.5" y="-701" font-family="Helvetica,sans-Serif" font-size="10.00" fill="#000000">ModbusTcp</text>
</g>
<!-- A14&#45;&gt;A13 -->
<g id="edge14" class="edge">
<title>A14&#45;&gt;A13</title>
<path fill="none" stroke="#000000" d="M53.5,-685.7596C53.5,-647.9991 53.5,-559.5189 53.5,-496.3277"/>
<polygon fill="#000000" stroke="#000000" points="53.5,-486.0223 58.0001,-496.0223 53.5,-491.0223 53.5001,-496.0223 53.5001,-496.0223 53.5001,-496.0223 53.5,-491.0223 49.0001,-496.0224 53.5,-486.0223 53.5,-486.0223"/>
<text text-anchor="middle" x="61.9524" y="-501.1485" font-family="Helvetica,sans-Serif" font-size="10.00" fill="#000000">*</text>
<text text-anchor="middle" x="45.0476" y="-664.6335" font-family="Helvetica,sans-Serif" font-size="10.00" fill="#000000">creates</text>
</g>
</g>
</svg>
