<?xml version="1.0" encoding="UTF-8" standalone="no"?>
<!DOCTYPE svg PUBLIC "-//W3C//DTD SVG 1.1//EN"
 "http://www.w3.org/Graphics/SVG/1.1/DTD/svg11.dtd">
<!-- Generated by graphviz version 2.40.1 (20161225.0304)
 -->
<!-- Title: G Pages: 1 -->
<svg width="504pt" height="1048pt"
 viewBox="0.00 0.00 504.44 1048.00" xmlns="http://www.w3.org/2000/svg" xmlns:xlink="http://www.w3.org/1999/xlink">
<g id="graph0" class="graph" transform="scale(1 1) rotate(0) translate(4 1044)">
<title>G</title>
<polygon fill="#ffffff" stroke="transparent" points="-4,4 -4,-1044 500.4436,-1044 500.4436,4 -4,4"/>
<!-- A0 -->
<g id="node1" class="node">
<title>A0</title>
<polygon fill="#fff8dc" stroke="#000000" points="172.1964,-1016 63.8036,-1016 63.8036,-980 178.1964,-980 178.1964,-1010 172.1964,-1016"/>
<polyline fill="none" stroke="#000000" points="172.1964,-1016 172.1964,-1010 "/>
<polyline fill="none" stroke="#000000" points="178.1964,-1010 172.1964,-1010 "/>
<text text-anchor="middle" x="121" y="-1001" font-family="Helvetica,sans-Serif" font-size="10.00" fill="#000000">You can stick notes</text>
<text text-anchor="middle" x="121" y="-989" font-family="Helvetica,sans-Serif" font-size="10.00" fill="#000000">on diagrams too!</text>
</g>
<!-- A1 -->
<g id="node2" class="node">
<title>A1</title>
<polygon fill="none" stroke="#000000" points="197,-1008 197,-1040 268,-1040 268,-1008 197,-1008"/>
<text text-anchor="start" x="206.945" y="-1021" font-family="Helvetica,sans-Serif" font-size="10.00" fill="#000000">IterRegistry</text>
<polygon fill="none" stroke="#000000" points="197,-988 197,-1008 268,-1008 268,-988 197,-988"/>
<polygon fill="none" stroke="#000000" points="197,-956 197,-988 268,-988 268,-956 197,-956"/>
<text text-anchor="start" x="214.439" y="-969" font-family="Helvetica,sans-Serif" font-size="10.00" fill="#000000">__iter__</text>
</g>
<!-- A2 -->
<g id="node3" class="node">
<title>A2</title>
<polygon fill="none" stroke="#000000" points="165,-874 165,-906 299,-906 299,-874 165,-874"/>
<text text-anchor="start" x="211.7175" y="-887" font-family="Helvetica,sans-Serif" font-size="10.00" fill="#000000">Message</text>
<polygon fill="none" stroke="#000000" points="165,-710 165,-874 299,-874 299,-710 165,-710"/>
<text text-anchor="start" x="195.3265" y="-855" font-family="Helvetica,sans-Serif" font-size="10.00" fill="#000000">server_side:bool</text>
<text text-anchor="start" x="192.543" y="-843" font-family="Helvetica,sans-Serif" font-size="10.00" fill="#000000">header_valid:bool</text>
<text text-anchor="start" x="185.314" y="-831" font-family="Helvetica,sans-Serif" font-size="10.00" fill="#000000">header_len:unsigned</text>
<text text-anchor="start" x="191.148" y="-819" font-family="Helvetica,sans-Serif" font-size="10.00" fill="#000000">data_len:unsigned</text>
<text text-anchor="start" x="210.3245" y="-807" font-family="Helvetica,sans-Serif" font-size="10.00" fill="#000000">unique_id</text>
<text text-anchor="start" x="214.2135" y="-795" font-family="Helvetica,sans-Serif" font-size="10.00" fill="#000000">node_id</text>
<text text-anchor="start" x="211.1585" y="-783" font-family="Helvetica,sans-Serif" font-size="10.00" fill="#000000">sug_area</text>
<text text-anchor="start" x="181.989" y="-771" font-family="Helvetica,sans-Serif" font-size="10.00" fill="#000000">_recv_buffer:bytearray</text>
<text text-anchor="start" x="180.5945" y="-759" font-family="Helvetica,sans-Serif" font-size="10.00" fill="#000000">_send_buffer:bytearray</text>
<text text-anchor="start" x="174.7665" y="-747" font-family="Helvetica,sans-Serif" font-size="10.00" fill="#000000">_forward_buffer:bytearray</text>
<text text-anchor="start" x="214.2135" y="-735" font-family="Helvetica,sans-Serif" font-size="10.00" fill="#000000">db:Infos</text>
<text text-anchor="start" x="202.826" y="-723" font-family="Helvetica,sans-Serif" font-size="10.00" fill="#000000">new_data:list</text>
<polygon fill="none" stroke="#000000" points="165,-642 165,-710 299,-710 299,-642 165,-642"/>
<text text-anchor="start" x="181.7095" y="-691" font-family="Helvetica,sans-Serif" font-size="10.00" fill="#000000">_read():void&lt;abstract&gt;</text>
<text text-anchor="start" x="206.4445" y="-679" font-family="Helvetica,sans-Serif" font-size="10.00" fill="#000000">close():void</text>
<text text-anchor="start" x="192.2725" y="-667" font-family="Helvetica,sans-Serif" font-size="10.00" fill="#000000">inc_counter():void</text>
<text text-anchor="start" x="190.6025" y="-655" font-family="Helvetica,sans-Serif" font-size="10.00" fill="#000000">dec_counter():void</text>
</g>
<!-- A1&#45;&gt;A2 -->
<g id="edge1" class="edge">
<title>A1&#45;&gt;A2</title>
<path fill="none" stroke="#000000" d="M232,-945.5789C232,-933.4616 232,-920.0319 232,-906.1761"/>
<polygon fill="none" stroke="#000000" points="228.5001,-945.8673 232,-955.8673 235.5001,-945.8673 228.5001,-945.8673"/>
</g>
<!-- A3 -->
<g id="node4" class="node">
<title>A3</title>
<polygon fill="none" stroke="#000000" points="48,-554 48,-586 162,-586 162,-554 48,-554"/>
<text text-anchor="start" x="91.108" y="-567" font-family="Helvetica,sans-Serif" font-size="10.00" fill="#000000">Talent</text>
<polygon fill="none" stroke="#000000" points="48,-474 48,-554 162,-554 162,-474 48,-474"/>
<text text-anchor="start" x="57.763" y="-535" font-family="Helvetica,sans-Serif" font-size="10.00" fill="#000000">await_conn_resp_cnt</text>
<text text-anchor="start" x="92.7775" y="-523" font-family="Helvetica,sans-Serif" font-size="10.00" fill="#000000">id_str</text>
<text text-anchor="start" x="73.6" y="-511" font-family="Helvetica,sans-Serif" font-size="10.00" fill="#000000">contact_name</text>
<text text-anchor="start" x="76.94" y="-499" font-family="Helvetica,sans-Serif" font-size="10.00" fill="#000000">contact_mail</text>
<text text-anchor="start" x="91.112" y="-487" font-family="Helvetica,sans-Serif" font-size="10.00" fill="#000000">switch</text>
<polygon fill="none" stroke="#000000" points="48,-358 48,-474 162,-474 162,-358 48,-358"/>
<text text-anchor="start" x="62.4925" y="-455" font-family="Helvetica,sans-Serif" font-size="10.00" fill="#000000">msg_contact_info()</text>
<text text-anchor="start" x="64.4325" y="-443" font-family="Helvetica,sans-Serif" font-size="10.00" fill="#000000">msg_ota_update()</text>
<text text-anchor="start" x="70.2765" y="-431" font-family="Helvetica,sans-Serif" font-size="10.00" fill="#000000">msg_get_time()</text>
<text text-anchor="start" x="58.3285" y="-419" font-family="Helvetica,sans-Serif" font-size="10.00" fill="#000000">msg_collector_data()</text>
<text text-anchor="start" x="60.2735" y="-407" font-family="Helvetica,sans-Serif" font-size="10.00" fill="#000000">msg_inverter_data()</text>
<text text-anchor="start" x="69.4405" y="-395" font-family="Helvetica,sans-Serif" font-size="10.00" fill="#000000">msg_unknown()</text>
<text text-anchor="start" x="90.0025" y="-371" font-family="Helvetica,sans-Serif" font-size="10.00" fill="#000000">close()</text>
</g>
<!-- A2&#45;&gt;A3 -->
<g id="edge2" class="edge">
<title>A2&#45;&gt;A3</title>
<path fill="none" stroke="#000000" d="M172.442,-632.3739C165.9402,-616.913 159.3831,-601.3205 153.0447,-586.2481"/>
<polygon fill="none" stroke="#000000" points="169.3778,-634.1164 176.4807,-641.9777 175.8305,-631.4029 169.3778,-634.1164"/>
</g>
<!-- A4 -->
<g id="node5" class="node">
<title>A4</title>
<polygon fill="none" stroke="#000000" points="337,-518 337,-550 428,-550 428,-518 337,-518"/>
<text text-anchor="start" x="354.995" y="-531" font-family="Helvetica,sans-Serif" font-size="10.00" fill="#000000">SolarmanV5</text>
<polygon fill="none" stroke="#000000" points="337,-450 337,-518 428,-518 428,-450 337,-450"/>
<text text-anchor="start" x="367.498" y="-499" font-family="Helvetica,sans-Serif" font-size="10.00" fill="#000000">control</text>
<text text-anchor="start" x="370.5575" y="-487" font-family="Helvetica,sans-Serif" font-size="10.00" fill="#000000">serial</text>
<text text-anchor="start" x="375.556" y="-475" font-family="Helvetica,sans-Serif" font-size="10.00" fill="#000000">snr</text>
<text text-anchor="start" x="368.612" y="-463" font-family="Helvetica,sans-Serif" font-size="10.00" fill="#000000">switch</text>
<polygon fill="none" stroke="#000000" points="337,-394 337,-450 428,-450 428,-394 337,-394"/>
<text text-anchor="start" x="346.9405" y="-431" font-family="Helvetica,sans-Serif" font-size="10.00" fill="#000000">msg_unknown()</text>
<text text-anchor="start" x="367.5025" y="-407" font-family="Helvetica,sans-Serif" font-size="10.00" fill="#000000">close()</text>
</g>
<!-- A2&#45;&gt;A4 -->
<g id="edge3" class="edge">
<title>A2&#45;&gt;A4</title>
<path fill="none" stroke="#000000" d="M302.137,-632.7909C316.2237,-604.4297 330.5401,-575.6059 343.0873,-550.3442"/>
<polygon fill="none" stroke="#000000" points="298.8878,-631.4647 297.574,-641.9777 305.1571,-634.5786 298.8878,-631.4647"/>
</g>
<!-- A5 -->
<g id="node6" class="node">
<title>A5</title>
<polygon fill="none" stroke="#000000" points="0,-246 0,-278 150,-278 150,-246 0,-246"/>
<text text-anchor="start" x="43.0455" y="-259" font-family="Helvetica,sans-Serif" font-size="10.00" fill="#000000">ConnectionG3</text>
<polygon fill="none" stroke="#000000" points="0,-214 0,-246 150,-246 150,-214 0,-214"/>
<text text-anchor="start" x="9.987" y="-227" font-family="Helvetica,sans-Serif" font-size="10.00" fill="#000000">remoteStream:ConnectionG3</text>
<polygon fill="none" stroke="#000000" points="0,-182 0,-214 150,-214 150,-182 0,-182"/>
<text text-anchor="start" x="60.0025" y="-195" font-family="Helvetica,sans-Serif" font-size="10.00" fill="#000000">close()</text>
</g>
<!-- A3&#45;&gt;A5 -->
<g id="edge4" class="edge">
<title>A3&#45;&gt;A5</title>
<path fill="none" stroke="#000000" d="M89.5712,-347.5407C86.5146,-322.8843 83.4818,-298.4196 80.9809,-278.2462"/>
<polygon fill="none" stroke="#000000" points="86.1308,-348.2388 90.8346,-357.7323 93.0777,-347.3776 86.1308,-348.2388"/>
</g>
<!-- A6 -->
<g id="node7" class="node">
<title>A6</title>
<polygon fill="none" stroke="#000000" points="312,-246 312,-278 468,-278 468,-246 312,-246"/>
<text text-anchor="start" x="354.711" y="-259" font-family="Helvetica,sans-Serif" font-size="10.00" fill="#000000">ConnectionG3P</text>
<polygon fill="none" stroke="#000000" points="312,-214 312,-246 468,-246 468,-214 312,-214"/>
<text text-anchor="start" x="321.6525" y="-227" font-family="Helvetica,sans-Serif" font-size="10.00" fill="#000000">remoteStream:ConnectionG3P</text>
<polygon fill="none" stroke="#000000" points="312,-182 312,-214 468,-214 468,-182 312,-182"/>
<text text-anchor="start" x="375.0025" y="-195" font-family="Helvetica,sans-Serif" font-size="10.00" fill="#000000">close()</text>
</g>
<!-- A4&#45;&gt;A6 -->
<g id="edge5" class="edge">
<title>A4&#45;&gt;A6</title>
<path fill="none" stroke="#000000" d="M384.9307,-383.3467C386.1082,-347.7276 387.4191,-308.0725 388.4128,-278.0125"/>
<polygon fill="none" stroke="#000000" points="381.4187,-383.6535 384.5863,-393.7637 388.4149,-383.8849 381.4187,-383.6535"/>
</g>
<!-- A5&#45;&gt;A5 -->
<g id="edge11" class="edge">
<title>A5&#45;&gt;A5</title>
<path fill="none" stroke="#000000" d="M150.1684,-259.6142C160.8394,-254.8245 168,-244.9531 168,-230 168,-219.4861 164.4599,-211.4845 158.6486,-205.9952"/>
<polygon fill="#000000" stroke="#000000" points="150.1684,-200.3858 160.9915,-202.1496 154.3386,-203.1443 158.5088,-205.9028 158.5088,-205.9028 158.5088,-205.9028 154.3386,-203.1443 156.0262,-209.656 150.1684,-200.3858 150.1684,-200.3858"/>
<text text-anchor="middle" x="169.9496" y="-200.3363" font-family="Helvetica,sans-Serif" font-size="10.00" fill="#000000">0..1</text>
<text text-anchor="middle" x="162.4261" y="-240.8108" font-family="Helvetica,sans-Serif" font-size="10.00" fill="#000000">has</text>
</g>
<!-- A9 -->
<g id="node10" class="node">
<title>A9</title>
<polygon fill="none" stroke="#000000" points="102,-76 102,-108 224,-108 224,-76 102,-76"/>
<text text-anchor="start" x="139.3845" y="-89" font-family="Helvetica,sans-Serif" font-size="10.00" fill="#000000">InverterG3</text>
<polygon fill="none" stroke="#000000" points="102,-56 102,-76 224,-76 224,-56 102,-56"/>
<polygon fill="none" stroke="#000000" points="102,0 102,-56 224,-56 224,0 102,0"/>
<text text-anchor="start" x="111.6035" y="-37" font-family="Helvetica,sans-Serif" font-size="10.00" fill="#000000">async_create_remote()</text>
<text text-anchor="start" x="148.0025" y="-13" font-family="Helvetica,sans-Serif" font-size="10.00" fill="#000000">close()</text>
</g>
<!-- A5&#45;&gt;A9 -->
<g id="edge10" class="edge">
<title>A5&#45;&gt;A9</title>
<path fill="none" stroke="#000000" d="M103.5587,-172.8825C113.9372,-152.1255 125.6284,-128.7431 135.879,-108.2419"/>
<polygon fill="none" stroke="#000000" points="100.3881,-171.3977 99.0464,-181.9072 106.6491,-174.5282 100.3881,-171.3977"/>
</g>
<!-- A6&#45;&gt;A6 -->
<g id="edge13" class="edge">
<title>A6&#45;&gt;A6</title>
<path fill="none" stroke="#000000" d="M468.3471,-259.2758C478.9443,-254.368 486,-244.6094 486,-230 486,-219.7278 482.5118,-211.8537 476.7569,-206.3778"/>
<polygon fill="#000000" stroke="#000000" points="468.3471,-200.7242 479.1567,-202.5688 472.4966,-203.5138 476.6461,-206.3033 476.6461,-206.3033 476.6461,-206.3033 472.4966,-203.5138 474.1355,-210.0379 468.3471,-200.7242 468.3471,-200.7242"/>
<text text-anchor="middle" x="488.1056" y="-200.8223" font-family="Helvetica,sans-Serif" font-size="10.00" fill="#000000">0..1</text>
<text text-anchor="middle" x="480.4409" y="-240.3466" font-family="Helvetica,sans-Serif" font-size="10.00" fill="#000000">has</text>
</g>
<!-- A10 -->
<g id="node11" class="node">
<title>A10</title>
<polygon fill="none" stroke="#000000" points="254,-76 254,-108 376,-108 376,-76 254,-76"/>
<text text-anchor="start" x="288.05" y="-89" font-family="Helvetica,sans-Serif" font-size="10.00" fill="#000000">InverterG3P</text>
<polygon fill="none" stroke="#000000" points="254,-56 254,-76 376,-76 376,-56 254,-56"/>
<polygon fill="none" stroke="#000000" points="254,0 254,-56 376,-56 376,0 254,0"/>
<text text-anchor="start" x="263.6035" y="-37" font-family="Helvetica,sans-Serif" font-size="10.00" fill="#000000">async_create_remote()</text>
<text text-anchor="start" x="300.0025" y="-13" font-family="Helvetica,sans-Serif" font-size="10.00" fill="#000000">close()</text>
</g>
<!-- A6&#45;&gt;A10 -->
<g id="edge12" class="edge">
<title>A6&#45;&gt;A10</title>
<path fill="none" stroke="#000000" d="M365.5411,-172.6031C356.7255,-151.9159 346.8116,-128.6512 338.1144,-108.2419"/>
<polygon fill="none" stroke="#000000" points="362.3658,-174.0798 369.5059,-181.9072 368.8054,-171.3356 362.3658,-174.0798"/>
</g>
<!-- A7 -->
<g id="node8" class="node">
<title>A7</title>
<polygon fill="none" stroke="#000000" points="195,-560 195,-592 311,-592 311,-560 195,-560"/>
<text text-anchor="start" x="223.274" y="-573" font-family="Helvetica,sans-Serif" font-size="10.00" fill="#000000">AsyncStream</text>
<polygon fill="none" stroke="#000000" points="195,-480 195,-560 311,-560 311,-480 195,-480"/>
<text text-anchor="start" x="238.553" y="-541" font-family="Helvetica,sans-Serif" font-size="10.00" fill="#000000">reader</text>
<text text-anchor="start" x="240.783" y="-529" font-family="Helvetica,sans-Serif" font-size="10.00" fill="#000000">writer</text>
<text text-anchor="start" x="242.997" y="-517" font-family="Helvetica,sans-Serif" font-size="10.00" fill="#000000">addr</text>
<text text-anchor="start" x="238.553" y="-505" font-family="Helvetica,sans-Serif" font-size="10.00" fill="#000000">r_addr</text>
<text text-anchor="start" x="239.108" y="-493" font-family="Helvetica,sans-Serif" font-size="10.00" fill="#000000">l_addr</text>
<polygon fill="none" stroke="#000000" points="195,-352 195,-480 311,-480 311,-352 195,-352"/>
<text text-anchor="start" x="204.6575" y="-461" font-family="Helvetica,sans-Serif" font-size="10.00" fill="#000000">&lt;async&gt;server_loop()</text>
<text text-anchor="start" x="206.878" y="-449" font-family="Helvetica,sans-Serif" font-size="10.00" fill="#000000">&lt;async&gt;client_loop()</text>
<text text-anchor="start" x="224.654" y="-437" font-family="Helvetica,sans-Serif" font-size="10.00" fill="#000000">&lt;async&gt;loop</text>
<text text-anchor="start" x="240.782" y="-425" font-family="Helvetica,sans-Serif" font-size="10.00" fill="#000000">disc()</text>
<text text-anchor="start" x="238.0025" y="-413" font-family="Helvetica,sans-Serif" font-size="10.00" fill="#000000">close()</text>
<text text-anchor="start" x="218.2705" y="-389" font-family="Helvetica,sans-Serif" font-size="10.00" fill="#000000">__async_read()</text>
<text text-anchor="start" x="217.721" y="-377" font-family="Helvetica,sans-Serif" font-size="10.00" fill="#000000">__async_write()</text>
<text text-anchor="start" x="211.607" y="-365" font-family="Helvetica,sans-Serif" font-size="10.00" fill="#000000">__async_forward()</text>
</g>
<!-- A7&#45;&gt;A5 -->
<g id="edge6" class="edge">
<title>A7&#45;&gt;A5</title>
<path fill="none" stroke="#000000" d="M189.0359,-377.1141C183.013,-368.5697 176.9393,-360.0935 171,-352 152.8224,-327.2291 131.7971,-300.3268 114.065,-278.1036"/>
<polygon fill="none" stroke="#000000" points="186.1813,-379.1394 194.7889,-385.3168 191.9123,-375.1199 186.1813,-379.1394"/>
</g>
<!-- A7&#45;&gt;A6 -->
<g id="edge7" class="edge">
<title>A7&#45;&gt;A6</title>
<path fill="none" stroke="#000000" d="M316.1676,-360.4193C332.5512,-331.4789 349.3441,-301.8156 362.7668,-278.1053"/>
<polygon fill="none" stroke="#000000" points="312.9811,-358.9436 311.1003,-369.3702 319.0727,-362.3922 312.9811,-358.9436"/>
</g>
<!-- A8 -->
<g id="node9" class="node">
<title>A8</title>
<polygon fill="none" stroke="#000000" points="186,-270 186,-302 294,-302 294,-270 186,-270"/>
<text text-anchor="start" x="223.0535" y="-283" font-family="Helvetica,sans-Serif" font-size="10.00" fill="#000000">Inverter</text>
<polygon fill="none" stroke="#000000" points="186,-178 186,-270 294,-270 294,-178 186,-178"/>
<text text-anchor="start" x="216.104" y="-251" font-family="Helvetica,sans-Serif" font-size="10.00" fill="#000000">cls.db_stat</text>
<text text-anchor="start" x="209.4405" y="-239" font-family="Helvetica,sans-Serif" font-size="10.00" fill="#000000">cls.entity_prfx</text>
<text text-anchor="start" x="200.2755" y="-227" font-family="Helvetica,sans-Serif" font-size="10.00" fill="#000000">cls.discovery_prfx</text>
<text text-anchor="start" x="199.7115" y="-215" font-family="Helvetica,sans-Serif" font-size="10.00" fill="#000000">cls.proxy_node_id</text>
<text text-anchor="start" x="195.8225" y="-203" font-family="Helvetica,sans-Serif" font-size="10.00" fill="#000000">cls.proxy_unique_id</text>
<text text-anchor="start" x="222.778" y="-191" font-family="Helvetica,sans-Serif" font-size="10.00" fill="#000000">cls.mqtt</text>
<polygon fill="none" stroke="#000000" points="186,-158 186,-178 294,-178 294,-158 186,-158"/>
</g>
<!-- A8&#45;&gt;A9 -->
<g id="edge8" class="edge">
<title>A8&#45;&gt;A9</title>
<path fill="none" stroke="#000000" d="M204.3417,-148.4953C198.3629,-134.8296 192.2923,-120.9538 186.7107,-108.1959"/>
<polygon fill="none" stroke="#000000" points="201.2442,-150.1475 208.459,-157.9062 207.6573,-147.3418 201.2442,-150.1475"/>
</g>
<!-- A8&#45;&gt;A10 -->
<g id="edge9" class="edge">
<title>A8&#45;&gt;A10</title>
<path fill="none" stroke="#000000" d="M274.7321,-148.4953C280.5556,-134.8296 286.4685,-120.9538 291.9051,-108.1959"/>
<polygon fill="none" stroke="#000000" points="271.4222,-147.3346 270.7218,-157.9062 277.8619,-150.0788 271.4222,-147.3346"/>
</g>
</g>
</svg>
